<svg width="110" height="110" viewBox="0 0 110 110" fill="none" xmlns="http://www.w3.org/2000/svg">
<path fill-rule="evenodd" clip-rule="evenodd" d="M33.2063 9.16699H76.7937C82.1052 9.16699 84.7609 9.16699 86.9028 9.91227C90.9644 11.3255 94.1532 14.6083 95.5261 18.7895C96.25 20.9945 96.25 23.7285 96.25 29.1964V93.3821C96.25 97.3156 91.7354 99.4027 88.8796 96.7894C87.2017 95.254 84.6733 95.254 82.9954 96.7894L80.7813 98.8155C77.8406 101.506 73.4094 101.506 70.4688 98.8155C67.5281 96.1246 63.0969 96.1246 60.1563 98.8155C57.2156 101.506 52.7844 101.506 49.8438 98.8155C46.9031 96.1246 42.4719 96.1246 39.5313 98.8155C36.5906 101.506 32.1594 101.506 29.2188 98.8155L27.0046 96.7894C25.3267 95.254 22.7983 95.254 21.1204 96.7894C18.2646 99.4027 13.75 97.3156 13.75 93.3821V29.1964C13.75 23.7285 13.75 20.9945 14.474 18.7895C15.8468 14.6083 19.0356 11.3255 23.0972 9.91227C25.2391 9.16699 27.8948 9.16699 33.2063 9.16699ZM32.0833 30.9378C30.1849 30.9378 28.6458 32.4768 28.6458 34.3753C28.6458 36.2738 30.1849 37.8128 32.0833 37.8128H34.375C36.2735 37.8128 37.8125 36.2738 37.8125 34.3753C37.8125 32.4768 36.2735 30.9378 34.375 30.9378H32.0833ZM48.125 30.9378C46.2265 30.9378 44.6875 32.4768 44.6875 34.3753C44.6875 36.2738 46.2265 37.8128 48.125 37.8128H77.9167C79.8151 37.8128 81.3542 36.2738 81.3542 34.3753C81.3542 32.4768 79.8151 30.9378 77.9167 30.9378H48.125ZM32.0833 46.9795C30.1849 46.9795 28.6458 48.5185 28.6458 50.417C28.6458 52.3155 30.1849 53.8545 32.0833 53.8545H34.375C36.2735 53.8545 37.8125 52.3155 37.8125 50.417C37.8125 48.5185 36.2735 46.9795 34.375 46.9795H32.0833ZM48.125 46.9795C46.2265 46.9795 44.6875 48.5185 44.6875 50.417C44.6875 52.3155 46.2265 53.8545 48.125 53.8545H77.9167C79.8151 53.8545 81.3542 52.3155 81.3542 50.417C81.3542 48.5185 79.8151 46.9795 77.9167 46.9795H48.125ZM32.0833 63.0212C30.1849 63.0212 28.6458 64.5602 28.6458 66.4587C28.6458 68.3571 30.1849 69.8962 32.0833 69.8962H34.375C36.2735 69.8962 37.8125 68.3571 37.8125 66.4587C37.8125 64.5602 36.2735 63.0212 34.375 63.0212H32.0833ZM48.125 63.0212C46.2265 63.0212 44.6875 64.5602 44.6875 66.4587C44.6875 68.3571 46.2265 69.8962 48.125 69.8962H77.9167C79.8151 69.8962 81.3542 68.3571 81.3542 66.4587C81.3542 64.5602 79.8151 63.0212 77.9167 63.0212H48.125Z" fill="#DBA77B"/>
</svg>
