<svg width="24" height="24" viewBox="0 0 24 24" fill="none" xmlns="http://www.w3.org/2000/svg">
<path fill-rule="evenodd" clip-rule="evenodd" d="M4 4.99902V18.999C4 20.6559 5.34315 21.999 7 21.999H17C18.6569 21.999 20 20.6559 20 18.999V8.99902C20 7.34217 18.6569 5.99902 17 5.99902H5C4.44772 5.99902 4 5.55131 4 4.99902ZM7.25 11.999C7.25 11.5848 7.58579 11.249 8 11.249H16C16.4142 11.249 16.75 11.5848 16.75 11.999C16.75 12.4132 16.4142 12.749 16 12.749H8C7.58579 12.749 7.25 12.4132 7.25 11.999ZM7.25 15.499C7.25 15.0848 7.58579 14.749 8 14.749H13.5C13.9142 14.749 14.25 15.0848 14.25 15.499C14.25 15.9132 13.9142 16.249 13.5 16.249H8C7.58579 16.249 7.25 15.9132 7.25 15.499Z" fill="#DBA77B"/>
<path d="M4.40879 4.08612C4.75727 4.24241 5 4.59237 5 4.99902H17C17.3453 4.99902 17.6804 5.04278 18 5.12504V4.30506C18 3.08796 16.922 2.15304 15.7172 2.32516L4.91959 3.86767C4.72712 3.89517 4.55271 3.97276 4.40879 4.08612Z" fill="#DBA77B"/>
</svg>
