<svg xmlns="http://www.w3.org/2000/svg" width="24" height="28" fill="none"><path fill="#717171" d="M17.276 18.548c-.45-.027-1.532.037-2.616.243-.626-.634-1.169-1.433-1.572-2.092 1.29-3.71.474-4.764-.626-4.764-.864 0-1.295.912-1.199 1.919.049.507.478 1.572 1.006 2.583-.324.853-.902 2.294-1.477 3.336-.672.205-1.248.431-1.662.623-2.06.958-2.226 2.238-1.798 2.78.815 1.03 2.55.142 4.29-2.971 1.192-.34 2.76-.79 2.901-.79.016 0 .039.004.065.013.868.766 1.894 1.643 2.739 1.758 1.222.168 1.917-.718 1.87-1.269-.049-.551-.37-1.276-1.921-1.369ZM9.56 21.906c-.503.599-1.318 1.174-1.605.982-.288-.191-.336-.742.311-1.366.647-.622 1.73-.946 1.893-1.006.192-.072.24 0 .24.096s-.335.695-.839 1.294Zm2.206-8.053c-.048-.6.07-1.174.575-1.246.502-.072.743.503.551 1.437-.192.936-.288 1.558-.384 1.631-.096.072-.191-.168-.191-.168-.192-.384-.504-1.055-.551-1.654Zm.192 5.632c.263-.432.934-2.18.934-2.18.144.264 1.27 1.605 1.27 1.605s-1.726.384-2.204.575Zm5.223.767c-.719-.095-1.94-.96-1.94-.96-.168-.07 1.338-.276 1.917-.239.743.049 1.007.36 1.007.672 0 .311-.264.622-.984.526Z"/><path fill="#717171" d="M23.361 5.768 18.092.498 17.593 0H6.142a4.607 4.607 0 0 0-4.6 4.602v.352H.86v5.504h.681V22.83a4.607 4.607 0 0 0 4.601 4.602h13.116a4.607 4.607 0 0 0 4.602-4.602V6.267l-.499-.499Zm-4.103 19.959H6.142a2.897 2.897 0 0 1-2.898-2.898V10.46h8.428V4.953H3.244v-.352a2.898 2.898 0 0 1 2.898-2.898H16.48v3.262a2.415 2.415 0 0 0 2.416 2.414h3.262v15.45c0 1.6-1.298 2.897-2.899 2.897ZM3.364 8.898V6.351c0-.045.036-.082.082-.082h.809a1 1 0 0 1 .366.065.87.87 0 0 1 .284.178c.08.076.142.168.184.274a.9.9 0 0 1 .063.337.889.889 0 0 1-.063.34.786.786 0 0 1-.183.27.834.834 0 0 1-.286.179 1.02 1.02 0 0 1-.365.063h-.342v.923a.082.082 0 0 1-.081.082h-.386a.082.082 0 0 1-.082-.082Zm2.496 0V6.351c0-.045.037-.082.082-.082h.894c.17 0 .32.028.446.084a.92.92 0 0 1 .34.268c.051.064.091.134.12.21.029.074.05.153.064.236.014.082.021.17.024.266a11.05 11.05 0 0 1 0 .583c-.003.095-.01.184-.024.266a1.225 1.225 0 0 1-.064.236.792.792 0 0 1-.12.21.911.911 0 0 1-.34.268 1.094 1.094 0 0 1-.446.084h-.894a.082.082 0 0 1-.082-.082Zm4.264-1.505c.045 0 .082.036.082.081v.347a.082.082 0 0 1-.082.082h-.977v.995a.082.082 0 0 1-.082.082h-.386a.082.082 0 0 1-.082-.082V6.351c0-.045.037-.082.082-.082h1.481c.045 0 .082.037.082.082v.347a.082.082 0 0 1-.082.081H9.147v.614h.977Z"/><path fill="#717171" d="M4.506 7.378c.065-.059.096-.142.096-.255 0-.112-.031-.195-.096-.254a.391.391 0 0 0-.273-.09h-.32v.688h.32a.39.39 0 0 0 .273-.09ZM7.01 8.437a.395.395 0 0 0 .159-.112.432.432 0 0 0 .095-.242 4.1 4.1 0 0 0 .02-.459 4.09 4.09 0 0 0-.02-.459.432.432 0 0 0-.095-.241.398.398 0 0 0-.159-.112.603.603 0 0 0-.217-.037H6.41v1.698h.383c.08 0 .154-.012.217-.036Z"/></svg>