<svg width="51" height="51" viewBox="0 0 51 51" fill="none" xmlns="http://www.w3.org/2000/svg">
<path d="M43.35 0H7.65C3.42502 0 0 3.42502 0 7.65V43.35C0 47.575 3.42502 51 7.65 51H43.35C47.575 51 51 47.575 51 43.35V7.65C51 3.42502 47.575 0 43.35 0Z" fill="white"/>
<path d="M15.7383 38.9473V24.8027L7.57031 18.5273V35.959C7.57031 37.9512 8.56641 38.9473 10.5586 38.9473" fill="#4285F4"/>
<path d="M15.3398 24.7031L25.5 32.373L35.6602 24.7031V14.9414L25.5 22.6113L15.3398 14.9414" fill="#EA4335"/>
<path d="M35.2617 38.9473V24.8027L43.4297 18.5273V35.959C43.4297 37.9512 42.4336 38.9473 40.4414 38.9473" fill="#34A853"/>
<path d="M7.57031 18.7266L15.7383 25.002V15.2403L12.75 12.9492C10.0605 10.8575 7.57031 12.9492 7.57031 15.5391" fill="#C5221F"/>
<path d="M43.4297 18.7266L35.2617 25.002V15.2403L38.25 12.9492C40.9395 10.8575 43.4297 12.9492 43.4297 15.5391" fill="#FBBC04"/>
</svg>
