<svg width="19" height="20" viewBox="0 0 19 20" fill="none" xmlns="http://www.w3.org/2000/svg">
<g clip-path="url(#clip0_1811_3264)">
<path d="M2.37467 2.875H16.6247C16.8346 2.875 17.036 2.95841 17.1845 3.10687C17.3329 3.25534 17.4163 3.4567 17.4163 3.66667V16.3333C17.4163 16.5433 17.3329 16.7447 17.1845 16.8931C17.036 17.0416 16.8346 17.125 16.6247 17.125H2.37467C2.16471 17.125 1.96335 17.0416 1.81488 16.8931C1.66642 16.7447 1.58301 16.5433 1.58301 16.3333V3.66667C1.58301 3.4567 1.66642 3.25534 1.81488 3.10687C1.96335 2.95841 2.16471 2.875 2.37467 2.875ZM9.54717 9.74904L4.47101 5.43842L3.4458 6.64492L9.55747 11.8343L15.5591 6.64096L14.5236 5.44317L9.54797 9.74904H9.54717Z" fill="#DBA77B"/>
</g>
<defs>
<clipPath id="clip0_1811_3264">
<rect width="19" height="19" fill="white" transform="translate(0 0.5)"/>
</clipPath>
</defs>
</svg>
