<svg width="18" height="18" viewBox="0 0 18 18" fill="none" xmlns="http://www.w3.org/2000/svg">
<g id="currency-dollar-circle_svgrepo.com">
<path id="Vector" d="M6.2 10.5C6.2 11.4665 7.03574 12.25 8.06664 12.25H9.8C10.9046 12.25 11.8 11.4105 11.8 10.375C11.8 9.33948 10.9046 8.5 9.8 8.5H8.2C7.09543 8.5 6.2 7.66052 6.2 6.625C6.2 5.58947 7.09543 4.75 8.2 4.75H9.93336C10.9642 4.75 11.8 5.5335 11.8 6.5M9 3.625V4.75M9 12.25V13.375M17 8.5C17 12.6421 13.4182 16 9 16C4.58172 16 1 12.6421 1 8.5C1 4.35786 4.58172 1 9 1C13.4182 1 17 4.35786 17 8.5Z" stroke="#DBA77B" stroke-width="1.3" stroke-linecap="round" stroke-linejoin="round"/>
</g>
</svg>
