<svg xmlns="http://www.w3.org/2000/svg" width="89" height="34" fill="none"><g clip-path="url(#a)"><mask id="b" width="89" height="34" x="0" y="0" maskUnits="userSpaceOnUse" style="mask-type:luminance"><path fill="#fff" d="M88.408 0H0v34h88.408V0Z"/></mask><g fill="#fff" mask="url(#b)"><path d="M78.604 0h1.714c1.629.136 3.069.624 4.322 1.462 1.29.865 2.233 1.971 2.83 3.32 1.051 2.38.995 5.664-.136 8.03-1.527 3.201-4.687 4.694-8.334 4.567-5.128-.177-8.327-3.829-8.302-8.65.012-2.382.7-4.61 2.4-6.302C74.528 1.001 76.363.192 78.604 0Zm4.956 11.29c.555-1.45.625-2.97.21-4.565-.618-2.369-2.743-3.632-5.217-3.217-3.347.558-4.13 4.483-3.4 7.085.568 2.038 1.867 3.156 3.898 3.355 1.976.194 3.817-.857 4.509-2.659ZM17.262 34H0V.62C.051.401.24.292.567.292 11.807.28 23.047.274 34.289.275c.075 0 .146.03.199.081a.274.274 0 0 1 .082.196v16.312c0 .186-.096.279-.286.279l-16.838-.025c-.105 0-.158.052-.158.155l-.026 16.726ZM13.318 13.41a.14.14 0 0 1 .043-.101.148.148 0 0 1 .104-.043h16.99a.15.15 0 0 0 .105-.042.142.142 0 0 0 .043-.101V4.289a.142.142 0 0 0-.043-.101.15.15 0 0 0-.105-.043H4.115a.15.15 0 0 0-.105.043.142.142 0 0 0-.043.101v25.696c0 .039.016.075.043.102a.15.15 0 0 0 .104.042h9.056a.15.15 0 0 0 .105-.042.142.142 0 0 0 .043-.102V13.411ZM44.275 11.758v5.111c0 .098-.05.147-.15.147l-3.786.014a.103.103 0 0 1-.072-.03.098.098 0 0 1-.03-.07V.558c0-.11.056-.164.167-.166a622.11 622.11 0 0 1 8.28.02c4.23.043 6.46 3.678 5.344 7.451-.73 2.463-3.046 3.65-5.579 3.718a85.032 85.032 0 0 1-4.007.017c-.111-.002-.167.051-.167.16Zm.006-7.988-.017 4.395c0 .024.01.047.027.064a.095.095 0 0 0 .066.027l3.613.014c.3 0 .599-.053.877-.159.278-.106.531-.262.745-.459.213-.197.383-.43.499-.688a2 2 0 0 0 .177-.814v-.321a2.055 2.055 0 0 0-.665-1.507 2.38 2.38 0 0 0-1.616-.63l-3.613-.014a.095.095 0 0 0-.066.027.09.09 0 0 0-.027.065ZM67.406 9.226c1.292.48 1.997 1.415 2.114 2.809.096 1.137.166 2.293.21 3.469.017.473.147.932.39 1.376.05.09.021.136-.084.136l-3.826.01a.275.275 0 0 1-.147-.042.262.262 0 0 1-.099-.115 3.557 3.557 0 0 1-.323-1.401 48.768 48.768 0 0 0-.13-2.665c-.087-1.139-.718-1.768-1.893-1.888-.694-.07-1.938-.084-3.732-.041-.112.002-.168.057-.168.165v5.814c0 .108-.056.163-.17.163l-3.675.01c-.128 0-.192-.06-.192-.184V.482c0-.024.01-.048.028-.066a.097.097 0 0 1 .068-.027c2.728.007 5.53.008 8.404.003 3.02-.006 5.574 1.45 5.747 4.586.106 1.892-.738 3.254-2.53 4.085-.129.059-.126.113.008.163Zm-7.69-5.628.005 4.257c0 .02.008.039.023.053a.078.078 0 0 0 .054.022l3.771-.009c.59 0 1.157-.215 1.574-.598.418-.382.652-.9.65-1.439v-.337a1.95 1.95 0 0 0-.654-1.436 2.34 2.34 0 0 0-1.576-.593l-3.77.006a.074.074 0 0 0-.077.075Z"/><path d="M34.55 34H19.57l-.034-14.216c0-.286.146-.428.44-.428l14.502-.003c.023 0 .045.009.062.025a.085.085 0 0 1 .026.06L34.55 34Zm-3.948-10.617a.161.161 0 0 0-.049-.115.17.17 0 0 0-.118-.048h-6.75a.17.17 0 0 0-.118.048.161.161 0 0 0-.049.115v6.584c0 .044.018.085.05.116a.17.17 0 0 0 .117.048h6.75a.17.17 0 0 0 .118-.048.161.161 0 0 0 .05-.116v-6.584ZM43.425 29.637v4.017c0 .092-.047.138-.142.138H40.38c-.094 0-.142-.046-.142-.138V20.648c0-.094.048-.14.145-.138 1.69.033 3.434.033 5.23 0 2.928-.056 5.475.91 5.662 4.168.159 2.762-1.626 4.62-4.432 4.75-1.042.049-2.113.055-3.213.019-.136-.004-.204.06-.204.19Zm.003-6.413-.011 3.522c0 .015.006.03.017.04a.06.06 0 0 0 .042.018l2.828.011c.236 0 .47-.042.69-.126.218-.084.416-.208.584-.364.168-.156.3-.341.392-.546.091-.204.138-.423.139-.645v-.265a1.634 1.634 0 0 0-.523-1.194 1.862 1.862 0 0 0-1.27-.498l-2.829-.01a.06.06 0 0 0-.042.016.057.057 0 0 0-.017.041ZM53.904 31.526l-.746 2.203a.091.091 0 0 1-.085.06l-3.071.003a.092.092 0 0 1-.075-.037.087.087 0 0 1-.01-.081l4.913-13.092a.089.089 0 0 1 .085-.058h3.687a.09.09 0 0 1 .085.058l5.024 13.092c.005.013.006.027.005.041a.09.09 0 0 1-.048.067.093.093 0 0 1-.043.01h-3.199a.09.09 0 0 1-.085-.06l-.756-2.206a.089.089 0 0 0-.033-.044.092.092 0 0 0-.052-.017h-5.511a.092.092 0 0 0-.053.017.089.089 0 0 0-.032.044Zm1.232-2.665 3.281.003c.167 0 .223-.077.17-.23l-1.768-5.122c-.064-.182-.127-.182-.19 0l-1.717 5.05c-.068.2.007.3.224.3ZM74.092 27.599c.935.339 1.46 1.042 1.573 2.109.092.858.154 1.792.184 2.8.012.365.102.74.27 1.067.058.118.02.176-.114.174l-2.624-.008c-.406-.002-.623-.2-.652-.595a97.538 97.538 0 0 1-.164-2.681c-.045-.997-.576-1.516-1.593-1.556a45.544 45.544 0 0 0-2.76-.017c-.124.004-.187.066-.187.185l.004 4.534c0 .121-.063.182-.188.182h-2.81c-.095 0-.142-.046-.142-.138v-13.05a.068.068 0 0 1 .065-.066c2.333-.032 4.624-.029 6.872.008 2.535.041 4.372 1.617 4.162 4.254-.1 1.255-.836 2.03-1.912 2.623-.122.069-.116.127.016.175Zm-6.058-4.487-.011 3.312a.1.1 0 0 0 .03.072c.02.02.047.03.075.03l2.932.011c.222 0 .442-.039.647-.117.205-.078.392-.192.55-.337a1.56 1.56 0 0 0 .367-.507c.086-.19.13-.393.13-.598v-.387a1.507 1.507 0 0 0-.49-1.108 1.758 1.758 0 0 0-1.192-.462l-2.933-.011a.107.107 0 0 0-.074.03.102.102 0 0 0-.03.072ZM83.945 23.41v10.286c0 .025-.01.05-.03.068a.1.1 0 0 1-.07.028h-3.06a.1.1 0 0 1-.07-.028.096.096 0 0 1-.029-.068V23.407c0-.025-.01-.05-.029-.068a.102.102 0 0 0-.07-.028l-3.981-.003a.097.097 0 0 1-.099-.097l.002-2.59a.094.094 0 0 1 .03-.069.097.097 0 0 1 .07-.028h11.416c.026 0 .052.01.07.028a.095.095 0 0 1 .03.069v2.587a.097.097 0 0 1-.03.069.105.105 0 0 1-.07.028l-3.981.008a.1.1 0 0 0-.07.029.096.096 0 0 0-.03.068Z"/></g></g><defs><clipPath id="a"><path fill="#fff" d="M0 0h89v34H0z"/></clipPath></defs></svg>