<svg xmlns="http://www.w3.org/2000/svg" width="18" height="18" fill="none"><g stroke="#DBA77B" stroke-miterlimit="10" clip-path="url(#a)"><path d="M9 1a8 8 0 0 1 8 8 8 8 0 0 1-8 8c-4.419 0-8-3.581-8-8 0-4.418 3.581-8 8-8ZM8.68 1v16M17 9.003H1"/><path d="M8.677 1s-3.84 2.839-3.84 8 3.84 8 3.84 8M9.32 1s3.84 2.839 3.84 8-3.84 8-3.84 8"/><path d="M2.927 4.078S4.194 6.54 9.007 6.54c4.813 0 6.08-2.462 6.08-2.462M2.927 13.924s1.267-2.462 6.08-2.462c4.813 0 6.08 2.462 6.08 2.462"/></g><defs><clipPath id="a"><path fill="#fff" d="M0 0h18v18H0z"/></clipPath></defs></svg>