<svg width="24" height="24" viewBox="0 0 24 24" fill="none" xmlns="http://www.w3.org/2000/svg">
<path fill-rule="evenodd" clip-rule="evenodd" d="M4.00691 9.10496L10.0069 3.77163C11.1436 2.76126 12.8564 2.76126 13.9931 3.77163L19.9931 9.10496C20.6336 9.67426 21 10.4903 21 11.3472V21.25H22C22.4142 21.25 22.75 21.5858 22.75 22C22.75 22.4142 22.4142 22.75 22 22.75H2C1.58579 22.75 1.25 22.4142 1.25 22C1.25 21.5858 1.58579 21.25 2 21.25H3V11.3472C3 10.4903 3.36644 9.67426 4.00691 9.10496ZM9.25 8.99999C9.25 8.58578 9.58579 8.24999 10 8.24999H14C14.4142 8.24999 14.75 8.58578 14.75 8.99999C14.75 9.4142 14.4142 9.74999 14 9.74999H10C9.58579 9.74999 9.25 9.4142 9.25 8.99999ZM14.052 11.25C14.9505 11.25 15.6997 11.2499 16.2945 11.3299C16.9223 11.4143 17.4891 11.6 17.9445 12.0554C18.4 12.5109 18.5857 13.0777 18.6701 13.7055C18.7501 14.3003 18.75 15.0495 18.75 15.948L18.75 21.25H17.25V16C17.25 15.036 17.2484 14.3884 17.1835 13.9054C17.1214 13.4439 17.0142 13.2464 16.8839 13.1161C16.7536 12.9858 16.5561 12.8786 16.0946 12.8165C15.6116 12.7516 14.964 12.75 14 12.75H10C9.03599 12.75 8.38843 12.7516 7.90539 12.8165C7.44393 12.8786 7.24643 12.9858 7.11612 13.1161C6.9858 13.2464 6.87858 13.4439 6.81654 13.9054C6.75159 14.3884 6.75 15.036 6.75 16V21.25H5.25L5.25 15.948C5.24997 15.0495 5.24994 14.3003 5.32991 13.7055C5.41432 13.0777 5.59999 12.5109 6.05546 12.0554C6.51093 11.6 7.07773 11.4143 7.70552 11.3299C8.3003 11.2499 9.04952 11.25 9.948 11.25H14.052ZM8.25 15.5C8.25 15.0858 8.58579 14.75 9 14.75H15C15.4142 14.75 15.75 15.0858 15.75 15.5C15.75 15.9142 15.4142 16.25 15 16.25H9C8.58579 16.25 8.25 15.9142 8.25 15.5ZM8.25 18.5C8.25 18.0858 8.58579 17.75 9 17.75H15C15.4142 17.75 15.75 18.0858 15.75 18.5C15.75 18.9142 15.4142 19.25 15 19.25H9C8.58579 19.25 8.25 18.9142 8.25 18.5Z" fill="#DBA77B"/>
</svg>
