<svg width="390" height="131" viewBox="0 0 390 131" fill="none" xmlns="http://www.w3.org/2000/svg">
<g filter="url(#filter0_d_1648_1776)">
<mask id="path-1-inside-1_1648_1776" fill="white">
<path fill-rule="evenodd" clip-rule="evenodd" d="M155 34H0V131H390V34H235V34.0003H267C249.035 34.4541 235.507 47.1371 228.954 55.5718C221.889 66.8881 209.324 74.417 195 74.417C180.676 74.417 168.111 66.8881 161.046 55.5718C154.493 47.1371 140.965 34.4541 123 34.0003H155V34Z"/>
</mask>
<path fill-rule="evenodd" clip-rule="evenodd" d="M155 34H0V131H390V34H235V34.0003H267C249.035 34.4541 235.507 47.1371 228.954 55.5718C221.889 66.8881 209.324 74.417 195 74.417C180.676 74.417 168.111 66.8881 161.046 55.5718C154.493 47.1371 140.965 34.4541 123 34.0003H155V34Z" fill="white"/>
<path d="M0 34V33H-1V34H0ZM155 34H156V33H155V34ZM0 131H-1V132H0V131ZM390 131V132H391V131H390ZM390 34H391V33H390V34ZM235 34V33H234V34H235ZM235 34.0003H234V35.0003H235V34.0003ZM267 34.0003L267.025 35L267 33.0003V34.0003ZM228.954 55.5718L228.165 54.9583L228.133 54.9988L228.106 55.0422L228.954 55.5718ZM161.046 55.5718L161.894 55.0422L161.867 54.9987L161.835 54.9583L161.046 55.5718ZM123 34.0003V33.0003L122.975 35L123 34.0003ZM155 34.0003V35.0003H156V34.0003H155ZM0 35H155V33H0V35ZM1 131V34H-1V131H1ZM390 130H0V132H390V130ZM389 34V131H391V34H389ZM235 35H390V33H235V35ZM234 34V34.0003H236V34H234ZM235 35.0003H267V33.0003H235V35.0003ZM266.975 33.0006C248.557 33.4659 234.781 46.4418 228.165 54.9583L229.744 56.1853C236.233 47.8325 249.512 35.4424 267.025 35L266.975 33.0006ZM228.106 55.0422C221.216 66.0782 208.965 73.417 195 73.417V75.417C209.683 75.417 222.562 67.698 229.803 56.1014L228.106 55.0422ZM195 73.417C181.035 73.417 168.784 66.0782 161.894 55.0422L160.197 56.1014C167.438 67.698 180.317 75.417 195 75.417V73.417ZM161.835 54.9583C155.219 46.4418 141.443 33.4659 123.025 33.0006L122.975 35C140.488 35.4424 153.767 47.8325 160.256 56.1853L161.835 54.9583ZM123 35.0003H155V33.0003H123V35.0003ZM156 34.0003V34H154V34.0003H156Z" fill="#F1F1F1" mask="url(#path-1-inside-1_1648_1776)"/>
</g>
<defs>
<filter id="filter0_d_1648_1776" x="-30" y="0" width="450" height="157" filterUnits="userSpaceOnUse" color-interpolation-filters="sRGB">
<feFlood flood-opacity="0" result="BackgroundImageFix"/>
<feColorMatrix in="SourceAlpha" type="matrix" values="0 0 0 0 0 0 0 0 0 0 0 0 0 0 0 0 0 0 127 0" result="hardAlpha"/>
<feOffset dy="-4"/>
<feGaussianBlur stdDeviation="15"/>
<feComposite in2="hardAlpha" operator="out"/>
<feColorMatrix type="matrix" values="0 0 0 0 0.2 0 0 0 0 0.219608 0 0 0 0 0.388235 0 0 0 0.1 0"/>
<feBlend mode="normal" in2="BackgroundImageFix" result="effect1_dropShadow_1648_1776"/>
<feBlend mode="normal" in="SourceGraphic" in2="effect1_dropShadow_1648_1776" result="shape"/>
</filter>
</defs>
</svg>
