<svg width="24" height="24" viewBox="0 0 24 24" fill="none" xmlns="http://www.w3.org/2000/svg">
<g clip-path="url(#clip0_1374_1622)">
<path d="M12 18.9996H14V5.99962L20.394 8.73962C20.574 8.81678 20.7274 8.9451 20.8351 9.10865C20.9428 9.2722 21.0002 9.46378 21 9.65962V18.9996H23V20.9996H1V18.9996H3V5.64962C2.99998 5.45614 3.05608 5.2668 3.16151 5.10457C3.26695 4.94234 3.41718 4.81417 3.594 4.73562L11.297 1.31162C11.3732 1.27776 11.4567 1.2635 11.5398 1.27014C11.6229 1.27678 11.7031 1.3041 11.7729 1.34962C11.8428 1.39514 11.9002 1.45741 11.9398 1.53077C11.9795 1.60412 12.0002 1.68623 12 1.76962V18.9996Z" fill="#DBA77B"/>
</g>
<defs>
<clipPath id="clip0_1374_1622">
<rect width="24" height="24" fill="white"/>
</clipPath>
</defs>
</svg>
