<svg xmlns="http://www.w3.org/2000/svg" width="143" height="56" fill="none"><mask id="a" width="143" height="56" x="0" y="0" maskUnits="userSpaceOnUse" style="mask-type:luminance"><path fill="#fff" d="M142.049 0H0v56h142.049V0Z"/></mask><g fill="#DBA77B" mask="url(#a)"><path d="M126.296 0h2.754c2.617.225 4.931 1.027 6.944 2.408 2.073 1.424 3.589 3.247 4.548 5.468 1.689 3.92 1.598 9.33-.219 13.226-2.454 5.273-7.53 7.731-13.39 7.522-8.24-.292-13.38-6.306-13.339-14.246.018-3.925 1.124-7.594 3.856-10.38 2.297-2.35 5.246-3.682 8.846-3.998Zm7.963 18.594c.892-2.386 1.005-4.892.337-7.517-.993-3.902-4.407-5.982-8.382-5.3-5.377.92-6.634 7.385-5.463 11.67.913 3.357 3.001 5.199 6.264 5.527 3.174.318 6.133-1.412 7.244-4.38ZM27.736 55.998H0V1.023C.082.662.385.48.91.48 18.97.46 37.032.451 55.095.454c.12 0 .234.048.319.133a.458.458 0 0 1 .132.322v26.866c0 .307-.154.46-.46.46l-27.053-.04c-.17 0-.255.084-.255.254L27.736 56Zm-6.338-33.91a.237.237 0 0 1 .237-.236h27.299a.237.237 0 0 0 .237-.237V7.065a.237.237 0 0 0-.237-.237H6.611a.237.237 0 0 0-.237.236v42.324a.237.237 0 0 0 .237.236h14.55a.237.237 0 0 0 .237-.236v-27.3ZM71.138 19.367v8.418c0 .16-.08.241-.241.241l-6.083.023a.164.164 0 0 1-.164-.164V.919c0-.18.09-.27.269-.274a975.13 975.13 0 0 1 13.303.032c6.798.073 10.38 6.06 8.587 12.275-1.174 4.056-4.894 6.01-8.965 6.123-2.1.061-4.246.07-6.437.028-.18-.004-.269.085-.269.264Zm.01-13.158-.028 7.239a.15.15 0 0 0 .15.15l5.805.023c.483.002.962-.087 1.41-.261a3.695 3.695 0 0 0 1.195-.756 3.5 3.5 0 0 0 .802-1.134c.187-.425.284-.88.285-1.341V9.6A3.424 3.424 0 0 0 79.7 7.118a3.773 3.773 0 0 0-2.598-1.037l-5.805-.022a.15.15 0 0 0-.15.15ZM108.303 15.196c2.076.79 3.208 2.331 3.396 4.626.155 1.873.268 3.777.337 5.714a5.14 5.14 0 0 0 .629 2.267c.079.149.033.223-.137.223l-6.146.018a.433.433 0 0 1-.396-.26 5.98 5.98 0 0 1-.519-2.308 82.472 82.472 0 0 0-.21-4.389c-.139-1.875-1.153-2.912-3.041-3.11-1.114-.114-3.112-.137-5.996-.067-.179.003-.268.094-.268.273v9.574c0 .18-.091.269-.273.269l-5.906.018c-.206 0-.31-.102-.31-.305V.795a.155.155 0 0 1 .156-.154c4.382.012 8.884.013 13.503.004 4.853-.009 8.955 2.39 9.233 7.553.17 3.117-1.185 5.36-4.066 6.73-.206.097-.201.186.014.268Zm-12.356-9.27.01 7.012a.123.123 0 0 0 .122.123l6.059-.014a3.706 3.706 0 0 0 2.529-.985 3.24 3.24 0 0 0 1.045-2.37v-.556a3.248 3.248 0 0 0-1.052-2.365 3.707 3.707 0 0 0-2.531-.977l-6.059.01a.123.123 0 0 0-.123.122Z"/><path d="M55.513 56H31.446l-.054-23.415c0-.47.235-.705.705-.705l23.302-.005a.142.142 0 0 1 .14.141l-.026 23.985ZM49.17 38.514a.269.269 0 0 0-.268-.269H38.057a.269.269 0 0 0-.269.269v10.845a.269.269 0 0 0 .269.269h10.845a.269.269 0 0 0 .268-.27V38.514ZM69.772 48.815v6.615c0 .151-.076.227-.227.227h-4.667c-.152 0-.228-.075-.228-.227V34.009c0-.155.078-.231.233-.228 2.716.055 5.518.055 8.404 0 4.703-.091 8.796 1.498 9.097 6.866.255 4.548-2.614 7.608-7.12 7.822a62.086 62.086 0 0 1-5.164.031c-.218-.006-.328.099-.328.315Zm.005-10.563-.018 5.8a.096.096 0 0 0 .095.096l4.544.018c.38.001.756-.07 1.107-.208.351-.138.67-.342.94-.599.27-.257.483-.562.63-.899.146-.336.222-.697.223-1.062v-.437a2.723 2.723 0 0 0-.84-1.966 2.952 2.952 0 0 0-2.042-.82l-4.543-.019a.096.096 0 0 0-.096.096ZM86.608 51.925l-1.197 3.629a.146.146 0 0 1-.137.1l-4.935.004a.145.145 0 0 1-.137-.195L88.097 33.9a.145.145 0 0 1 .136-.095h5.924a.145.145 0 0 1 .136.095l8.073 21.563a.147.147 0 0 1-.017.133.148.148 0 0 1-.12.062h-5.14a.146.146 0 0 1-.137-.1l-1.215-3.633a.146.146 0 0 0-.137-.1h-8.855a.146.146 0 0 0-.137.1Zm1.98-4.389 5.273.005c.267 0 .358-.126.273-.378l-2.841-8.437c-.103-.3-.205-.3-.305 0l-2.76 8.318c-.108.328.012.492.36.492ZM119.048 45.456c1.502.559 2.345 1.717 2.527 3.474.148 1.415.247 2.952.296 4.612.018.601.164 1.22.432 1.758.094.194.034.29-.182.287l-4.216-.014c-.652-.003-1.001-.33-1.047-.979a165.251 165.251 0 0 1-.264-4.416c-.073-1.642-.926-2.497-2.559-2.563a71.322 71.322 0 0 0-4.434-.028c-.201.006-.301.108-.301.305l.005 7.467c0 .2-.1.3-.301.3h-4.516c-.152 0-.228-.075-.228-.227V33.938c0-.028.011-.056.031-.076a.108.108 0 0 1 .074-.034c3.748-.051 7.429-.047 11.041.014 4.074.069 7.025 2.664 6.688 7.007-.16 2.067-1.343 3.342-3.073 4.32-.195.113-.186.209.027.288Zm-9.734-7.389-.018 5.455a.167.167 0 0 0 .168.168l4.712.018c.357.002.71-.064 1.04-.192.329-.129.629-.317.882-.556.253-.238.454-.522.591-.834a2.47 2.47 0 0 0 .21-.986v-.637a2.511 2.511 0 0 0-.789-1.825 2.787 2.787 0 0 0-1.915-.761l-4.713-.018a.17.17 0 0 0-.119.05.17.17 0 0 0-.049.118ZM134.878 38.558v16.941a.16.16 0 0 1-.159.16h-4.917a.159.159 0 0 1-.16-.16V38.553a.163.163 0 0 0-.046-.112.16.16 0 0 0-.113-.047l-6.397-.005a.16.16 0 0 1-.113-.046.162.162 0 0 1-.046-.113l.004-4.266a.159.159 0 0 1 .16-.16h18.343a.158.158 0 0 1 .159.16v4.261a.16.16 0 0 1-.159.16l-6.397.014a.16.16 0 0 0-.159.16Z"/></g></svg>