<svg xmlns="http://www.w3.org/2000/svg" width="23" height="24" fill="none"><path fill="#DBA77B" d="M20.24 16.239v3.39a.981.981 0 0 1-.248.655.905.905 0 0 1-.609.303c-.402.029-.73.044-.985.044-8.133 0-14.726-6.87-14.726-15.344 0-.265.014-.607.042-1.026a.976.976 0 0 1 .29-.634.9.9 0 0 1 .629-.258h3.254a.45.45 0 0 1 .31.124c.084.08.137.19.149.308.02.22.04.396.059.529.183 1.33.557 2.624 1.112 3.837a.448.448 0 0 1-.136.544l-1.986 1.478c1.214 2.949 3.47 5.298 6.3 6.564l1.417-2.066a.425.425 0 0 1 .239-.17.409.409 0 0 1 .288.027c1.165.576 2.406.966 3.682 1.156.128.019.296.04.506.061a.454.454 0 0 1 .295.156.49.49 0 0 1 .117.322Z"/></svg>