<svg width="16" height="17" viewBox="0 0 16 17" fill="none" xmlns="http://www.w3.org/2000/svg">
<path d="M7.33203 1.83325C10.644 1.83325 13.332 4.52125 13.332 7.83325C13.332 11.1453 10.644 13.8333 7.33203 13.8333C4.02003 13.8333 1.33203 11.1453 1.33203 7.83325C1.33203 4.52125 4.02003 1.83325 7.33203 1.83325ZM7.33203 12.4999C9.91003 12.4999 11.9987 10.4113 11.9987 7.83325C11.9987 5.25459 9.91003 3.16659 7.33203 3.16659C4.75336 3.16659 2.66536 5.25459 2.66536 7.83325C2.66536 10.4113 4.75336 12.4999 7.33203 12.4999ZM12.9887 12.5473L14.8747 14.4326L13.9314 15.3759L12.046 13.4899L12.9887 12.5473Z" fill="white"/>
</svg>
