<svg width="40" height="32" viewBox="0 0 40 32" fill="none" xmlns="http://www.w3.org/2000/svg">
<path fill-rule="evenodd" clip-rule="evenodd" d="M8.02455 1.65818C8.20922 0.569159 9.24104 -0.159773 10.3292 0.0300659L38.3357 4.91618C39.4238 5.10602 40.1562 6.14274 39.9716 7.23176L36.7938 25.9708C36.6617 26.7499 36.096 27.3447 35.3863 27.5506C35.3886 27.5115 35.3897 27.472 35.3897 27.4323V8.4165C35.3897 7.31193 34.4943 6.41649 33.3897 6.41649H7.21764L8.02455 1.65818ZM2 8.98479C0.895431 8.98479 0 9.88022 0 10.9848V13.9167H32.6979V10.9848C32.6979 9.88022 31.8025 8.98479 30.6979 8.98479H2ZM32.6979 16.3827H0V30.0006C0 31.1052 0.895432 32.0006 2 32.0006H30.6979C31.8025 32.0006 32.6979 31.1052 32.6979 30.0006V16.3827ZM4.08724 26.4246C4.08724 25.8723 4.53496 25.4246 5.08724 25.4246H11.2617C11.814 25.4246 12.2617 25.8723 12.2617 26.4246V26.8906C12.2617 27.4429 11.814 27.8906 11.2617 27.8906H5.08724C4.53496 27.8906 4.08724 27.4429 4.08724 26.8906V26.4246Z" fill="url(#paint0_linear_952_904)"/>
<defs>
<linearGradient id="paint0_linear_952_904" x1="40.6603" y1="0.0101055" x2="-11.0757" y2="99.9023" gradientUnits="userSpaceOnUse">
<stop stop-color="white"/>
<stop offset="1" stop-color="#333863"/>
</linearGradient>
</defs>
</svg>
