<svg width="32" height="32" viewBox="0 0 32 32" fill="none" xmlns="http://www.w3.org/2000/svg">
<path fill-rule="evenodd" clip-rule="evenodd" d="M22.8756 22.092C22.4283 23.998 21.7944 25.6904 21.0324 27.0874C19.443 30.0013 17.576 31.2 16 31.2C14.424 31.2 12.557 30.0013 10.9676 27.0874C10.2056 25.6904 9.57167 23.998 9.12436 22.092C11.3226 22.1643 13.6661 22.2 16 22.2C18.3339 22.2 20.6774 22.1643 22.8756 22.092ZM24.9432 22.011C24.1419 25.7653 22.6575 28.8918 20.7703 30.8768C25.3637 29.444 29.0682 25.9965 30.8497 21.5686C29.2409 21.76 27.2065 21.9071 24.9432 22.011ZM31.5311 19.4609C29.9838 19.691 27.8102 19.8685 25.2987 19.9918C25.4954 18.588 25.6 17.1164 25.6 15.6C25.6 14.1603 25.5057 12.761 25.3278 11.4217C27.9503 11.6822 30.1831 12.061 31.6909 12.551L31.7028 12.5146C31.8978 13.5129 32 14.5445 32 15.6C32 16.9312 31.8374 18.2244 31.5311 19.4609ZM23.2648 20.0774C20.9756 20.1588 18.4933 20.2 16 20.2C13.5067 20.2 11.0244 20.1588 8.7352 20.0774C8.51819 18.6649 8.4 17.1634 8.4 15.6C8.4 14.0828 8.51132 12.6238 8.71625 11.2479C11.0012 11.0839 13.49 11 16 11C18.51 11 20.9988 11.0839 23.2837 11.2479C23.4887 12.6238 23.6 14.0828 23.6 15.6C23.6 17.1634 23.4818 18.6649 23.2648 20.0774ZM6.7013 19.9918C6.5046 18.588 6.4 17.1164 6.4 15.6C6.4 14.1603 6.49429 12.761 6.67216 11.4217C4.04969 11.6822 1.81692 12.061 0.309086 12.551L0.297238 12.5146C0.102198 13.5129 0 14.5445 0 15.6C0 16.9312 0.162568 18.2244 0.468934 19.4609C2.01615 19.691 4.18979 19.8685 6.7013 19.9918ZM1.15034 21.5686C2.93175 25.9965 6.63625 29.444 11.2297 30.8768C9.34249 28.8918 7.8581 25.7653 7.05678 22.011C4.79353 21.9071 2.7591 21.76 1.15034 21.5686ZM16 9C13.6655 9 11.3127 9.0712 9.09914 9.21664C9.54769 7.26626 10.1911 5.53609 10.9676 4.11263C12.557 1.19871 14.424 0 16 0C17.576 0 19.443 1.19871 21.0324 4.11263C21.8089 5.53609 22.4523 7.26625 22.9009 9.21664C20.6873 9.07119 18.3345 9 16 9ZM24.9832 9.37965C27.3318 9.59513 29.445 9.90398 31.105 10.3104C29.4406 5.55721 25.596 1.82845 20.7703 0.323183C22.6894 2.34165 24.1919 5.54054 24.9832 9.37965ZM0.895036 10.3104C2.55499 9.90398 4.66815 9.59513 7.01679 9.37966C7.80812 5.54054 9.31064 2.34165 11.2297 0.323183C6.40403 1.82845 2.55945 5.55721 0.895036 10.3104Z" fill="url(#paint0_linear_971_1264)"/>
<defs>
<linearGradient id="paint0_linear_971_1264" x1="32.5282" y1="0.00985273" x2="-23.2239" y2="88.3367" gradientUnits="userSpaceOnUse">
<stop stop-color="white"/>
<stop offset="1" stop-color="#333863"/>
</linearGradient>
</defs>
</svg>
