<svg width="40" height="40" viewBox="0 0 40 40" fill="none" xmlns="http://www.w3.org/2000/svg">
<path fill-rule="evenodd" clip-rule="evenodd" d="M20.6946 0.298828C20.3075 -0.0951671 19.675 -0.100211 19.2817 0.287562L17.852 1.69736C17.4588 2.08513 17.4537 2.71888 17.8407 3.11288L28.275 13.7351C28.662 14.1291 29.2945 14.1342 29.6878 13.7464L31.1175 12.3366C31.5108 11.9488 31.5158 11.3151 31.1288 10.9211L20.6946 0.298828ZM18.1625 5.34593L10.5522 12.8501L18.4427 20.8827L26.053 13.3786L18.1625 5.34593ZM6.91475 12.4829C7.30801 12.0951 7.94055 12.1001 8.32757 12.4941L18.7618 23.1164C19.1488 23.5104 19.1438 24.1441 18.7505 24.5319L17.3208 25.9417C16.9275 26.3295 16.295 26.3244 15.908 25.9304L5.47373 15.3082C5.08671 14.9142 5.09176 14.2804 5.48502 13.8927L6.91475 12.4829ZM21.9633 19.384C21.9633 19.384 31.7098 30.5771 35.6307 34.5686C37.1101 36.0747 39.0127 34.1987 39.0127 34.1987L23.2317 18.1333L21.9633 19.384ZM24.5015 16.8826C24.5015 16.8826 35.5164 26.825 39.4372 30.8165C40.9167 32.3226 39.0141 34.1987 39.0141 34.1987L23.2331 18.1333L24.5015 16.8826ZM2.48047 32.3744C2.55948 31.8908 2.97733 31.5356 3.4674 31.5356H20.3014C20.7915 31.5356 21.2093 31.8908 21.2883 32.3744L21.4765 33.5262C21.5759 34.1348 21.1062 34.6874 20.4896 34.6874H3.27926C2.66263 34.6874 2.19293 34.1348 2.29234 33.5262L2.48047 32.3744ZM1.33359 35.7366C0.959989 36.1215 0.687524 36.5456 0.536763 37.0088C0.309118 37.7082 0.120716 38.6712 0.00885213 39.3128C-0.0539422 39.6729 0.225413 39.9963 0.59099 39.9963H22.8869C23.2525 39.9963 23.5319 39.6729 23.4691 39.3128C23.3572 38.6712 23.1688 37.7082 22.9412 37.0088C22.7904 36.5456 22.5179 36.1215 22.1443 35.7366H1.33359Z" fill="url(#paint0_linear_1004_728)"/>
<defs>
<linearGradient id="paint0_linear_1004_728" x1="40.6608" y1="0.0126305" x2="-31.5702" y2="111.597" gradientUnits="userSpaceOnUse">
<stop stop-color="white"/>
<stop offset="1" stop-color="#333863"/>
</linearGradient>
</defs>
</svg>
