<svg width="40" height="40" viewBox="0 0 40 40" fill="none" xmlns="http://www.w3.org/2000/svg">
<path fill-rule="evenodd" clip-rule="evenodd" d="M21.8529 0.649156C21.0602 -0.216385 19.696 -0.216385 18.9032 0.649155L15.1581 4.73806C14.8711 5.05143 14.4918 5.26523 14.075 5.34847L8.60911 6.44029C7.42298 6.67721 6.71699 7.90461 7.10858 9.04903L8.83316 14.0891C8.97677 14.5088 8.97677 14.9644 8.83316 15.3841L7.10858 20.4241C6.71699 21.5686 7.42298 22.796 8.60911 23.0329L14.075 24.1247C14.4918 24.2079 14.8711 24.4217 15.1581 24.7351L18.9032 28.824C19.696 29.6896 21.0602 29.6896 21.8529 28.824L25.598 24.7351C25.885 24.4217 26.2644 24.2079 26.6811 24.1247L32.1471 23.0329C33.3332 22.796 34.0392 21.5686 33.6476 20.4241L31.923 15.3841C31.7794 14.9644 31.7794 14.5088 31.923 14.0891L33.6476 9.04903C34.0392 7.90461 33.3332 6.67721 32.1471 6.44029L26.6811 5.34847C26.2644 5.26523 25.885 5.05143 25.598 4.73806L21.8529 0.649156ZM12.6237 25.3311V35.8105C12.6237 37.6666 12.6237 40.049 14.8097 38.6569C16.9956 37.2649 20.2745 35.3465 20.2745 35.3465V40.0011H20.2757V35.3467C20.2757 35.3467 23.5546 37.2651 25.7405 38.6572C27.7502 39.937 27.9122 38.0265 27.9253 36.2677V25.3317L27.5949 25.3942C27.1887 25.4711 26.8162 25.672 26.5289 25.9692L21.714 30.9496C20.9278 31.7627 19.6243 31.7627 18.8382 30.9496L14.0233 25.9692C13.7359 25.672 13.3635 25.4711 12.9573 25.3942L12.6237 25.3311Z" fill="url(#paint0_linear_970_1252)"/>
<defs>
<linearGradient id="paint0_linear_970_1252" x1="34.1978" y1="0.012632" x2="-44.9401" y2="81.7787" gradientUnits="userSpaceOnUse">
<stop stop-color="white"/>
<stop offset="1" stop-color="#333863"/>
</linearGradient>
</defs>
</svg>
