<svg width="32" height="36" viewBox="0 0 32 36" fill="none" xmlns="http://www.w3.org/2000/svg">
<path fill-rule="evenodd" clip-rule="evenodd" d="M0 2.00098C0 0.896408 0.895431 0.000976562 2 0.000976562H21.1104C22.215 0.000976562 23.1104 0.896407 23.1104 2.00098V36.001H0V2.00098ZM4.44336 6.40025C4.44336 5.84797 4.89107 5.40025 5.44336 5.40025H8.77653C9.32882 5.40025 9.77653 5.84797 9.77653 6.40025V9.80025C9.77653 10.3525 9.32882 10.8003 8.77653 10.8003H5.44336C4.89107 10.8003 4.44336 10.3525 4.44336 9.80025V6.40025ZM14.334 5.40025C13.7817 5.40025 13.334 5.84797 13.334 6.40025V9.80025C13.334 10.3525 13.7817 10.8003 14.334 10.8003H17.6672C18.2194 10.8003 18.6672 10.3525 18.6672 9.80025V6.40025C18.6672 5.84797 18.2194 5.40025 17.6672 5.40025H14.334ZM4.44336 14.5011C4.44336 13.9489 4.89107 13.5011 5.44336 13.5011H8.77653C9.32882 13.5011 9.77653 13.9489 9.77653 14.5011V17.9011C9.77653 18.4534 9.32882 18.9011 8.77653 18.9011H5.44336C4.89107 18.9011 4.44336 18.4534 4.44336 17.9011V14.5011ZM14.334 13.5011C13.7817 13.5011 13.334 13.9489 13.334 14.5011V17.9011C13.334 18.4534 13.7817 18.9011 14.334 18.9011H17.6672C18.2194 18.9011 18.6672 18.4534 18.6672 17.9011V14.5011C18.6672 13.9489 18.2194 13.5011 17.6672 13.5011H14.334ZM8 24.4005C8 23.8482 8.44771 23.4005 9 23.4005H14.1109C14.6632 23.4005 15.1109 23.8482 15.1109 24.4005V36.0005H8V24.4005ZM30.0015 7.20114H24.8906V11.7002H26.5576C27.1099 11.7002 27.5576 12.1479 27.5576 12.7002V15.2002C27.5576 15.7525 27.1099 16.2002 26.5576 16.2002H24.8906V19.8011H26.5576C27.1099 19.8011 27.5576 20.2488 27.5576 20.8011V23.3011C27.5576 23.8534 27.1099 24.3011 26.5576 24.3011H24.8906V36.0011H32.0015V9.20114C32.0015 8.09657 31.1061 7.20114 30.0015 7.20114Z" fill="url(#paint0_linear_944_869)"/>
<defs>
<linearGradient id="paint0_linear_944_869" x1="32.5297" y1="0.0123451" x2="-35.2925" y2="93.1395" gradientUnits="userSpaceOnUse">
<stop stop-color="white"/>
<stop offset="1" stop-color="#333863"/>
</linearGradient>
</defs>
</svg>
