<svg width="40" height="40" viewBox="0 0 40 40" fill="none" xmlns="http://www.w3.org/2000/svg">
<path fill-rule="evenodd" clip-rule="evenodd" d="M20.9978 6.21457C20.8538 5.98706 20.6628 5.80901 20.4461 5.68417L21.8028 3.69772C22.3343 2.9195 23.4199 2.76693 24.1454 3.36849L32.3402 10.1641C32.647 10.4185 32.8478 10.7783 32.9033 11.173L35.9146 32.5994C36.0375 33.4744 35.4279 34.2835 34.5528 34.4065L23.4554 35.9661L26.9154 16.3434C26.9846 15.9509 26.9048 15.5467 26.6916 15.2099L20.9978 6.21457ZM8.04165 12.4137L16.3385 6.64641C17.0605 6.14449 18.0523 6.31937 18.5592 7.03799L24.3831 15.2952C24.6288 15.6435 24.7253 16.0754 24.6513 16.4952L21.2967 35.5202C21.1433 36.3904 20.3134 36.9715 19.4432 36.818L5.32243 34.3282C4.4522 34.1747 3.87113 33.3449 4.02458 32.4746L7.37919 13.4497C7.45321 13.0299 7.69166 12.657 8.04165 12.4137ZM18.0969 12.9856C18.0969 13.8661 17.383 14.58 16.5024 14.58C15.6219 14.58 14.908 13.8661 14.908 12.9856C14.908 12.105 15.6219 11.3911 16.5024 11.3911C17.383 11.3911 18.0969 12.105 18.0969 12.9856Z" fill="url(#paint0_linear_964_1168)"/>
<defs>
<linearGradient id="paint0_linear_964_1168" x1="36.4574" y1="3.01069" x2="-26.0462" y2="94.1028" gradientUnits="userSpaceOnUse">
<stop stop-color="white"/>
<stop offset="1" stop-color="#333863"/>
</linearGradient>
</defs>
</svg>
