<svg width="32" height="32" viewBox="0 0 32 32" fill="none" xmlns="http://www.w3.org/2000/svg">
<path fill-rule="evenodd" clip-rule="evenodd" d="M21.4419 9.77169C22.0495 8.79281 22.4004 7.63787 22.4004 6.40098C22.4004 2.86635 19.535 0.000976562 16.0004 0.000976562C12.4658 0.000976562 9.60039 2.86635 9.60039 6.40098C9.60039 7.63787 9.95127 8.79282 10.5589 9.7717C14.4547 17.2517 13.5771 20.798 10.4044 20.801C10.4031 20.801 10.4017 20.801 10.4004 20.801L4 20.801C1.79086 20.801 0 22.5918 0 24.801V28.801H32V24.801C32 22.5918 30.2091 20.801 28 20.801L21.6004 20.801L21.5964 20.801C18.4237 20.798 17.5461 17.2517 21.4419 9.77169ZM1.6 30.401H30.4V32.001H1.6V30.401Z" fill="url(#paint0_linear_968_1232)"/>
<defs>
<linearGradient id="paint0_linear_968_1232" x1="32.5282" y1="0.0110819" x2="-25.2644" y2="89.2817" gradientUnits="userSpaceOnUse">
<stop stop-color="white"/>
<stop offset="1" stop-color="#333863"/>
</linearGradient>
</defs>
</svg>
