<svg width="26" height="34" viewBox="0 0 26 34" fill="none" xmlns="http://www.w3.org/2000/svg">
<path fill-rule="evenodd" clip-rule="evenodd" d="M0 4C0 1.79086 1.79086 0 4 0H22C24.2091 0 26 1.79086 26 4V30C26 32.2091 24.2091 34 22 34H4C1.79086 34 0 32.2091 0 30V4ZM3.71546 4.5791C3.71546 4.02682 4.16317 3.5791 4.71546 3.5791H21.2869C21.8392 3.5791 22.2869 4.02682 22.2869 4.5791V9.737C22.2869 10.2893 21.8392 10.737 21.2869 10.737H4.71546C4.16318 10.737 3.71546 10.2893 3.71546 9.737V4.5791ZM4.71546 14.3154C4.16317 14.3154 3.71546 14.7631 3.71546 15.3154V16.8944C3.71546 17.4467 4.16317 17.8944 4.71546 17.8944H6.42974C6.98203 17.8944 7.42974 17.4467 7.42974 16.8944V15.3154C7.42974 14.7631 6.98203 14.3154 6.42975 14.3154H4.71546ZM3.71546 21.5791C3.71546 21.0268 4.16317 20.5791 4.71546 20.5791H6.42975C6.98203 20.5791 7.42974 21.0268 7.42974 21.5791V23.158C7.42974 23.7103 6.98203 24.158 6.42974 24.158H4.71546C4.16317 24.158 3.71546 23.7103 3.71546 23.158V21.5791ZM4.71546 26.8418C4.16317 26.8418 3.71546 27.2895 3.71546 27.8418V29.4207C3.71546 29.973 4.16317 30.4207 4.71546 30.4207H6.42974C6.98203 30.4207 7.42974 29.973 7.42974 29.4207V27.8418C7.42974 27.2895 6.98203 26.8418 6.42975 26.8418H4.71546ZM11.1423 15.3154C11.1423 14.7631 11.59 14.3154 12.1423 14.3154H13.8566C14.4089 14.3154 14.8566 14.7631 14.8566 15.3154V16.8944C14.8566 17.4467 14.4089 17.8944 13.8566 17.8944H12.1423C11.59 17.8944 11.1423 17.4467 11.1423 16.8944V15.3154ZM12.1423 20.5791C11.59 20.5791 11.1423 21.0268 11.1423 21.5791V23.158C11.1423 23.7103 11.59 24.158 12.1423 24.158H13.8566C14.4089 24.158 14.8566 23.7103 14.8566 23.158V21.5791C14.8566 21.0268 14.4089 20.5791 13.8566 20.5791H12.1423ZM11.1423 27.8418C11.1423 27.2895 11.59 26.8418 12.1423 26.8418H13.8566C14.4089 26.8418 14.8566 27.2895 14.8566 27.8418V29.4207C14.8566 29.973 14.4089 30.4207 13.8566 30.4207H12.1423C11.59 30.4207 11.1423 29.973 11.1423 29.4207V27.8418ZM19.5712 14.3154C19.0189 14.3154 18.5712 14.7631 18.5712 15.3154V16.8944C18.5712 17.4467 19.0189 17.8944 19.5712 17.8944H21.2855C21.8378 17.8944 22.2855 17.4467 22.2855 16.8944V15.3154C22.2855 14.7631 21.8378 14.3154 21.2855 14.3154H19.5712ZM18.5712 21.5791C18.5712 21.0268 19.0189 20.5791 19.5712 20.5791H21.2855C21.8378 20.5791 22.2855 21.0268 22.2855 21.5791V23.158C22.2855 23.7103 21.8378 24.158 21.2855 24.158H19.5712C19.0189 24.158 18.5712 23.7103 18.5712 23.158V21.5791ZM19.5712 26.8418C19.0189 26.8418 18.5712 27.2895 18.5712 27.8418V29.4207C18.5712 29.973 19.0189 30.4207 19.5712 30.4207H21.2855C21.8378 30.4207 22.2855 29.973 22.2855 29.4207V27.8418C22.2855 27.2895 21.8378 26.8418 21.2855 26.8418H19.5712Z" fill="url(#paint0_linear_954_913)"/>
<defs>
<linearGradient id="paint0_linear_954_913" x1="26.4292" y1="0.0107369" x2="-39.9494" y2="78.4184" gradientUnits="userSpaceOnUse">
<stop stop-color="white"/>
<stop offset="1" stop-color="#333863"/>
</linearGradient>
</defs>
</svg>
