<svg width="28" height="36" viewBox="0 0 28 36" fill="none" xmlns="http://www.w3.org/2000/svg">
<path fill-rule="evenodd" clip-rule="evenodd" d="M0 2.00098C0 0.896408 0.895431 0.000976562 2 0.000976562H26C27.1046 0.000976562 28 0.896407 28 2.00098V34.001C28 35.1055 27.1046 36.001 26 36.001H2C0.895431 36.001 0 35.1055 0 34.001V2.00098ZM6.99924 29.7008C6.99924 29.2037 7.40218 28.8008 7.89924 28.8008H20.0992C20.5963 28.8008 20.9992 29.2037 20.9992 29.7008C20.9992 30.1978 20.5963 30.6008 20.0992 30.6008H7.89924C7.40218 30.6008 6.99924 30.1978 6.99924 29.7008ZM14.0008 24.3311C13.9362 24.3311 13.7419 24.3074 13.4201 23.9908C13.0914 23.6672 12.7219 23.12 12.3772 22.3177C12.0939 21.6587 11.8485 20.877 11.6579 20.0004H16.3436C16.153 20.877 15.9076 21.6587 15.6244 22.3177C15.2796 23.12 14.9101 23.6672 14.5814 23.9908C14.2596 24.3074 14.0653 24.3311 14.0008 24.3311ZM16.6147 18.4004H11.3868C11.2829 17.5689 11.2258 16.6802 11.2258 15.7512C11.2258 15.0054 11.2626 14.2855 11.3309 13.6004H16.6706C16.7389 14.2855 16.7758 15.0054 16.7758 15.7512C16.7758 16.6802 16.7186 17.5689 16.6147 18.4004ZM9.62575 15.7512C9.62575 15.0133 9.6595 14.2937 9.72359 13.6004H5.48815C5.33293 14.2904 5.25076 15.0103 5.25076 15.7506C5.25076 16.6714 5.37793 17.5609 5.61471 18.4004H9.77537C9.67779 17.5557 9.62575 16.6676 9.62575 15.7512ZM12.3772 9.18467C12.0413 9.96622 11.7586 10.9202 11.5575 12.0004H16.444C16.2429 10.9202 15.9602 9.96622 15.6244 9.18467C15.2796 8.38242 14.9101 7.83519 14.5814 7.51164C14.2596 7.19497 14.0653 7.17129 14.0008 7.17129C13.9362 7.17129 13.7419 7.19497 13.4201 7.51164C13.0914 7.83519 12.7219 8.38242 12.3772 9.18467ZM18.3758 15.7512C18.3758 15.0133 18.342 14.2937 18.2779 13.6004H22.5134C22.6686 14.2904 22.7508 15.0103 22.7508 15.7506C22.7508 16.6714 22.6236 17.5609 22.3868 18.4004H18.2261C18.3237 17.5557 18.3758 16.6676 18.3758 15.7512ZM18.0692 12.0004H22.0025C20.9104 9.39753 18.7163 7.42675 16.0464 6.75039C16.9617 7.87897 17.6842 9.74123 18.0692 12.0004ZM17.9776 20.0004H21.7756C20.6232 22.3541 18.5434 24.1177 16.0478 24.7504C16.8942 23.7058 17.5756 22.0336 17.9776 20.0004ZM5.99898 12.0004H9.93229C10.3173 9.74124 11.0398 7.87897 11.9551 6.75039C9.28522 7.42675 7.0911 9.39754 5.99898 12.0004ZM11.9538 24.7504C9.45813 24.1177 7.37832 22.354 6.22588 20.0004H10.0239C10.4259 22.0336 11.1073 23.7058 11.9538 24.7504Z" fill="url(#paint0_linear_949_889)"/>
<defs>
<linearGradient id="paint0_linear_949_889" x1="28.4622" y1="0.0123451" x2="-41.615" y2="84.2038" gradientUnits="userSpaceOnUse">
<stop stop-color="white"/>
<stop offset="1" stop-color="#333863"/>
</linearGradient>
</defs>
</svg>
