<svg width="145" height="153" viewBox="0 0 145 153" fill="none" xmlns="http://www.w3.org/2000/svg">
<mask id="path-1-inside-1_1503_1046" fill="white">
<path fill-rule="evenodd" clip-rule="evenodd" d="M17.866 98.9061L18.2659 96.4179L16.7833 94.3807C11.2451 86.77 7.56948 77.6476 6.50556 67.5975C3.27756 37.1048 25.38 9.76869 55.8727 6.54069C86.3653 3.3127 113.702 25.4151 116.93 55.9079C120.158 86.4004 98.055 113.737 67.5624 116.965C56.9577 118.087 46.7524 116.15 37.8037 111.869L35.3683 110.703L32.8736 111.736L14.5867 119.303L17.866 98.9061ZM120.388 80.5002C122.918 72.5977 123.882 64.052 122.953 55.2702C122.774 53.5823 122.529 51.9171 122.22 50.2779C126 48.8799 130.014 47.9245 134.206 47.4808C161.373 44.6049 185.727 64.2961 188.602 91.4624C189.55 100.417 188.05 109.049 184.645 116.711L183.622 119.014L184.534 121.363L190.89 137.733L174.387 134.706L171.732 134.219L169.594 135.868C162.597 141.267 154.069 144.858 144.621 145.858C121.929 148.261 101.2 134.918 93.3105 114.625C104.102 108.168 112.655 98.5369 117.822 87.1558L164.855 78.1828C166.498 77.8694 167.576 76.2834 167.262 74.6406C166.949 72.9978 165.363 71.9202 163.72 72.2332L120.388 80.5002ZM87.9293 117.491C81.8684 120.341 75.2355 122.243 68.2 122.988C56.4489 124.232 45.1204 122.084 35.1895 117.332L13.5637 126.281C10.6446 127.489 7.53167 125.029 8.03311 121.909L11.886 97.9444C5.73894 89.4973 1.66128 79.3709 0.482434 68.2351C-3.09771 34.4159 21.4159 4.09771 55.2351 0.517565C85.2905 -2.66414 112.581 16.3425 120.796 44.3502C124.839 42.9151 129.114 41.9292 133.569 41.4576C164.061 38.2296 191.398 60.3322 194.625 90.8248C195.688 100.865 194.005 110.563 190.18 119.171L197.843 138.91C198.987 141.855 196.458 144.912 193.351 144.343L173.295 140.663C165.436 146.728 155.853 150.76 145.258 151.882C120.037 154.552 96.9766 139.893 87.9293 117.491ZM101.872 57.5019C104.219 79.6786 88.145 99.5592 65.9683 101.907C43.7918 104.255 23.911 88.1801 21.5634 66.0035C19.2157 43.8269 35.2902 23.9461 57.4668 21.5985C79.6434 19.2509 99.5241 35.3254 101.872 57.5019ZM107.895 56.8643C110.595 82.3672 92.1089 105.23 66.606 107.93C41.1029 110.63 18.24 92.144 15.5403 66.6411C12.8405 41.1381 31.3261 18.2752 56.8292 15.5754C82.3321 12.8756 105.195 31.3613 107.895 56.8643ZM74.124 79.1842C73.1655 79.9059 72.1479 80.5339 71.0721 81.0685L72.3807 84.6555C72.5608 85.1485 72.542 85.6281 72.3254 86.0941C72.1464 86.5465 71.7913 86.8694 71.2601 87.0631C70.767 87.2427 70.2874 87.2245 69.8219 87.0073C69.3558 86.7907 69.033 86.4356 68.8529 85.9425L67.5723 82.4328C65.6604 83.0134 63.7452 83.3613 61.8282 83.4764C59.4686 83.6064 57.2642 83.3363 55.2142 82.6656C53.1643 81.9954 51.4608 80.919 50.1035 79.437C49.4714 78.7649 49.2085 78.0441 49.3146 77.2746C49.4449 76.4533 49.9306 75.7822 50.7718 75.2602C51.3613 74.8734 52.0287 74.7586 52.7738 74.9168C53.5057 75.0367 54.1473 75.3825 54.7002 75.9548C55.8568 77.1231 57.5808 77.7836 59.8718 77.9365C61.751 78.0487 63.6868 77.8184 65.6796 77.245L60.0171 61.7226C57.4963 62.2376 55.1346 62.3613 52.9314 62.0935C50.392 61.7305 48.2161 60.8914 46.4036 59.5753C44.6151 58.2075 43.3127 56.4045 42.4962 54.1668C41.6105 51.7389 41.5201 49.4294 42.225 47.238C42.9541 44.9949 44.2716 43.0099 46.1775 41.283C47.6564 39.9201 49.3703 38.7868 51.3201 37.8832L50.3162 35.1312C50.1224 34.6001 50.1407 34.1206 50.3715 33.6926C50.5881 33.2267 50.9432 32.9037 51.4363 32.7238C51.9675 32.5301 52.447 32.5485 52.875 32.7792C53.3268 32.9582 53.6502 33.3131 53.8439 33.8442L54.8408 36.5771C56.5093 36.104 58.0611 35.881 59.4968 35.9082C61.4248 35.8924 63.2037 36.2321 64.833 36.9272C66.4617 37.6223 67.9892 38.5694 69.4154 39.7684C70.2131 40.4231 70.7051 41.1246 70.8924 41.873C71.0656 42.5835 70.9058 43.265 70.413 43.9175C69.9344 44.608 69.2741 44.9778 68.4322 45.027C67.5767 45.0382 66.8092 44.7596 66.1288 44.1911C64.7133 42.9023 63.1112 42.0468 61.3241 41.6243C59.9761 41.2797 58.4379 41.3054 56.71 41.7013L61.919 55.9793C65.8276 55.1351 69.2881 55.3124 72.2993 56.5107C75.5921 57.7593 77.9096 60.2238 79.2517 63.9031C80.0126 65.9893 80.2666 67.9815 80.0133 69.8791C79.7599 71.7768 79.1064 73.5193 78.0523 75.1074C77.0227 76.6436 75.7129 78.0025 74.124 79.1842ZM71.2471 74.3021C70.6163 74.8835 69.9206 75.3927 69.1609 75.8299L63.7445 60.9834C66.0733 60.7064 67.99 60.9532 69.4954 61.7247C71.5281 62.7022 72.9044 64.1771 73.6237 66.1495C74.1914 67.7049 74.2397 69.1915 73.7681 70.6103C73.2833 71.9904 72.4427 73.2214 71.2471 74.3021ZM53.1643 42.9393L58.2053 56.7566C56.5777 56.998 55.1924 57.0294 54.0487 56.8505C52.3167 56.5796 50.9982 56.0294 50.0936 55.1989C49.2131 54.3166 48.5652 53.3066 48.15 52.1685C47.3474 49.9684 47.6178 48 48.9614 46.2633C49.9803 44.9036 51.3816 43.7955 53.1643 42.9393ZM166.903 92.7327C167.204 94.3784 166.113 95.9551 164.468 96.2557L113.18 105.609C111.534 105.91 109.958 104.819 109.657 103.174C109.357 101.528 110.448 99.9507 112.093 99.6506L163.381 90.2968C165.026 89.9968 166.603 91.0875 166.903 92.7327ZM158.683 113.433C160.328 113.128 161.413 111.547 161.107 109.903C160.801 108.258 159.22 107.173 157.576 107.479L115.903 115.229C114.259 115.535 113.173 117.115 113.479 118.759C113.785 120.404 115.366 121.489 117.01 121.183L158.683 113.433Z"/>
</mask>
<path fill-rule="evenodd" clip-rule="evenodd" d="M17.866 98.9061L18.2659 96.4179L16.7833 94.3807C11.2451 86.77 7.56948 77.6476 6.50556 67.5975C3.27756 37.1048 25.38 9.76869 55.8727 6.54069C86.3653 3.3127 113.702 25.4151 116.93 55.9079C120.158 86.4004 98.055 113.737 67.5624 116.965C56.9577 118.087 46.7524 116.15 37.8037 111.869L35.3683 110.703L32.8736 111.736L14.5867 119.303L17.866 98.9061ZM120.388 80.5002C122.918 72.5977 123.882 64.052 122.953 55.2702C122.774 53.5823 122.529 51.9171 122.22 50.2779C126 48.8799 130.014 47.9245 134.206 47.4808C161.373 44.6049 185.727 64.2961 188.602 91.4624C189.55 100.417 188.05 109.049 184.645 116.711L183.622 119.014L184.534 121.363L190.89 137.733L174.387 134.706L171.732 134.219L169.594 135.868C162.597 141.267 154.069 144.858 144.621 145.858C121.929 148.261 101.2 134.918 93.3105 114.625C104.102 108.168 112.655 98.5369 117.822 87.1558L164.855 78.1828C166.498 77.8694 167.576 76.2834 167.262 74.6406C166.949 72.9978 165.363 71.9202 163.72 72.2332L120.388 80.5002ZM87.9293 117.491C81.8684 120.341 75.2355 122.243 68.2 122.988C56.4489 124.232 45.1204 122.084 35.1895 117.332L13.5637 126.281C10.6446 127.489 7.53167 125.029 8.03311 121.909L11.886 97.9444C5.73894 89.4973 1.66128 79.3709 0.482434 68.2351C-3.09771 34.4159 21.4159 4.09771 55.2351 0.517565C85.2905 -2.66414 112.581 16.3425 120.796 44.3502C124.839 42.9151 129.114 41.9292 133.569 41.4576C164.061 38.2296 191.398 60.3322 194.625 90.8248C195.688 100.865 194.005 110.563 190.18 119.171L197.843 138.91C198.987 141.855 196.458 144.912 193.351 144.343L173.295 140.663C165.436 146.728 155.853 150.76 145.258 151.882C120.037 154.552 96.9766 139.893 87.9293 117.491ZM101.872 57.5019C104.219 79.6786 88.145 99.5592 65.9683 101.907C43.7918 104.255 23.911 88.1801 21.5634 66.0035C19.2157 43.8269 35.2902 23.9461 57.4668 21.5985C79.6434 19.2509 99.5241 35.3254 101.872 57.5019ZM107.895 56.8643C110.595 82.3672 92.1089 105.23 66.606 107.93C41.1029 110.63 18.24 92.144 15.5403 66.6411C12.8405 41.1381 31.3261 18.2752 56.8292 15.5754C82.3321 12.8756 105.195 31.3613 107.895 56.8643ZM74.124 79.1842C73.1655 79.9059 72.1479 80.5339 71.0721 81.0685L72.3807 84.6555C72.5608 85.1485 72.542 85.6281 72.3254 86.0941C72.1464 86.5465 71.7913 86.8694 71.2601 87.0631C70.767 87.2427 70.2874 87.2245 69.8219 87.0073C69.3558 86.7907 69.033 86.4356 68.8529 85.9425L67.5723 82.4328C65.6604 83.0134 63.7452 83.3613 61.8282 83.4764C59.4686 83.6064 57.2642 83.3363 55.2142 82.6656C53.1643 81.9954 51.4608 80.919 50.1035 79.437C49.4714 78.7649 49.2085 78.0441 49.3146 77.2746C49.4449 76.4533 49.9306 75.7822 50.7718 75.2602C51.3613 74.8734 52.0287 74.7586 52.7738 74.9168C53.5057 75.0367 54.1473 75.3825 54.7002 75.9548C55.8568 77.1231 57.5808 77.7836 59.8718 77.9365C61.751 78.0487 63.6868 77.8184 65.6796 77.245L60.0171 61.7226C57.4963 62.2376 55.1346 62.3613 52.9314 62.0935C50.392 61.7305 48.2161 60.8914 46.4036 59.5753C44.6151 58.2075 43.3127 56.4045 42.4962 54.1668C41.6105 51.7389 41.5201 49.4294 42.225 47.238C42.9541 44.9949 44.2716 43.0099 46.1775 41.283C47.6564 39.9201 49.3703 38.7868 51.3201 37.8832L50.3162 35.1312C50.1224 34.6001 50.1407 34.1206 50.3715 33.6926C50.5881 33.2267 50.9432 32.9037 51.4363 32.7238C51.9675 32.5301 52.447 32.5485 52.875 32.7792C53.3268 32.9582 53.6502 33.3131 53.8439 33.8442L54.8408 36.5771C56.5093 36.104 58.0611 35.881 59.4968 35.9082C61.4248 35.8924 63.2037 36.2321 64.833 36.9272C66.4617 37.6223 67.9892 38.5694 69.4154 39.7684C70.2131 40.4231 70.7051 41.1246 70.8924 41.873C71.0656 42.5835 70.9058 43.265 70.413 43.9175C69.9344 44.608 69.2741 44.9778 68.4322 45.027C67.5767 45.0382 66.8092 44.7596 66.1288 44.1911C64.7133 42.9023 63.1112 42.0468 61.3241 41.6243C59.9761 41.2797 58.4379 41.3054 56.71 41.7013L61.919 55.9793C65.8276 55.1351 69.2881 55.3124 72.2993 56.5107C75.5921 57.7593 77.9096 60.2238 79.2517 63.9031C80.0126 65.9893 80.2666 67.9815 80.0133 69.8791C79.7599 71.7768 79.1064 73.5193 78.0523 75.1074C77.0227 76.6436 75.7129 78.0025 74.124 79.1842ZM71.2471 74.3021C70.6163 74.8835 69.9206 75.3927 69.1609 75.8299L63.7445 60.9834C66.0733 60.7064 67.99 60.9532 69.4954 61.7247C71.5281 62.7022 72.9044 64.1771 73.6237 66.1495C74.1914 67.7049 74.2397 69.1915 73.7681 70.6103C73.2833 71.9904 72.4427 73.2214 71.2471 74.3021ZM53.1643 42.9393L58.2053 56.7566C56.5777 56.998 55.1924 57.0294 54.0487 56.8505C52.3167 56.5796 50.9982 56.0294 50.0936 55.1989C49.2131 54.3166 48.5652 53.3066 48.15 52.1685C47.3474 49.9684 47.6178 48 48.9614 46.2633C49.9803 44.9036 51.3816 43.7955 53.1643 42.9393ZM166.903 92.7327C167.204 94.3784 166.113 95.9551 164.468 96.2557L113.18 105.609C111.534 105.91 109.958 104.819 109.657 103.174C109.357 101.528 110.448 99.9507 112.093 99.6506L163.381 90.2968C165.026 89.9968 166.603 91.0875 166.903 92.7327ZM158.683 113.433C160.328 113.128 161.413 111.547 161.107 109.903C160.801 108.258 159.22 107.173 157.576 107.479L115.903 115.229C114.259 115.535 113.173 117.115 113.479 118.759C113.785 120.404 115.366 121.489 117.01 121.183L158.683 113.433Z" stroke="#D6D7E0" stroke-width="2" mask="url(#path-1-inside-1_1503_1046)"/>
</svg>
