<svg width="140" height="130" viewBox="0 0 140 130" fill="none" xmlns="http://www.w3.org/2000/svg">
<mask id="path-1-inside-1_1510_1082" fill="white">
<path fill-rule="evenodd" clip-rule="evenodd" d="M110.664 15.5277C131.965 32.0045 135.877 62.6301 119.4 83.9318C102.923 105.234 72.2971 109.145 50.9954 92.6678C29.6938 76.1912 25.7825 45.5657 42.2594 24.2638C58.7364 2.96213 89.3619 -0.949185 110.664 15.5277ZM113.926 11.3091C134.653 27.3408 140.539 55.4465 129.341 78.0579L130.421 78.8937L140.102 86.3813L140.122 86.3973L143.515 82.0103C144.803 80.3463 147.195 80.0408 148.859 81.328L156.051 86.8907C157.619 88.1032 157.981 90.2968 156.942 91.9383L157.175 92.1192L178.258 108.426C183.25 112.288 184.166 119.466 180.305 124.458L174.214 132.333C170.352 137.325 163.174 138.242 158.182 134.38L137.1 118.073L136.869 117.895C135.546 119.346 133.308 119.561 131.727 118.338L124.535 112.775C122.871 111.488 122.565 109.095 123.853 107.431L127.032 103.321L127.011 103.305L117.331 95.8168L116.261 94.9889C108.478 101.747 99.0903 105.977 89.2933 107.527L94.5878 145.673C94.819 147.34 93.6552 148.879 91.9878 149.11L16.3499 159.608C14.6827 159.84 13.1436 158.676 12.9122 157.008L0.0293082 64.1855C-0.202079 62.5185 0.961855 60.979 2.62903 60.7478L26.8337 57.3886C26.0588 44.7558 29.6887 31.7985 38.0407 21.0008C56.3196 -2.63083 90.2949 -6.96995 113.926 11.3091ZM27.421 62.6914L5.62621 65.7162L17.8807 154.011L88.9909 144.142L83.9886 108.101C71.3977 108.843 58.4926 105.21 47.7326 96.8865C36.4169 88.1341 29.5248 75.7829 27.421 62.6914ZM102.273 26.3755C117.583 38.2183 120.395 60.2305 108.552 75.5409C102.943 82.7924 95.0529 87.24 86.6743 88.6549L85.2529 78.416C85.3528 78.0629 85.3806 77.6834 85.3227 77.2971C85.2678 76.9314 85.1413 76.5943 84.9592 76.2983L81.7048 52.8495C81.4735 51.1825 79.9341 50.0187 78.267 50.2499L45.787 54.7581C45.637 47.0449 48.0198 39.2316 53.107 32.6547C64.9501 17.344 86.9619 14.5328 102.273 26.3755ZM46.2945 60.072C46.7269 62.5745 47.4297 65.0324 48.3973 67.3981L77.7303 63.0088L76.7364 55.8469L46.2945 60.072ZM50.936 72.411C52.3775 74.7653 54.1158 76.9749 56.1432 78.9809L79.4613 75.4804L78.4636 68.2918L50.936 72.411ZM61.7916 83.5261C67.7878 87.4148 74.608 89.2488 81.3573 89.1429L80.1943 80.7634L61.7916 83.5261ZM105.536 22.1569C123.176 35.8018 126.415 61.1634 112.77 78.8042C99.1253 96.4446 73.7638 99.6838 56.123 86.0389C38.4827 72.3939 35.2437 47.032 48.8888 29.3916C62.5333 11.7511 87.8952 8.51203 105.536 22.1569ZM120.594 91.5981L127.158 83.1124L136.838 90.6L130.275 99.0861L120.594 91.5981ZM133.784 113.187L129.003 109.489L146.802 86.4789L151.583 90.1771L133.784 113.187ZM153.912 96.3375L140.363 113.854L161.445 130.162C164.108 132.221 167.936 131.732 169.995 129.07L176.086 121.195C178.146 118.533 177.657 114.704 174.994 112.645L153.912 96.3375ZM25.8675 75.9539C27.3274 75.7592 28.353 74.4183 28.1584 72.9585C27.9637 71.4983 26.6225 70.4728 25.1627 70.6674L13.7341 72.1912C12.2742 72.3859 11.2486 73.7272 11.4433 75.187C11.6379 76.6469 12.9791 77.6724 14.439 77.4777L25.8675 75.9539ZM30.0578 86.6343C30.2736 88.091 29.2675 89.4472 27.8107 89.6629L17.525 91.1867C16.0681 91.4027 14.7121 90.3966 14.4963 88.9398C14.2805 87.4827 15.2865 86.1269 16.7434 85.9109L27.0291 84.387C28.4859 84.1714 29.8419 85.1775 30.0578 86.6343ZM28.1611 103.382C29.6204 103.182 30.642 101.838 30.443 100.379C30.244 98.9196 28.8998 97.8983 27.4405 98.0971L19.0596 99.24C17.6003 99.4389 16.5787 100.783 16.7776 102.243C16.9766 103.702 18.3209 104.723 19.7802 104.525L28.1611 103.382ZM64.7307 110.818C64.9219 112.279 63.8929 113.618 62.4324 113.808L21.6706 119.142C20.2103 119.333 18.8716 118.304 18.6805 116.844C18.4894 115.383 19.5184 114.045 20.9787 113.854L61.7406 108.52C63.2008 108.329 64.5394 109.358 64.7307 110.818ZM81.4895 123.953C82.9486 123.752 83.9691 122.407 83.7688 120.948C83.5684 119.489 82.2232 118.469 80.7642 118.669L22.4786 126.669C21.0195 126.869 19.999 128.214 20.1993 129.674C20.3995 131.133 21.7447 132.153 23.2038 131.953L81.4895 123.953ZM84.9116 134.662C85.112 136.122 84.0914 137.467 82.6324 137.667L24.3467 145.667C22.8876 145.867 21.5424 144.847 21.3421 143.388C21.1419 141.929 22.1624 140.583 23.6214 140.383L81.907 132.383C83.3661 132.183 84.7112 133.203 84.9116 134.662Z"/>
</mask>
<path fill-rule="evenodd" clip-rule="evenodd" d="M110.664 15.5277C131.965 32.0045 135.877 62.6301 119.4 83.9318C102.923 105.234 72.2971 109.145 50.9954 92.6678C29.6938 76.1912 25.7825 45.5657 42.2594 24.2638C58.7364 2.96213 89.3619 -0.949185 110.664 15.5277ZM113.926 11.3091C134.653 27.3408 140.539 55.4465 129.341 78.0579L130.421 78.8937L140.102 86.3813L140.122 86.3973L143.515 82.0103C144.803 80.3463 147.195 80.0408 148.859 81.328L156.051 86.8907C157.619 88.1032 157.981 90.2968 156.942 91.9383L157.175 92.1192L178.258 108.426C183.25 112.288 184.166 119.466 180.305 124.458L174.214 132.333C170.352 137.325 163.174 138.242 158.182 134.38L137.1 118.073L136.869 117.895C135.546 119.346 133.308 119.561 131.727 118.338L124.535 112.775C122.871 111.488 122.565 109.095 123.853 107.431L127.032 103.321L127.011 103.305L117.331 95.8168L116.261 94.9889C108.478 101.747 99.0903 105.977 89.2933 107.527L94.5878 145.673C94.819 147.34 93.6552 148.879 91.9878 149.11L16.3499 159.608C14.6827 159.84 13.1436 158.676 12.9122 157.008L0.0293082 64.1855C-0.202079 62.5185 0.961855 60.979 2.62903 60.7478L26.8337 57.3886C26.0588 44.7558 29.6887 31.7985 38.0407 21.0008C56.3196 -2.63083 90.2949 -6.96995 113.926 11.3091ZM27.421 62.6914L5.62621 65.7162L17.8807 154.011L88.9909 144.142L83.9886 108.101C71.3977 108.843 58.4926 105.21 47.7326 96.8865C36.4169 88.1341 29.5248 75.7829 27.421 62.6914ZM102.273 26.3755C117.583 38.2183 120.395 60.2305 108.552 75.5409C102.943 82.7924 95.0529 87.24 86.6743 88.6549L85.2529 78.416C85.3528 78.0629 85.3806 77.6834 85.3227 77.2971C85.2678 76.9314 85.1413 76.5943 84.9592 76.2983L81.7048 52.8495C81.4735 51.1825 79.9341 50.0187 78.267 50.2499L45.787 54.7581C45.637 47.0449 48.0198 39.2316 53.107 32.6547C64.9501 17.344 86.9619 14.5328 102.273 26.3755ZM46.2945 60.072C46.7269 62.5745 47.4297 65.0324 48.3973 67.3981L77.7303 63.0088L76.7364 55.8469L46.2945 60.072ZM50.936 72.411C52.3775 74.7653 54.1158 76.9749 56.1432 78.9809L79.4613 75.4804L78.4636 68.2918L50.936 72.411ZM61.7916 83.5261C67.7878 87.4148 74.608 89.2488 81.3573 89.1429L80.1943 80.7634L61.7916 83.5261ZM105.536 22.1569C123.176 35.8018 126.415 61.1634 112.77 78.8042C99.1253 96.4446 73.7638 99.6838 56.123 86.0389C38.4827 72.3939 35.2437 47.032 48.8888 29.3916C62.5333 11.7511 87.8952 8.51203 105.536 22.1569ZM120.594 91.5981L127.158 83.1124L136.838 90.6L130.275 99.0861L120.594 91.5981ZM133.784 113.187L129.003 109.489L146.802 86.4789L151.583 90.1771L133.784 113.187ZM153.912 96.3375L140.363 113.854L161.445 130.162C164.108 132.221 167.936 131.732 169.995 129.07L176.086 121.195C178.146 118.533 177.657 114.704 174.994 112.645L153.912 96.3375ZM25.8675 75.9539C27.3274 75.7592 28.353 74.4183 28.1584 72.9585C27.9637 71.4983 26.6225 70.4728 25.1627 70.6674L13.7341 72.1912C12.2742 72.3859 11.2486 73.7272 11.4433 75.187C11.6379 76.6469 12.9791 77.6724 14.439 77.4777L25.8675 75.9539ZM30.0578 86.6343C30.2736 88.091 29.2675 89.4472 27.8107 89.6629L17.525 91.1867C16.0681 91.4027 14.7121 90.3966 14.4963 88.9398C14.2805 87.4827 15.2865 86.1269 16.7434 85.9109L27.0291 84.387C28.4859 84.1714 29.8419 85.1775 30.0578 86.6343ZM28.1611 103.382C29.6204 103.182 30.642 101.838 30.443 100.379C30.244 98.9196 28.8998 97.8983 27.4405 98.0971L19.0596 99.24C17.6003 99.4389 16.5787 100.783 16.7776 102.243C16.9766 103.702 18.3209 104.723 19.7802 104.525L28.1611 103.382ZM64.7307 110.818C64.9219 112.279 63.8929 113.618 62.4324 113.808L21.6706 119.142C20.2103 119.333 18.8716 118.304 18.6805 116.844C18.4894 115.383 19.5184 114.045 20.9787 113.854L61.7406 108.52C63.2008 108.329 64.5394 109.358 64.7307 110.818ZM81.4895 123.953C82.9486 123.752 83.9691 122.407 83.7688 120.948C83.5684 119.489 82.2232 118.469 80.7642 118.669L22.4786 126.669C21.0195 126.869 19.999 128.214 20.1993 129.674C20.3995 131.133 21.7447 132.153 23.2038 131.953L81.4895 123.953ZM84.9116 134.662C85.112 136.122 84.0914 137.467 82.6324 137.667L24.3467 145.667C22.8876 145.867 21.5424 144.847 21.3421 143.388C21.1419 141.929 22.1624 140.583 23.6214 140.383L81.907 132.383C83.3661 132.183 84.7112 133.203 84.9116 134.662Z" stroke="#D6D7E0" stroke-width="2" mask="url(#path-1-inside-1_1510_1082)"/>
</svg>
