<svg width="140" height="168" viewBox="0 0 140 168" fill="none" xmlns="http://www.w3.org/2000/svg">
<path d="M114.123 103.736L114.123 103.736C117.985 96.0318 119.256 86.991 117.101 77.9515C112.241 57.568 91.7763 44.9837 71.3928 49.844C51.0093 54.7043 38.4252 75.1688 43.2855 95.5523C45.4124 104.472 50.5169 111.887 57.3017 117.013L57.3024 117.013L57.4056 117.091L57.5054 117.174L57.5059 117.174C62.9449 121.678 66.7471 125.725 69.511 129.98C72.2284 134.163 73.7616 138.274 74.9947 142.674L75.1245 143.137L75.5921 143.026L109.669 134.9L110.139 134.788L110.043 134.315C109.187 130.095 108.658 125.842 109.139 120.933C109.631 115.91 111.145 110.534 113.993 104.015L113.993 104.014L114.054 103.873L114.123 103.736ZM54.1082 121.276L54.0996 121.269L54.0906 121.262C46.3554 115.419 40.5282 106.955 38.104 96.7878C32.5613 73.5427 46.9121 50.2051 70.1573 44.6625C93.403 39.1197 116.74 53.4708 122.283 76.716C124.739 87.0199 123.288 97.3402 118.886 106.122L118.88 106.134L118.875 106.146C116.178 112.32 114.863 117.142 114.44 121.453C114.018 125.767 114.492 129.541 115.336 133.609C115.93 136.468 114.214 139.293 111.4 139.964L76.3552 148.32C73.5414 148.991 70.731 147.245 69.9536 144.428C68.7835 140.189 67.4232 136.545 65.0437 132.881C62.6662 129.221 59.2872 125.566 54.1082 121.276ZM103.971 6.83347L103.499 6.66789L103.971 6.83344C104.458 5.44557 105.978 4.71525 107.366 5.20233C108.754 5.68933 109.484 7.2094 108.997 8.59747L103.053 25.5349L103.524 25.7005L103.053 25.5349C102.566 26.9228 101.046 27.6531 99.6577 27.1661C98.27 26.6788 97.5397 25.1588 98.0267 23.7708L103.971 6.83347ZM22.9692 67.8603L22.9692 67.8603C22.5411 69.2677 21.0532 70.0612 19.6458 69.633L2.47297 64.4081C1.06571 63.9799 0.272009 62.4921 0.700177 61.0848C1.12835 59.6775 2.61625 58.8838 4.02351 59.312L21.1964 64.537C22.6036 64.9651 23.3973 66.4531 22.9692 67.8603ZM122.736 44.0716L122.375 44.4172L122.736 44.0715C121.719 43.0088 121.756 41.3229 122.819 40.3058L122.473 39.9446L122.819 40.3058L135.786 27.8941C136.849 26.877 138.535 26.9139 139.552 27.9765C140.569 29.0392 140.532 30.7252 139.47 31.7422L126.502 44.1538C125.439 45.171 123.753 45.1343 122.736 44.0716ZM60.5714 1.51197C62.0024 1.17075 63.4387 2.05412 63.7799 3.48499L68.5386 23.4423C68.8798 24.8732 67.9966 26.3096 66.5656 26.6509C65.135 26.992 63.6982 26.1087 63.357 24.6778L58.5984 4.72049C58.2572 3.28968 59.1408 1.85308 60.5714 1.51197ZM113.26 148.765L78.6669 157.013C78.0857 157.152 77.7265 157.735 77.8651 158.317C78.0037 158.898 78.5872 159.257 79.169 159.119L113.762 150.87C114.344 150.731 114.702 150.147 114.563 149.566C114.425 148.985 113.841 148.626 113.26 148.765ZM74.0823 159.219C73.4456 156.548 75.0943 153.867 77.7649 153.23L112.358 144.982C115.028 144.345 117.71 145.994 118.346 148.664C118.983 151.335 117.334 154.016 114.664 154.653L80.071 162.902C77.4004 163.538 74.7192 161.889 74.0823 159.219ZM110.671 162.74L87.2839 168.317C86.731 168.449 86.3897 169.004 86.5215 169.557C86.6533 170.109 87.2084 170.451 87.7613 170.319L111.148 164.742C111.701 164.611 112.042 164.056 111.91 163.503C111.779 162.95 111.223 162.608 110.671 162.74ZM82.7385 170.459C82.1085 167.816 83.7395 165.164 86.3819 164.534L109.769 158.957C112.411 158.327 115.063 159.958 115.693 162.601C116.323 165.243 114.692 167.895 112.05 168.525L88.6633 174.102C86.0209 174.732 83.3685 173.1 82.7385 170.459ZM69.7138 56.2402C69.5155 54.7826 70.5362 53.4402 71.9938 53.2418L72.7797 59.0156L72.7123 58.5201C72.7122 58.5201 72.7122 58.5201 72.7122 58.5201C71.2546 58.7183 69.9125 57.6977 69.7138 56.2402ZM20.4774 25.9203C21.4962 24.8593 23.1823 24.8251 24.2432 25.844L37.1904 38.2768C38.2514 39.2957 38.2856 40.9817 37.2667 42.0427C36.2479 43.1037 34.5619 43.1379 33.5009 42.119L20.5537 29.6861C19.4927 28.6673 19.4585 26.9812 20.4774 25.9203Z" stroke="#D6D7E0"/>
</svg>
