<svg width="115" height="179" viewBox="0 0 115 179" fill="none" xmlns="http://www.w3.org/2000/svg">
<mask id="path-1-inside-1_1506_1067" fill="white">
<path fill-rule="evenodd" clip-rule="evenodd" d="M73.8853 22.0924C73.9801 22.7978 74.0423 23.5006 74.0727 24.1996C79.7076 26.7358 84.9368 30.4947 89.1919 35.573C95.191 42.7324 98.2104 52.3083 99.5669 61.0795C100.859 69.4326 100.694 77.3924 99.9471 82.4914C100.1 82.9387 100.228 83.3958 100.331 83.8596C101.62 89.6502 99.1915 96.8572 92.0249 101.724C91.8304 101.856 91.6256 101.961 91.4147 102.041C90.3317 112.767 85.7168 122.544 79.8024 129.67L82.1563 128.74C85.0839 127.583 88.32 129.482 88.7393 132.601L90.5292 145.917C90.5606 146.151 90.5747 146.384 90.5724 146.614C115.054 147.163 136.18 165.451 139.545 190.486C139.777 192.217 138.562 193.81 136.831 194.042L70.8113 202.916L4.31197 211.855C2.58017 212.088 0.987585 210.873 0.754813 209.141C-2.63215 183.943 13.1398 160.587 36.864 153.76C36.8114 153.563 36.7709 153.361 36.7431 153.154L34.9539 139.843C34.5332 136.714 37.1695 134.025 40.306 134.383L41.5156 134.521C34.107 129.235 27.267 121.185 23.437 111.358C23.2893 111.333 23.1416 111.295 22.9952 111.245C14.7979 108.443 10.5529 102.133 10.2665 96.2082C10.2141 95.123 10.2966 94.0372 10.5225 92.9909C10.4827 92.9165 10.4457 92.8394 10.4119 92.7603C2.8292 75.0149 3.71547 61.2784 7.26863 51.8255C9.0321 47.134 11.4385 43.5389 13.7311 41.0736C14.8737 39.8449 16.0219 38.8604 17.0894 38.1587C18.0249 37.5439 19.3218 36.8598 20.6727 36.851C21.1284 36.848 21.5493 36.8485 21.9377 36.8519C20.7745 34.5571 19.9761 32.0511 19.6179 29.3867C17.7641 15.5948 28.4095 2.78128 43.3949 0.767005C58.3804 -1.24727 72.0314 8.30044 73.8853 22.0924ZM50.6562 158.334L68.022 182.165L78.5027 154.53L65.8514 159.393C65.1377 159.667 64.3696 159.768 63.6089 159.689L50.6562 158.334ZM44.1695 6.5299C56.067 4.9307 66.1398 12.2422 67.9768 21.9662C62.8089 20.4782 57.4801 19.9175 52.3819 20.2177C42.0565 20.8256 32.1371 25.0398 26.4945 32.8051C25.9541 31.4692 25.5761 30.0647 25.3808 28.6121C24.0141 18.4439 31.907 8.17817 44.1695 6.5299ZM52.7236 26.0223C41.2699 26.6967 31.7934 32.2198 28.692 40.9883C28.1879 42.4133 26.6862 43.1997 25.249 42.8404C25.2078 42.8349 25.1664 42.8286 25.1251 42.8213L25.1039 42.8183C25.0931 42.8168 25.0789 42.8149 25.061 42.8126L25.0327 42.8091C24.9191 42.7952 24.7048 42.7725 24.3668 42.7491C23.7153 42.7041 22.6179 42.6573 20.915 42.6645C20.8368 42.6977 20.6303 42.7897 20.2831 43.0179C19.6778 43.4157 18.8796 44.0758 17.9893 45.0332C16.216 46.9402 14.2103 49.8841 12.7115 53.8716C9.95551 61.2033 8.8616 72.2136 14.349 86.9508C16.0711 85.7082 18.223 85.0655 20.6391 85.1373C22.0518 74.837 26.2927 65.7784 32.4817 59.4735C33.4892 58.4468 34.5486 57.4933 35.6558 56.6189C35.6859 56.5953 35.7164 56.5712 35.7469 56.5475C36.3286 56.0914 36.9239 55.6574 37.5315 55.2457L37.6717 56.2888C37.9002 57.6828 38.5304 59.2687 39.5921 60.9252C44.6071 68.7505 59.2529 78.137 86.6682 76.1705C89.5173 75.106 92.2967 75.1925 94.657 76.3078C94.8164 72.2156 94.6287 67.1932 93.8203 61.9683C92.5431 53.7105 89.773 45.32 84.7353 39.3076C76.5769 29.572 64.0876 25.3532 52.7236 26.0223ZM89.1152 81.4774C90.0745 84.5513 90.7966 87.7813 91.2474 91.1344C91.3999 92.2692 91.5083 93.3997 91.5749 94.5245C94.577 91.3063 95.2265 87.6885 94.6557 85.1222C94.2892 83.4759 93.4606 82.3424 92.5329 81.7621C91.7487 81.2715 90.6387 81.012 89.1152 81.4774ZM21.2345 103.996C21.0003 102.888 20.8051 101.764 20.6519 100.623C20.2105 97.3401 20.0514 94.1019 20.1518 90.9471C18.7342 90.9733 17.8203 91.4897 17.2342 92.1259C16.4926 92.9306 15.9929 94.2421 16.0744 95.9272C16.1979 98.4833 17.7001 101.695 21.2345 103.996ZM26.4148 99.8489C24.5058 85.6467 28.449 72.9573 35.3152 64.9861C38.0346 68.8238 42.224 72.4453 47.5778 75.3056C55.9751 79.7911 67.7447 82.7477 83.2312 82.1803C84.2589 85.2426 85.0262 88.4998 85.4844 91.909C86.9542 102.844 83.7352 113.516 78.4367 121.714C72.9783 130.159 66.1078 134.849 61.2751 135.499C56.4424 136.148 48.5773 133.439 41.083 126.735C33.8076 120.227 27.8846 110.783 26.4148 99.8489ZM44.0591 98.4614C46.1808 98.1762 47.6698 96.2248 47.3846 94.1031C47.0994 91.9813 45.148 90.4923 43.0263 90.7775C40.9046 91.0627 39.4156 93.0142 39.7007 95.1359C39.9859 97.2576 41.9374 98.7466 44.0591 98.4614ZM72.3572 90.7464C72.6424 92.8681 71.1534 94.8195 69.0317 95.1047C66.9099 95.3899 64.9585 93.9009 64.6733 91.7792C64.3881 89.6575 65.8771 87.706 67.9988 87.4209C70.1205 87.1357 72.072 88.6247 72.3572 90.7464ZM68.6928 118.148C69.3566 116.986 68.9533 115.506 67.7914 114.842C66.6299 114.178 65.1499 114.581 64.4857 115.743C63.793 116.955 61.7946 118.009 59.0108 118.272C57.7116 118.394 56.436 118.317 55.3826 118.083C54.2794 117.837 53.6581 117.474 53.4082 117.226C52.4582 116.284 50.9242 116.29 49.9817 117.24C49.0396 118.19 49.0454 119.724 49.9954 120.667C51.1559 121.818 52.7794 122.468 54.3297 122.813C55.9298 123.169 57.718 123.261 59.4662 123.096C62.7777 122.784 66.8127 121.437 68.6928 118.148ZM83.1413 134.603L63.6014 142.323C62.8618 142.615 62.0615 142.721 61.2711 142.631L40.8825 140.301L42.4045 151.624L63.9827 153.882L84.6643 145.933L83.1413 134.603ZM65.559 188.659L66.0524 189.336L67.1552 197.541L6.24095 205.729C4.50777 182.767 20.5702 162.109 43.384 158.228L65.559 188.659ZM72.9181 196.766L71.8153 188.561L72.1124 187.778L85.4567 152.592C108.299 150.57 128.991 166.193 133.352 188.643L72.9181 196.766ZM89.6542 186.694L89.396 184.773L110.527 181.933L110.785 183.854L89.6542 186.694ZM84.2063 182.537C84.0637 181.476 84.8082 180.5 85.8691 180.358L112.763 176.743C113.823 176.6 114.799 177.345 114.942 178.406L115.975 186.09C116.117 187.15 115.373 188.126 114.312 188.269L87.4183 191.884C86.3575 192.026 85.3817 191.282 85.2391 190.221L84.2063 182.537Z"/>
</mask>
<path fill-rule="evenodd" clip-rule="evenodd" d="M73.8853 22.0924C73.9801 22.7978 74.0423 23.5006 74.0727 24.1996C79.7076 26.7358 84.9368 30.4947 89.1919 35.573C95.191 42.7324 98.2104 52.3083 99.5669 61.0795C100.859 69.4326 100.694 77.3924 99.9471 82.4914C100.1 82.9387 100.228 83.3958 100.331 83.8596C101.62 89.6502 99.1915 96.8572 92.0249 101.724C91.8304 101.856 91.6256 101.961 91.4147 102.041C90.3317 112.767 85.7168 122.544 79.8024 129.67L82.1563 128.74C85.0839 127.583 88.32 129.482 88.7393 132.601L90.5292 145.917C90.5606 146.151 90.5747 146.384 90.5724 146.614C115.054 147.163 136.18 165.451 139.545 190.486C139.777 192.217 138.562 193.81 136.831 194.042L70.8113 202.916L4.31197 211.855C2.58017 212.088 0.987585 210.873 0.754813 209.141C-2.63215 183.943 13.1398 160.587 36.864 153.76C36.8114 153.563 36.7709 153.361 36.7431 153.154L34.9539 139.843C34.5332 136.714 37.1695 134.025 40.306 134.383L41.5156 134.521C34.107 129.235 27.267 121.185 23.437 111.358C23.2893 111.333 23.1416 111.295 22.9952 111.245C14.7979 108.443 10.5529 102.133 10.2665 96.2082C10.2141 95.123 10.2966 94.0372 10.5225 92.9909C10.4827 92.9165 10.4457 92.8394 10.4119 92.7603C2.8292 75.0149 3.71547 61.2784 7.26863 51.8255C9.0321 47.134 11.4385 43.5389 13.7311 41.0736C14.8737 39.8449 16.0219 38.8604 17.0894 38.1587C18.0249 37.5439 19.3218 36.8598 20.6727 36.851C21.1284 36.848 21.5493 36.8485 21.9377 36.8519C20.7745 34.5571 19.9761 32.0511 19.6179 29.3867C17.7641 15.5948 28.4095 2.78128 43.3949 0.767005C58.3804 -1.24727 72.0314 8.30044 73.8853 22.0924ZM50.6562 158.334L68.022 182.165L78.5027 154.53L65.8514 159.393C65.1377 159.667 64.3696 159.768 63.6089 159.689L50.6562 158.334ZM44.1695 6.5299C56.067 4.9307 66.1398 12.2422 67.9768 21.9662C62.8089 20.4782 57.4801 19.9175 52.3819 20.2177C42.0565 20.8256 32.1371 25.0398 26.4945 32.8051C25.9541 31.4692 25.5761 30.0647 25.3808 28.6121C24.0141 18.4439 31.907 8.17817 44.1695 6.5299ZM52.7236 26.0223C41.2699 26.6967 31.7934 32.2198 28.692 40.9883C28.1879 42.4133 26.6862 43.1997 25.249 42.8404C25.2078 42.8349 25.1664 42.8286 25.1251 42.8213L25.1039 42.8183C25.0931 42.8168 25.0789 42.8149 25.061 42.8126L25.0327 42.8091C24.9191 42.7952 24.7048 42.7725 24.3668 42.7491C23.7153 42.7041 22.6179 42.6573 20.915 42.6645C20.8368 42.6977 20.6303 42.7897 20.2831 43.0179C19.6778 43.4157 18.8796 44.0758 17.9893 45.0332C16.216 46.9402 14.2103 49.8841 12.7115 53.8716C9.95551 61.2033 8.8616 72.2136 14.349 86.9508C16.0711 85.7082 18.223 85.0655 20.6391 85.1373C22.0518 74.837 26.2927 65.7784 32.4817 59.4735C33.4892 58.4468 34.5486 57.4933 35.6558 56.6189C35.6859 56.5953 35.7164 56.5712 35.7469 56.5475C36.3286 56.0914 36.9239 55.6574 37.5315 55.2457L37.6717 56.2888C37.9002 57.6828 38.5304 59.2687 39.5921 60.9252C44.6071 68.7505 59.2529 78.137 86.6682 76.1705C89.5173 75.106 92.2967 75.1925 94.657 76.3078C94.8164 72.2156 94.6287 67.1932 93.8203 61.9683C92.5431 53.7105 89.773 45.32 84.7353 39.3076C76.5769 29.572 64.0876 25.3532 52.7236 26.0223ZM89.1152 81.4774C90.0745 84.5513 90.7966 87.7813 91.2474 91.1344C91.3999 92.2692 91.5083 93.3997 91.5749 94.5245C94.577 91.3063 95.2265 87.6885 94.6557 85.1222C94.2892 83.4759 93.4606 82.3424 92.5329 81.7621C91.7487 81.2715 90.6387 81.012 89.1152 81.4774ZM21.2345 103.996C21.0003 102.888 20.8051 101.764 20.6519 100.623C20.2105 97.3401 20.0514 94.1019 20.1518 90.9471C18.7342 90.9733 17.8203 91.4897 17.2342 92.1259C16.4926 92.9306 15.9929 94.2421 16.0744 95.9272C16.1979 98.4833 17.7001 101.695 21.2345 103.996ZM26.4148 99.8489C24.5058 85.6467 28.449 72.9573 35.3152 64.9861C38.0346 68.8238 42.224 72.4453 47.5778 75.3056C55.9751 79.7911 67.7447 82.7477 83.2312 82.1803C84.2589 85.2426 85.0262 88.4998 85.4844 91.909C86.9542 102.844 83.7352 113.516 78.4367 121.714C72.9783 130.159 66.1078 134.849 61.2751 135.499C56.4424 136.148 48.5773 133.439 41.083 126.735C33.8076 120.227 27.8846 110.783 26.4148 99.8489ZM44.0591 98.4614C46.1808 98.1762 47.6698 96.2248 47.3846 94.1031C47.0994 91.9813 45.148 90.4923 43.0263 90.7775C40.9046 91.0627 39.4156 93.0142 39.7007 95.1359C39.9859 97.2576 41.9374 98.7466 44.0591 98.4614ZM72.3572 90.7464C72.6424 92.8681 71.1534 94.8195 69.0317 95.1047C66.9099 95.3899 64.9585 93.9009 64.6733 91.7792C64.3881 89.6575 65.8771 87.706 67.9988 87.4209C70.1205 87.1357 72.072 88.6247 72.3572 90.7464ZM68.6928 118.148C69.3566 116.986 68.9533 115.506 67.7914 114.842C66.6299 114.178 65.1499 114.581 64.4857 115.743C63.793 116.955 61.7946 118.009 59.0108 118.272C57.7116 118.394 56.436 118.317 55.3826 118.083C54.2794 117.837 53.6581 117.474 53.4082 117.226C52.4582 116.284 50.9242 116.29 49.9817 117.24C49.0396 118.19 49.0454 119.724 49.9954 120.667C51.1559 121.818 52.7794 122.468 54.3297 122.813C55.9298 123.169 57.718 123.261 59.4662 123.096C62.7777 122.784 66.8127 121.437 68.6928 118.148ZM83.1413 134.603L63.6014 142.323C62.8618 142.615 62.0615 142.721 61.2711 142.631L40.8825 140.301L42.4045 151.624L63.9827 153.882L84.6643 145.933L83.1413 134.603ZM65.559 188.659L66.0524 189.336L67.1552 197.541L6.24095 205.729C4.50777 182.767 20.5702 162.109 43.384 158.228L65.559 188.659ZM72.9181 196.766L71.8153 188.561L72.1124 187.778L85.4567 152.592C108.299 150.57 128.991 166.193 133.352 188.643L72.9181 196.766ZM89.6542 186.694L89.396 184.773L110.527 181.933L110.785 183.854L89.6542 186.694ZM84.2063 182.537C84.0637 181.476 84.8082 180.5 85.8691 180.358L112.763 176.743C113.823 176.6 114.799 177.345 114.942 178.406L115.975 186.09C116.117 187.15 115.373 188.126 114.312 188.269L87.4183 191.884C86.3575 192.026 85.3817 191.282 85.2391 190.221L84.2063 182.537Z" stroke="#D6D7E0" stroke-width="2" mask="url(#path-1-inside-1_1506_1067)"/>
</svg>
