<svg width="123" height="135" viewBox="0 0 123 135" fill="none" xmlns="http://www.w3.org/2000/svg">
<mask id="path-1-inside-1_1513_1109" fill="white">
<path fill-rule="evenodd" clip-rule="evenodd" d="M64.3986 63.8434V6.66192H98.8185V39.9715H84.3843C81.9316 39.9715 79.9431 41.9599 79.9431 44.4128V63.8434H64.3986ZM57.8321 3.52089C57.0405 3.09808 56.1972 2.77263 55.3199 2.55301C53.8979 2.1971 52.4146 2.12619 50.9545 2.34432C49.4945 2.56247 48.0864 3.06539 46.8105 3.82438C45.5346 4.58337 44.416 5.58358 43.5186 6.76785C42.6211 7.95217 41.9624 9.29732 41.58 10.7266L41.0824 12.5901C36.9655 12.9879 32.9433 14.1416 29.2181 15.9932L27.8639 14.6624C25.7635 12.5985 22.9138 11.4691 19.9416 11.5228C16.9695 11.5765 14.1184 12.8089 12.0156 14.9489C9.91277 17.0888 8.73039 19.961 8.72867 22.9336C8.7269 25.9062 9.90589 28.7357 12.0063 30.7997L13.3605 32.1305C11.5779 35.8907 10.4992 39.9351 10.1786 44.0601L8.31352 44.5905C5.44086 45.4131 2.99131 47.3376 1.50373 49.9408C0.0161576 52.5439 -0.387588 55.6121 0.381317 58.4711C1.15022 61.3297 3.02879 63.7446 5.60379 65.1847C8.17873 66.6242 11.2392 66.9706 14.1118 66.1484L15.9611 65.6183C18.3037 68.977 21.2469 71.8694 24.6461 74.1527L24.1485 76.0109C23.3762 78.8977 23.7763 81.9516 25.2608 84.5009C26.7454 87.0502 29.1928 88.8861 32.0645 89.6051C34.9362 90.324 37.9972 89.8666 40.5739 88.3338C43.1506 86.801 45.032 84.3183 45.8043 81.4314L46.302 79.5678C46.4126 79.5572 46.523 79.5461 46.6334 79.5345V151.559C46.6334 154.011 48.6219 156 51.0747 156H89.9359C92.3886 156 94.3772 154.011 94.3772 151.559V68.2847C94.3772 65.832 92.3886 63.8434 89.9359 63.8434H86.605V46.6335H162.662V149.338H95.2316V151.559C95.2316 154.011 93.2436 156 90.7903 156H164.883C167.335 156 169.324 154.011 169.324 151.559V44.4128C169.324 41.9599 167.335 39.9715 164.883 39.9715H105.48V4.44128C105.48 1.98843 103.492 0 101.039 0H62.1779C60.0406 0 58.2557 1.50971 57.8321 3.52089ZM57.7367 23.7491C57.3547 23.5122 56.9655 23.2849 56.5703 23.0676L56.573 23.0702C55.8569 22.6746 55.2965 22.0506 54.9788 21.2956C54.661 20.5406 54.6039 19.697 54.8163 18.8963L56.029 14.3569C56.1594 13.8794 56.1955 13.3826 56.1339 12.8949C56.0723 12.4072 55.9146 11.9383 55.6698 11.5152C55.4252 11.0922 55.0984 10.7232 54.7083 10.4297C54.3181 10.1361 53.8723 9.92377 53.3965 9.80485C52.9207 9.68594 52.4244 9.66279 51.936 9.73673C51.4477 9.81074 50.977 9.98028 50.551 10.2358C50.1251 10.4913 49.7522 10.8276 49.4541 11.2253C49.1559 11.6231 48.9383 12.0745 48.8136 12.5535L47.6039 17.0954C47.3899 17.9008 46.9154 18.6169 46.2551 19.131C45.5948 19.6452 44.7864 19.9281 43.9571 19.9352C39.2034 19.9669 34.5245 21.2975 30.4259 23.7831C29.7118 24.2179 28.8779 24.4054 28.0554 24.316C27.2329 24.2266 26.4687 23.8654 25.8831 23.2893L22.578 20.0415C21.8779 19.3535 20.928 18.9771 19.9372 18.995C18.9466 19.0129 17.9962 19.4237 17.2952 20.137C16.5943 20.8503 16.2002 21.8077 16.1996 22.7986C16.199 23.7894 16.592 24.7326 17.2921 25.4206L20.5972 28.6684C21.1876 29.2432 21.5656 30.0024 21.6713 30.8254C21.777 31.6485 21.6045 32.4885 21.1809 33.2123C18.7655 37.3496 17.5133 42.0473 17.5596 46.7983C17.5636 47.6264 17.2923 48.4375 16.7885 49.1041C16.2847 49.7707 15.5768 50.2551 14.7761 50.4811L10.248 51.7729C9.2906 52.0469 8.47419 52.6883 7.97832 53.5559C7.48245 54.4234 7.34782 55.446 7.60397 56.3987C7.86018 57.3514 8.48618 58.1564 9.34434 58.6366C10.2025 59.1162 11.2225 59.2323 12.1799 58.958L16.6974 57.6662C17.4945 57.438 18.3398 57.4791 19.1012 57.7827C19.8627 58.0864 20.4976 58.6355 20.9067 59.3444C23.2509 63.4382 26.6718 66.7996 30.8061 69.0725C31.5262 69.4672 32.0901 70.0929 32.4096 70.8507C32.729 71.6084 32.7856 72.4556 32.5707 73.2595L31.3583 77.7985C31.2274 78.2759 31.1917 78.7728 31.2532 79.2608C31.3148 79.7482 31.4725 80.2173 31.7171 80.6403C31.9618 81.0634 32.2886 81.432 32.6788 81.7257C33.0689 82.0194 33.5147 82.2314 33.9905 82.3508C34.4663 82.4696 34.9627 82.4929 35.451 82.4185C35.9393 82.3447 36.41 82.1754 36.836 81.9194C37.262 81.6641 37.6348 81.3282 37.9329 80.9301C38.2311 80.5326 38.4488 80.0807 38.5734 79.6022L39.7832 75.0599C39.9971 74.2549 40.4717 73.5387 41.1319 73.0247C41.7922 72.51 42.6006 72.2274 43.4298 72.2202C44.5035 72.213 45.5733 72.1397 46.6334 72.0021V68.2847C46.6334 67.0517 47.136 65.9358 47.9476 65.1308C41.6238 66.6436 34.6857 64.9648 29.706 60.0711C22.0165 52.515 21.9085 40.156 29.4646 32.4665C37.0208 24.7771 49.3798 24.6691 57.0693 32.2253C57.2986 32.4505 57.5207 32.6799 57.7367 32.9135V23.7491ZM51.6413 63.8434H57.7367V59.3827C57.5973 59.5332 57.4552 59.6825 57.3103 59.8296C55.6248 61.5456 53.7 62.8835 51.6413 63.8434ZM53.2954 149.338V70.5053H87.7153V149.338H53.2954ZM72.726 14.9893H79.3879V33.8648H72.726V14.9893ZM77.7224 80.4982H63.2883V87.1601H77.7224V80.4982ZM63.2883 93.2669H77.7224V99.9288H63.2883V93.2669ZM77.7224 106.036H63.2883V112.698H77.7224V106.036ZM63.2883 118.804H77.7224V125.466H63.2883V118.804ZM77.7224 131.573H63.2883V138.235H77.7224V131.573ZM83.8292 14.9893H90.4911V33.8648H83.8292V14.9893ZM107.701 56.0712H101.039V139.9H107.701V56.0712ZM127.687 56.0712H134.349V139.9H127.687V56.0712ZM121.025 56.0712H114.363V139.9H121.025V56.0712ZM141.011 56.0712H147.673V139.9H141.011V56.0712ZM52.5589 55.1605C57.5362 50.0954 57.4652 41.9543 52.3999 36.9769C47.3348 31.9995 39.1937 32.0707 34.2163 37.1359C29.239 42.2011 29.3101 50.3421 34.3753 55.3195C39.4404 60.2971 47.5815 60.2254 52.5589 55.1605Z"/>
</mask>
<path fill-rule="evenodd" clip-rule="evenodd" d="M64.3986 63.8434V6.66192H98.8185V39.9715H84.3843C81.9316 39.9715 79.9431 41.9599 79.9431 44.4128V63.8434H64.3986ZM57.8321 3.52089C57.0405 3.09808 56.1972 2.77263 55.3199 2.55301C53.8979 2.1971 52.4146 2.12619 50.9545 2.34432C49.4945 2.56247 48.0864 3.06539 46.8105 3.82438C45.5346 4.58337 44.416 5.58358 43.5186 6.76785C42.6211 7.95217 41.9624 9.29732 41.58 10.7266L41.0824 12.5901C36.9655 12.9879 32.9433 14.1416 29.2181 15.9932L27.8639 14.6624C25.7635 12.5985 22.9138 11.4691 19.9416 11.5228C16.9695 11.5765 14.1184 12.8089 12.0156 14.9489C9.91277 17.0888 8.73039 19.961 8.72867 22.9336C8.7269 25.9062 9.90589 28.7357 12.0063 30.7997L13.3605 32.1305C11.5779 35.8907 10.4992 39.9351 10.1786 44.0601L8.31352 44.5905C5.44086 45.4131 2.99131 47.3376 1.50373 49.9408C0.0161576 52.5439 -0.387588 55.6121 0.381317 58.4711C1.15022 61.3297 3.02879 63.7446 5.60379 65.1847C8.17873 66.6242 11.2392 66.9706 14.1118 66.1484L15.9611 65.6183C18.3037 68.977 21.2469 71.8694 24.6461 74.1527L24.1485 76.0109C23.3762 78.8977 23.7763 81.9516 25.2608 84.5009C26.7454 87.0502 29.1928 88.8861 32.0645 89.6051C34.9362 90.324 37.9972 89.8666 40.5739 88.3338C43.1506 86.801 45.032 84.3183 45.8043 81.4314L46.302 79.5678C46.4126 79.5572 46.523 79.5461 46.6334 79.5345V151.559C46.6334 154.011 48.6219 156 51.0747 156H89.9359C92.3886 156 94.3772 154.011 94.3772 151.559V68.2847C94.3772 65.832 92.3886 63.8434 89.9359 63.8434H86.605V46.6335H162.662V149.338H95.2316V151.559C95.2316 154.011 93.2436 156 90.7903 156H164.883C167.335 156 169.324 154.011 169.324 151.559V44.4128C169.324 41.9599 167.335 39.9715 164.883 39.9715H105.48V4.44128C105.48 1.98843 103.492 0 101.039 0H62.1779C60.0406 0 58.2557 1.50971 57.8321 3.52089ZM57.7367 23.7491C57.3547 23.5122 56.9655 23.2849 56.5703 23.0676L56.573 23.0702C55.8569 22.6746 55.2965 22.0506 54.9788 21.2956C54.661 20.5406 54.6039 19.697 54.8163 18.8963L56.029 14.3569C56.1594 13.8794 56.1955 13.3826 56.1339 12.8949C56.0723 12.4072 55.9146 11.9383 55.6698 11.5152C55.4252 11.0922 55.0984 10.7232 54.7083 10.4297C54.3181 10.1361 53.8723 9.92377 53.3965 9.80485C52.9207 9.68594 52.4244 9.66279 51.936 9.73673C51.4477 9.81074 50.977 9.98028 50.551 10.2358C50.1251 10.4913 49.7522 10.8276 49.4541 11.2253C49.1559 11.6231 48.9383 12.0745 48.8136 12.5535L47.6039 17.0954C47.3899 17.9008 46.9154 18.6169 46.2551 19.131C45.5948 19.6452 44.7864 19.9281 43.9571 19.9352C39.2034 19.9669 34.5245 21.2975 30.4259 23.7831C29.7118 24.2179 28.8779 24.4054 28.0554 24.316C27.2329 24.2266 26.4687 23.8654 25.8831 23.2893L22.578 20.0415C21.8779 19.3535 20.928 18.9771 19.9372 18.995C18.9466 19.0129 17.9962 19.4237 17.2952 20.137C16.5943 20.8503 16.2002 21.8077 16.1996 22.7986C16.199 23.7894 16.592 24.7326 17.2921 25.4206L20.5972 28.6684C21.1876 29.2432 21.5656 30.0024 21.6713 30.8254C21.777 31.6485 21.6045 32.4885 21.1809 33.2123C18.7655 37.3496 17.5133 42.0473 17.5596 46.7983C17.5636 47.6264 17.2923 48.4375 16.7885 49.1041C16.2847 49.7707 15.5768 50.2551 14.7761 50.4811L10.248 51.7729C9.2906 52.0469 8.47419 52.6883 7.97832 53.5559C7.48245 54.4234 7.34782 55.446 7.60397 56.3987C7.86018 57.3514 8.48618 58.1564 9.34434 58.6366C10.2025 59.1162 11.2225 59.2323 12.1799 58.958L16.6974 57.6662C17.4945 57.438 18.3398 57.4791 19.1012 57.7827C19.8627 58.0864 20.4976 58.6355 20.9067 59.3444C23.2509 63.4382 26.6718 66.7996 30.8061 69.0725C31.5262 69.4672 32.0901 70.0929 32.4096 70.8507C32.729 71.6084 32.7856 72.4556 32.5707 73.2595L31.3583 77.7985C31.2274 78.2759 31.1917 78.7728 31.2532 79.2608C31.3148 79.7482 31.4725 80.2173 31.7171 80.6403C31.9618 81.0634 32.2886 81.432 32.6788 81.7257C33.0689 82.0194 33.5147 82.2314 33.9905 82.3508C34.4663 82.4696 34.9627 82.4929 35.451 82.4185C35.9393 82.3447 36.41 82.1754 36.836 81.9194C37.262 81.6641 37.6348 81.3282 37.9329 80.9301C38.2311 80.5326 38.4488 80.0807 38.5734 79.6022L39.7832 75.0599C39.9971 74.2549 40.4717 73.5387 41.1319 73.0247C41.7922 72.51 42.6006 72.2274 43.4298 72.2202C44.5035 72.213 45.5733 72.1397 46.6334 72.0021V68.2847C46.6334 67.0517 47.136 65.9358 47.9476 65.1308C41.6238 66.6436 34.6857 64.9648 29.706 60.0711C22.0165 52.515 21.9085 40.156 29.4646 32.4665C37.0208 24.7771 49.3798 24.6691 57.0693 32.2253C57.2986 32.4505 57.5207 32.6799 57.7367 32.9135V23.7491ZM51.6413 63.8434H57.7367V59.3827C57.5973 59.5332 57.4552 59.6825 57.3103 59.8296C55.6248 61.5456 53.7 62.8835 51.6413 63.8434ZM53.2954 149.338V70.5053H87.7153V149.338H53.2954ZM72.726 14.9893H79.3879V33.8648H72.726V14.9893ZM77.7224 80.4982H63.2883V87.1601H77.7224V80.4982ZM63.2883 93.2669H77.7224V99.9288H63.2883V93.2669ZM77.7224 106.036H63.2883V112.698H77.7224V106.036ZM63.2883 118.804H77.7224V125.466H63.2883V118.804ZM77.7224 131.573H63.2883V138.235H77.7224V131.573ZM83.8292 14.9893H90.4911V33.8648H83.8292V14.9893ZM107.701 56.0712H101.039V139.9H107.701V56.0712ZM127.687 56.0712H134.349V139.9H127.687V56.0712ZM121.025 56.0712H114.363V139.9H121.025V56.0712ZM141.011 56.0712H147.673V139.9H141.011V56.0712ZM52.5589 55.1605C57.5362 50.0954 57.4652 41.9543 52.3999 36.9769C47.3348 31.9995 39.1937 32.0707 34.2163 37.1359C29.239 42.2011 29.3101 50.3421 34.3753 55.3195C39.4404 60.2971 47.5815 60.2254 52.5589 55.1605Z" stroke="#D6D7E0" stroke-width="2" mask="url(#path-1-inside-1_1513_1109)"/>
</svg>
