<svg width="114" height="160" viewBox="0 0 114 160" fill="none" xmlns="http://www.w3.org/2000/svg">
<mask id="path-1-inside-1_1502_1033" fill="white">
<path fill-rule="evenodd" clip-rule="evenodd" d="M150.878 44.3463L149.277 43.6118C149.652 39.8798 149.331 36.1145 148.331 32.4996L149.785 31.5049C150.903 30.7397 151.858 29.766 152.594 28.6396C153.331 27.5133 153.834 26.2564 154.076 24.9406C154.319 23.6247 154.294 22.2756 154.005 20.9708C153.716 19.6657 153.168 18.4302 152.392 17.3346C151.616 16.2389 150.628 15.3048 149.483 14.5856C148.338 13.8663 147.059 13.376 145.719 13.1425C144.38 12.9089 143.006 12.9368 141.675 13.2247C140.345 13.5125 139.085 14.0546 137.967 14.8198L136.509 15.8182C133.411 13.6389 129.927 12.0416 126.234 11.1065L126.086 9.37373C125.857 6.68633 124.55 4.20161 122.453 2.46603C120.355 0.730523 117.638 -0.113513 114.9 0.11944C112.162 0.352546 109.627 1.64351 107.852 3.70864C106.078 5.77368 105.21 8.44357 105.438 11.131L105.586 12.8637C102.104 14.4138 98.9419 16.5814 96.2582 19.2573L94.6461 18.5133C92.1587 17.3716 89.3081 17.2481 86.721 18.1701C84.1347 19.092 82.0234 20.9839 80.8527 23.4295C79.682 25.8751 79.5475 28.674 80.4782 31.2107C81.3548 33.6002 83.1099 35.5724 85.3893 36.7477C79.1743 38.26 73.3805 40.6173 68.1024 43.6685C67.4278 42.7144 66.5896 41.8835 65.6235 41.2131C64.5206 40.4476 63.2727 39.9064 61.9514 39.6203C60.6302 39.3343 59.2607 39.3091 57.9218 39.546C56.5829 39.7831 55.3006 40.2776 54.1482 41.0016C52.9957 41.7255 51.9957 42.6646 51.2051 43.7652L50.1752 45.2005C46.5193 44.2078 42.6997 43.8934 38.9085 44.2731L38.1794 42.6944C37.0485 40.2459 34.9728 38.3553 32.4092 37.4386C29.8455 36.522 27.0037 36.6543 24.509 37.8066C22.0143 38.9588 20.0711 41.0365 19.1068 43.5826C18.1424 46.1287 18.236 48.9347 19.367 51.3833L20.0961 52.962C17.351 55.6061 15.1168 58.7216 13.5061 62.1518L11.7364 62.0021C9.0089 61.7764 6.28694 62.6317 4.16935 64.3801C2.05179 66.1284 0.712031 68.6264 0.444811 71.3246C0.177583 74.0227 1.00477 76.6998 2.74451 78.7676C4.48426 80.8353 6.99387 82.1235 9.72135 82.3489L11.4773 82.4939C12.3964 86.1302 13.9811 89.5613 16.1537 92.6187L15.1254 94.0494C13.5288 96.2723 12.8825 99.0183 13.3286 101.683C13.7746 104.348 15.2767 106.714 17.5042 108.26C19.7317 109.806 22.5021 110.406 25.2061 109.927C27.9101 109.448 30.3262 107.931 31.9228 105.708L32.9528 104.273C33.8267 104.51 34.7099 104.708 35.5997 104.867C35.8392 108.238 36.3433 111.634 37.1274 115.03C45.2554 150.236 80.385 172.187 115.591 164.059C150.798 155.931 172.749 120.801 164.621 85.5954C162.514 76.4667 158.591 68.2289 153.322 61.1757C154.374 60.2621 155.236 59.1403 155.845 57.8691C157.016 55.4237 157.151 52.6247 156.22 50.0878C155.289 47.5514 153.368 45.4845 150.881 44.3427L150.878 44.3463ZM148.945 55.9176C149.207 55.6512 149.426 55.3426 149.589 55.0009C149.979 54.1858 150.025 53.2533 149.714 52.408C149.404 51.5625 148.764 50.8732 147.935 50.4926L144.025 48.6957C143.333 48.3782 142.768 47.8433 142.42 47.1751C142.072 46.5067 141.96 45.7434 142.102 45.0051C142.915 40.761 142.543 36.3843 141.024 32.339L141.025 32.3423C140.763 31.6402 140.745 30.8723 140.975 30.158C141.205 29.4437 141.668 28.8232 142.293 28.3934L145.844 25.9615C146.22 25.7078 146.541 25.3838 146.789 25.0079C147.037 24.6323 147.207 24.2123 147.29 23.7724C147.372 23.3324 147.365 22.881 147.269 22.4442C147.172 22.0076 146.989 21.5941 146.73 21.2275C146.47 20.8612 146.138 20.549 145.755 20.3091C145.371 20.0693 144.943 19.9062 144.495 19.8297C144.046 19.7533 143.587 19.7646 143.142 19.8633C142.698 19.9618 142.277 20.1459 141.905 20.4043L138.354 22.8396C137.726 23.2717 136.969 23.4863 136.203 23.4498C135.437 23.4135 134.707 23.1278 134.126 22.6381C130.803 19.8246 126.758 17.9584 122.426 17.2413C121.671 17.1175 120.979 16.7503 120.461 16.1977C119.943 15.6449 119.626 14.938 119.563 14.1883L119.204 9.95949C119.128 9.06367 118.691 8.23546 117.992 7.65698C117.293 7.07844 116.387 6.79708 115.475 6.87468C114.562 6.95244 113.717 7.38274 113.125 8.07121C112.534 8.75946 112.245 9.64937 112.321 10.5453L112.681 14.774C112.748 15.5257 112.558 16.2788 112.141 16.914C111.723 17.5491 111.102 18.03 110.376 18.2805C106.23 19.7151 102.557 22.2334 99.7554 25.5631C99.264 26.1411 98.5915 26.5431 97.8442 26.7058C97.0962 26.8686 96.3152 26.783 95.624 26.4624L91.7058 24.6594C90.8769 24.2788 89.9274 24.2374 89.0652 24.5447C88.2031 24.8518 87.4991 25.4824 87.109 26.2974C86.719 27.1124 86.6735 28.0454 86.9841 28.8907C87.2941 29.7362 87.9339 30.4251 88.7628 30.8056L92.6734 32.6025C93.363 32.9195 93.9264 33.452 94.2748 34.1172C94.4504 34.4527 94.5661 34.8124 94.6199 35.181C96.5083 34.9972 98.3896 34.897 100.26 34.8777C102.524 27.7923 108.865 22.4064 116.739 21.7363C127.185 20.8473 136.375 28.5951 137.264 39.0413C137.456 41.2977 137.245 43.4956 136.691 45.5635C141.167 48.4906 145.288 51.9652 148.945 55.9176ZM131.765 42.6394C131.915 41.6219 131.95 40.5708 131.859 39.5012C131.224 32.0396 124.661 26.5054 117.199 27.1405C112.128 27.5721 107.947 30.7421 105.988 35.0714C115.12 35.7846 123.884 38.4141 131.765 42.6394ZM61.6271 46.8028C61.8858 46.9824 62.1176 47.1964 62.3147 47.4388C58.0414 50.5584 54.192 54.1679 50.8303 58.1657C45.7087 55.3076 39.3378 54.8547 33.6058 57.5022C24.0879 61.8981 19.9358 73.1775 24.3318 82.6956C26.6658 87.7489 30.9399 91.2897 35.8606 92.8415C35.6703 94.4976 35.543 96.1677 35.4806 97.8478C34.5984 97.6313 33.7274 97.3641 32.8721 97.0473C32.1594 96.7847 31.3751 96.7653 30.643 96.9921C29.9107 97.2182 29.2723 97.6787 28.8281 98.299L26.3204 101.798C26.0585 102.168 25.7259 102.484 25.3416 102.729C24.9573 102.973 24.529 103.141 24.0813 103.221C23.6336 103.302 23.1755 103.295 22.7331 103.2C22.2908 103.106 21.8729 102.924 21.5039 102.669C21.1349 102.413 20.8217 102.087 20.5824 101.708C20.3434 101.331 20.1828 100.909 20.1104 100.467C20.0378 100.026 20.0544 99.5723 20.1597 99.1347C20.2649 98.6971 20.4564 98.2828 20.7233 97.9164L23.2323 94.4204C23.6767 93.8015 23.9025 93.057 23.8744 92.3044C23.8462 91.5518 23.5656 90.8331 23.0766 90.2613C20.2708 86.9757 18.4288 82.9876 17.7466 78.7212C17.6256 77.9809 17.2596 77.3049 16.7056 76.7983C16.1515 76.2916 15.4406 75.9826 14.6838 75.92L10.3952 75.5631C9.48618 75.4877 8.64988 75.0587 8.07006 74.3694C7.49025 73.6801 7.21465 72.7877 7.30392 71.889C7.39298 70.9897 7.83953 70.1569 8.54535 69.5743C9.25115 68.9917 10.1584 68.7067 11.0674 68.7819L15.3652 69.1422C16.1242 69.2077 16.8875 69.0217 17.5352 68.6141C18.1828 68.2062 18.6778 67.5991 18.9426 66.8884C20.4418 62.8031 23.0362 59.184 26.4456 56.4219C27.0429 55.939 27.4628 55.2752 27.6389 54.5359C27.8149 53.7965 27.7369 53.0237 27.4173 52.34L25.6378 48.487C25.2608 47.6708 25.2296 46.7355 25.551 45.8868C25.8725 45.0381 26.5202 44.3455 27.3518 43.9614C28.1833 43.5774 29.1306 43.5332 29.9851 43.8388C30.8397 44.1444 31.5316 44.7745 31.9085 45.5907L33.6881 49.4436C34.0032 50.1269 34.541 50.6839 35.2167 51.0269C35.8924 51.3698 36.6676 51.4793 37.4201 51.3382C41.7366 50.5362 46.1761 50.9118 50.2589 52.4243C50.9717 52.6869 51.7559 52.7063 52.4881 52.4797C53.2203 52.2531 53.8588 51.7932 54.303 51.1726L56.8106 47.6733C57.0725 47.3033 57.4051 46.9871 57.7895 46.7428C58.1738 46.4987 58.6021 46.3313 59.0497 46.2504C59.4974 46.1695 59.9556 46.1766 60.398 46.2715C60.8402 46.3663 61.258 46.5469 61.6271 46.8028ZM35.88 62.4261C39.7103 60.6569 43.94 60.826 47.4648 62.5267C42.2308 69.9305 38.5382 78.3992 36.7211 87.4C33.5331 86.1808 30.8 83.7649 29.2557 80.4212C26.1158 73.6231 29.0815 65.5661 35.88 62.4261ZM158.015 87.1204C165.301 118.679 145.625 150.168 114.066 157.454C82.5083 164.739 51.0191 145.063 43.7333 113.505C36.4475 81.9462 56.1242 50.4572 87.6823 43.1715C119.241 35.8857 150.73 55.5621 158.015 87.1204ZM92.7404 63.5735C94.1996 63.2366 95.6559 64.1466 95.9927 65.6058L96.9078 69.5694C97.2447 71.0286 96.3347 72.4849 94.8755 72.8218C93.4162 73.1587 91.96 72.2487 91.6231 70.7894L90.708 66.8259C90.3711 65.3667 91.2811 63.9104 92.7404 63.5735ZM64.1353 108.446C63.7984 106.987 64.7083 105.531 66.1676 105.194L70.1312 104.279C71.5905 103.942 73.0467 104.852 73.3836 106.311C73.7205 107.771 72.8106 109.227 71.3513 109.564L67.3877 110.479C65.9284 110.816 64.4722 109.906 64.1353 108.446ZM130.245 90.4007C128.786 90.7376 127.876 92.1938 128.213 93.6531C128.549 95.1123 130.006 96.0223 131.465 95.6854L135.428 94.7703C136.888 94.4334 137.798 92.9772 137.461 91.5179C137.124 90.0587 135.668 89.1487 134.208 89.4856L130.245 90.4007ZM107.534 127.651C108.993 127.314 110.449 128.224 110.786 129.683L111.701 133.647C112.038 135.106 111.128 136.562 109.669 136.899C108.21 137.236 106.753 136.326 106.416 134.867L105.501 130.903C105.165 129.444 106.075 127.988 107.534 127.651ZM110.559 142.26C133.726 136.911 148.17 113.795 142.822 90.6282C137.473 67.4613 114.357 53.0165 91.19 58.365C68.0231 63.7135 53.5784 86.8299 58.9269 109.997C64.2754 133.164 87.3918 147.608 110.559 142.26ZM112.084 148.866C138.899 142.675 155.618 115.918 149.428 89.1031C143.237 62.2877 116.48 45.5683 89.6649 51.7591C62.8496 57.9499 46.1302 84.7066 52.321 111.522C58.5118 138.337 85.2685 155.057 112.084 148.866ZM99.653 81.46C99.3161 80.0007 97.8598 79.0908 96.4006 79.4277C94.9413 79.7646 94.0314 81.2208 94.3683 82.6801L98.9768 102.642C99.1946 103.585 99.8056 104.39 100.655 104.854L112.331 111.229C113.645 111.946 115.292 111.463 116.01 110.148C116.728 108.833 116.244 107.186 114.929 106.468L104.056 100.531L99.653 81.46Z"/>
</mask>
<path fill-rule="evenodd" clip-rule="evenodd" d="M150.878 44.3463L149.277 43.6118C149.652 39.8798 149.331 36.1145 148.331 32.4996L149.785 31.5049C150.903 30.7397 151.858 29.766 152.594 28.6396C153.331 27.5133 153.834 26.2564 154.076 24.9406C154.319 23.6247 154.294 22.2756 154.005 20.9708C153.716 19.6657 153.168 18.4302 152.392 17.3346C151.616 16.2389 150.628 15.3048 149.483 14.5856C148.338 13.8663 147.059 13.376 145.719 13.1425C144.38 12.9089 143.006 12.9368 141.675 13.2247C140.345 13.5125 139.085 14.0546 137.967 14.8198L136.509 15.8182C133.411 13.6389 129.927 12.0416 126.234 11.1065L126.086 9.37373C125.857 6.68633 124.55 4.20161 122.453 2.46603C120.355 0.730523 117.638 -0.113513 114.9 0.11944C112.162 0.352546 109.627 1.64351 107.852 3.70864C106.078 5.77368 105.21 8.44357 105.438 11.131L105.586 12.8637C102.104 14.4138 98.9419 16.5814 96.2582 19.2573L94.6461 18.5133C92.1587 17.3716 89.3081 17.2481 86.721 18.1701C84.1347 19.092 82.0234 20.9839 80.8527 23.4295C79.682 25.8751 79.5475 28.674 80.4782 31.2107C81.3548 33.6002 83.1099 35.5724 85.3893 36.7477C79.1743 38.26 73.3805 40.6173 68.1024 43.6685C67.4278 42.7144 66.5896 41.8835 65.6235 41.2131C64.5206 40.4476 63.2727 39.9064 61.9514 39.6203C60.6302 39.3343 59.2607 39.3091 57.9218 39.546C56.5829 39.7831 55.3006 40.2776 54.1482 41.0016C52.9957 41.7255 51.9957 42.6646 51.2051 43.7652L50.1752 45.2005C46.5193 44.2078 42.6997 43.8934 38.9085 44.2731L38.1794 42.6944C37.0485 40.2459 34.9728 38.3553 32.4092 37.4386C29.8455 36.522 27.0037 36.6543 24.509 37.8066C22.0143 38.9588 20.0711 41.0365 19.1068 43.5826C18.1424 46.1287 18.236 48.9347 19.367 51.3833L20.0961 52.962C17.351 55.6061 15.1168 58.7216 13.5061 62.1518L11.7364 62.0021C9.0089 61.7764 6.28694 62.6317 4.16935 64.3801C2.05179 66.1284 0.712031 68.6264 0.444811 71.3246C0.177583 74.0227 1.00477 76.6998 2.74451 78.7676C4.48426 80.8353 6.99387 82.1235 9.72135 82.3489L11.4773 82.4939C12.3964 86.1302 13.9811 89.5613 16.1537 92.6187L15.1254 94.0494C13.5288 96.2723 12.8825 99.0183 13.3286 101.683C13.7746 104.348 15.2767 106.714 17.5042 108.26C19.7317 109.806 22.5021 110.406 25.2061 109.927C27.9101 109.448 30.3262 107.931 31.9228 105.708L32.9528 104.273C33.8267 104.51 34.7099 104.708 35.5997 104.867C35.8392 108.238 36.3433 111.634 37.1274 115.03C45.2554 150.236 80.385 172.187 115.591 164.059C150.798 155.931 172.749 120.801 164.621 85.5954C162.514 76.4667 158.591 68.2289 153.322 61.1757C154.374 60.2621 155.236 59.1403 155.845 57.8691C157.016 55.4237 157.151 52.6247 156.22 50.0878C155.289 47.5514 153.368 45.4845 150.881 44.3427L150.878 44.3463ZM148.945 55.9176C149.207 55.6512 149.426 55.3426 149.589 55.0009C149.979 54.1858 150.025 53.2533 149.714 52.408C149.404 51.5625 148.764 50.8732 147.935 50.4926L144.025 48.6957C143.333 48.3782 142.768 47.8433 142.42 47.1751C142.072 46.5067 141.96 45.7434 142.102 45.0051C142.915 40.761 142.543 36.3843 141.024 32.339L141.025 32.3423C140.763 31.6402 140.745 30.8723 140.975 30.158C141.205 29.4437 141.668 28.8232 142.293 28.3934L145.844 25.9615C146.22 25.7078 146.541 25.3838 146.789 25.0079C147.037 24.6323 147.207 24.2123 147.29 23.7724C147.372 23.3324 147.365 22.881 147.269 22.4442C147.172 22.0076 146.989 21.5941 146.73 21.2275C146.47 20.8612 146.138 20.549 145.755 20.3091C145.371 20.0693 144.943 19.9062 144.495 19.8297C144.046 19.7533 143.587 19.7646 143.142 19.8633C142.698 19.9618 142.277 20.1459 141.905 20.4043L138.354 22.8396C137.726 23.2717 136.969 23.4863 136.203 23.4498C135.437 23.4135 134.707 23.1278 134.126 22.6381C130.803 19.8246 126.758 17.9584 122.426 17.2413C121.671 17.1175 120.979 16.7503 120.461 16.1977C119.943 15.6449 119.626 14.938 119.563 14.1883L119.204 9.95949C119.128 9.06367 118.691 8.23546 117.992 7.65698C117.293 7.07844 116.387 6.79708 115.475 6.87468C114.562 6.95244 113.717 7.38274 113.125 8.07121C112.534 8.75946 112.245 9.64937 112.321 10.5453L112.681 14.774C112.748 15.5257 112.558 16.2788 112.141 16.914C111.723 17.5491 111.102 18.03 110.376 18.2805C106.23 19.7151 102.557 22.2334 99.7554 25.5631C99.264 26.1411 98.5915 26.5431 97.8442 26.7058C97.0962 26.8686 96.3152 26.783 95.624 26.4624L91.7058 24.6594C90.8769 24.2788 89.9274 24.2374 89.0652 24.5447C88.2031 24.8518 87.4991 25.4824 87.109 26.2974C86.719 27.1124 86.6735 28.0454 86.9841 28.8907C87.2941 29.7362 87.9339 30.4251 88.7628 30.8056L92.6734 32.6025C93.363 32.9195 93.9264 33.452 94.2748 34.1172C94.4504 34.4527 94.5661 34.8124 94.6199 35.181C96.5083 34.9972 98.3896 34.897 100.26 34.8777C102.524 27.7923 108.865 22.4064 116.739 21.7363C127.185 20.8473 136.375 28.5951 137.264 39.0413C137.456 41.2977 137.245 43.4956 136.691 45.5635C141.167 48.4906 145.288 51.9652 148.945 55.9176ZM131.765 42.6394C131.915 41.6219 131.95 40.5708 131.859 39.5012C131.224 32.0396 124.661 26.5054 117.199 27.1405C112.128 27.5721 107.947 30.7421 105.988 35.0714C115.12 35.7846 123.884 38.4141 131.765 42.6394ZM61.6271 46.8028C61.8858 46.9824 62.1176 47.1964 62.3147 47.4388C58.0414 50.5584 54.192 54.1679 50.8303 58.1657C45.7087 55.3076 39.3378 54.8547 33.6058 57.5022C24.0879 61.8981 19.9358 73.1775 24.3318 82.6956C26.6658 87.7489 30.9399 91.2897 35.8606 92.8415C35.6703 94.4976 35.543 96.1677 35.4806 97.8478C34.5984 97.6313 33.7274 97.3641 32.8721 97.0473C32.1594 96.7847 31.3751 96.7653 30.643 96.9921C29.9107 97.2182 29.2723 97.6787 28.8281 98.299L26.3204 101.798C26.0585 102.168 25.7259 102.484 25.3416 102.729C24.9573 102.973 24.529 103.141 24.0813 103.221C23.6336 103.302 23.1755 103.295 22.7331 103.2C22.2908 103.106 21.8729 102.924 21.5039 102.669C21.1349 102.413 20.8217 102.087 20.5824 101.708C20.3434 101.331 20.1828 100.909 20.1104 100.467C20.0378 100.026 20.0544 99.5723 20.1597 99.1347C20.2649 98.6971 20.4564 98.2828 20.7233 97.9164L23.2323 94.4204C23.6767 93.8015 23.9025 93.057 23.8744 92.3044C23.8462 91.5518 23.5656 90.8331 23.0766 90.2613C20.2708 86.9757 18.4288 82.9876 17.7466 78.7212C17.6256 77.9809 17.2596 77.3049 16.7056 76.7983C16.1515 76.2916 15.4406 75.9826 14.6838 75.92L10.3952 75.5631C9.48618 75.4877 8.64988 75.0587 8.07006 74.3694C7.49025 73.6801 7.21465 72.7877 7.30392 71.889C7.39298 70.9897 7.83953 70.1569 8.54535 69.5743C9.25115 68.9917 10.1584 68.7067 11.0674 68.7819L15.3652 69.1422C16.1242 69.2077 16.8875 69.0217 17.5352 68.6141C18.1828 68.2062 18.6778 67.5991 18.9426 66.8884C20.4418 62.8031 23.0362 59.184 26.4456 56.4219C27.0429 55.939 27.4628 55.2752 27.6389 54.5359C27.8149 53.7965 27.7369 53.0237 27.4173 52.34L25.6378 48.487C25.2608 47.6708 25.2296 46.7355 25.551 45.8868C25.8725 45.0381 26.5202 44.3455 27.3518 43.9614C28.1833 43.5774 29.1306 43.5332 29.9851 43.8388C30.8397 44.1444 31.5316 44.7745 31.9085 45.5907L33.6881 49.4436C34.0032 50.1269 34.541 50.6839 35.2167 51.0269C35.8924 51.3698 36.6676 51.4793 37.4201 51.3382C41.7366 50.5362 46.1761 50.9118 50.2589 52.4243C50.9717 52.6869 51.7559 52.7063 52.4881 52.4797C53.2203 52.2531 53.8588 51.7932 54.303 51.1726L56.8106 47.6733C57.0725 47.3033 57.4051 46.9871 57.7895 46.7428C58.1738 46.4987 58.6021 46.3313 59.0497 46.2504C59.4974 46.1695 59.9556 46.1766 60.398 46.2715C60.8402 46.3663 61.258 46.5469 61.6271 46.8028ZM35.88 62.4261C39.7103 60.6569 43.94 60.826 47.4648 62.5267C42.2308 69.9305 38.5382 78.3992 36.7211 87.4C33.5331 86.1808 30.8 83.7649 29.2557 80.4212C26.1158 73.6231 29.0815 65.5661 35.88 62.4261ZM158.015 87.1204C165.301 118.679 145.625 150.168 114.066 157.454C82.5083 164.739 51.0191 145.063 43.7333 113.505C36.4475 81.9462 56.1242 50.4572 87.6823 43.1715C119.241 35.8857 150.73 55.5621 158.015 87.1204ZM92.7404 63.5735C94.1996 63.2366 95.6559 64.1466 95.9927 65.6058L96.9078 69.5694C97.2447 71.0286 96.3347 72.4849 94.8755 72.8218C93.4162 73.1587 91.96 72.2487 91.6231 70.7894L90.708 66.8259C90.3711 65.3667 91.2811 63.9104 92.7404 63.5735ZM64.1353 108.446C63.7984 106.987 64.7083 105.531 66.1676 105.194L70.1312 104.279C71.5905 103.942 73.0467 104.852 73.3836 106.311C73.7205 107.771 72.8106 109.227 71.3513 109.564L67.3877 110.479C65.9284 110.816 64.4722 109.906 64.1353 108.446ZM130.245 90.4007C128.786 90.7376 127.876 92.1938 128.213 93.6531C128.549 95.1123 130.006 96.0223 131.465 95.6854L135.428 94.7703C136.888 94.4334 137.798 92.9772 137.461 91.5179C137.124 90.0587 135.668 89.1487 134.208 89.4856L130.245 90.4007ZM107.534 127.651C108.993 127.314 110.449 128.224 110.786 129.683L111.701 133.647C112.038 135.106 111.128 136.562 109.669 136.899C108.21 137.236 106.753 136.326 106.416 134.867L105.501 130.903C105.165 129.444 106.075 127.988 107.534 127.651ZM110.559 142.26C133.726 136.911 148.17 113.795 142.822 90.6282C137.473 67.4613 114.357 53.0165 91.19 58.365C68.0231 63.7135 53.5784 86.8299 58.9269 109.997C64.2754 133.164 87.3918 147.608 110.559 142.26ZM112.084 148.866C138.899 142.675 155.618 115.918 149.428 89.1031C143.237 62.2877 116.48 45.5683 89.6649 51.7591C62.8496 57.9499 46.1302 84.7066 52.321 111.522C58.5118 138.337 85.2685 155.057 112.084 148.866ZM99.653 81.46C99.3161 80.0007 97.8598 79.0908 96.4006 79.4277C94.9413 79.7646 94.0314 81.2208 94.3683 82.6801L98.9768 102.642C99.1946 103.585 99.8056 104.39 100.655 104.854L112.331 111.229C113.645 111.946 115.292 111.463 116.01 110.148C116.728 108.833 116.244 107.186 114.929 106.468L104.056 100.531L99.653 81.46Z" stroke="#D6D7E0" stroke-width="2" mask="url(#path-1-inside-1_1502_1033)"/>
</svg>
