<svg width="24" height="24" viewBox="0 0 24 24" fill="none" xmlns="http://www.w3.org/2000/svg">
<g id="Group">
<path id="Vector" d="M2.99988 10H20.9999V20.004C20.9999 20.554 20.5549 21 20.0069 21H3.99288C3.86226 20.9999 3.73295 20.974 3.61234 20.9239C3.49172 20.8737 3.38217 20.8003 3.28995 20.7078C3.19773 20.6153 3.12464 20.5055 3.07487 20.3848C3.0251 20.264 2.99962 20.1346 2.99988 20.004V10ZM8.99988 12V14H14.9999V12H8.99988ZM1.99988 4C1.99988 3.448 2.45488 3 2.99188 3H21.0079C21.5559 3 21.9999 3.444 21.9999 4V8H1.99988V4Z" fill="#191C38"/>
</g>
</svg>
