<svg width="24" height="24" viewBox="0 0 24 24" fill="none" xmlns="http://www.w3.org/2000/svg">
<g id="Bold / Time / Alarm">
<path id="Vector" fill-rule="evenodd" clip-rule="evenodd" d="M12 20.5C16.9706 20.5 21 16.4706 21 11.5C21 6.52944 16.9706 2.5 12 2.5C7.02944 2.5 3 6.52944 3 11.5C3 16.4706 7.02944 20.5 12 20.5ZM12 6.75C12.4142 6.75 12.75 7.08579 12.75 7.5V11.1893L15.0303 13.4697C15.3232 13.7626 15.3232 14.2374 15.0303 14.5303C14.7374 14.8232 14.2626 14.8232 13.9697 14.5303L11.4697 12.0303C11.329 11.8897 11.25 11.6989 11.25 11.5V7.5C11.25 7.08579 11.5858 6.75 12 6.75Z" fill="#DBA77B"/>
</g>
</svg>
