<svg width="68" height="68" viewBox="0 0 68 68" fill="none" xmlns="http://www.w3.org/2000/svg">
<g id="Group">
<path id="Vector" d="M34.0003 62.3327C18.3518 62.3327 5.66699 49.6479 5.66699 33.9994C5.66699 18.3509 18.3518 5.66602 34.0003 5.66602C49.6488 5.66602 62.3337 18.3509 62.3337 33.9994C62.3337 49.6479 49.6488 62.3327 34.0003 62.3327ZM25.1887 37.3144L25.2255 37.2945L27.6905 45.4262C28.0078 46.3074 28.4442 46.466 28.974 46.3924C29.5067 46.3215 29.7872 46.0353 30.1357 45.701L33.5017 42.4484L40.7267 47.7977C42.047 48.5259 42.9962 48.149 43.3248 46.5737L48.0197 24.4114C48.5382 22.3487 47.6315 21.5213 46.0307 22.1787L18.4538 32.832C16.5725 33.5857 16.5838 34.6397 18.1138 35.1072L25.1887 37.3172V37.3144Z" fill="#191C38"/>
</g>
</svg>
