<svg width="24" height="24" viewBox="0 0 24 24" fill="none" xmlns="http://www.w3.org/2000/svg">
<path fill-rule="evenodd" clip-rule="evenodd" d="M10.3333 3C9.78105 3 9.33333 3.44772 9.33333 4C9.33333 4.55228 9.78105 5 10.3333 5H13.6667C14.219 5 14.6667 4.55228 14.6667 4C14.6667 3.44772 14.219 3 13.6667 3H10.3333ZM22.6667 16.333C22.6667 10.442 17.8911 5.66634 12.0001 5.66634C6.10904 5.66634 1.33341 10.442 1.33341 16.333H22.6667ZM0 18.6667C0 18.1144 0.447715 17.6667 1 17.6667H23C23.5523 17.6667 24 18.1144 24 18.6667V19.3333C24 19.8856 23.5523 20.3333 23 20.3333H1C0.447716 20.3333 0 19.8856 0 19.3333V18.6667Z" fill="#333863"/>
</svg>
