<svg width="24" height="24" viewBox="0 0 24 24" fill="none" xmlns="http://www.w3.org/2000/svg">
<path fill-rule="evenodd" clip-rule="evenodd" d="M3 3C3 1.89543 3.89543 1 5 1H18.6C19.7046 1 20.6 1.89543 20.6 3V21C20.6 22.1046 19.7046 23 18.6 23H5C3.89543 23 3 22.1046 3 21V3ZM12.4146 5.03749C12.0947 4.65369 11.5053 4.65369 11.1854 5.03749L7.39346 9.58785C6.95924 10.1089 7.32976 10.9 8.00803 10.9H15.592C16.2702 10.9 16.6408 10.1089 16.2065 9.58785L12.4146 5.03749ZM11.208 19.0489C11.5255 19.398 12.0745 19.398 12.392 19.0489L16.0835 14.9881C16.5507 14.4742 16.1861 13.65 15.4916 13.65H8.10844C7.41393 13.65 7.04931 14.4742 7.51649 14.9881L11.208 19.0489Z" fill="#333863"/>
</svg>
