<svg width="24" height="24" viewBox="0 0 24 24" fill="none" xmlns="http://www.w3.org/2000/svg">
<path fill-rule="evenodd" clip-rule="evenodd" d="M15.9821 4.09643C15.7781 1.80023 13.8493 0 11.5 0C9.15408 0 7.22743 1.7951 7.01873 4.08663C4.72717 4.49703 3 6.31699 3 8.5C3 9.49739 3.36054 10.419 3.97072 11.165C2.76607 12.0822 2 13.4598 2 15C2 17.7614 4.46243 20 7.5 20C8.69579 20 9.80245 19.6531 10.7048 19.0639V22.1334C10.7048 22.6857 11.1525 23.1334 11.7048 23.1334C12.2571 23.1334 12.7048 22.6857 12.7048 22.1334V19.0003C12.7048 18.448 12.2571 18.0003 11.7048 18.0003C11.1577 18.0003 10.7132 18.4397 10.705 18.9849V17.0134C10.664 16.9879 10.6245 16.959 10.5866 16.9269L8.28486 14.9749C7.86365 14.6177 7.81176 13.9867 8.16897 13.5655C8.52618 13.1443 9.15722 13.0924 9.57843 13.4496L10.705 14.4049V7.9435C10.705 7.39122 11.1527 6.9435 11.705 6.9435C12.2572 6.9435 12.705 7.39122 12.705 7.9435V12.2542L13.8917 11.1686C14.2992 10.7958 14.9318 10.8239 15.3045 11.2314C15.6773 11.6389 15.6492 12.2715 15.2417 12.6443L12.705 14.9648V19.3071C13.524 19.7474 14.4796 20 15.5 20C18.5376 20 21 17.7614 21 15C21 13.6078 20.3741 12.3485 19.3642 11.4419C19.7691 10.7198 20 9.88685 20 9C20 6.57474 18.2733 4.55278 15.9821 4.09643Z" fill="#333863"/>
</svg>
