<svg width="24" height="25" viewBox="0 0 24 25" fill="none" xmlns="http://www.w3.org/2000/svg">
<path d="M9.03945 20.0926H14.9909C16.2791 20.0926 17.1379 19.2489 17.1379 17.9983V5.64342C17.1379 4.39286 16.2791 3.55664 14.9909 3.55664H9.03945C7.72862 3.55664 6.85474 4.39286 6.85474 5.64342V17.9983C6.85474 19.2489 7.72862 20.0926 9.03945 20.0926ZM9.29558 18.5407C8.70044 18.5407 8.36143 18.2168 8.36143 17.6443V5.99749C8.36143 5.42494 8.70044 5.101 9.29558 5.101H9.60446V5.47768C9.60446 5.80915 9.82293 6.02762 10.1469 6.02762H13.8533C14.1773 6.02762 14.3958 5.80915 14.3958 5.47768V5.101H14.6971C15.2922 5.101 15.6312 5.43248 15.6312 6.00502V17.6443C15.6312 18.2168 15.2922 18.5407 14.6971 18.5407H9.29558ZM9.98866 17.9456H14.0115C14.23 17.9456 14.3958 17.7949 14.3958 17.5614C14.3958 17.3354 14.23 17.1847 14.0115 17.1847H9.98866C9.77019 17.1847 9.60446 17.3354 9.60446 17.5614C9.60446 17.7949 9.77019 17.9456 9.98866 17.9456Z" fill="#1C1C1E"/>
</svg>
