<svg width="20" height="20" viewBox="0 0 20 20" fill="none" xmlns="http://www.w3.org/2000/svg">
<path fill-rule="evenodd" clip-rule="evenodd" d="M11.2839 2.19244C11.0704 1.85506 10.7535 1.62646 10.4025 1.51881L10.9632 0.697721C11.4948 -0.080499 12.5804 -0.233072 13.3058 0.368495L17.3746 3.74258C17.6815 3.99701 17.8823 4.35681 17.9377 4.75152L19.5824 16.4536C19.7053 17.3286 19.0957 18.1377 18.2206 18.2607L12.3432 19.0867L14.3347 7.79229C14.4039 7.39975 14.3241 6.99551 14.111 6.65872L11.2839 2.19244ZM3.49885 5.07233L7.61832 2.20879C8.34039 1.70686 9.33219 1.88174 9.83905 2.60036L12.7307 6.70015C12.9764 7.04847 13.0729 7.48042 12.9989 7.90019L11.1871 18.1755C11.0336 19.0457 10.2038 19.6268 9.33355 19.4733L2.32243 18.2371C1.4522 18.0836 0.87113 17.2538 1.02458 16.3836L2.83639 6.10826C2.9104 5.6885 3.14885 5.31561 3.49885 5.07233ZM9.18976 5.56525C9.18976 6.08336 8.76975 6.50337 8.25164 6.50337C7.73354 6.50337 7.31353 6.08336 7.31353 5.56525C7.31353 5.04714 7.73354 4.62713 8.25164 4.62713C8.76975 4.62713 9.18976 5.04714 9.18976 5.56525Z" fill="#333863"/>
</svg>
