<svg width="20" height="20" viewBox="0 0 20 20" fill="none" xmlns="http://www.w3.org/2000/svg">
<path fill-rule="evenodd" clip-rule="evenodd" d="M9.67739 10.6551V0.5L0 4.10344V14.7297L9.67739 10.6551ZM3.22599 6.53626C3.22599 6.45253 3.27816 6.37765 3.35671 6.34865L6.50509 5.18602C6.63568 5.13779 6.77437 5.23442 6.77437 5.37363V8.87826C6.77437 8.96199 6.72221 9.03686 6.64366 9.06587L3.49528 10.2285C3.36468 10.2767 3.22599 10.1801 3.22599 10.0409V6.53626ZM10.3226 0.5V10.6551L13.2481 11.8116C13.2337 11.7838 13.2258 11.7524 13.2258 11.7197V7.011C13.2258 6.87178 13.3645 6.77516 13.4951 6.82338L16.6434 7.98601C16.722 8.01502 16.7741 8.08989 16.7741 8.17363V12.9801C16.7741 13.062 16.7263 13.1289 16.6606 13.1606L20 14.4807V4.10344L10.3226 0.5ZM9.99996 11.3105L0.64514 15.2415L9.99996 19L19.6774 15.2415L9.99996 11.3105Z" fill="#333863"/>
</svg>
