<svg width="20" height="20" viewBox="0 0 20 20" fill="none" xmlns="http://www.w3.org/2000/svg">
<path fill-rule="evenodd" clip-rule="evenodd" d="M1 3C1 1.89543 1.89543 1 3 1H17C18.1046 1 19 1.89543 19 3V17C19 18.1046 18.1046 19 17 19H3C1.89543 19 1 18.1046 1 17V3ZM16.2031 8.32385V4.34638C16.2015 4.27234 16.1853 4.19935 16.1554 4.13159C16.0983 3.99498 15.9897 3.88636 15.8531 3.82931C15.7853 3.79941 15.7123 3.78319 15.6383 3.78158H11.6608C11.5867 3.78158 11.5132 3.79618 11.4447 3.82457C11.3762 3.85295 11.3139 3.89456 11.2614 3.947C11.1555 4.05292 11.096 4.19658 11.096 4.34638C11.096 4.49617 11.1555 4.63983 11.2614 4.74575C11.3674 4.85167 11.511 4.91118 11.6608 4.91118L14.282 4.9072L11.2631 7.92611C11.1576 8.03159 11.0983 8.17467 11.0983 8.32385C11.0983 8.47304 11.1576 8.61611 11.2631 8.7216C11.3686 8.82709 11.5116 8.88635 11.6608 8.88635C11.81 8.88635 11.9531 8.82709 12.0586 8.7216L15.0775 5.7027L15.0735 8.32385C15.0732 8.39811 15.0876 8.47169 15.1159 8.54035C15.1441 8.60901 15.1857 8.6714 15.2382 8.72391C15.2908 8.77641 15.3531 8.81801 15.4218 8.84628C15.4905 8.87456 15.564 8.88896 15.6383 8.88865C15.7126 8.88896 15.7861 8.87456 15.8548 8.84628C15.9235 8.81801 15.9858 8.77641 16.0384 8.72391C16.0909 8.6714 16.1325 8.60901 16.1607 8.54035C16.189 8.47169 16.2034 8.39811 16.2031 8.32385ZM4.34638 16.203H8.32385C8.39811 16.2033 8.47169 16.1889 8.54035 16.1606C8.60901 16.1323 8.6714 16.0907 8.72391 16.0382C8.77641 15.9857 8.81801 15.9233 8.84628 15.8547C8.87456 15.786 8.88896 15.7124 8.88865 15.6382C8.88896 15.5639 8.87456 15.4903 8.84628 15.4217C8.81801 15.353 8.77641 15.2906 8.72391 15.2381C8.6714 15.1856 8.60901 15.144 8.54035 15.1157C8.47169 15.0875 8.39811 15.0731 8.32385 15.0734L5.7027 15.0773L8.7216 12.0584C8.82709 11.9529 8.88635 11.8099 8.88635 11.6607C8.88635 11.5115 8.82709 11.3684 8.7216 11.2629C8.61611 11.1574 8.47304 11.0982 8.32385 11.0982C8.17467 11.0982 8.03159 11.1574 7.92611 11.2629L4.9072 14.2818L4.91118 11.6607C4.91118 11.5109 4.85167 11.3672 4.74575 11.2613C4.63983 11.1554 4.49617 11.0959 4.34638 11.0959C4.19658 11.0959 4.05292 11.1554 3.947 11.2613C3.89456 11.3138 3.85295 11.376 3.82457 11.4445C3.79618 11.5131 3.78158 11.5865 3.78158 11.6607V15.6382C3.78319 15.7122 3.79941 15.7852 3.82931 15.8529C3.88636 15.9896 3.99498 16.0982 4.13159 16.1552C4.19935 16.1851 4.27234 16.2013 4.34638 16.203Z" fill="#333863"/>
</svg>
