<svg width="20" height="20" fill="none" xmlns="http://www.w3.org/2000/svg"><path fill-rule="evenodd" clip-rule="evenodd" d="M3 0h2a1 1 0 0 1 .117 1.993L5 2H3a1 1 0 0 0-.993.883L2 3v14a1 1 0 0 0 .883.993L3 18h14a1 1 0 0 0 .993-.883L18 17v-2a1 1 0 0 1 1.993-.117L20 15v2a3 3 0 0 1-2.824 2.995L17 20H3a3 3 0 0 1-2.995-2.824L0 17V3A3 3 0 0 1 2.824.005L3 0Zm16 0 .081.003.12.017.111.03.111.044.098.052.096.067.09.08.097.112.071.11.031.062.034.081.024.076.03.148L20 1v6a1 1 0 1 1-2 0V3.414l-6.293 6.293a1 1 0 0 1-1.32.083l-.094-.083a1 1 0 0 1-.083-1.32l.083-.094L16.584 2H13a1 1 0 1 1 0-2h6Z" fill="#fff"/></svg>