<svg width="14" height="15" viewBox="0 0 14 15" fill="none" xmlns="http://www.w3.org/2000/svg">
<g id="Group">
<path id="Vector" d="M6.33203 0.833252C9.64403 0.833252 12.332 3.52125 12.332 6.83325C12.332 10.1453 9.64403 12.8333 6.33203 12.8333C3.02003 12.8333 0.332031 10.1453 0.332031 6.83325C0.332031 3.52125 3.02003 0.833252 6.33203 0.833252ZM6.33203 11.4999C8.91003 11.4999 10.9987 9.41125 10.9987 6.83325C10.9987 4.25459 8.91003 2.16659 6.33203 2.16659C3.75336 2.16659 1.66536 4.25459 1.66536 6.83325C1.66536 9.41125 3.75336 11.4999 6.33203 11.4999ZM11.9887 11.5473L13.8747 13.4326L12.9314 14.3759L11.046 12.4899L11.9887 11.5473Z" fill="white"/>
</g>
</svg>
