<svg xmlns="http://www.w3.org/2000/svg" width="48" height="48" fill="none"><g filter="url(#a)"><rect width="47" height="47" x=".5" y=".5" stroke="#F1F1F1" rx="23.5"/><g clip-path="url(#b)"><path fill="#fff" d="M12 12h24v24H12z"/><path fill="#DBA77B" d="m25.717 13.947 3.734 1.434-.717 1.867-.934-.359-.746 1.945a6.042 6.042 0 0 1 1.945 1.846l1.903-.847-.407-.914 1.827-.813 1.627 3.654-1.827.813-.407-.913-1.902.847a6.023 6.023 0 0 1 .07 2.68l1.944.746.358-.933 1.868.717-1.434 3.734-1.867-.717.358-.933-1.944-.747a6.042 6.042 0 0 1-1.846 1.945l.847 1.903.914-.407.813 1.827-3.654 1.627-.813-1.827.913-.407-.847-1.902a6.023 6.023 0 0 1-2.681.069l-.746 1.945.934.358-.717 1.868-3.734-1.434.717-1.867.932.358.748-1.944A6.055 6.055 0 0 1 19 27.32l-1.903.847.407.914-1.827.813-1.627-3.654 1.827-.813.406.914 1.903-.848a6.07 6.07 0 0 1-.07-2.68l-1.944-.746-.357.933-1.868-.717 1.434-3.733 1.867.717-.36.933 1.946.747A6.048 6.048 0 0 1 20.68 19l-.847-1.903-.914.407-.813-1.827 3.654-1.626.813 1.827-.913.407.847 1.902a6.023 6.023 0 0 1 2.68-.07l.745-1.945-.932-.357.717-1.868Zm-3.583 11.285a1 1 0 1 0 1.733 1 1 1 0 0 0-1.733-1ZM26 23a1 1 0 1 0 0 2 1 1 0 0 0 0-2Zm-3.5-1.598a1 1 0 1 0 1 1.732 1 1 0 0 0-1-1.732Z"/></g></g><defs><clipPath id="b"><path fill="#fff" d="M12 12h24v24H12z"/></clipPath><filter id="a" width="48" height="48" x="0" y="0" color-interpolation-filters="sRGB" filterUnits="userSpaceOnUse"><feFlood flood-opacity="0" result="BackgroundImageFix"/><feBlend in="SourceGraphic" in2="BackgroundImageFix" result="shape"/><feColorMatrix in="SourceAlpha" result="hardAlpha" values="0 0 0 0 0 0 0 0 0 0 0 0 0 0 0 0 0 0 127 0"/><feOffset/><feGaussianBlur stdDeviation="8.6"/><feComposite in2="hardAlpha" k2="-1" k3="1" operator="arithmetic"/><feColorMatrix values="0 0 0 0 1 0 0 0 0 1 0 0 0 0 1 0 0 0 0.05 0"/><feBlend in2="shape" result="effect1_innerShadow_977_116175"/></filter></defs></svg>