<svg xmlns="http://www.w3.org/2000/svg" width="48" height="48" fill="none"><g filter="url(#a)"><rect width="47" height="47" x=".5" y=".5" stroke="#F1F1F1" rx="23.5"/><g clip-path="url(#b)"><path fill="#DBA77B" d="M24 34c-5.523 0-10-4.477-10-10s4.477-10 10-10 10 4.477 10 10-4.477 10-10 10Zm-1.95-11a2.5 2.5 0 0 1 4.064-1.41l1.701-1.133A4.5 4.5 0 0 0 20.028 23H19v2h1.027a4.5 4.5 0 0 0 7.788 2.543l-1.701-1.134A2.5 2.5 0 0 1 22.05 25l4.95.001v-2h-4.95V23Z"/></g></g><defs><clipPath id="b"><path fill="#fff" d="M12 12h24v24H12z"/></clipPath><filter id="a" width="48" height="48" x="0" y="0" color-interpolation-filters="sRGB" filterUnits="userSpaceOnUse"><feFlood flood-opacity="0" result="BackgroundImageFix"/><feBlend in="SourceGraphic" in2="BackgroundImageFix" result="shape"/><feColorMatrix in="SourceAlpha" result="hardAlpha" values="0 0 0 0 0 0 0 0 0 0 0 0 0 0 0 0 0 0 127 0"/><feOffset/><feGaussianBlur stdDeviation="8.6"/><feComposite in2="hardAlpha" k2="-1" k3="1" operator="arithmetic"/><feColorMatrix values="0 0 0 0 1 0 0 0 0 1 0 0 0 0 1 0 0 0 0.05 0"/><feBlend in2="shape" result="effect1_innerShadow_977_116182"/></filter></defs></svg>