<svg xmlns="http://www.w3.org/2000/svg" width="465" height="284" fill="none"><g clip-path="url(#a)"><path fill="#E3E3E3" d="m88.998 43.988-5.776.91c1.249 10.3 7.956 19.142 17.592 24.486l-.138-6.296c-6.499-4.681-10.859-11.432-11.678-19.1Zm32.877-31.4c17.87-.388 32.743 11.132 34.161 26.076l5.913.663c-1.015-18.062-18.759-32.183-40.183-31.718-21.412.465-38.522 15.333-38.755 33.422l5.88-.919c.765-14.982 15.12-27.137 32.984-27.524Zm23.397 49.532.138 6.296c9.39-5.755 15.706-14.88 16.506-25.216l-5.817-.656c-.484 7.693-4.551 14.618-10.827 19.576Zm-22.457-17.966-.001-.023c14.331-2.771 24.659 7.207 24.754 7.316a1.02 1.02 0 0 0 1.525-.075 1.256 1.256 0 0 0-.075-1.664c-.457-.44-11.046-10.722-26.249-7.954l-.002-.077c14.477-6.705 27.39 3.038 27.515 3.132a1.018 1.018 0 0 0 1.498-.267c.342-.529.22-1.256-.26-1.636-.517-.41-11.88-9.02-25.814-4.831 4.873-2.458 14.726-6.402 23.232-3.317.567.206 1.169-.126 1.356-.744.188-.619-.121-1.276-.687-1.482-10.719-3.883-22.871 2.212-26.794 4.473.051-.043.088-.088.135-.127.081-.092 8.49-9.483 19.77-9.383.594.005 1.084-.517 1.085-1.16.001-.644-.48-1.18-1.078-1.175-8.69-.078-15.614 4.84-19.029 7.848 1.342-2.54 4.94-8.38 10.476-10.51.566-.205.852-.881.654-1.493-.207-.61-.815-.933-1.374-.711-4.42 1.691-7.659 5.349-9.705 8.335.965-2.77 2.557-6.252 4.075-7.164.518-.312.713-1.02.416-1.588-.286-.573-.937-.777-1.456-.462-1.867 1.116-3.376 4.09-4.37 6.546l-.109-5-.693-1.523-.143.003-.641 1.553.11 4.996c-1.089-2.41-2.731-5.316-4.645-6.35-.53-.284-1.178-.06-1.441.525-.261.587-.036 1.288.491 1.572 1.563.84 3.303 4.255 4.387 6.975-2.173-2.89-5.565-6.403-10.048-7.902-.573-.198-1.178.155-1.349.774-.172.615.155 1.274.714 1.455 5.628 1.891 9.468 7.57 10.937 10.05-3.546-2.861-10.681-7.47-19.365-7.012-.592.013-1.046.57-1.017 1.218.03.637.54 1.14 1.127 1.112 11.255-.59 20.072 8.427 20.165 8.516.039.043.089.084.132.12-4.009-2.088-16.406-7.65-26.942-3.297-.56.226-.838.9-.623 1.507.21.609.836.914 1.384.684 8.367-3.455 18.381.061 23.358 2.3-14.107-3.576-25.093 5.524-25.585 5.947-.47.4-.552 1.133-.19 1.646.358.51 1.046.599 1.504.202.13-.1 12.597-10.397 27.351-4.323l.001.077c-15.301-2.105-25.434 8.618-25.871 9.085a1.28 1.28 0 0 0-.006 1.675c.42.449 1.1.451 1.519.009.103-.115 9.982-10.54 24.409-8.386l.001.025c-13.45 1.35-20.637 11.54-20.944 11.983-.352.507-.256 1.249.217 1.634.472.392 1.148.294 1.505-.225.065-.095 6.385-9.01 17.899-10.868-8.275 2.82-14.026 13.062-14.284 13.534-.308.553-.138 1.28.366 1.605.509.341 1.169.159 1.472-.393.065-.112 5.979-10.63 13.868-12.741l.015.659s-.796.298-1.046 1.282c-.247.993-1.056.816-2.196 2.11-1.132 1.297-.932 2.355-1.1 2.758-.171.39-3.317.072-3.931.472-.623.408.645 1.157 1.198 1.729.553.576.392 1.663.958 2.613.553.966 2.694.327 2.694.327s-.236 17.862.451 20.585c.596 2.36 3.603 2.753 4.378 2.824v.017s.03-.008.09-.01c.064-.001.095.006.095.006l-.001-.018c.773-.103 3.766-.626 4.255-3.01.564-2.75-.45-20.586-.45-20.586s2.155.545 2.674-.443c.518-.986.316-2.066.844-2.652.531-.587 1.767-1.398 1.129-1.78-.633-.372-3.762.082-3.955-.3-.19-.395-.032-1.46-1.217-2.708-1.199-1.25-2.002-1.04-2.29-2.013-.285-.972-1.101-1.235-1.101-1.235l-.014-.66c7.987 1.763 14.345 12.016 14.41 12.129.328.537 1.002.69 1.487.328.494-.346.633-1.08.296-1.619-.267-.457-6.474-10.444-14.858-12.903 11.585 1.357 18.282 9.989 18.353 10.08.382.504 1.063.573 1.516.16.453-.404.522-1.15.141-1.64-.318-.443-7.944-10.303-21.443-11.072Z"/><path fill="#E3E3E3" d="M37.126 142.884c-2.615-3.895 8.307-46.541 14.095-67.377 5.842-3.922-1.426 5.194 1.974 7.15 3.4 1.955 27.986 3.813 36.123 5.413 8.137 1.6 91.317-.578 91.747 6.21.43 6.787 4.795 49.059 5.379 54.303.585 5.244-9.417 4.909-14.619 5.577-5.202.667-131.43-6.408-134.7-11.276ZM301.031 150.774c8.579-2.37 11.614 3.974 12.059 7.442 5.855.306 6.189 2.907 8.47 4.201 1.947-1.308 7.456-7.831 14.231-25.092 10.061-27.095 11.428-53.815 10.854-63.789-7.585 1.326-23.73 4.631-27.624 7.246-4.869 3.269-.627 7.483-3.229 7.816-2.601.334-9.764-1.92-14.312-.279-3.639 1.313-4.104 5.11-3.881 6.844-7.544.546-79.693-.177-114.824-.607-.256 1.302 3.266 37.83 5.059 55.931 4.562 2.587 12.353-2.641 16.568-6.883 4.214-4.242 11.058-.361 13.352 5.161 2.295 5.522 26.999.238 32.868 4.773 5.87 4.535 4.978 30.56 7.899 28.599 2.921-1.961 6.468-11.406 9.696-19.223 3.765-9.12 13.169-18.257 17.82-21.85 2.921-1.961 4.868-3.269 8.123-2.629 3.319.653 5.99 8.221 6.871 12.339Z"/><path fill="#E3E3E3" d="M321.66 165.178c20.743-22.966 26.878-70.78 27.352-91.815 22.788 5.89 69.472 18.057 73.9 19.604 5.536 1.933 3.269 4.868.347 6.83-2.921 1.96-17.234 1.681-18.207 2.335-.974.653-2.2 24.077 4.977 30.559 7.177 6.483 7.484.627 10.752 5.495 2.615 3.895-7.908 49.511 2.478 109.869-58.809-.07-141.208 41.18-191.031 23.775 10.096-29.849 31.383-92.543 35.768-104.528 5.482-14.98 20.728-28.04 24.956-28.053 3.383-.011 6.426 8.87 7.524 13.312 8.057-3.149 11.397 3.649 12.059 7.442 3.116-2.092 7.382 2.578 9.125 5.175Z"/><path fill="#DBA77B" d="M198.893 150.127c-3.116 2.092-8.448 2.846-10.725 2.962-15.273 4.603-25.064 2.642-69.603 1.525-27.586-.692-66.158-5.967-81.996-8.518-2.844 25.922-7.364 76.983-2.69 73.845 5.842-3.922 111.303 18.508 144.824 24.255 26.818 4.597 45.928 20.019 52.132 27.155 9.126-27.786 29.188-87.398 29.967-87.92.973-.654-3.575.987-4.882-.961-1.308-1.947-2.99-19.181-3.977-22.756-.987-3.575-1.641-4.548-3.922-5.842-1.825-1.035-15.291-1.035-21.796-.906-2.601.334-6.176 1.321-10.098-4.521-3.922-5.842-9.125-5.175-10.098-4.521-.974.653-3.241 3.588-7.136 6.203Z"/></g><defs><clipPath id="a"><path fill="#fff" d="M0 0h465v284H0z"/></clipPath></defs></svg>