<svg xmlns="http://www.w3.org/2000/svg" width="16" height="21" fill="none"><path fill="#DBA77B" d="M15.319 20.59H.591v-1.918c0-1.272.485-2.492 1.348-3.39a4.51 4.51 0 0 1 3.254-1.405h5.522a4.51 4.51 0 0 1 3.255 1.404 4.898 4.898 0 0 1 1.348 3.39v1.919Zm-7.364-8.631a5.332 5.332 0 0 1-2.113-.438 5.514 5.514 0 0 1-1.792-1.247 5.775 5.775 0 0 1-1.197-1.867 5.964 5.964 0 0 1 0-4.404A5.776 5.776 0 0 1 4.05 2.136 5.513 5.513 0 0 1 5.842.89 5.33 5.33 0 0 1 7.955.451c1.465 0 2.87.606 3.905 1.685a5.878 5.878 0 0 1 1.618 4.07c0 1.525-.582 2.989-1.618 4.068a5.412 5.412 0 0 1-3.905 1.685Z"/></svg>