<svg xmlns="http://www.w3.org/2000/svg" width="22" height="18" fill="none"><path fill="#fff" d="m3.707 10.046-.45.45.461.439.451-.45-.462-.438Zm5.77 2.538 6.455-6.28-.913-.888-6.456 6.28.913.888Zm-.914-6.28 6.456 6.28.913-.889-6.456-6.279-.913.888ZM20.21 9c0 4.277-3.564 7.744-7.961 7.744V18c5.11 0 9.252-4.03 9.252-9h-1.291ZM4.286 9c0-4.277 3.565-7.744 7.962-7.744V0c-5.11 0-9.253 4.03-9.253 9h1.291Zm7.962-7.744c4.397 0 7.961 3.467 7.961 7.744H21.5c0-4.97-4.142-9-9.252-9v1.256Zm-7.9 8.713A7.62 7.62 0 0 1 4.286 9H2.995c0 .38.024.756.072 1.124l1.28-.155Zm7.9 6.775c-2.736 0-5.15-1.341-6.584-3.388l-1.067.707C6.26 16.438 9.067 18 12.247 18v-1.256Zm-8.079-6.26L6.792 7.87l-.924-.877-2.623 2.616.924.877Zm-.011-.887L1.402 6.981.5 7.88l2.756 2.616.902-.899Z"/></svg>