<svg xmlns="http://www.w3.org/2000/svg" width="48" height="48" fill="none"><g filter="url(#a)"><rect width="47" height="47" x=".5" y=".5" stroke="#F1F1F1" rx="23.5"/><g clip-path="url(#b)"><path fill="#DBA77B" d="M33 14.992v18.016a1 1 0 0 1-.993.992H15.993a.993.993 0 0 1-.993-.992V14.992a1 1 0 0 1 .993-.992h16.014c.548 0 .993.444.993.992ZM31 16H17v16h14V16Zm-7.707 9.121 4.243-4.242 1.414 1.414-5.657 5.657-3.89-3.89 1.415-1.414 2.475 2.475Z"/></g></g><defs><clipPath id="b"><path fill="#fff" d="M12 12h24v24H12z"/></clipPath><filter id="a" width="48" height="48" x="0" y="0" color-interpolation-filters="sRGB" filterUnits="userSpaceOnUse"><feFlood flood-opacity="0" result="BackgroundImageFix"/><feBlend in="SourceGraphic" in2="BackgroundImageFix" result="shape"/><feColorMatrix in="SourceAlpha" result="hardAlpha" values="0 0 0 0 0 0 0 0 0 0 0 0 0 0 0 0 0 0 127 0"/><feOffset/><feGaussianBlur stdDeviation="8.6"/><feComposite in2="hardAlpha" k2="-1" k3="1" operator="arithmetic"/><feColorMatrix values="0 0 0 0 1 0 0 0 0 1 0 0 0 0 1 0 0 0 0.05 0"/><feBlend in2="shape" result="effect1_innerShadow_977_116171"/></filter></defs></svg>