<svg width="68" height="68" viewBox="0 0 68 68" fill="none" xmlns="http://www.w3.org/2000/svg">
<g id="Group">
<path id="Vector" d="M34.0001 5.66699C49.6486 5.66699 62.3334 18.3518 62.3334 34.0003C62.3334 49.6488 49.6486 62.3337 34.0001 62.3337C18.3516 62.3337 5.66675 49.6488 5.66675 34.0003C5.66675 18.3518 18.3516 5.66699 34.0001 5.66699ZM34.0001 19.8337C32.5466 19.8337 31.1469 20.0518 29.8266 20.457C30.8718 20.9279 31.7871 21.6455 32.4939 22.5482C33.2006 23.4508 33.6777 24.5115 33.8842 25.6392C34.0907 26.7669 34.0204 27.9278 33.6794 29.0223C33.3383 30.1168 32.7367 31.1122 31.9262 31.923C31.1157 32.7337 30.1205 33.3357 29.0261 33.677C27.9317 34.0184 26.7707 34.0891 25.643 33.8829C24.5153 33.6768 23.4544 33.2 22.5516 32.4935C21.6487 31.787 20.9308 30.8719 20.4596 29.8268C19.581 32.6769 19.6242 35.7316 20.5832 38.5557C21.5423 41.3797 23.3681 43.8291 25.8006 45.5547C28.2331 47.2804 31.1482 48.1944 34.1305 48.1664C37.1128 48.1384 40.0102 47.1699 42.4099 45.3989C44.8096 43.6278 46.5891 41.1447 47.495 38.3031C48.4008 35.4615 48.3867 32.4066 47.4548 29.5735C46.5228 26.7404 44.7205 24.2737 42.3046 22.5248C39.8887 20.776 36.9825 19.8342 34.0001 19.8337Z" fill="#DBA77B"/>
</g>
</svg>
