<svg width="140" height="43" viewBox="0 0 140 43" fill="none" xmlns="http://www.w3.org/2000/svg">
<path d="M0 7.54C2.552 7.424 4.35 7.25 5.394 7.018C6.96 6.67 8.294 5.974 9.338 4.872C10.034 4.118 10.556 3.132 10.904 1.914C11.136 1.218 11.252 0.638002 11.252 0.290003H17.922V41.354H9.686V13.05H0V7.54Z" fill="#DBA77B"/>
<path d="M54.0365 5.51C56.1245 9.222 57.2265 14.442 57.2265 21.228C57.2265 28.014 56.1245 33.234 54.0365 36.888C51.9485 40.542 48.2945 42.398 43.0165 42.398C37.7965 42.398 34.1425 40.542 32.0545 36.888C29.9085 33.234 28.8645 28.014 28.8645 21.228C28.8645 14.442 29.9085 9.222 32.0545 5.51C34.1425 1.856 37.7965 0 43.0165 0C48.2945 0 51.9485 1.856 54.0365 5.51ZM38.2605 32.016C39.0725 34.568 40.6385 35.786 43.0165 35.786C45.4525 35.786 47.0185 34.568 47.7725 32.016C48.5265 29.522 48.8745 25.926 48.8745 21.228C48.8745 16.24 48.5265 12.586 47.7725 10.208C47.0185 7.83 45.4525 6.67 43.0165 6.67C40.6385 6.67 39.0725 7.83 38.2605 10.208C37.5065 12.586 37.1005 16.24 37.1005 21.228C37.1005 25.926 37.5065 29.522 38.2605 32.016Z" fill="#DBA77B"/>
<path d="M85.105 5.51C87.193 9.222 88.295 14.442 88.295 21.228C88.295 28.014 87.193 33.234 85.105 36.888C83.017 40.542 79.363 42.398 74.085 42.398C68.865 42.398 65.211 40.542 63.123 36.888C60.977 33.234 59.933 28.014 59.933 21.228C59.933 14.442 60.977 9.222 63.123 5.51C65.211 1.856 68.865 0 74.085 0C79.363 0 83.017 1.856 85.105 5.51ZM69.329 32.016C70.141 34.568 71.707 35.786 74.085 35.786C76.521 35.786 78.087 34.568 78.841 32.016C79.595 29.522 79.943 25.926 79.943 21.228C79.943 16.24 79.595 12.586 78.841 10.208C78.087 7.83 76.521 6.67 74.085 6.67C71.707 6.67 70.141 7.83 69.329 10.208C68.575 12.586 68.169 16.24 68.169 21.228C68.169 25.926 68.575 29.522 69.329 32.016Z" fill="#DBA77B"/>
<path d="M105.502 42.456H101.152L124.12 0.290003H128.412L105.502 42.456ZM108.518 18.444C106.488 20.532 103.994 21.576 101.094 21.576C98.1355 21.576 95.6995 20.532 93.6115 18.444C91.5815 16.414 90.5375 13.92 90.5375 11.02C90.5375 8.12 91.5815 5.626 93.6115 3.596C95.6995 1.508 98.1355 0.464001 101.094 0.464001C103.994 0.464001 106.43 1.508 108.518 3.596C110.606 5.626 111.592 8.12 111.592 11.02C111.592 13.92 110.606 16.414 108.518 18.444ZM104.284 14.21C105.154 13.34 105.56 12.296 105.56 11.02C105.56 9.802 105.154 8.7 104.284 7.83C103.414 6.96 102.312 6.496 101.094 6.496C99.8175 6.496 98.7735 6.96 97.9035 7.83C97.0335 8.7 96.5695 9.802 96.5695 11.02C96.5695 12.296 97.0335 13.34 97.9035 14.21C98.7735 15.08 99.8175 15.544 101.094 15.544C102.312 15.544 103.414 15.08 104.284 14.21ZM136.068 39.092C133.98 41.18 131.486 42.166 128.586 42.166C125.686 42.166 123.192 41.18 121.162 39.092C119.074 37.004 118.088 34.568 118.088 31.668C118.088 28.71 119.074 26.216 121.162 24.186C123.192 22.098 125.686 21.112 128.586 21.112C131.486 21.112 133.98 22.098 136.068 24.186C138.098 26.274 139.142 28.71 139.142 31.668C139.142 34.568 138.098 37.004 136.068 39.092ZM131.776 28.42C130.906 27.55 129.862 27.144 128.586 27.144C127.368 27.144 126.324 27.55 125.454 28.42C124.526 29.29 124.12 30.392 124.12 31.668C124.12 32.886 124.526 33.93 125.454 34.8C126.324 35.67 127.368 36.134 128.586 36.134C129.862 36.134 130.906 35.67 131.776 34.8C132.704 33.93 133.11 32.886 133.11 31.668C133.11 30.392 132.704 29.29 131.776 28.42Z" fill="#DBA77B"/>
</svg>
