<svg width="106" height="44" viewBox="0 0 106 44" fill="none" xmlns="http://www.w3.org/2000/svg">
<path d="M1.914 34.974C3.074 32.19 5.8 29.348 10.092 26.274C13.804 23.606 16.182 21.692 17.284 20.532C18.966 18.792 19.836 16.762 19.836 14.674C19.836 12.934 19.314 11.484 18.386 10.324C17.4 9.164 16.008 8.584 14.21 8.584C11.774 8.584 10.092 9.512 9.222 11.368C8.7 12.412 8.41 14.094 8.294 16.414H0.464C0.638 12.876 1.218 10.092 2.378 7.946C4.524 3.828 8.352 1.798 13.862 1.798C18.154 1.798 21.634 2.958 24.186 5.394C26.796 7.772 28.072 10.962 28.072 14.964C28.072 17.98 27.144 20.706 25.346 23.026C24.128 24.592 22.214 26.332 19.488 28.304L16.24 30.566C14.21 32.016 12.818 33.06 12.122 33.698C11.368 34.336 10.73 35.09 10.208 35.902H28.13V43.036H0C0.116 40.078 0.696 37.41 1.914 34.974Z" fill="white"/>
<path d="M54.9645 43.036H47.0765V34.22H30.7785V27.144L45.9165 2.204H54.9645V27.898H59.6045V34.22H54.9645V43.036ZM36.7525 27.898H47.0765V10.15L36.7525 27.898Z" fill="white"/>
<path d="M63.819 43.036H57.149L73.331 0H80.059L63.819 43.036Z" fill="white"/>
<path d="M105.888 8.816C104.67 10.034 103.046 12.122 100.842 15.196C98.6956 18.212 96.8976 21.344 95.4476 24.65C94.2876 27.202 93.3016 30.276 92.3156 33.988C91.3876 37.642 90.9816 40.658 90.9816 43.036H82.5716C82.8036 35.67 85.2396 28.014 89.8216 20.068C92.7796 15.138 95.2736 11.716 97.2456 9.744H76.7716L76.8876 2.494H105.888V8.816Z" fill="white"/>
</svg>
