<svg width="110" height="110" viewBox="0 0 110 110" fill="none" xmlns="http://www.w3.org/2000/svg">
<g opacity="0.3">
<path d="M105.333 -8.49967C105.333 6.04382 93.5436 17.8337 79.0001 17.8337C64.4566 17.8337 52.6667 6.04382 52.6667 -8.49967C52.6667 -23.0432 64.4566 -34.833 79.0001 -34.833C93.5436 -34.833 105.333 -23.0432 105.333 -8.49967Z" fill="white"/>
<path d="M103.215 40.893C100.1 40.9307 97.1974 41.0443 94.6677 41.3844C90.4354 41.9535 85.8028 43.3135 81.9751 47.1413C78.1473 50.9691 76.7872 55.6016 76.2182 59.8339C75.7069 63.6373 75.7076 68.2842 75.7083 73.2253V74.3572C75.7076 79.2983 75.7069 83.9452 76.2182 87.7486C76.6175 90.7184 77.4063 93.8853 79.1639 96.833C79.1093 96.833 79.0546 96.833 78.9999 96.833C26.3333 96.833 26.3333 83.5694 26.3333 67.208C26.3333 50.8466 49.9129 37.583 78.9999 37.583C87.7306 37.583 95.9651 38.778 103.215 40.893Z" fill="white"/>
<path fill-rule="evenodd" clip-rule="evenodd" d="M88.9576 93.459C92.332 96.8333 97.763 96.8333 108.625 96.8333C119.487 96.8333 124.918 96.8333 128.292 93.459C131.667 90.0846 131.667 84.6536 131.667 73.7917C131.667 62.9297 131.667 57.4987 128.292 54.1244C124.918 50.75 119.487 50.75 108.625 50.75C97.763 50.75 92.332 50.75 88.9576 54.1244C85.5833 57.4987 85.5833 62.9297 85.5833 73.7917C85.5833 84.6536 85.5833 90.0846 88.9576 93.459ZM102.216 83.5117C97.5949 80.2023 92.1666 76.3152 92.1666 69.5769C92.1666 62.1382 101.219 56.8629 108.625 64.0143C116.031 56.8629 125.083 62.1382 125.083 69.5769C125.083 76.3152 119.655 80.2023 115.033 83.5117C114.553 83.8557 114.081 84.1935 113.625 84.5275C111.917 85.7795 110.271 86.9583 108.625 86.9583C106.979 86.9583 105.333 85.7795 103.624 84.5275C103.169 84.1935 102.697 83.8557 102.216 83.5117Z" fill="white"/>
</g>
</svg>
