<svg width="110" height="110" viewBox="0 0 110 110" fill="none" xmlns="http://www.w3.org/2000/svg">
<g opacity="0.1">
<path d="M131.667 42.5212C131.667 39.7943 129.456 37.5837 126.729 37.5837H106.979C104.252 37.5837 102.042 39.7943 102.042 42.5212V86.9587H92.1666V-20.0205C92.1666 -24.8152 92.1561 -27.9145 91.8491 -30.1982C91.5611 -32.3397 91.0963 -33.011 90.7204 -33.3868C90.3446 -33.7627 89.6733 -34.2276 87.5317 -34.5155C85.2481 -34.8225 82.1488 -34.833 77.3541 -34.833C72.5594 -34.833 69.4601 -34.8225 67.1764 -34.5155C65.0348 -34.2276 64.3636 -33.7627 63.9877 -33.3868C63.6119 -33.011 63.147 -32.3397 62.8591 -30.1982C62.5521 -27.9145 62.5416 -24.8152 62.5416 -20.0205V86.9587H52.6666V9.60449C52.6666 6.87758 50.456 4.66699 47.7291 4.66699H27.9791C25.2522 4.66699 23.0416 6.87758 23.0416 9.60449V86.9587H13.1666H11.5208C8.79385 86.9587 6.58325 89.1693 6.58325 91.8962C6.58325 94.6231 8.79385 96.8336 11.5208 96.8336H143.187C145.914 96.8336 148.125 94.6231 148.125 91.8962C148.125 89.1693 145.914 86.9587 143.187 86.9587H141.542H131.667V42.5212Z" fill="#DBA77B"/>
</g>
</svg>
