<svg width="596" height="155" viewBox="0 0 596 155" fill="none" xmlns="http://www.w3.org/2000/svg">
<rect width="596" height="155" fill="#858694"/>
<path d="M30.1131 67.3604C30.1131 68.4423 29.7562 69.3964 29.0413 70.22C28.3263 71.0436 27.3652 71.4561 26.1555 71.4561C24.7597 71.4561 23.3746 70.9395 22 69.9064L22.7421 68.7072C23.4452 69.1987 24.0448 69.5506 24.5395 69.7588C25.0342 69.9565 25.556 70.054 26.106 70.054C26.8646 70.054 27.4747 69.8075 27.9364 69.316C28.4088 68.8113 28.6455 68.1656 28.6455 67.3788C28.6455 66.604 28.4099 66.0017 27.9364 65.5708C27.4641 65.128 26.8045 64.9067 25.9576 64.9067C25.397 64.9067 24.9517 64.9857 24.6219 65.1465L23.9458 64.1133L27.9694 59.9992H22.5607V58.6155H29.7833V59.9623L26.1555 63.6521H26.3699C27.4582 63.6521 28.3546 63.9842 29.0578 64.6484C29.761 65.3125 30.1131 66.2165 30.1131 67.3604ZM33.3711 69.1684V71.1609H31.6891V69.1684H33.3711ZM42.1603 64.1687C42.8529 64.9805 43.1992 65.9767 43.1992 67.1575C43.1992 68.3382 42.8258 69.3463 42.0779 70.1831C41.3417 71.0199 40.3629 71.4377 39.1427 71.4377C37.8682 71.4377 36.8576 70.983 36.1085 70.0724C35.3723 69.1631 35.0036 67.9877 35.0036 66.5486C35.0036 65.2704 35.2899 64.0712 35.8611 62.951C36.4336 61.8309 37.2958 60.6699 38.4501 59.4642L39.2581 58.6155H41.2039V58.6339L39.423 60.4604C38.1921 61.715 37.3287 62.9207 36.834 64.0764C37.4724 63.3253 38.3464 62.951 39.456 62.951C40.5667 62.951 41.4678 63.3569 42.1603 64.1687ZM41.7316 67.1759C41.7316 66.3391 41.5007 65.6565 41.039 65.128C40.5891 64.5878 39.9789 64.3163 39.2086 64.3163C38.3959 64.3163 37.741 64.5864 37.2463 65.128C36.7516 65.6565 36.5042 66.3404 36.5042 67.1759C36.5042 67.9877 36.7469 68.6769 37.2298 69.2422C37.7139 69.7825 38.3511 70.054 39.1427 70.054C39.9236 70.054 40.5502 69.7904 41.0225 69.2607C41.496 68.7204 41.7316 68.0246 41.7316 67.1759ZM43.7693 58.6155H51.8165V59.7962C50.7281 61.3091 49.7552 63.0802 48.8977 65.1096C48.0403 67.1522 47.4914 69.1684 47.2487 71.1609H45.6657C45.8965 69.2672 46.4313 67.3354 47.2652 65.3679C48.0523 63.4659 49.0139 61.6605 50.1345 59.9807H43.7693V58.6155ZM60.5739 60.6449C61.1016 61.7888 61.3654 63.2027 61.3654 64.8882C61.3654 66.5737 61.1016 67.9877 60.5739 69.1315C59.859 70.6812 58.7211 71.4561 57.1605 71.4561C55.5986 71.4561 54.4608 70.6812 53.747 69.1315C53.2193 67.9877 52.9555 66.5737 52.9555 64.8882C52.9555 63.2027 53.2193 61.7888 53.747 60.6449C54.4608 59.0952 55.5986 58.3203 57.1605 58.3203C58.7211 58.3203 59.859 59.0952 60.5739 60.6449ZM55.0332 61.346C54.6375 62.2552 54.4396 63.4373 54.4396 64.8882C54.4396 66.3391 54.6375 67.5199 55.0332 68.4304C55.495 69.5124 56.204 70.054 57.1605 70.054C58.1169 70.054 58.826 69.5137 59.2877 68.4304C59.6834 67.5212 59.8813 66.3391 59.8813 64.8882C59.8813 63.4373 59.6834 62.2566 59.2877 61.346C58.826 60.2641 58.1169 59.7224 57.1605 59.7224C56.204 59.7224 55.495 60.2627 55.0332 61.346ZM29.1897 84.6183V90.9279H27.9035V89.8025C27.3322 90.75 26.4135 91.2231 25.1496 91.2231C24.2591 91.2231 23.5501 91.0083 23.0224 90.5773C22.5053 90.1464 22.2474 89.5139 22.2474 88.6771C22.2474 87.7059 22.5713 86.9982 23.2203 86.5554C23.8917 86.1008 24.8257 85.7555 26.0236 85.5223L27.8375 85.1533V84.6921C27.8375 84.1386 27.6608 83.7024 27.3098 83.3822C26.9682 83.0619 26.5124 82.9025 25.9411 82.9025C25.4464 82.9025 25.0012 83.0198 24.6054 83.253C24.2203 83.4744 23.775 83.8684 23.2697 84.4338L22.3628 83.5298C23.3404 82.2383 24.5183 81.5926 25.8917 81.5926C26.9247 81.5926 27.7327 81.8693 28.3157 82.4228C28.8988 82.9631 29.1897 83.6958 29.1897 84.6183ZM27.8375 87.5332V86.334L26.3534 86.6661C25.3416 86.8994 24.6443 87.1405 24.2591 87.3856C23.8858 87.6321 23.6761 88.0445 23.6325 88.6217C23.6325 89.0395 23.775 89.3597 24.0613 89.5811C24.3581 89.8025 24.7703 89.9132 25.298 89.9132C26.0342 89.9132 26.6396 89.6984 27.1119 89.2674C27.3452 89.0615 27.5323 88.7975 27.6583 88.4965C27.7842 88.1954 27.8456 87.8655 27.8375 87.5332ZM37.6032 88.345L38.4442 89.3043C37.8611 89.9935 37.3017 90.4785 36.7622 90.7618C36.2239 91.0452 35.6079 91.1862 34.9153 91.1862C33.695 91.1862 32.7162 90.7552 31.9801 89.8947C31.2545 89.021 30.8917 87.8719 30.8917 86.4447C30.8917 85.0175 31.2439 83.8553 31.9471 82.9578C32.662 82.0486 33.602 81.5926 34.7669 81.5926C35.9212 81.5926 36.8164 81.98 37.4548 82.7549C38.1026 83.5298 38.4277 84.5998 38.4277 85.965C38.4277 86.1364 38.4159 86.3709 38.3947 86.6661H32.3099C32.3546 87.6255 32.602 88.4003 33.0519 88.9907C33.503 89.5692 34.1297 89.8578 34.9318 89.8578C35.4383 89.8578 35.8717 89.7471 36.2345 89.5257C36.5973 89.3162 37.0531 88.9235 37.6032 88.345ZM32.3428 85.4854H37.026C36.993 84.6736 36.7728 84.0345 36.3664 83.5667C35.9707 83.0988 35.4324 82.8656 34.7504 82.8656C34.0908 82.8656 33.5525 83.0936 33.1344 83.5482C32.7162 84.0028 32.4524 84.6486 32.3428 85.4854ZM46.0002 77.829H47.4183V90.9279H46.0826V89.5257C45.4772 90.6195 44.5538 91.1677 43.3123 91.1677C42.2675 91.1677 41.41 90.7249 40.7398 89.8394C40.0685 88.9538 39.7339 87.8034 39.7339 86.3894C39.7339 84.9754 40.0743 83.8249 40.7563 82.9394C41.4371 82.0538 42.3005 81.611 43.3453 81.611C44.5208 81.611 45.4065 82.0973 46.0002 83.0685V77.829ZM45.3571 88.8985C45.8188 88.2712 46.0497 87.4357 46.0497 86.3894C46.0497 85.3444 45.8188 84.5142 45.3571 83.8987C44.8953 83.2833 44.2852 82.9763 43.5267 82.9763C42.8223 82.9763 42.2569 83.2899 41.8282 83.9172C41.3994 84.5445 41.1851 85.3681 41.1851 86.3894C41.1851 87.4225 41.3936 88.2527 41.8117 88.88C42.2404 89.5073 42.8117 89.8209 43.5267 89.8209C44.2852 89.8209 44.8953 89.5139 45.3571 88.8985Z" fill="white"/>
<path d="M76.8672 66.5484H324.808L327.753 63.2539L330.697 66.5484H472.63L476.164 69.8429L479.697 66.5484H497.365L499.721 63.2539L502.435 66.5484H573.927" stroke="white"/>
<path d="M82.5098 83.3418V84.0918H79.5098V83.459L80.9277 81.8711C81.0723 81.707 81.1836 81.5605 81.2617 81.4316C81.3438 81.3027 81.4023 81.1875 81.4375 81.0859C81.4727 80.9805 81.4902 80.8848 81.4902 80.7988C81.4902 80.6113 81.4434 80.457 81.3496 80.3359C81.2559 80.2148 81.123 80.1543 80.9512 80.1543C80.7246 80.1543 80.5586 80.2285 80.4531 80.377C80.3477 80.5254 80.2949 80.7109 80.2949 80.9336H79.4219C79.4219 80.6523 79.4805 80.3965 79.5977 80.166C79.7188 79.9355 79.8906 79.752 80.1133 79.6152C80.3398 79.4746 80.6113 79.4043 80.9277 79.4043C81.2324 79.4043 81.4922 79.4609 81.707 79.5742C81.9219 79.6875 82.0859 79.8477 82.1992 80.0547C82.3125 80.2578 82.3691 80.502 82.3691 80.7871C82.3691 80.9941 82.3301 81.1875 82.252 81.3672C82.1777 81.5469 82.0703 81.7266 81.9297 81.9062C81.7891 82.0859 81.6172 82.2793 81.4141 82.4863L80.623 83.3418H82.5098ZM86.4121 81.3906V82.2051C86.4121 82.6504 86.3496 83.0195 86.2246 83.3125C86.1035 83.6016 85.9316 83.8184 85.709 83.9629C85.4902 84.1035 85.2344 84.1738 84.9414 84.1738C84.6484 84.1738 84.3906 84.1035 84.168 83.9629C83.9453 83.8184 83.7715 83.6016 83.6465 83.3125C83.5215 83.0195 83.459 82.6504 83.459 82.2051V81.3906C83.459 80.9453 83.5215 80.5781 83.6465 80.2891C83.7715 79.9961 83.9453 79.7793 84.168 79.6387C84.3906 79.4941 84.6465 79.4219 84.9355 79.4219C85.2285 79.4219 85.4863 79.4941 85.709 79.6387C85.9316 79.7793 86.1035 79.9961 86.2246 80.2891C86.3496 80.5781 86.4121 80.9453 86.4121 81.3906ZM85.5391 82.2812V81.3086C85.5391 81.0469 85.5156 80.834 85.4688 80.6699C85.4219 80.502 85.3535 80.3789 85.2637 80.3008C85.1738 80.2188 85.0645 80.1777 84.9355 80.1777C84.8105 80.1777 84.7012 80.2188 84.6074 80.3008C84.5176 80.3789 84.4492 80.502 84.4023 80.6699C84.3555 80.834 84.332 81.0469 84.332 81.3086V82.2812C84.332 82.543 84.3555 82.7578 84.4023 82.9258C84.4531 83.0938 84.5234 83.2188 84.6133 83.3008C84.707 83.3828 84.8164 83.4238 84.9414 83.4238C85.0703 83.4238 85.1777 83.3828 85.2637 83.3008C85.3535 83.2188 85.4219 83.0938 85.4688 82.9258C85.5156 82.7578 85.5391 82.543 85.5391 82.2812ZM90.373 81.3906V82.2051C90.373 82.6504 90.3105 83.0195 90.1855 83.3125C90.0645 83.6016 89.8926 83.8184 89.6699 83.9629C89.4512 84.1035 89.1953 84.1738 88.9023 84.1738C88.6094 84.1738 88.3516 84.1035 88.1289 83.9629C87.9062 83.8184 87.7324 83.6016 87.6074 83.3125C87.4824 83.0195 87.4199 82.6504 87.4199 82.2051V81.3906C87.4199 80.9453 87.4824 80.5781 87.6074 80.2891C87.7324 79.9961 87.9062 79.7793 88.1289 79.6387C88.3516 79.4941 88.6074 79.4219 88.8965 79.4219C89.1895 79.4219 89.4473 79.4941 89.6699 79.6387C89.8926 79.7793 90.0645 79.9961 90.1855 80.2891C90.3105 80.5781 90.373 80.9453 90.373 81.3906ZM89.5 82.2812V81.3086C89.5 81.0469 89.4766 80.834 89.4297 80.6699C89.3828 80.502 89.3145 80.3789 89.2246 80.3008C89.1348 80.2188 89.0254 80.1777 88.8965 80.1777C88.7715 80.1777 88.6621 80.2188 88.5684 80.3008C88.4785 80.3789 88.4102 80.502 88.3633 80.6699C88.3164 80.834 88.293 81.0469 88.293 81.3086V82.2812C88.293 82.543 88.3164 82.7578 88.3633 82.9258C88.4141 83.0938 88.4844 83.2188 88.5742 83.3008C88.668 83.3828 88.7773 83.4238 88.9023 83.4238C89.0312 83.4238 89.1387 83.3828 89.2246 83.3008C89.3145 83.2188 89.3828 83.0938 89.4297 82.9258C89.4766 82.7578 89.5 82.543 89.5 82.2812ZM92.0371 83.4062H92.0957C92.4082 83.4062 92.6621 83.3555 92.8574 83.2539C93.0527 83.1523 93.1953 82.9961 93.2852 82.7852C93.3789 82.5742 93.4258 82.3086 93.4258 81.9883V81.1328C93.4258 80.918 93.3984 80.7402 93.3438 80.5996C93.2891 80.459 93.2168 80.3535 93.127 80.2832C93.0371 80.2129 92.9336 80.1777 92.8164 80.1777C92.6914 80.1777 92.584 80.2188 92.4941 80.3008C92.4082 80.3828 92.3418 80.4922 92.2949 80.6289C92.248 80.7617 92.2246 80.9082 92.2246 81.0684C92.2246 81.2246 92.2461 81.3652 92.2891 81.4902C92.3359 81.6152 92.4043 81.7148 92.4941 81.7891C92.584 81.8633 92.6973 81.9004 92.834 81.9004C92.9629 81.9004 93.0762 81.8672 93.1738 81.8008C93.2715 81.7344 93.3477 81.6504 93.4023 81.5488C93.457 81.4473 93.4863 81.3457 93.4902 81.2441L93.7422 81.5078C93.7383 81.6875 93.6875 81.8633 93.5898 82.0352C93.4961 82.2031 93.3672 82.3418 93.2031 82.4512C93.0391 82.5605 92.8496 82.6152 92.6348 82.6152C92.3535 82.6152 92.1172 82.5508 91.9258 82.4219C91.7383 82.2891 91.5957 82.1074 91.498 81.877C91.4043 81.6426 91.3574 81.373 91.3574 81.0684C91.3574 80.7676 91.416 80.4941 91.5332 80.248C91.6504 79.998 91.8184 79.7988 92.0371 79.6504C92.2559 79.498 92.5156 79.4219 92.8164 79.4219C93.125 79.4219 93.3887 79.498 93.6074 79.6504C93.8301 79.7988 94 80.0137 94.1172 80.2949C94.2344 80.5762 94.293 80.9141 94.293 81.3086V81.6074C94.293 82.0176 94.248 82.3809 94.1582 82.6973C94.0723 83.0098 93.9395 83.2754 93.7598 83.4941C93.5801 83.709 93.3516 83.873 93.0742 83.9863C92.8008 84.0957 92.4766 84.1504 92.1016 84.1504H92.0371V83.4062Z" fill="#C4C4C4"/>
<path d="M114.576 83.3418V84.0918H111.576V83.459L112.994 81.8711C113.139 81.707 113.25 81.5605 113.328 81.4316C113.41 81.3027 113.469 81.1875 113.504 81.0859C113.539 80.9805 113.557 80.8848 113.557 80.7988C113.557 80.6113 113.51 80.457 113.416 80.3359C113.323 80.2148 113.19 80.1543 113.018 80.1543C112.791 80.1543 112.625 80.2285 112.52 80.377C112.414 80.5254 112.362 80.7109 112.362 80.9336H111.489C111.489 80.6523 111.547 80.3965 111.664 80.166C111.785 79.9355 111.957 79.752 112.18 79.6152C112.406 79.4746 112.678 79.4043 112.994 79.4043C113.299 79.4043 113.559 79.4609 113.774 79.5742C113.989 79.6875 114.153 79.8477 114.266 80.0547C114.379 80.2578 114.436 80.502 114.436 80.7871C114.436 80.9941 114.397 81.1875 114.319 81.3672C114.244 81.5469 114.137 81.7266 113.996 81.9062C113.856 82.0859 113.684 82.2793 113.481 82.4863L112.69 83.3418H114.576ZM118.479 81.3906V82.2051C118.479 82.6504 118.416 83.0195 118.291 83.3125C118.17 83.6016 117.998 83.8184 117.776 83.9629C117.557 84.1035 117.301 84.1738 117.008 84.1738C116.715 84.1738 116.457 84.1035 116.235 83.9629C116.012 83.8184 115.838 83.6016 115.713 83.3125C115.588 83.0195 115.526 82.6504 115.526 82.2051V81.3906C115.526 80.9453 115.588 80.5781 115.713 80.2891C115.838 79.9961 116.012 79.7793 116.235 79.6387C116.457 79.4941 116.713 79.4219 117.002 79.4219C117.295 79.4219 117.553 79.4941 117.776 79.6387C117.998 79.7793 118.17 79.9961 118.291 80.2891C118.416 80.5781 118.479 80.9453 118.479 81.3906ZM117.606 82.2812V81.3086C117.606 81.0469 117.582 80.834 117.535 80.6699C117.489 80.502 117.42 80.3789 117.33 80.3008C117.24 80.2188 117.131 80.1777 117.002 80.1777C116.877 80.1777 116.768 80.2188 116.674 80.3008C116.584 80.3789 116.516 80.502 116.469 80.6699C116.422 80.834 116.399 81.0469 116.399 81.3086V82.2812C116.399 82.543 116.422 82.7578 116.469 82.9258C116.52 83.0938 116.59 83.2188 116.68 83.3008C116.774 83.3828 116.883 83.4238 117.008 83.4238C117.137 83.4238 117.244 83.3828 117.33 83.3008C117.42 83.2188 117.489 83.0938 117.535 82.9258C117.582 82.7578 117.606 82.543 117.606 82.2812ZM121.602 79.4688V84.0918H120.735V80.5703L119.703 80.9043V80.1484L121.502 79.4688H121.602ZM126.401 81.3906V82.2051C126.401 82.6504 126.338 83.0195 126.213 83.3125C126.092 83.6016 125.92 83.8184 125.698 83.9629C125.479 84.1035 125.223 84.1738 124.93 84.1738C124.637 84.1738 124.379 84.1035 124.156 83.9629C123.934 83.8184 123.76 83.6016 123.635 83.3125C123.51 83.0195 123.448 82.6504 123.448 82.2051V81.3906C123.448 80.9453 123.51 80.5781 123.635 80.2891C123.76 79.9961 123.934 79.7793 124.156 79.6387C124.379 79.4941 124.635 79.4219 124.924 79.4219C125.217 79.4219 125.475 79.4941 125.698 79.6387C125.92 79.7793 126.092 79.9961 126.213 80.2891C126.338 80.5781 126.401 80.9453 126.401 81.3906ZM125.528 82.2812V81.3086C125.528 81.0469 125.504 80.834 125.457 80.6699C125.41 80.502 125.342 80.3789 125.252 80.3008C125.162 80.2188 125.053 80.1777 124.924 80.1777C124.799 80.1777 124.69 80.2188 124.596 80.3008C124.506 80.3789 124.438 80.502 124.391 80.6699C124.344 80.834 124.321 81.0469 124.321 81.3086V82.2812C124.321 82.543 124.344 82.7578 124.391 82.9258C124.442 83.0938 124.512 83.2188 124.602 83.3008C124.696 83.3828 124.805 83.4238 124.93 83.4238C125.059 83.4238 125.166 83.3828 125.252 83.3008C125.342 83.2188 125.41 83.0938 125.457 82.9258C125.504 82.7578 125.528 82.543 125.528 82.2812Z" fill="#C4C4C4"/>
<path d="M146.643 83.3418V84.0918H143.643V83.459L145.061 81.8711C145.206 81.707 145.317 81.5605 145.395 81.4316C145.477 81.3027 145.536 81.1875 145.571 81.0859C145.606 80.9805 145.624 80.8848 145.624 80.7988C145.624 80.6113 145.577 80.457 145.483 80.3359C145.389 80.2148 145.256 80.1543 145.084 80.1543C144.858 80.1543 144.692 80.2285 144.586 80.377C144.481 80.5254 144.428 80.7109 144.428 80.9336H143.555C143.555 80.6523 143.614 80.3965 143.731 80.166C143.852 79.9355 144.024 79.752 144.247 79.6152C144.473 79.4746 144.745 79.4043 145.061 79.4043C145.366 79.4043 145.625 79.4609 145.84 79.5742C146.055 79.6875 146.219 79.8477 146.333 80.0547C146.446 80.2578 146.502 80.502 146.502 80.7871C146.502 80.9941 146.463 81.1875 146.385 81.3672C146.311 81.5469 146.204 81.7266 146.063 81.9062C145.922 82.0859 145.75 82.2793 145.547 82.4863L144.756 83.3418H146.643ZM150.545 81.3906V82.2051C150.545 82.6504 150.483 83.0195 150.358 83.3125C150.237 83.6016 150.065 83.8184 149.842 83.9629C149.624 84.1035 149.368 84.1738 149.075 84.1738C148.782 84.1738 148.524 84.1035 148.301 83.9629C148.079 83.8184 147.905 83.6016 147.78 83.3125C147.655 83.0195 147.592 82.6504 147.592 82.2051V81.3906C147.592 80.9453 147.655 80.5781 147.78 80.2891C147.905 79.9961 148.079 79.7793 148.301 79.6387C148.524 79.4941 148.78 79.4219 149.069 79.4219C149.362 79.4219 149.62 79.4941 149.842 79.6387C150.065 79.7793 150.237 79.9961 150.358 80.2891C150.483 80.5781 150.545 80.9453 150.545 81.3906ZM149.672 82.2812V81.3086C149.672 81.0469 149.649 80.834 149.602 80.6699C149.555 80.502 149.487 80.3789 149.397 80.3008C149.307 80.2188 149.198 80.1777 149.069 80.1777C148.944 80.1777 148.834 80.2188 148.741 80.3008C148.651 80.3789 148.583 80.502 148.536 80.6699C148.489 80.834 148.465 81.0469 148.465 81.3086V82.2812C148.465 82.543 148.489 82.7578 148.536 82.9258C148.586 83.0938 148.657 83.2188 148.747 83.3008C148.84 83.3828 148.95 83.4238 149.075 83.4238C149.204 83.4238 149.311 83.3828 149.397 83.3008C149.487 83.2188 149.555 83.0938 149.602 82.9258C149.649 82.7578 149.672 82.543 149.672 82.2812ZM153.668 79.4688V84.0918H152.801V80.5703L151.77 80.9043V80.1484L153.569 79.4688H153.668ZM157.629 79.4688V84.0918H156.762V80.5703L155.731 80.9043V80.1484L157.53 79.4688H157.629Z" fill="#C4C4C4"/>
<path d="M178.71 83.3418V84.0918H175.71V83.459L177.128 81.8711C177.272 81.707 177.384 81.5605 177.462 81.4316C177.544 81.3027 177.602 81.1875 177.637 81.0859C177.673 80.9805 177.69 80.8848 177.69 80.7988C177.69 80.6113 177.643 80.457 177.55 80.3359C177.456 80.2148 177.323 80.1543 177.151 80.1543C176.925 80.1543 176.759 80.2285 176.653 80.377C176.548 80.5254 176.495 80.7109 176.495 80.9336H175.622C175.622 80.6523 175.68 80.3965 175.798 80.166C175.919 79.9355 176.091 79.752 176.313 79.6152C176.54 79.4746 176.811 79.4043 177.128 79.4043C177.432 79.4043 177.692 79.4609 177.907 79.5742C178.122 79.6875 178.286 79.8477 178.399 80.0547C178.512 80.2578 178.569 80.502 178.569 80.7871C178.569 80.9941 178.53 81.1875 178.452 81.3672C178.378 81.5469 178.27 81.7266 178.13 81.9062C177.989 82.0859 177.817 82.2793 177.614 82.4863L176.823 83.3418H178.71ZM182.612 81.3906V82.2051C182.612 82.6504 182.55 83.0195 182.425 83.3125C182.303 83.6016 182.132 83.8184 181.909 83.9629C181.69 84.1035 181.434 84.1738 181.141 84.1738C180.848 84.1738 180.591 84.1035 180.368 83.9629C180.145 83.8184 179.971 83.6016 179.846 83.3125C179.721 83.0195 179.659 82.6504 179.659 82.2051V81.3906C179.659 80.9453 179.721 80.5781 179.846 80.2891C179.971 79.9961 180.145 79.7793 180.368 79.6387C180.591 79.4941 180.846 79.4219 181.135 79.4219C181.428 79.4219 181.686 79.4941 181.909 79.6387C182.132 79.7793 182.303 79.9961 182.425 80.2891C182.55 80.5781 182.612 80.9453 182.612 81.3906ZM181.739 82.2812V81.3086C181.739 81.0469 181.716 80.834 181.669 80.6699C181.622 80.502 181.553 80.3789 181.464 80.3008C181.374 80.2188 181.264 80.1777 181.135 80.1777C181.01 80.1777 180.901 80.2188 180.807 80.3008C180.718 80.3789 180.649 80.502 180.602 80.6699C180.555 80.834 180.532 81.0469 180.532 81.3086V82.2812C180.532 82.543 180.555 82.7578 180.602 82.9258C180.653 83.0938 180.723 83.2188 180.813 83.3008C180.907 83.3828 181.016 83.4238 181.141 83.4238C181.27 83.4238 181.378 83.3828 181.464 83.3008C181.553 83.2188 181.622 83.0938 181.669 82.9258C181.716 82.7578 181.739 82.543 181.739 82.2812ZM185.735 79.4688V84.0918H184.868V80.5703L183.837 80.9043V80.1484L185.635 79.4688H185.735ZM190.593 83.3418V84.0918H187.593V83.459L189.01 81.8711C189.155 81.707 189.266 81.5605 189.344 81.4316C189.427 81.3027 189.485 81.1875 189.52 81.0859C189.555 80.9805 189.573 80.8848 189.573 80.7988C189.573 80.6113 189.526 80.457 189.432 80.3359C189.339 80.2148 189.206 80.1543 189.034 80.1543C188.807 80.1543 188.641 80.2285 188.536 80.377C188.43 80.5254 188.378 80.7109 188.378 80.9336H187.505C187.505 80.6523 187.563 80.3965 187.68 80.166C187.802 79.9355 187.973 79.752 188.196 79.6152C188.423 79.4746 188.694 79.4043 189.01 79.4043C189.315 79.4043 189.575 79.4609 189.79 79.5742C190.005 79.6875 190.169 79.8477 190.282 80.0547C190.395 80.2578 190.452 80.502 190.452 80.7871C190.452 80.9941 190.413 81.1875 190.335 81.3672C190.26 81.5469 190.153 81.7266 190.012 81.9062C189.872 82.0859 189.7 82.2793 189.497 82.4863L188.706 83.3418H190.593Z" fill="#C4C4C4"/>
<path d="M210.776 83.3418V84.0918H207.776V83.459L209.194 81.8711C209.339 81.707 209.45 81.5605 209.528 81.4316C209.61 81.3027 209.669 81.1875 209.704 81.0859C209.739 80.9805 209.757 80.8848 209.757 80.7988C209.757 80.6113 209.71 80.457 209.616 80.3359C209.522 80.2148 209.39 80.1543 209.218 80.1543C208.991 80.1543 208.825 80.2285 208.72 80.377C208.614 80.5254 208.562 80.7109 208.562 80.9336H207.688C207.688 80.6523 207.747 80.3965 207.864 80.166C207.985 79.9355 208.157 79.752 208.38 79.6152C208.606 79.4746 208.878 79.4043 209.194 79.4043C209.499 79.4043 209.759 79.4609 209.974 79.5742C210.188 79.6875 210.353 79.8477 210.466 80.0547C210.579 80.2578 210.636 80.502 210.636 80.7871C210.636 80.9941 210.597 81.1875 210.519 81.3672C210.444 81.5469 210.337 81.7266 210.196 81.9062C210.056 82.0859 209.884 82.2793 209.681 82.4863L208.89 83.3418H210.776ZM214.679 81.3906V82.2051C214.679 82.6504 214.616 83.0195 214.491 83.3125C214.37 83.6016 214.198 83.8184 213.976 83.9629C213.757 84.1035 213.501 84.1738 213.208 84.1738C212.915 84.1738 212.657 84.1035 212.435 83.9629C212.212 83.8184 212.038 83.6016 211.913 83.3125C211.788 83.0195 211.726 82.6504 211.726 82.2051V81.3906C211.726 80.9453 211.788 80.5781 211.913 80.2891C212.038 79.9961 212.212 79.7793 212.435 79.6387C212.657 79.4941 212.913 79.4219 213.202 79.4219C213.495 79.4219 213.753 79.4941 213.976 79.6387C214.198 79.7793 214.37 79.9961 214.491 80.2891C214.616 80.5781 214.679 80.9453 214.679 81.3906ZM213.806 82.2812V81.3086C213.806 81.0469 213.782 80.834 213.735 80.6699C213.688 80.502 213.62 80.3789 213.53 80.3008C213.44 80.2188 213.331 80.1777 213.202 80.1777C213.077 80.1777 212.968 80.2188 212.874 80.3008C212.784 80.3789 212.716 80.502 212.669 80.6699C212.622 80.834 212.599 81.0469 212.599 81.3086V82.2812C212.599 82.543 212.622 82.7578 212.669 82.9258C212.72 83.0938 212.79 83.2188 212.88 83.3008C212.974 83.3828 213.083 83.4238 213.208 83.4238C213.337 83.4238 213.444 83.3828 213.53 83.3008C213.62 83.2188 213.688 83.0938 213.735 82.9258C213.782 82.7578 213.806 82.543 213.806 82.2812ZM217.802 79.4688V84.0918H216.935V80.5703L215.903 80.9043V80.1484L217.702 79.4688H217.802ZM220.567 81.4023H220.995C221.14 81.4023 221.259 81.375 221.353 81.3203C221.45 81.2656 221.522 81.1914 221.569 81.0977C221.616 81 221.64 80.8887 221.64 80.7637C221.64 80.5918 221.593 80.4473 221.499 80.3301C221.409 80.2129 221.261 80.1543 221.054 80.1543C220.886 80.1543 220.747 80.2031 220.638 80.3008C220.532 80.3984 220.479 80.5312 220.479 80.6992H219.606C219.606 80.4336 219.669 80.2051 219.794 80.0137C219.923 79.8184 220.095 79.668 220.31 79.5625C220.524 79.457 220.767 79.4043 221.036 79.4043C221.329 79.4043 221.585 79.4551 221.804 79.5566C222.026 79.6543 222.2 79.8008 222.325 79.9961C222.45 80.1914 222.513 80.4316 222.513 80.7168C222.513 80.9238 222.46 81.1152 222.354 81.291C222.249 81.4629 222.095 81.6016 221.892 81.707C221.688 81.8086 221.44 81.8594 221.147 81.8594H220.567V81.4023ZM220.567 82.0762V81.6191H221.147C221.479 81.6191 221.751 81.666 221.962 81.7598C222.173 81.8535 222.327 81.9883 222.425 82.1641C222.526 82.3398 222.577 82.5527 222.577 82.8027C222.577 83.0879 222.509 83.332 222.372 83.5352C222.239 83.7383 222.056 83.8926 221.821 83.998C221.591 84.1035 221.329 84.1562 221.036 84.1562C220.786 84.1562 220.548 84.1094 220.321 84.0156C220.095 83.918 219.911 83.7676 219.771 83.5645C219.63 83.3613 219.56 83.1016 219.56 82.7852H220.433C220.433 82.9609 220.489 83.1094 220.603 83.2305C220.72 83.3477 220.874 83.4062 221.065 83.4062C221.272 83.4062 221.431 83.3457 221.54 83.2246C221.649 83.1035 221.704 82.9473 221.704 82.7559C221.704 82.5918 221.675 82.4609 221.616 82.3633C221.562 82.2617 221.481 82.1895 221.376 82.1465C221.271 82.0996 221.144 82.0762 220.995 82.0762H220.567Z" fill="#C4C4C4"/>
<path d="M242.843 83.3418V84.0918H239.843V83.459L241.261 81.8711C241.406 81.707 241.517 81.5605 241.595 81.4316C241.677 81.3027 241.736 81.1875 241.771 81.0859C241.806 80.9805 241.823 80.8848 241.823 80.7988C241.823 80.6113 241.777 80.457 241.683 80.3359C241.589 80.2148 241.456 80.1543 241.284 80.1543C241.058 80.1543 240.892 80.2285 240.786 80.377C240.681 80.5254 240.628 80.7109 240.628 80.9336H239.755C239.755 80.6523 239.814 80.3965 239.931 80.166C240.052 79.9355 240.224 79.752 240.447 79.6152C240.673 79.4746 240.945 79.4043 241.261 79.4043C241.566 79.4043 241.825 79.4609 242.04 79.5742C242.255 79.6875 242.419 79.8477 242.532 80.0547C242.646 80.2578 242.702 80.502 242.702 80.7871C242.702 80.9941 242.663 81.1875 242.585 81.3672C242.511 81.5469 242.404 81.7266 242.263 81.9062C242.122 82.0859 241.95 82.2793 241.747 82.4863L240.956 83.3418H242.843ZM246.745 81.3906V82.2051C246.745 82.6504 246.683 83.0195 246.558 83.3125C246.437 83.6016 246.265 83.8184 246.042 83.9629C245.823 84.1035 245.568 84.1738 245.275 84.1738C244.982 84.1738 244.724 84.1035 244.501 83.9629C244.279 83.8184 244.105 83.6016 243.98 83.3125C243.855 83.0195 243.792 82.6504 243.792 82.2051V81.3906C243.792 80.9453 243.855 80.5781 243.98 80.2891C244.105 79.9961 244.279 79.7793 244.501 79.6387C244.724 79.4941 244.98 79.4219 245.269 79.4219C245.562 79.4219 245.82 79.4941 246.042 79.6387C246.265 79.7793 246.437 79.9961 246.558 80.2891C246.683 80.5781 246.745 80.9453 246.745 81.3906ZM245.872 82.2812V81.3086C245.872 81.0469 245.849 80.834 245.802 80.6699C245.755 80.502 245.687 80.3789 245.597 80.3008C245.507 80.2188 245.398 80.1777 245.269 80.1777C245.144 80.1777 245.034 80.2188 244.941 80.3008C244.851 80.3789 244.782 80.502 244.736 80.6699C244.689 80.834 244.665 81.0469 244.665 81.3086V82.2812C244.665 82.543 244.689 82.7578 244.736 82.9258C244.786 83.0938 244.857 83.2188 244.947 83.3008C245.04 83.3828 245.15 83.4238 245.275 83.4238C245.404 83.4238 245.511 83.3828 245.597 83.3008C245.687 83.2188 245.755 83.0938 245.802 82.9258C245.849 82.7578 245.872 82.543 245.872 82.2812ZM249.868 79.4688V84.0918H249.001V80.5703L247.97 80.9043V80.1484L249.769 79.4688H249.868ZM254.79 82.3516V83.1133H251.626L251.591 82.5156L253.407 79.4863H254.093L253.372 80.8281L252.452 82.3516H254.79ZM254.298 79.4863V84.1094H253.425V79.4863H254.298Z" fill="#C4C4C4"/>
<path d="M274.91 83.3418V84.0918H271.91V83.459L273.328 81.8711C273.472 81.707 273.583 81.5605 273.662 81.4316C273.744 81.3027 273.802 81.1875 273.837 81.0859C273.873 80.9805 273.89 80.8848 273.89 80.7988C273.89 80.6113 273.843 80.457 273.75 80.3359C273.656 80.2148 273.523 80.1543 273.351 80.1543C273.125 80.1543 272.958 80.2285 272.853 80.377C272.748 80.5254 272.695 80.7109 272.695 80.9336H271.822C271.822 80.6523 271.88 80.3965 271.998 80.166C272.119 79.9355 272.291 79.752 272.513 79.6152C272.74 79.4746 273.011 79.4043 273.328 79.4043C273.632 79.4043 273.892 79.4609 274.107 79.5742C274.322 79.6875 274.486 79.8477 274.599 80.0547C274.712 80.2578 274.769 80.502 274.769 80.7871C274.769 80.9941 274.73 81.1875 274.652 81.3672C274.578 81.5469 274.47 81.7266 274.33 81.9062C274.189 82.0859 274.017 82.2793 273.814 82.4863L273.023 83.3418H274.91ZM278.812 81.3906V82.2051C278.812 82.6504 278.75 83.0195 278.625 83.3125C278.503 83.6016 278.332 83.8184 278.109 83.9629C277.89 84.1035 277.634 84.1738 277.341 84.1738C277.048 84.1738 276.791 84.1035 276.568 83.9629C276.345 83.8184 276.171 83.6016 276.046 83.3125C275.921 83.0195 275.859 82.6504 275.859 82.2051V81.3906C275.859 80.9453 275.921 80.5781 276.046 80.2891C276.171 79.9961 276.345 79.7793 276.568 79.6387C276.791 79.4941 277.046 79.4219 277.335 79.4219C277.628 79.4219 277.886 79.4941 278.109 79.6387C278.332 79.7793 278.503 79.9961 278.625 80.2891C278.75 80.5781 278.812 80.9453 278.812 81.3906ZM277.939 82.2812V81.3086C277.939 81.0469 277.916 80.834 277.869 80.6699C277.822 80.502 277.753 80.3789 277.664 80.3008C277.574 80.2188 277.464 80.1777 277.335 80.1777C277.21 80.1777 277.101 80.2188 277.007 80.3008C276.917 80.3789 276.849 80.502 276.802 80.6699C276.755 80.834 276.732 81.0469 276.732 81.3086V82.2812C276.732 82.543 276.755 82.7578 276.802 82.9258C276.853 83.0938 276.923 83.2188 277.013 83.3008C277.107 83.3828 277.216 83.4238 277.341 83.4238C277.47 83.4238 277.578 83.3828 277.664 83.3008C277.753 83.2188 277.822 83.0938 277.869 82.9258C277.916 82.7578 277.939 82.543 277.939 82.2812ZM281.935 79.4688V84.0918H281.068V80.5703L280.037 80.9043V80.1484L281.835 79.4688H281.935ZM284.619 82.0234L283.921 81.8359L284.173 79.4863H286.558V80.2539H284.888L284.789 81.2559C284.847 81.2246 284.935 81.1875 285.052 81.1445C285.169 81.1016 285.298 81.0801 285.439 81.0801C285.72 81.0801 285.96 81.1406 286.16 81.2617C286.359 81.3828 286.511 81.5566 286.617 81.7832C286.722 82.0098 286.775 82.2812 286.775 82.5977C286.775 82.875 286.72 83.1348 286.611 83.377C286.505 83.6152 286.343 83.8086 286.125 83.957C285.91 84.1016 285.634 84.1738 285.298 84.1738C285.048 84.1738 284.812 84.123 284.589 84.0215C284.367 83.916 284.185 83.7637 284.044 83.5645C283.908 83.3652 283.833 83.125 283.822 82.8438H284.677C284.697 83.043 284.759 83.1895 284.865 83.2832C284.974 83.377 285.119 83.4238 285.298 83.4238C285.513 83.4238 285.667 83.3438 285.761 83.1836C285.855 83.0234 285.902 82.8242 285.902 82.5859C285.902 82.3438 285.843 82.1465 285.726 81.9941C285.609 81.8418 285.439 81.7656 285.216 81.7656C285.048 81.7656 284.923 81.793 284.841 81.8477C284.759 81.9023 284.685 81.9609 284.619 82.0234Z" fill="#C4C4C4"/>
<path d="M306.976 83.3418V84.0918H303.976V83.459L305.394 81.8711C305.539 81.707 305.65 81.5605 305.728 81.4316C305.81 81.3027 305.869 81.1875 305.904 81.0859C305.939 80.9805 305.957 80.8848 305.957 80.7988C305.957 80.6113 305.91 80.457 305.816 80.3359C305.722 80.2148 305.59 80.1543 305.418 80.1543C305.191 80.1543 305.025 80.2285 304.92 80.377C304.814 80.5254 304.761 80.7109 304.761 80.9336H303.888C303.888 80.6523 303.947 80.3965 304.064 80.166C304.185 79.9355 304.357 79.752 304.58 79.6152C304.806 79.4746 305.078 79.4043 305.394 79.4043C305.699 79.4043 305.959 79.4609 306.174 79.5742C306.388 79.6875 306.552 79.8477 306.666 80.0547C306.779 80.2578 306.836 80.502 306.836 80.7871C306.836 80.9941 306.797 81.1875 306.719 81.3672C306.644 81.5469 306.537 81.7266 306.396 81.9062C306.256 82.0859 306.084 82.2793 305.881 82.4863L305.09 83.3418H306.976ZM310.879 81.3906V82.2051C310.879 82.6504 310.816 83.0195 310.691 83.3125C310.57 83.6016 310.398 83.8184 310.176 83.9629C309.957 84.1035 309.701 84.1738 309.408 84.1738C309.115 84.1738 308.857 84.1035 308.635 83.9629C308.412 83.8184 308.238 83.6016 308.113 83.3125C307.988 83.0195 307.926 82.6504 307.926 82.2051V81.3906C307.926 80.9453 307.988 80.5781 308.113 80.2891C308.238 79.9961 308.412 79.7793 308.635 79.6387C308.857 79.4941 309.113 79.4219 309.402 79.4219C309.695 79.4219 309.953 79.4941 310.176 79.6387C310.398 79.7793 310.57 79.9961 310.691 80.2891C310.816 80.5781 310.879 80.9453 310.879 81.3906ZM310.006 82.2812V81.3086C310.006 81.0469 309.982 80.834 309.935 80.6699C309.888 80.502 309.82 80.3789 309.73 80.3008C309.64 80.2188 309.531 80.1777 309.402 80.1777C309.277 80.1777 309.168 80.2188 309.074 80.3008C308.984 80.3789 308.916 80.502 308.869 80.6699C308.822 80.834 308.799 81.0469 308.799 81.3086V82.2812C308.799 82.543 308.822 82.7578 308.869 82.9258C308.92 83.0938 308.99 83.2188 309.08 83.3008C309.174 83.3828 309.283 83.4238 309.408 83.4238C309.537 83.4238 309.644 83.3828 309.73 83.3008C309.82 83.2188 309.888 83.0938 309.935 82.9258C309.982 82.7578 310.006 82.543 310.006 82.2812ZM314.002 79.4688V84.0918H313.135V80.5703L312.103 80.9043V80.1484L313.902 79.4688H314.002ZM318.092 79.4277H318.203V80.1953H318.15C317.834 80.1953 317.57 80.252 317.359 80.3652C317.152 80.4746 316.996 80.6445 316.89 80.875C316.789 81.1055 316.738 81.3965 316.738 81.748V82.4277C316.738 82.6465 316.765 82.8301 316.82 82.9785C316.879 83.127 316.957 83.2383 317.054 83.3125C317.152 83.3867 317.261 83.4238 317.383 83.4238C317.508 83.4238 317.617 83.3867 317.711 83.3125C317.804 83.2383 317.877 83.1387 317.927 83.0137C317.978 82.8887 318.004 82.748 318.004 82.5918C318.004 82.3496 317.949 82.1562 317.84 82.0117C317.734 81.8633 317.582 81.7891 317.383 81.7891C317.25 81.7891 317.131 81.8223 317.025 81.8887C316.924 81.9512 316.842 82.0332 316.779 82.1348C316.717 82.2363 316.683 82.3418 316.679 82.4512L316.457 82.1758C316.465 82.0078 316.515 81.8379 316.609 81.666C316.707 81.4902 316.842 81.3418 317.013 81.2207C317.185 81.0996 317.388 81.0391 317.623 81.0391C317.904 81.0391 318.136 81.1074 318.32 81.2441C318.504 81.3809 318.64 81.5664 318.73 81.8008C318.824 82.0352 318.871 82.2969 318.871 82.5859C318.871 82.8867 318.81 83.1582 318.689 83.4004C318.572 83.6387 318.404 83.8281 318.185 83.9688C317.967 84.1055 317.705 84.1738 317.4 84.1738C317.088 84.1738 316.816 84.0996 316.586 83.9512C316.355 83.7988 316.177 83.5859 316.052 83.3125C315.931 83.0352 315.871 82.709 315.871 82.334V82.0117C315.871 81.6055 315.918 81.2441 316.011 80.9277C316.105 80.6074 316.244 80.3359 316.427 80.1133C316.615 79.8906 316.847 79.7207 317.125 79.6035C317.402 79.4863 317.724 79.4277 318.092 79.4277Z" fill="#C4C4C4"/>
<path d="M339.043 83.3418V84.0918H336.043V83.459L337.461 81.8711C337.605 81.707 337.717 81.5605 337.795 81.4316C337.877 81.3027 337.936 81.1875 337.971 81.0859C338.006 80.9805 338.023 80.8848 338.023 80.7988C338.023 80.6113 337.977 80.457 337.883 80.3359C337.789 80.2148 337.656 80.1543 337.484 80.1543C337.258 80.1543 337.092 80.2285 336.986 80.377C336.881 80.5254 336.828 80.7109 336.828 80.9336H335.955C335.955 80.6523 336.014 80.3965 336.131 80.166C336.252 79.9355 336.424 79.752 336.646 79.6152C336.873 79.4746 337.145 79.4043 337.461 79.4043C337.766 79.4043 338.025 79.4609 338.24 79.5742C338.455 79.6875 338.619 79.8477 338.732 80.0547C338.846 80.2578 338.902 80.502 338.902 80.7871C338.902 80.9941 338.863 81.1875 338.785 81.3672C338.711 81.5469 338.604 81.7266 338.463 81.9062C338.322 82.0859 338.15 82.2793 337.947 82.4863L337.156 83.3418H339.043ZM342.945 81.3906V82.2051C342.945 82.6504 342.883 83.0195 342.758 83.3125C342.637 83.6016 342.465 83.8184 342.242 83.9629C342.023 84.1035 341.768 84.1738 341.475 84.1738C341.182 84.1738 340.924 84.1035 340.701 83.9629C340.479 83.8184 340.305 83.6016 340.18 83.3125C340.055 83.0195 339.992 82.6504 339.992 82.2051V81.3906C339.992 80.9453 340.055 80.5781 340.18 80.2891C340.305 79.9961 340.479 79.7793 340.701 79.6387C340.924 79.4941 341.18 79.4219 341.469 79.4219C341.762 79.4219 342.02 79.4941 342.242 79.6387C342.465 79.7793 342.637 79.9961 342.758 80.2891C342.883 80.5781 342.945 80.9453 342.945 81.3906ZM342.072 82.2812V81.3086C342.072 81.0469 342.049 80.834 342.002 80.6699C341.955 80.502 341.887 80.3789 341.797 80.3008C341.707 80.2188 341.598 80.1777 341.469 80.1777C341.344 80.1777 341.234 80.2188 341.141 80.3008C341.051 80.3789 340.982 80.502 340.936 80.6699C340.889 80.834 340.865 81.0469 340.865 81.3086V82.2812C340.865 82.543 340.889 82.7578 340.936 82.9258C340.986 83.0938 341.057 83.2188 341.146 83.3008C341.24 83.3828 341.35 83.4238 341.475 83.4238C341.604 83.4238 341.711 83.3828 341.797 83.3008C341.887 83.2188 341.955 83.0938 342.002 82.9258C342.049 82.7578 342.072 82.543 342.072 82.2812ZM346.068 79.4688V84.0918H345.201V80.5703L344.17 80.9043V80.1484L345.969 79.4688H346.068ZM350.902 79.4863V80.0137L349.215 84.1094H348.295L349.988 80.2422H347.814V79.4863H350.902Z" fill="#C4C4C4"/>
<path d="M371.11 83.3418V84.0918H368.11V83.459L369.528 81.8711C369.672 81.707 369.784 81.5605 369.862 81.4316C369.944 81.3027 370.002 81.1875 370.038 81.0859C370.073 80.9805 370.09 80.8848 370.09 80.7988C370.09 80.6113 370.043 80.457 369.95 80.3359C369.856 80.2148 369.723 80.1543 369.551 80.1543C369.325 80.1543 369.159 80.2285 369.053 80.377C368.948 80.5254 368.895 80.7109 368.895 80.9336H368.022C368.022 80.6523 368.081 80.3965 368.198 80.166C368.319 79.9355 368.491 79.752 368.713 79.6152C368.94 79.4746 369.211 79.4043 369.528 79.4043C369.833 79.4043 370.092 79.4609 370.307 79.5742C370.522 79.6875 370.686 79.8477 370.799 80.0547C370.913 80.2578 370.969 80.502 370.969 80.7871C370.969 80.9941 370.93 81.1875 370.852 81.3672C370.778 81.5469 370.67 81.7266 370.53 81.9062C370.389 82.0859 370.217 82.2793 370.014 82.4863L369.223 83.3418H371.11ZM375.012 81.3906V82.2051C375.012 82.6504 374.95 83.0195 374.825 83.3125C374.704 83.6016 374.532 83.8184 374.309 83.9629C374.09 84.1035 373.834 84.1738 373.542 84.1738C373.249 84.1738 372.991 84.1035 372.768 83.9629C372.545 83.8184 372.372 83.6016 372.247 83.3125C372.122 83.0195 372.059 82.6504 372.059 82.2051V81.3906C372.059 80.9453 372.122 80.5781 372.247 80.2891C372.372 79.9961 372.545 79.7793 372.768 79.6387C372.991 79.4941 373.247 79.4219 373.536 79.4219C373.829 79.4219 374.086 79.4941 374.309 79.6387C374.532 79.7793 374.704 79.9961 374.825 80.2891C374.95 80.5781 375.012 80.9453 375.012 81.3906ZM374.139 82.2812V81.3086C374.139 81.0469 374.116 80.834 374.069 80.6699C374.022 80.502 373.954 80.3789 373.864 80.3008C373.774 80.2188 373.665 80.1777 373.536 80.1777C373.411 80.1777 373.301 80.2188 373.208 80.3008C373.118 80.3789 373.049 80.502 373.002 80.6699C372.956 80.834 372.932 81.0469 372.932 81.3086V82.2812C372.932 82.543 372.956 82.7578 373.002 82.9258C373.053 83.0938 373.124 83.2188 373.213 83.3008C373.307 83.3828 373.417 83.4238 373.542 83.4238C373.67 83.4238 373.778 83.3828 373.864 83.3008C373.954 83.2188 374.022 83.0938 374.069 82.9258C374.116 82.7578 374.139 82.543 374.139 82.2812ZM378.135 79.4688V84.0918H377.268V80.5703L376.237 80.9043V80.1484L378.036 79.4688H378.135ZM382.928 82.8438C382.928 83.1367 382.864 83.3828 382.735 83.582C382.606 83.7773 382.43 83.9258 382.208 84.0273C381.989 84.125 381.741 84.1738 381.463 84.1738C381.182 84.1738 380.93 84.125 380.708 84.0273C380.485 83.9258 380.309 83.7773 380.18 83.582C380.051 83.3828 379.987 83.1367 379.987 82.8438C379.987 82.5781 380.049 82.3496 380.174 82.1582C380.303 81.9668 380.479 81.8184 380.702 81.7129C380.924 81.6074 381.176 81.5547 381.458 81.5547C381.743 81.5547 381.995 81.6074 382.213 81.7129C382.436 81.8184 382.61 81.9668 382.735 82.1582C382.864 82.3496 382.928 82.5781 382.928 82.8438ZM382.061 82.7734C382.061 82.6367 382.036 82.5215 381.985 82.4277C381.934 82.3301 381.864 82.2559 381.774 82.2051C381.684 82.1504 381.579 82.123 381.458 82.123C381.336 82.123 381.231 82.1504 381.141 82.2051C381.051 82.2559 380.981 82.3301 380.93 82.4277C380.883 82.5215 380.86 82.6367 380.86 82.7734C380.86 82.9062 380.883 83.0215 380.93 83.1191C380.981 83.2168 381.051 83.293 381.141 83.3477C381.231 83.3984 381.336 83.4238 381.458 83.4238C381.579 83.4238 381.684 83.3984 381.774 83.3477C381.864 83.293 381.934 83.2168 381.985 83.1191C382.036 83.0215 382.061 82.9062 382.061 82.7734ZM382.834 80.7109C382.834 80.9531 382.776 81.166 382.659 81.3496C382.542 81.5293 382.379 81.6699 382.172 81.7715C381.965 81.8691 381.727 81.918 381.458 81.918C381.192 81.918 380.954 81.8691 380.743 81.7715C380.536 81.6699 380.374 81.5293 380.256 81.3496C380.139 81.166 380.081 80.9531 380.081 80.7109C380.081 80.4336 380.139 80.1992 380.256 80.0078C380.374 79.8164 380.536 79.6719 380.743 79.5742C380.954 79.4727 381.192 79.4219 381.458 79.4219C381.727 79.4219 381.965 79.4727 382.172 79.5742C382.379 79.6719 382.542 79.8164 382.659 80.0078C382.776 80.1992 382.834 80.4336 382.834 80.7109ZM381.961 80.7695C381.961 80.6484 381.942 80.5449 381.903 80.459C381.864 80.3691 381.807 80.2988 381.733 80.248C381.659 80.1973 381.567 80.1719 381.458 80.1719C381.297 80.1719 381.172 80.2246 381.083 80.3301C380.997 80.4355 380.954 80.582 380.954 80.7695C380.954 80.8867 380.973 80.9902 381.012 81.0801C381.051 81.1699 381.108 81.2402 381.182 81.291C381.26 81.3418 381.352 81.3672 381.458 81.3672C381.622 81.3672 381.747 81.3125 381.833 81.2031C381.918 81.0938 381.961 80.9492 381.961 80.7695Z" fill="#C4C4C4"/>
<path d="M403.176 83.3418V84.0918H400.176V83.459L401.594 81.8711C401.739 81.707 401.85 81.5605 401.928 81.4316C402.01 81.3027 402.069 81.1875 402.104 81.0859C402.139 80.9805 402.157 80.8848 402.157 80.7988C402.157 80.6113 402.11 80.457 402.016 80.3359C401.922 80.2148 401.79 80.1543 401.618 80.1543C401.391 80.1543 401.225 80.2285 401.12 80.377C401.014 80.5254 400.961 80.7109 400.961 80.9336H400.088C400.088 80.6523 400.147 80.3965 400.264 80.166C400.385 79.9355 400.557 79.752 400.78 79.6152C401.006 79.4746 401.278 79.4043 401.594 79.4043C401.899 79.4043 402.159 79.4609 402.374 79.5742C402.588 79.6875 402.752 79.8477 402.866 80.0547C402.979 80.2578 403.036 80.502 403.036 80.7871C403.036 80.9941 402.997 81.1875 402.918 81.3672C402.844 81.5469 402.737 81.7266 402.596 81.9062C402.456 82.0859 402.284 82.2793 402.081 82.4863L401.29 83.3418H403.176ZM407.079 81.3906V82.2051C407.079 82.6504 407.016 83.0195 406.891 83.3125C406.77 83.6016 406.598 83.8184 406.375 83.9629C406.157 84.1035 405.901 84.1738 405.608 84.1738C405.315 84.1738 405.057 84.1035 404.834 83.9629C404.612 83.8184 404.438 83.6016 404.313 83.3125C404.188 83.0195 404.125 82.6504 404.125 82.2051V81.3906C404.125 80.9453 404.188 80.5781 404.313 80.2891C404.438 79.9961 404.612 79.7793 404.834 79.6387C405.057 79.4941 405.313 79.4219 405.602 79.4219C405.895 79.4219 406.153 79.4941 406.375 79.6387C406.598 79.7793 406.77 79.9961 406.891 80.2891C407.016 80.5781 407.079 80.9453 407.079 81.3906ZM406.206 82.2812V81.3086C406.206 81.0469 406.182 80.834 406.135 80.6699C406.088 80.502 406.02 80.3789 405.93 80.3008C405.84 80.2188 405.731 80.1777 405.602 80.1777C405.477 80.1777 405.368 80.2188 405.274 80.3008C405.184 80.3789 405.116 80.502 405.069 80.6699C405.022 80.834 404.999 81.0469 404.999 81.3086V82.2812C404.999 82.543 405.022 82.7578 405.069 82.9258C405.12 83.0938 405.19 83.2188 405.28 83.3008C405.374 83.3828 405.483 83.4238 405.608 83.4238C405.737 83.4238 405.844 83.3828 405.93 83.3008C406.02 83.2188 406.088 83.0938 406.135 82.9258C406.182 82.7578 406.206 82.543 406.206 82.2812ZM410.202 79.4688V84.0918H409.334V80.5703L408.303 80.9043V80.1484L410.102 79.4688H410.202ZM412.704 83.4062H412.762C413.075 83.4062 413.329 83.3555 413.524 83.2539C413.719 83.1523 413.862 82.9961 413.952 82.7852C414.045 82.5742 414.092 82.3086 414.092 81.9883V81.1328C414.092 80.918 414.065 80.7402 414.01 80.5996C413.956 80.459 413.883 80.3535 413.793 80.2832C413.704 80.2129 413.6 80.1777 413.483 80.1777C413.358 80.1777 413.25 80.2188 413.161 80.3008C413.075 80.3828 413.008 80.4922 412.961 80.6289C412.915 80.7617 412.891 80.9082 412.891 81.0684C412.891 81.2246 412.913 81.3652 412.956 81.4902C413.002 81.6152 413.071 81.7148 413.161 81.7891C413.25 81.8633 413.364 81.9004 413.5 81.9004C413.629 81.9004 413.743 81.8672 413.84 81.8008C413.938 81.7344 414.014 81.6504 414.069 81.5488C414.124 81.4473 414.153 81.3457 414.157 81.2441L414.409 81.5078C414.405 81.6875 414.354 81.8633 414.256 82.0352C414.163 82.2031 414.034 82.3418 413.87 82.4512C413.706 82.5605 413.516 82.6152 413.301 82.6152C413.02 82.6152 412.784 82.5508 412.592 82.4219C412.405 82.2891 412.262 82.1074 412.165 81.877C412.071 81.6426 412.024 81.373 412.024 81.0684C412.024 80.7676 412.083 80.4941 412.2 80.248C412.317 79.998 412.485 79.7988 412.704 79.6504C412.922 79.498 413.182 79.4219 413.483 79.4219C413.792 79.4219 414.055 79.498 414.274 79.6504C414.497 79.7988 414.667 80.0137 414.784 80.2949C414.901 80.5762 414.959 80.9141 414.959 81.3086V81.6074C414.959 82.0176 414.915 82.3809 414.825 82.6973C414.739 83.0098 414.606 83.2754 414.426 83.4941C414.247 83.709 414.018 83.873 413.741 83.9863C413.467 84.0957 413.143 84.1504 412.768 84.1504H412.704V83.4062Z" fill="#C4C4C4"/>
<path d="M435.243 83.3418V84.0918H432.243V83.459L433.661 81.8711C433.806 81.707 433.917 81.5605 433.995 81.4316C434.077 81.3027 434.136 81.1875 434.171 81.0859C434.206 80.9805 434.224 80.8848 434.224 80.7988C434.224 80.6113 434.177 80.457 434.083 80.3359C433.989 80.2148 433.856 80.1543 433.685 80.1543C433.458 80.1543 433.292 80.2285 433.187 80.377C433.081 80.5254 433.028 80.7109 433.028 80.9336H432.155C432.155 80.6523 432.214 80.3965 432.331 80.166C432.452 79.9355 432.624 79.752 432.847 79.6152C433.073 79.4746 433.345 79.4043 433.661 79.4043C433.966 79.4043 434.226 79.4609 434.44 79.5742C434.655 79.6875 434.819 79.8477 434.933 80.0547C435.046 80.2578 435.103 80.502 435.103 80.7871C435.103 80.9941 435.063 81.1875 434.985 81.3672C434.911 81.5469 434.804 81.7266 434.663 81.9062C434.522 82.0859 434.351 82.2793 434.147 82.4863L433.356 83.3418H435.243ZM439.146 81.3906V82.2051C439.146 82.6504 439.083 83.0195 438.958 83.3125C438.837 83.6016 438.665 83.8184 438.442 83.9629C438.224 84.1035 437.968 84.1738 437.675 84.1738C437.382 84.1738 437.124 84.1035 436.901 83.9629C436.679 83.8184 436.505 83.6016 436.38 83.3125C436.255 83.0195 436.192 82.6504 436.192 82.2051V81.3906C436.192 80.9453 436.255 80.5781 436.38 80.2891C436.505 79.9961 436.679 79.7793 436.901 79.6387C437.124 79.4941 437.38 79.4219 437.669 79.4219C437.962 79.4219 438.22 79.4941 438.442 79.6387C438.665 79.7793 438.837 79.9961 438.958 80.2891C439.083 80.5781 439.146 80.9453 439.146 81.3906ZM438.272 82.2812V81.3086C438.272 81.0469 438.249 80.834 438.202 80.6699C438.155 80.502 438.087 80.3789 437.997 80.3008C437.907 80.2188 437.798 80.1777 437.669 80.1777C437.544 80.1777 437.435 80.2188 437.341 80.3008C437.251 80.3789 437.183 80.502 437.136 80.6699C437.089 80.834 437.065 81.0469 437.065 81.3086V82.2812C437.065 82.543 437.089 82.7578 437.136 82.9258C437.187 83.0938 437.257 83.2188 437.347 83.3008C437.44 83.3828 437.55 83.4238 437.675 83.4238C437.804 83.4238 437.911 83.3828 437.997 83.3008C438.087 83.2188 438.155 83.0938 438.202 82.9258C438.249 82.7578 438.272 82.543 438.272 82.2812ZM443.165 83.3418V84.0918H440.165V83.459L441.583 81.8711C441.728 81.707 441.839 81.5605 441.917 81.4316C441.999 81.3027 442.058 81.1875 442.093 81.0859C442.128 80.9805 442.146 80.8848 442.146 80.7988C442.146 80.6113 442.099 80.457 442.005 80.3359C441.911 80.2148 441.778 80.1543 441.606 80.1543C441.38 80.1543 441.214 80.2285 441.108 80.377C441.003 80.5254 440.95 80.7109 440.95 80.9336H440.077C440.077 80.6523 440.136 80.3965 440.253 80.166C440.374 79.9355 440.546 79.752 440.769 79.6152C440.995 79.4746 441.267 79.4043 441.583 79.4043C441.888 79.4043 442.147 79.4609 442.362 79.5742C442.577 79.6875 442.741 79.8477 442.854 80.0547C442.968 80.2578 443.024 80.502 443.024 80.7871C443.024 80.9941 442.985 81.1875 442.907 81.3672C442.833 81.5469 442.726 81.7266 442.585 81.9062C442.444 82.0859 442.272 82.2793 442.069 82.4863L441.278 83.3418H443.165ZM447.067 81.3906V82.2051C447.067 82.6504 447.005 83.0195 446.88 83.3125C446.759 83.6016 446.587 83.8184 446.364 83.9629C446.146 84.1035 445.89 84.1738 445.597 84.1738C445.304 84.1738 445.046 84.1035 444.823 83.9629C444.601 83.8184 444.427 83.6016 444.302 83.3125C444.177 83.0195 444.114 82.6504 444.114 82.2051V81.3906C444.114 80.9453 444.177 80.5781 444.302 80.2891C444.427 79.9961 444.601 79.7793 444.823 79.6387C445.046 79.4941 445.302 79.4219 445.591 79.4219C445.884 79.4219 446.142 79.4941 446.364 79.6387C446.587 79.7793 446.759 79.9961 446.88 80.2891C447.005 80.5781 447.067 80.9453 447.067 81.3906ZM446.194 82.2812V81.3086C446.194 81.0469 446.171 80.834 446.124 80.6699C446.077 80.502 446.009 80.3789 445.919 80.3008C445.829 80.2188 445.72 80.1777 445.591 80.1777C445.466 80.1777 445.356 80.2188 445.263 80.3008C445.173 80.3789 445.104 80.502 445.058 80.6699C445.011 80.834 444.987 81.0469 444.987 81.3086V82.2812C444.987 82.543 445.011 82.7578 445.058 82.9258C445.108 83.0938 445.179 83.2188 445.269 83.3008C445.362 83.3828 445.472 83.4238 445.597 83.4238C445.726 83.4238 445.833 83.3828 445.919 83.3008C446.009 83.2188 446.077 83.0938 446.124 82.9258C446.171 82.7578 446.194 82.543 446.194 82.2812Z" fill="#C4C4C4"/>
<path d="M467.31 83.3418V84.0918H464.31V83.459L465.728 81.8711C465.872 81.707 465.983 81.5605 466.062 81.4316C466.144 81.3027 466.202 81.1875 466.237 81.0859C466.272 80.9805 466.29 80.8848 466.29 80.7988C466.29 80.6113 466.243 80.457 466.149 80.3359C466.056 80.2148 465.923 80.1543 465.751 80.1543C465.524 80.1543 465.358 80.2285 465.253 80.377C465.147 80.5254 465.095 80.7109 465.095 80.9336H464.222C464.222 80.6523 464.28 80.3965 464.397 80.166C464.519 79.9355 464.69 79.752 464.913 79.6152C465.14 79.4746 465.411 79.4043 465.728 79.4043C466.032 79.4043 466.292 79.4609 466.507 79.5742C466.722 79.6875 466.886 79.8477 466.999 80.0547C467.112 80.2578 467.169 80.502 467.169 80.7871C467.169 80.9941 467.13 81.1875 467.052 81.3672C466.978 81.5469 466.87 81.7266 466.729 81.9062C466.589 82.0859 466.417 82.2793 466.214 82.4863L465.423 83.3418H467.31ZM471.212 81.3906V82.2051C471.212 82.6504 471.149 83.0195 471.024 83.3125C470.903 83.6016 470.731 83.8184 470.509 83.9629C470.29 84.1035 470.034 84.1738 469.741 84.1738C469.448 84.1738 469.19 84.1035 468.968 83.9629C468.745 83.8184 468.571 83.6016 468.446 83.3125C468.321 83.0195 468.259 82.6504 468.259 82.2051V81.3906C468.259 80.9453 468.321 80.5781 468.446 80.2891C468.571 79.9961 468.745 79.7793 468.968 79.6387C469.19 79.4941 469.446 79.4219 469.735 79.4219C470.028 79.4219 470.286 79.4941 470.509 79.6387C470.731 79.7793 470.903 79.9961 471.024 80.2891C471.149 80.5781 471.212 80.9453 471.212 81.3906ZM470.339 82.2812V81.3086C470.339 81.0469 470.315 80.834 470.269 80.6699C470.222 80.502 470.153 80.3789 470.063 80.3008C469.974 80.2188 469.864 80.1777 469.735 80.1777C469.61 80.1777 469.501 80.2188 469.407 80.3008C469.317 80.3789 469.249 80.502 469.202 80.6699C469.155 80.834 469.132 81.0469 469.132 81.3086V82.2812C469.132 82.543 469.155 82.7578 469.202 82.9258C469.253 83.0938 469.323 83.2188 469.413 83.3008C469.507 83.3828 469.616 83.4238 469.741 83.4238C469.87 83.4238 469.978 83.3828 470.063 83.3008C470.153 83.2188 470.222 83.0938 470.269 82.9258C470.315 82.7578 470.339 82.543 470.339 82.2812ZM475.231 83.3418V84.0918H472.231V83.459L473.649 81.8711C473.794 81.707 473.905 81.5605 473.983 81.4316C474.065 81.3027 474.124 81.1875 474.159 81.0859C474.194 80.9805 474.212 80.8848 474.212 80.7988C474.212 80.6113 474.165 80.457 474.071 80.3359C473.978 80.2148 473.845 80.1543 473.673 80.1543C473.446 80.1543 473.28 80.2285 473.175 80.377C473.069 80.5254 473.017 80.7109 473.017 80.9336H472.144C472.144 80.6523 472.202 80.3965 472.319 80.166C472.44 79.9355 472.612 79.752 472.835 79.6152C473.062 79.4746 473.333 79.4043 473.649 79.4043C473.954 79.4043 474.214 79.4609 474.429 79.5742C474.644 79.6875 474.808 79.8477 474.921 80.0547C475.034 80.2578 475.091 80.502 475.091 80.7871C475.091 80.9941 475.052 81.1875 474.974 81.3672C474.899 81.5469 474.792 81.7266 474.651 81.9062C474.511 82.0859 474.339 82.2793 474.136 82.4863L473.345 83.3418H475.231ZM478.296 79.4688V84.0918H477.429V80.5703L476.397 80.9043V80.1484L478.196 79.4688H478.296Z" fill="#C4C4C4"/>
<path d="M499.376 83.3418V84.0918H496.376V83.459L497.794 81.8711C497.939 81.707 498.05 81.5605 498.128 81.4316C498.21 81.3027 498.269 81.1875 498.304 81.0859C498.339 80.9805 498.357 80.8848 498.357 80.7988C498.357 80.6113 498.31 80.457 498.216 80.3359C498.123 80.2148 497.99 80.1543 497.818 80.1543C497.591 80.1543 497.425 80.2285 497.32 80.377C497.214 80.5254 497.162 80.7109 497.162 80.9336H496.289C496.289 80.6523 496.347 80.3965 496.464 80.166C496.585 79.9355 496.757 79.752 496.98 79.6152C497.207 79.4746 497.478 79.4043 497.794 79.4043C498.099 79.4043 498.359 79.4609 498.574 79.5742C498.789 79.6875 498.953 79.8477 499.066 80.0547C499.179 80.2578 499.236 80.502 499.236 80.7871C499.236 80.9941 499.197 81.1875 499.119 81.3672C499.044 81.5469 498.937 81.7266 498.796 81.9062C498.656 82.0859 498.484 82.2793 498.281 82.4863L497.49 83.3418H499.376ZM503.279 81.3906V82.2051C503.279 82.6504 503.216 83.0195 503.091 83.3125C502.97 83.6016 502.798 83.8184 502.576 83.9629C502.357 84.1035 502.101 84.1738 501.808 84.1738C501.515 84.1738 501.257 84.1035 501.035 83.9629C500.812 83.8184 500.638 83.6016 500.513 83.3125C500.388 83.0195 500.326 82.6504 500.326 82.2051V81.3906C500.326 80.9453 500.388 80.5781 500.513 80.2891C500.638 79.9961 500.812 79.7793 501.035 79.6387C501.257 79.4941 501.513 79.4219 501.802 79.4219C502.095 79.4219 502.353 79.4941 502.576 79.6387C502.798 79.7793 502.97 79.9961 503.091 80.2891C503.216 80.5781 503.279 80.9453 503.279 81.3906ZM502.406 82.2812V81.3086C502.406 81.0469 502.382 80.834 502.335 80.6699C502.289 80.502 502.22 80.3789 502.13 80.3008C502.041 80.2188 501.931 80.1777 501.802 80.1777C501.677 80.1777 501.568 80.2188 501.474 80.3008C501.384 80.3789 501.316 80.502 501.269 80.6699C501.222 80.834 501.199 81.0469 501.199 81.3086V82.2812C501.199 82.543 501.222 82.7578 501.269 82.9258C501.32 83.0938 501.39 83.2188 501.48 83.3008C501.574 83.3828 501.683 83.4238 501.808 83.4238C501.937 83.4238 502.044 83.3828 502.13 83.3008C502.22 83.2188 502.289 83.0938 502.335 82.9258C502.382 82.7578 502.406 82.543 502.406 82.2812ZM507.298 83.3418V84.0918H504.298V83.459L505.716 81.8711C505.861 81.707 505.972 81.5605 506.05 81.4316C506.132 81.3027 506.191 81.1875 506.226 81.0859C506.261 80.9805 506.279 80.8848 506.279 80.7988C506.279 80.6113 506.232 80.457 506.138 80.3359C506.044 80.2148 505.912 80.1543 505.74 80.1543C505.513 80.1543 505.347 80.2285 505.242 80.377C505.136 80.5254 505.083 80.7109 505.083 80.9336H504.21C504.21 80.6523 504.269 80.3965 504.386 80.166C504.507 79.9355 504.679 79.752 504.902 79.6152C505.128 79.4746 505.4 79.4043 505.716 79.4043C506.021 79.4043 506.281 79.4609 506.496 79.5742C506.71 79.6875 506.875 79.8477 506.988 80.0547C507.101 80.2578 507.158 80.502 507.158 80.7871C507.158 80.9941 507.119 81.1875 507.041 81.3672C506.966 81.5469 506.859 81.7266 506.718 81.9062C506.578 82.0859 506.406 82.2793 506.203 82.4863L505.412 83.3418H507.298ZM511.259 83.3418V84.0918H508.259V83.459L509.677 81.8711C509.822 81.707 509.933 81.5605 510.011 81.4316C510.093 81.3027 510.152 81.1875 510.187 81.0859C510.222 80.9805 510.24 80.8848 510.24 80.7988C510.24 80.6113 510.193 80.457 510.099 80.3359C510.005 80.2148 509.873 80.1543 509.701 80.1543C509.474 80.1543 509.308 80.2285 509.203 80.377C509.097 80.5254 509.044 80.7109 509.044 80.9336H508.171C508.171 80.6523 508.23 80.3965 508.347 80.166C508.468 79.9355 508.64 79.752 508.863 79.6152C509.089 79.4746 509.361 79.4043 509.677 79.4043C509.982 79.4043 510.242 79.4609 510.457 79.5742C510.671 79.6875 510.835 79.8477 510.949 80.0547C511.062 80.2578 511.119 80.502 511.119 80.7871C511.119 80.9941 511.08 81.1875 511.001 81.3672C510.927 81.5469 510.82 81.7266 510.679 81.9062C510.539 82.0859 510.367 82.2793 510.164 82.4863L509.373 83.3418H511.259Z" fill="#C4C4C4"/>
<path d="M531.443 83.3418V84.0918H528.443V83.459L529.861 81.8711C530.005 81.707 530.117 81.5605 530.195 81.4316C530.277 81.3027 530.335 81.1875 530.371 81.0859C530.406 80.9805 530.423 80.8848 530.423 80.7988C530.423 80.6113 530.376 80.457 530.283 80.3359C530.189 80.2148 530.056 80.1543 529.884 80.1543C529.658 80.1543 529.492 80.2285 529.386 80.377C529.281 80.5254 529.228 80.7109 529.228 80.9336H528.355C528.355 80.6523 528.414 80.3965 528.531 80.166C528.652 79.9355 528.824 79.752 529.046 79.6152C529.273 79.4746 529.544 79.4043 529.861 79.4043C530.166 79.4043 530.425 79.4609 530.64 79.5742C530.855 79.6875 531.019 79.8477 531.132 80.0547C531.246 80.2578 531.302 80.502 531.302 80.7871C531.302 80.9941 531.263 81.1875 531.185 81.3672C531.111 81.5469 531.003 81.7266 530.863 81.9062C530.722 82.0859 530.55 82.2793 530.347 82.4863L529.556 83.3418H531.443ZM535.345 81.3906V82.2051C535.345 82.6504 535.283 83.0195 535.158 83.3125C535.037 83.6016 534.865 83.8184 534.642 83.9629C534.423 84.1035 534.167 84.1738 533.875 84.1738C533.582 84.1738 533.324 84.1035 533.101 83.9629C532.878 83.8184 532.705 83.6016 532.58 83.3125C532.455 83.0195 532.392 82.6504 532.392 82.2051V81.3906C532.392 80.9453 532.455 80.5781 532.58 80.2891C532.705 79.9961 532.878 79.7793 533.101 79.6387C533.324 79.4941 533.58 79.4219 533.869 79.4219C534.162 79.4219 534.419 79.4941 534.642 79.6387C534.865 79.7793 535.037 79.9961 535.158 80.2891C535.283 80.5781 535.345 80.9453 535.345 81.3906ZM534.472 82.2812V81.3086C534.472 81.0469 534.449 80.834 534.402 80.6699C534.355 80.502 534.287 80.3789 534.197 80.3008C534.107 80.2188 533.998 80.1777 533.869 80.1777C533.744 80.1777 533.634 80.2188 533.541 80.3008C533.451 80.3789 533.382 80.502 533.335 80.6699C533.289 80.834 533.265 81.0469 533.265 81.3086V82.2812C533.265 82.543 533.289 82.7578 533.335 82.9258C533.386 83.0938 533.457 83.2188 533.546 83.3008C533.64 83.3828 533.75 83.4238 533.875 83.4238C534.003 83.4238 534.111 83.3828 534.197 83.3008C534.287 83.2188 534.355 83.0938 534.402 82.9258C534.449 82.7578 534.472 82.543 534.472 82.2812ZM539.365 83.3418V84.0918H536.365V83.459L537.783 81.8711C537.927 81.707 538.039 81.5605 538.117 81.4316C538.199 81.3027 538.257 81.1875 538.292 81.0859C538.328 80.9805 538.345 80.8848 538.345 80.7988C538.345 80.6113 538.298 80.457 538.205 80.3359C538.111 80.2148 537.978 80.1543 537.806 80.1543C537.58 80.1543 537.414 80.2285 537.308 80.377C537.203 80.5254 537.15 80.7109 537.15 80.9336H536.277C536.277 80.6523 536.335 80.3965 536.453 80.166C536.574 79.9355 536.746 79.752 536.968 79.6152C537.195 79.4746 537.466 79.4043 537.783 79.4043C538.087 79.4043 538.347 79.4609 538.562 79.5742C538.777 79.6875 538.941 79.8477 539.054 80.0547C539.167 80.2578 539.224 80.502 539.224 80.7871C539.224 80.9941 539.185 81.1875 539.107 81.3672C539.033 81.5469 538.925 81.7266 538.785 81.9062C538.644 82.0859 538.472 82.2793 538.269 82.4863L537.478 83.3418H539.365ZM541.234 81.4023H541.662C541.806 81.4023 541.925 81.375 542.019 81.3203C542.117 81.2656 542.189 81.1914 542.236 81.0977C542.283 81 542.306 80.8887 542.306 80.7637C542.306 80.5918 542.259 80.4473 542.166 80.3301C542.076 80.2129 541.927 80.1543 541.72 80.1543C541.552 80.1543 541.414 80.2031 541.304 80.3008C541.199 80.3984 541.146 80.5312 541.146 80.6992H540.273C540.273 80.4336 540.335 80.2051 540.46 80.0137C540.589 79.8184 540.761 79.668 540.976 79.5625C541.191 79.457 541.433 79.4043 541.703 79.4043C541.996 79.4043 542.251 79.4551 542.47 79.5566C542.693 79.6543 542.867 79.8008 542.992 79.9961C543.117 80.1914 543.179 80.4316 543.179 80.7168C543.179 80.9238 543.126 81.1152 543.021 81.291C542.916 81.4629 542.761 81.6016 542.558 81.707C542.355 81.8086 542.107 81.8594 541.814 81.8594H541.234V81.4023ZM541.234 82.0762V81.6191H541.814C542.146 81.6191 542.417 81.666 542.628 81.7598C542.839 81.8535 542.994 81.9883 543.091 82.1641C543.193 82.3398 543.244 82.5527 543.244 82.8027C543.244 83.0879 543.175 83.332 543.039 83.5352C542.906 83.7383 542.722 83.8926 542.488 83.998C542.257 84.1035 541.996 84.1562 541.703 84.1562C541.453 84.1562 541.214 84.1094 540.988 84.0156C540.761 83.918 540.578 83.7676 540.437 83.5645C540.296 83.3613 540.226 83.1016 540.226 82.7852H541.099C541.099 82.9609 541.156 83.1094 541.269 83.2305C541.386 83.3477 541.541 83.4062 541.732 83.4062C541.939 83.4062 542.097 83.3457 542.207 83.2246C542.316 83.1035 542.371 82.9473 542.371 82.7559C542.371 82.5918 542.341 82.4609 542.283 82.3633C542.228 82.2617 542.148 82.1895 542.042 82.1465C541.937 82.0996 541.81 82.0762 541.662 82.0762H541.234Z" fill="#C4C4C4"/>
<path d="M563.51 83.3418V84.0918H560.51V83.459L561.928 81.8711C562.072 81.707 562.184 81.5605 562.262 81.4316C562.344 81.3027 562.402 81.1875 562.438 81.0859C562.473 80.9805 562.49 80.8848 562.49 80.7988C562.49 80.6113 562.443 80.457 562.35 80.3359C562.256 80.2148 562.123 80.1543 561.951 80.1543C561.725 80.1543 561.559 80.2285 561.453 80.377C561.348 80.5254 561.295 80.7109 561.295 80.9336H560.422C560.422 80.6523 560.48 80.3965 560.598 80.166C560.719 79.9355 560.891 79.752 561.113 79.6152C561.34 79.4746 561.611 79.4043 561.928 79.4043C562.232 79.4043 562.492 79.4609 562.707 79.5742C562.922 79.6875 563.086 79.8477 563.199 80.0547C563.312 80.2578 563.369 80.502 563.369 80.7871C563.369 80.9941 563.33 81.1875 563.252 81.3672C563.178 81.5469 563.07 81.7266 562.93 81.9062C562.789 82.0859 562.617 82.2793 562.414 82.4863L561.623 83.3418H563.51ZM567.412 81.3906V82.2051C567.412 82.6504 567.35 83.0195 567.225 83.3125C567.104 83.6016 566.932 83.8184 566.709 83.9629C566.49 84.1035 566.234 84.1738 565.941 84.1738C565.648 84.1738 565.391 84.1035 565.168 83.9629C564.945 83.8184 564.771 83.6016 564.646 83.3125C564.521 83.0195 564.459 82.6504 564.459 82.2051V81.3906C564.459 80.9453 564.521 80.5781 564.646 80.2891C564.771 79.9961 564.945 79.7793 565.168 79.6387C565.391 79.4941 565.646 79.4219 565.936 79.4219C566.229 79.4219 566.486 79.4941 566.709 79.6387C566.932 79.7793 567.104 79.9961 567.225 80.2891C567.35 80.5781 567.412 80.9453 567.412 81.3906ZM566.539 82.2812V81.3086C566.539 81.0469 566.516 80.834 566.469 80.6699C566.422 80.502 566.354 80.3789 566.264 80.3008C566.174 80.2188 566.064 80.1777 565.936 80.1777C565.811 80.1777 565.701 80.2188 565.607 80.3008C565.518 80.3789 565.449 80.502 565.402 80.6699C565.355 80.834 565.332 81.0469 565.332 81.3086V82.2812C565.332 82.543 565.355 82.7578 565.402 82.9258C565.453 83.0938 565.523 83.2188 565.613 83.3008C565.707 83.3828 565.816 83.4238 565.941 83.4238C566.07 83.4238 566.178 83.3828 566.264 83.3008C566.354 83.2188 566.422 83.0938 566.469 82.9258C566.516 82.7578 566.539 82.543 566.539 82.2812ZM571.432 83.3418V84.0918H568.432V83.459L569.85 81.8711C569.994 81.707 570.105 81.5605 570.184 81.4316C570.266 81.3027 570.324 81.1875 570.359 81.0859C570.395 80.9805 570.412 80.8848 570.412 80.7988C570.412 80.6113 570.365 80.457 570.271 80.3359C570.178 80.2148 570.045 80.1543 569.873 80.1543C569.646 80.1543 569.48 80.2285 569.375 80.377C569.27 80.5254 569.217 80.7109 569.217 80.9336H568.344C568.344 80.6523 568.402 80.3965 568.52 80.166C568.641 79.9355 568.812 79.752 569.035 79.6152C569.262 79.4746 569.533 79.4043 569.85 79.4043C570.154 79.4043 570.414 79.4609 570.629 79.5742C570.844 79.6875 571.008 79.8477 571.121 80.0547C571.234 80.2578 571.291 80.502 571.291 80.7871C571.291 80.9941 571.252 81.1875 571.174 81.3672C571.1 81.5469 570.992 81.7266 570.852 81.9062C570.711 82.0859 570.539 82.2793 570.336 82.4863L569.545 83.3418H571.432ZM575.457 82.3516V83.1133H572.293L572.258 82.5156L574.074 79.4863H574.76L574.039 80.8281L573.119 82.3516H575.457ZM574.965 79.4863V84.1094H574.092V79.4863H574.965Z" fill="#C4C4C4"/>
</svg>
