<svg width="596" height="162" viewBox="0 0 596 162" fill="none" xmlns="http://www.w3.org/2000/svg">
<rect width="596" height="162" fill="#F7F7F7"/>
<path d="M0 0.5H596V156H0V0.5Z" fill="#F7F7F7"/>
<path d="M78.918 29H575.977" stroke="#C4C4C4" stroke-dasharray="2 2"/>
<path d="M76.5625 106.748L113.076 110.761L137.223 105.745L199.649 117.785L214.373 109.256L217.906 95.2094L237.341 107.25L253.831 103.738L282.1 112.266L292.701 102.735L305.068 111.263L308.013 100.226L326.27 107.25L357.483 96.7143L362.784 103.738L373.385 86.1798L378.096 44.0407L388.108 76.1461L396.942 45.5456L402.831 63.1039L406.954 31.4992L422.266 55.0772L429.922 50.5624L439.934 66.6145L447.001 57.585L464.08 66.6145L478.215 44.0407L482.337 50.5624L489.404 44.0407L518.851 59.592L524.151 53.0702L525.329 29.4922L531.219 45.5456L541.819 31.4992L546.531 41.5316L553.009 34.509L567.733 45.5456L573.622 36.516" stroke="#191C38"/>
<path d="M78.918 121.078H575.977" stroke="#C4C4C4" stroke-dasharray="2 2"/>
<path d="M16.0947 26.5654V27.4404H12.5947V26.7021L14.249 24.8496C14.4176 24.6582 14.5475 24.4873 14.6387 24.3369C14.7344 24.1865 14.8027 24.0521 14.8438 23.9336C14.8848 23.8105 14.9053 23.6989 14.9053 23.5986C14.9053 23.3799 14.8506 23.1999 14.7412 23.0586C14.6318 22.9173 14.4769 22.8467 14.2764 22.8467C14.012 22.8467 13.8184 22.9333 13.6953 23.1064C13.5723 23.2796 13.5107 23.4961 13.5107 23.7559H12.4922C12.4922 23.4277 12.5605 23.1292 12.6973 22.8604C12.8385 22.5915 13.0391 22.3773 13.2988 22.2178C13.5632 22.0537 13.8799 21.9717 14.249 21.9717C14.6045 21.9717 14.9076 22.0378 15.1582 22.1699C15.4089 22.3021 15.6003 22.4889 15.7324 22.7305C15.8646 22.9674 15.9307 23.2523 15.9307 23.585C15.9307 23.8265 15.8851 24.0521 15.7939 24.2617C15.7074 24.4714 15.582 24.681 15.418 24.8906C15.2539 25.1003 15.0534 25.3258 14.8164 25.5674L13.8936 26.5654H16.0947ZM20.6475 24.2891V25.2393C20.6475 25.7588 20.5745 26.1895 20.4287 26.5312C20.2874 26.8685 20.0869 27.1214 19.8271 27.29C19.5719 27.4541 19.2734 27.5361 18.9316 27.5361C18.5898 27.5361 18.2891 27.4541 18.0293 27.29C17.7695 27.1214 17.5667 26.8685 17.4209 26.5312C17.2751 26.1895 17.2021 25.7588 17.2021 25.2393V24.2891C17.2021 23.7695 17.2751 23.3411 17.4209 23.0039C17.5667 22.6621 17.7695 22.4092 18.0293 22.2451C18.2891 22.0765 18.5876 21.9922 18.9248 21.9922C19.2666 21.9922 19.5674 22.0765 19.8271 22.2451C20.0869 22.4092 20.2874 22.6621 20.4287 23.0039C20.5745 23.3411 20.6475 23.7695 20.6475 24.2891ZM19.6289 25.3281V24.1934C19.6289 23.888 19.6016 23.6396 19.5469 23.4482C19.4922 23.2523 19.4124 23.1087 19.3076 23.0176C19.2028 22.9219 19.0752 22.874 18.9248 22.874C18.779 22.874 18.6514 22.9219 18.542 23.0176C18.4372 23.1087 18.3574 23.2523 18.3027 23.4482C18.248 23.6396 18.2207 23.888 18.2207 24.1934V25.3281C18.2207 25.6335 18.248 25.8841 18.3027 26.0801C18.362 26.276 18.444 26.4219 18.5488 26.5176C18.6582 26.6133 18.7858 26.6611 18.9316 26.6611C19.082 26.6611 19.2074 26.6133 19.3076 26.5176C19.4124 26.4219 19.4922 26.276 19.5469 26.0801C19.6016 25.8841 19.6289 25.6335 19.6289 25.3281ZM16.2998 39.9287L13.5791 49H12.2939L15.5 39.0469H16.3066L16.2998 39.9287ZM18.501 49L15.7803 39.9287L15.7666 39.0469H16.5801L19.7861 49H18.501ZM18.501 45.3154V46.3955H13.7021V45.3154H18.501ZM26.5059 47.9268V49H22.1855V47.9268H26.5059ZM22.4111 39.0469V49H21.1533V39.0469H22.4111ZM25.9248 43.3262V44.3994H22.1855V43.3262H25.9248ZM26.4375 39.0469V40.127H22.1855V39.0469H26.4375ZM30.3682 49H28.6729L28.6865 47.9268H30.3682C30.9652 47.9268 31.4505 47.8128 31.8242 47.585C32.1979 47.3525 32.4736 47.0107 32.6514 46.5596C32.8291 46.1038 32.918 45.541 32.918 44.8711V43.1689C32.918 42.6403 32.8678 42.1846 32.7676 41.8018C32.6673 41.4189 32.5169 41.1045 32.3164 40.8584C32.1159 40.6123 31.863 40.43 31.5576 40.3115C31.2523 40.1885 30.8945 40.127 30.4844 40.127H28.6387V39.0469H30.4844C31.0449 39.0469 31.5508 39.1357 32.002 39.3135C32.4531 39.4867 32.8405 39.7487 33.1641 40.0996C33.4876 40.446 33.7337 40.8766 33.9023 41.3916C34.0755 41.9066 34.1621 42.5036 34.1621 43.1826V44.8711C34.1621 45.5501 34.0755 46.1471 33.9023 46.6621C33.7337 47.1771 33.4854 47.6077 33.1572 47.9541C32.8291 48.3005 32.4303 48.5625 31.9609 48.7402C31.4961 48.9134 30.9652 49 30.3682 49ZM29.3701 39.0469V49H28.1123V39.0469H29.3701Z" fill="#C4C4C4"/>
<path d="M16.0947 96.5654V97.4404H12.5947V96.7021L14.249 94.8496C14.4176 94.6582 14.5475 94.4873 14.6387 94.3369C14.7344 94.1865 14.8027 94.0521 14.8438 93.9336C14.8848 93.8105 14.9053 93.6989 14.9053 93.5986C14.9053 93.3799 14.8506 93.1999 14.7412 93.0586C14.6318 92.9173 14.4769 92.8467 14.2764 92.8467C14.012 92.8467 13.8184 92.9333 13.6953 93.1064C13.5723 93.2796 13.5107 93.4961 13.5107 93.7559H12.4922C12.4922 93.4277 12.5605 93.1292 12.6973 92.8604C12.8385 92.5915 13.0391 92.3773 13.2988 92.2178C13.5632 92.0537 13.8799 91.9717 14.249 91.9717C14.6045 91.9717 14.9076 92.0378 15.1582 92.1699C15.4089 92.3021 15.6003 92.4889 15.7324 92.7305C15.8646 92.9674 15.9307 93.2523 15.9307 93.585C15.9307 93.8265 15.8851 94.0521 15.7939 94.2617C15.7074 94.4714 15.582 94.681 15.418 94.8906C15.2539 95.1003 15.0534 95.3258 14.8164 95.5674L13.8936 96.5654H16.0947ZM20.6475 94.2891V95.2393C20.6475 95.7588 20.5745 96.1895 20.4287 96.5312C20.2874 96.8685 20.0869 97.1214 19.8271 97.29C19.5719 97.4541 19.2734 97.5361 18.9316 97.5361C18.5898 97.5361 18.2891 97.4541 18.0293 97.29C17.7695 97.1214 17.5667 96.8685 17.4209 96.5312C17.2751 96.1895 17.2021 95.7588 17.2021 95.2393V94.2891C17.2021 93.7695 17.2751 93.3411 17.4209 93.0039C17.5667 92.6621 17.7695 92.4092 18.0293 92.2451C18.2891 92.0765 18.5876 91.9922 18.9248 91.9922C19.2666 91.9922 19.5674 92.0765 19.8271 92.2451C20.0869 92.4092 20.2874 92.6621 20.4287 93.0039C20.5745 93.3411 20.6475 93.7695 20.6475 94.2891ZM19.6289 95.3281V94.1934C19.6289 93.888 19.6016 93.6396 19.5469 93.4482C19.4922 93.2523 19.4124 93.1087 19.3076 93.0176C19.2028 92.9219 19.0752 92.874 18.9248 92.874C18.779 92.874 18.6514 92.9219 18.542 93.0176C18.4372 93.1087 18.3574 93.2523 18.3027 93.4482C18.248 93.6396 18.2207 93.888 18.2207 94.1934V95.3281C18.2207 95.6335 18.248 95.8841 18.3027 96.0801C18.362 96.276 18.444 96.4219 18.5488 96.5176C18.6582 96.6133 18.7858 96.6611 18.9316 96.6611C19.082 96.6611 19.2074 96.6133 19.3076 96.5176C19.4124 96.4219 19.4922 96.276 19.5469 96.0801C19.6016 95.8841 19.6289 95.6335 19.6289 95.3281ZM16.2998 109.929L13.5791 119H12.2939L15.5 109.047H16.3066L16.2998 109.929ZM18.501 119L15.7803 109.929L15.7666 109.047H16.5801L19.7861 119H18.501ZM18.501 115.315V116.396H13.7021V115.315H18.501ZM26.5059 117.927V119H22.1855V117.927H26.5059ZM22.4111 109.047V119H21.1533V109.047H22.4111ZM25.9248 113.326V114.399H22.1855V113.326H25.9248ZM26.4375 109.047V110.127H22.1855V109.047H26.4375ZM30.3682 119H28.6729L28.6865 117.927H30.3682C30.9652 117.927 31.4505 117.813 31.8242 117.585C32.1979 117.353 32.4736 117.011 32.6514 116.56C32.8291 116.104 32.918 115.541 32.918 114.871V113.169C32.918 112.64 32.8678 112.185 32.7676 111.802C32.6673 111.419 32.5169 111.104 32.3164 110.858C32.1159 110.612 31.863 110.43 31.5576 110.312C31.2523 110.188 30.8945 110.127 30.4844 110.127H28.6387V109.047H30.4844C31.0449 109.047 31.5508 109.136 32.002 109.313C32.4531 109.487 32.8405 109.749 33.1641 110.1C33.4876 110.446 33.7337 110.877 33.9023 111.392C34.0755 111.907 34.1621 112.504 34.1621 113.183V114.871C34.1621 115.55 34.0755 116.147 33.9023 116.662C33.7337 117.177 33.4854 117.608 33.1572 117.954C32.8291 118.3 32.4303 118.562 31.9609 118.74C31.4961 118.913 30.9652 119 30.3682 119ZM29.3701 109.047V119H28.1123V109.047H29.3701Z" fill="#C4C4C4"/>
<path d="M82.5098 140.342V141.092H79.5098V140.459L80.9277 138.871C81.0723 138.707 81.1836 138.561 81.2617 138.432C81.3438 138.303 81.4023 138.188 81.4375 138.086C81.4727 137.98 81.4902 137.885 81.4902 137.799C81.4902 137.611 81.4434 137.457 81.3496 137.336C81.2559 137.215 81.123 137.154 80.9512 137.154C80.7246 137.154 80.5586 137.229 80.4531 137.377C80.3477 137.525 80.2949 137.711 80.2949 137.934H79.4219C79.4219 137.652 79.4805 137.396 79.5977 137.166C79.7188 136.936 79.8906 136.752 80.1133 136.615C80.3398 136.475 80.6113 136.404 80.9277 136.404C81.2324 136.404 81.4922 136.461 81.707 136.574C81.9219 136.688 82.0859 136.848 82.1992 137.055C82.3125 137.258 82.3691 137.502 82.3691 137.787C82.3691 137.994 82.3301 138.188 82.252 138.367C82.1777 138.547 82.0703 138.727 81.9297 138.906C81.7891 139.086 81.6172 139.279 81.4141 139.486L80.623 140.342H82.5098ZM86.4121 138.391V139.205C86.4121 139.65 86.3496 140.02 86.2246 140.312C86.1035 140.602 85.9316 140.818 85.709 140.963C85.4902 141.104 85.2344 141.174 84.9414 141.174C84.6484 141.174 84.3906 141.104 84.168 140.963C83.9453 140.818 83.7715 140.602 83.6465 140.312C83.5215 140.02 83.459 139.65 83.459 139.205V138.391C83.459 137.945 83.5215 137.578 83.6465 137.289C83.7715 136.996 83.9453 136.779 84.168 136.639C84.3906 136.494 84.6465 136.422 84.9355 136.422C85.2285 136.422 85.4863 136.494 85.709 136.639C85.9316 136.779 86.1035 136.996 86.2246 137.289C86.3496 137.578 86.4121 137.945 86.4121 138.391ZM85.5391 139.281V138.309C85.5391 138.047 85.5156 137.834 85.4688 137.67C85.4219 137.502 85.3535 137.379 85.2637 137.301C85.1738 137.219 85.0645 137.178 84.9355 137.178C84.8105 137.178 84.7012 137.219 84.6074 137.301C84.5176 137.379 84.4492 137.502 84.4023 137.67C84.3555 137.834 84.332 138.047 84.332 138.309V139.281C84.332 139.543 84.3555 139.758 84.4023 139.926C84.4531 140.094 84.5234 140.219 84.6133 140.301C84.707 140.383 84.8164 140.424 84.9414 140.424C85.0703 140.424 85.1777 140.383 85.2637 140.301C85.3535 140.219 85.4219 140.094 85.4688 139.926C85.5156 139.758 85.5391 139.543 85.5391 139.281ZM90.373 138.391V139.205C90.373 139.65 90.3105 140.02 90.1855 140.312C90.0645 140.602 89.8926 140.818 89.6699 140.963C89.4512 141.104 89.1953 141.174 88.9023 141.174C88.6094 141.174 88.3516 141.104 88.1289 140.963C87.9062 140.818 87.7324 140.602 87.6074 140.312C87.4824 140.02 87.4199 139.65 87.4199 139.205V138.391C87.4199 137.945 87.4824 137.578 87.6074 137.289C87.7324 136.996 87.9062 136.779 88.1289 136.639C88.3516 136.494 88.6074 136.422 88.8965 136.422C89.1895 136.422 89.4473 136.494 89.6699 136.639C89.8926 136.779 90.0645 136.996 90.1855 137.289C90.3105 137.578 90.373 137.945 90.373 138.391ZM89.5 139.281V138.309C89.5 138.047 89.4766 137.834 89.4297 137.67C89.3828 137.502 89.3145 137.379 89.2246 137.301C89.1348 137.219 89.0254 137.178 88.8965 137.178C88.7715 137.178 88.6621 137.219 88.5684 137.301C88.4785 137.379 88.4102 137.502 88.3633 137.67C88.3164 137.834 88.293 138.047 88.293 138.309V139.281C88.293 139.543 88.3164 139.758 88.3633 139.926C88.4141 140.094 88.4844 140.219 88.5742 140.301C88.668 140.383 88.7773 140.424 88.9023 140.424C89.0312 140.424 89.1387 140.383 89.2246 140.301C89.3145 140.219 89.3828 140.094 89.4297 139.926C89.4766 139.758 89.5 139.543 89.5 139.281ZM92.0371 140.406H92.0957C92.4082 140.406 92.6621 140.355 92.8574 140.254C93.0527 140.152 93.1953 139.996 93.2852 139.785C93.3789 139.574 93.4258 139.309 93.4258 138.988V138.133C93.4258 137.918 93.3984 137.74 93.3438 137.6C93.2891 137.459 93.2168 137.354 93.127 137.283C93.0371 137.213 92.9336 137.178 92.8164 137.178C92.6914 137.178 92.584 137.219 92.4941 137.301C92.4082 137.383 92.3418 137.492 92.2949 137.629C92.248 137.762 92.2246 137.908 92.2246 138.068C92.2246 138.225 92.2461 138.365 92.2891 138.49C92.3359 138.615 92.4043 138.715 92.4941 138.789C92.584 138.863 92.6973 138.9 92.834 138.9C92.9629 138.9 93.0762 138.867 93.1738 138.801C93.2715 138.734 93.3477 138.65 93.4023 138.549C93.457 138.447 93.4863 138.346 93.4902 138.244L93.7422 138.508C93.7383 138.688 93.6875 138.863 93.5898 139.035C93.4961 139.203 93.3672 139.342 93.2031 139.451C93.0391 139.561 92.8496 139.615 92.6348 139.615C92.3535 139.615 92.1172 139.551 91.9258 139.422C91.7383 139.289 91.5957 139.107 91.498 138.877C91.4043 138.643 91.3574 138.373 91.3574 138.068C91.3574 137.768 91.416 137.494 91.5332 137.248C91.6504 136.998 91.8184 136.799 92.0371 136.65C92.2559 136.498 92.5156 136.422 92.8164 136.422C93.125 136.422 93.3887 136.498 93.6074 136.65C93.8301 136.799 94 137.014 94.1172 137.295C94.2344 137.576 94.293 137.914 94.293 138.309V138.607C94.293 139.018 94.248 139.381 94.1582 139.697C94.0723 140.01 93.9395 140.275 93.7598 140.494C93.5801 140.709 93.3516 140.873 93.0742 140.986C92.8008 141.096 92.4766 141.15 92.1016 141.15H92.0371V140.406Z" fill="#C4C4C4"/>
<path d="M114.576 140.342V141.092H111.576V140.459L112.994 138.871C113.139 138.707 113.25 138.561 113.328 138.432C113.41 138.303 113.469 138.188 113.504 138.086C113.539 137.98 113.557 137.885 113.557 137.799C113.557 137.611 113.51 137.457 113.416 137.336C113.323 137.215 113.19 137.154 113.018 137.154C112.791 137.154 112.625 137.229 112.52 137.377C112.414 137.525 112.362 137.711 112.362 137.934H111.489C111.489 137.652 111.547 137.396 111.664 137.166C111.785 136.936 111.957 136.752 112.18 136.615C112.406 136.475 112.678 136.404 112.994 136.404C113.299 136.404 113.559 136.461 113.774 136.574C113.989 136.688 114.153 136.848 114.266 137.055C114.379 137.258 114.436 137.502 114.436 137.787C114.436 137.994 114.397 138.188 114.319 138.367C114.244 138.547 114.137 138.727 113.996 138.906C113.856 139.086 113.684 139.279 113.481 139.486L112.69 140.342H114.576ZM118.479 138.391V139.205C118.479 139.65 118.416 140.02 118.291 140.312C118.17 140.602 117.998 140.818 117.776 140.963C117.557 141.104 117.301 141.174 117.008 141.174C116.715 141.174 116.457 141.104 116.235 140.963C116.012 140.818 115.838 140.602 115.713 140.312C115.588 140.02 115.526 139.65 115.526 139.205V138.391C115.526 137.945 115.588 137.578 115.713 137.289C115.838 136.996 116.012 136.779 116.235 136.639C116.457 136.494 116.713 136.422 117.002 136.422C117.295 136.422 117.553 136.494 117.776 136.639C117.998 136.779 118.17 136.996 118.291 137.289C118.416 137.578 118.479 137.945 118.479 138.391ZM117.606 139.281V138.309C117.606 138.047 117.582 137.834 117.535 137.67C117.489 137.502 117.42 137.379 117.33 137.301C117.24 137.219 117.131 137.178 117.002 137.178C116.877 137.178 116.768 137.219 116.674 137.301C116.584 137.379 116.516 137.502 116.469 137.67C116.422 137.834 116.399 138.047 116.399 138.309V139.281C116.399 139.543 116.422 139.758 116.469 139.926C116.52 140.094 116.59 140.219 116.68 140.301C116.774 140.383 116.883 140.424 117.008 140.424C117.137 140.424 117.244 140.383 117.33 140.301C117.42 140.219 117.489 140.094 117.535 139.926C117.582 139.758 117.606 139.543 117.606 139.281ZM121.602 136.469V141.092H120.735V137.57L119.703 137.904V137.148L121.502 136.469H121.602ZM126.401 138.391V139.205C126.401 139.65 126.338 140.02 126.213 140.312C126.092 140.602 125.92 140.818 125.698 140.963C125.479 141.104 125.223 141.174 124.93 141.174C124.637 141.174 124.379 141.104 124.156 140.963C123.934 140.818 123.76 140.602 123.635 140.312C123.51 140.02 123.448 139.65 123.448 139.205V138.391C123.448 137.945 123.51 137.578 123.635 137.289C123.76 136.996 123.934 136.779 124.156 136.639C124.379 136.494 124.635 136.422 124.924 136.422C125.217 136.422 125.475 136.494 125.698 136.639C125.92 136.779 126.092 136.996 126.213 137.289C126.338 137.578 126.401 137.945 126.401 138.391ZM125.528 139.281V138.309C125.528 138.047 125.504 137.834 125.457 137.67C125.41 137.502 125.342 137.379 125.252 137.301C125.162 137.219 125.053 137.178 124.924 137.178C124.799 137.178 124.69 137.219 124.596 137.301C124.506 137.379 124.438 137.502 124.391 137.67C124.344 137.834 124.321 138.047 124.321 138.309V139.281C124.321 139.543 124.344 139.758 124.391 139.926C124.442 140.094 124.512 140.219 124.602 140.301C124.696 140.383 124.805 140.424 124.93 140.424C125.059 140.424 125.166 140.383 125.252 140.301C125.342 140.219 125.41 140.094 125.457 139.926C125.504 139.758 125.528 139.543 125.528 139.281Z" fill="#C4C4C4"/>
<path d="M146.643 140.342V141.092H143.643V140.459L145.061 138.871C145.206 138.707 145.317 138.561 145.395 138.432C145.477 138.303 145.536 138.188 145.571 138.086C145.606 137.98 145.624 137.885 145.624 137.799C145.624 137.611 145.577 137.457 145.483 137.336C145.389 137.215 145.256 137.154 145.084 137.154C144.858 137.154 144.692 137.229 144.586 137.377C144.481 137.525 144.428 137.711 144.428 137.934H143.555C143.555 137.652 143.614 137.396 143.731 137.166C143.852 136.936 144.024 136.752 144.247 136.615C144.473 136.475 144.745 136.404 145.061 136.404C145.366 136.404 145.625 136.461 145.84 136.574C146.055 136.688 146.219 136.848 146.333 137.055C146.446 137.258 146.502 137.502 146.502 137.787C146.502 137.994 146.463 138.188 146.385 138.367C146.311 138.547 146.204 138.727 146.063 138.906C145.922 139.086 145.75 139.279 145.547 139.486L144.756 140.342H146.643ZM150.545 138.391V139.205C150.545 139.65 150.483 140.02 150.358 140.312C150.237 140.602 150.065 140.818 149.842 140.963C149.624 141.104 149.368 141.174 149.075 141.174C148.782 141.174 148.524 141.104 148.301 140.963C148.079 140.818 147.905 140.602 147.78 140.312C147.655 140.02 147.592 139.65 147.592 139.205V138.391C147.592 137.945 147.655 137.578 147.78 137.289C147.905 136.996 148.079 136.779 148.301 136.639C148.524 136.494 148.78 136.422 149.069 136.422C149.362 136.422 149.62 136.494 149.842 136.639C150.065 136.779 150.237 136.996 150.358 137.289C150.483 137.578 150.545 137.945 150.545 138.391ZM149.672 139.281V138.309C149.672 138.047 149.649 137.834 149.602 137.67C149.555 137.502 149.487 137.379 149.397 137.301C149.307 137.219 149.198 137.178 149.069 137.178C148.944 137.178 148.834 137.219 148.741 137.301C148.651 137.379 148.583 137.502 148.536 137.67C148.489 137.834 148.465 138.047 148.465 138.309V139.281C148.465 139.543 148.489 139.758 148.536 139.926C148.586 140.094 148.657 140.219 148.747 140.301C148.84 140.383 148.95 140.424 149.075 140.424C149.204 140.424 149.311 140.383 149.397 140.301C149.487 140.219 149.555 140.094 149.602 139.926C149.649 139.758 149.672 139.543 149.672 139.281ZM153.668 136.469V141.092H152.801V137.57L151.77 137.904V137.148L153.569 136.469H153.668ZM157.629 136.469V141.092H156.762V137.57L155.731 137.904V137.148L157.53 136.469H157.629Z" fill="#C4C4C4"/>
<path d="M178.71 140.342V141.092H175.71V140.459L177.128 138.871C177.272 138.707 177.384 138.561 177.462 138.432C177.544 138.303 177.602 138.188 177.637 138.086C177.673 137.98 177.69 137.885 177.69 137.799C177.69 137.611 177.643 137.457 177.55 137.336C177.456 137.215 177.323 137.154 177.151 137.154C176.925 137.154 176.759 137.229 176.653 137.377C176.548 137.525 176.495 137.711 176.495 137.934H175.622C175.622 137.652 175.68 137.396 175.798 137.166C175.919 136.936 176.091 136.752 176.313 136.615C176.54 136.475 176.811 136.404 177.128 136.404C177.432 136.404 177.692 136.461 177.907 136.574C178.122 136.688 178.286 136.848 178.399 137.055C178.512 137.258 178.569 137.502 178.569 137.787C178.569 137.994 178.53 138.188 178.452 138.367C178.378 138.547 178.27 138.727 178.13 138.906C177.989 139.086 177.817 139.279 177.614 139.486L176.823 140.342H178.71ZM182.612 138.391V139.205C182.612 139.65 182.55 140.02 182.425 140.312C182.303 140.602 182.132 140.818 181.909 140.963C181.69 141.104 181.434 141.174 181.141 141.174C180.848 141.174 180.591 141.104 180.368 140.963C180.145 140.818 179.971 140.602 179.846 140.312C179.721 140.02 179.659 139.65 179.659 139.205V138.391C179.659 137.945 179.721 137.578 179.846 137.289C179.971 136.996 180.145 136.779 180.368 136.639C180.591 136.494 180.846 136.422 181.135 136.422C181.428 136.422 181.686 136.494 181.909 136.639C182.132 136.779 182.303 136.996 182.425 137.289C182.55 137.578 182.612 137.945 182.612 138.391ZM181.739 139.281V138.309C181.739 138.047 181.716 137.834 181.669 137.67C181.622 137.502 181.553 137.379 181.464 137.301C181.374 137.219 181.264 137.178 181.135 137.178C181.01 137.178 180.901 137.219 180.807 137.301C180.718 137.379 180.649 137.502 180.602 137.67C180.555 137.834 180.532 138.047 180.532 138.309V139.281C180.532 139.543 180.555 139.758 180.602 139.926C180.653 140.094 180.723 140.219 180.813 140.301C180.907 140.383 181.016 140.424 181.141 140.424C181.27 140.424 181.378 140.383 181.464 140.301C181.553 140.219 181.622 140.094 181.669 139.926C181.716 139.758 181.739 139.543 181.739 139.281ZM185.735 136.469V141.092H184.868V137.57L183.837 137.904V137.148L185.635 136.469H185.735ZM190.593 140.342V141.092H187.593V140.459L189.01 138.871C189.155 138.707 189.266 138.561 189.344 138.432C189.427 138.303 189.485 138.188 189.52 138.086C189.555 137.98 189.573 137.885 189.573 137.799C189.573 137.611 189.526 137.457 189.432 137.336C189.339 137.215 189.206 137.154 189.034 137.154C188.807 137.154 188.641 137.229 188.536 137.377C188.43 137.525 188.378 137.711 188.378 137.934H187.505C187.505 137.652 187.563 137.396 187.68 137.166C187.802 136.936 187.973 136.752 188.196 136.615C188.423 136.475 188.694 136.404 189.01 136.404C189.315 136.404 189.575 136.461 189.79 136.574C190.005 136.688 190.169 136.848 190.282 137.055C190.395 137.258 190.452 137.502 190.452 137.787C190.452 137.994 190.413 138.188 190.335 138.367C190.26 138.547 190.153 138.727 190.012 138.906C189.872 139.086 189.7 139.279 189.497 139.486L188.706 140.342H190.593Z" fill="#C4C4C4"/>
<path d="M210.776 140.342V141.092H207.776V140.459L209.194 138.871C209.339 138.707 209.45 138.561 209.528 138.432C209.61 138.303 209.669 138.188 209.704 138.086C209.739 137.98 209.757 137.885 209.757 137.799C209.757 137.611 209.71 137.457 209.616 137.336C209.522 137.215 209.39 137.154 209.218 137.154C208.991 137.154 208.825 137.229 208.72 137.377C208.614 137.525 208.562 137.711 208.562 137.934H207.688C207.688 137.652 207.747 137.396 207.864 137.166C207.985 136.936 208.157 136.752 208.38 136.615C208.606 136.475 208.878 136.404 209.194 136.404C209.499 136.404 209.759 136.461 209.974 136.574C210.188 136.688 210.353 136.848 210.466 137.055C210.579 137.258 210.636 137.502 210.636 137.787C210.636 137.994 210.597 138.188 210.519 138.367C210.444 138.547 210.337 138.727 210.196 138.906C210.056 139.086 209.884 139.279 209.681 139.486L208.89 140.342H210.776ZM214.679 138.391V139.205C214.679 139.65 214.616 140.02 214.491 140.312C214.37 140.602 214.198 140.818 213.976 140.963C213.757 141.104 213.501 141.174 213.208 141.174C212.915 141.174 212.657 141.104 212.435 140.963C212.212 140.818 212.038 140.602 211.913 140.312C211.788 140.02 211.726 139.65 211.726 139.205V138.391C211.726 137.945 211.788 137.578 211.913 137.289C212.038 136.996 212.212 136.779 212.435 136.639C212.657 136.494 212.913 136.422 213.202 136.422C213.495 136.422 213.753 136.494 213.976 136.639C214.198 136.779 214.37 136.996 214.491 137.289C214.616 137.578 214.679 137.945 214.679 138.391ZM213.806 139.281V138.309C213.806 138.047 213.782 137.834 213.735 137.67C213.688 137.502 213.62 137.379 213.53 137.301C213.44 137.219 213.331 137.178 213.202 137.178C213.077 137.178 212.968 137.219 212.874 137.301C212.784 137.379 212.716 137.502 212.669 137.67C212.622 137.834 212.599 138.047 212.599 138.309V139.281C212.599 139.543 212.622 139.758 212.669 139.926C212.72 140.094 212.79 140.219 212.88 140.301C212.974 140.383 213.083 140.424 213.208 140.424C213.337 140.424 213.444 140.383 213.53 140.301C213.62 140.219 213.688 140.094 213.735 139.926C213.782 139.758 213.806 139.543 213.806 139.281ZM217.802 136.469V141.092H216.935V137.57L215.903 137.904V137.148L217.702 136.469H217.802ZM220.567 138.402H220.995C221.14 138.402 221.259 138.375 221.353 138.32C221.45 138.266 221.522 138.191 221.569 138.098C221.616 138 221.64 137.889 221.64 137.764C221.64 137.592 221.593 137.447 221.499 137.33C221.409 137.213 221.261 137.154 221.054 137.154C220.886 137.154 220.747 137.203 220.638 137.301C220.532 137.398 220.479 137.531 220.479 137.699H219.606C219.606 137.434 219.669 137.205 219.794 137.014C219.923 136.818 220.095 136.668 220.31 136.562C220.524 136.457 220.767 136.404 221.036 136.404C221.329 136.404 221.585 136.455 221.804 136.557C222.026 136.654 222.2 136.801 222.325 136.996C222.45 137.191 222.513 137.432 222.513 137.717C222.513 137.924 222.46 138.115 222.354 138.291C222.249 138.463 222.095 138.602 221.892 138.707C221.688 138.809 221.44 138.859 221.147 138.859H220.567V138.402ZM220.567 139.076V138.619H221.147C221.479 138.619 221.751 138.666 221.962 138.76C222.173 138.854 222.327 138.988 222.425 139.164C222.526 139.34 222.577 139.553 222.577 139.803C222.577 140.088 222.509 140.332 222.372 140.535C222.239 140.738 222.056 140.893 221.821 140.998C221.591 141.104 221.329 141.156 221.036 141.156C220.786 141.156 220.548 141.109 220.321 141.016C220.095 140.918 219.911 140.768 219.771 140.564C219.63 140.361 219.56 140.102 219.56 139.785H220.433C220.433 139.961 220.489 140.109 220.603 140.23C220.72 140.348 220.874 140.406 221.065 140.406C221.272 140.406 221.431 140.346 221.54 140.225C221.649 140.104 221.704 139.947 221.704 139.756C221.704 139.592 221.675 139.461 221.616 139.363C221.562 139.262 221.481 139.189 221.376 139.146C221.271 139.1 221.144 139.076 220.995 139.076H220.567Z" fill="#C4C4C4"/>
<path d="M242.843 140.342V141.092H239.843V140.459L241.261 138.871C241.406 138.707 241.517 138.561 241.595 138.432C241.677 138.303 241.736 138.188 241.771 138.086C241.806 137.98 241.823 137.885 241.823 137.799C241.823 137.611 241.777 137.457 241.683 137.336C241.589 137.215 241.456 137.154 241.284 137.154C241.058 137.154 240.892 137.229 240.786 137.377C240.681 137.525 240.628 137.711 240.628 137.934H239.755C239.755 137.652 239.814 137.396 239.931 137.166C240.052 136.936 240.224 136.752 240.447 136.615C240.673 136.475 240.945 136.404 241.261 136.404C241.566 136.404 241.825 136.461 242.04 136.574C242.255 136.688 242.419 136.848 242.532 137.055C242.646 137.258 242.702 137.502 242.702 137.787C242.702 137.994 242.663 138.188 242.585 138.367C242.511 138.547 242.404 138.727 242.263 138.906C242.122 139.086 241.95 139.279 241.747 139.486L240.956 140.342H242.843ZM246.745 138.391V139.205C246.745 139.65 246.683 140.02 246.558 140.312C246.437 140.602 246.265 140.818 246.042 140.963C245.823 141.104 245.568 141.174 245.275 141.174C244.982 141.174 244.724 141.104 244.501 140.963C244.279 140.818 244.105 140.602 243.98 140.312C243.855 140.02 243.792 139.65 243.792 139.205V138.391C243.792 137.945 243.855 137.578 243.98 137.289C244.105 136.996 244.279 136.779 244.501 136.639C244.724 136.494 244.98 136.422 245.269 136.422C245.562 136.422 245.82 136.494 246.042 136.639C246.265 136.779 246.437 136.996 246.558 137.289C246.683 137.578 246.745 137.945 246.745 138.391ZM245.872 139.281V138.309C245.872 138.047 245.849 137.834 245.802 137.67C245.755 137.502 245.687 137.379 245.597 137.301C245.507 137.219 245.398 137.178 245.269 137.178C245.144 137.178 245.034 137.219 244.941 137.301C244.851 137.379 244.782 137.502 244.736 137.67C244.689 137.834 244.665 138.047 244.665 138.309V139.281C244.665 139.543 244.689 139.758 244.736 139.926C244.786 140.094 244.857 140.219 244.947 140.301C245.04 140.383 245.15 140.424 245.275 140.424C245.404 140.424 245.511 140.383 245.597 140.301C245.687 140.219 245.755 140.094 245.802 139.926C245.849 139.758 245.872 139.543 245.872 139.281ZM249.868 136.469V141.092H249.001V137.57L247.97 137.904V137.148L249.769 136.469H249.868ZM254.79 139.352V140.113H251.626L251.591 139.516L253.407 136.486H254.093L253.372 137.828L252.452 139.352H254.79ZM254.298 136.486V141.109H253.425V136.486H254.298Z" fill="#C4C4C4"/>
<path d="M274.91 140.342V141.092H271.91V140.459L273.328 138.871C273.472 138.707 273.583 138.561 273.662 138.432C273.744 138.303 273.802 138.188 273.837 138.086C273.873 137.98 273.89 137.885 273.89 137.799C273.89 137.611 273.843 137.457 273.75 137.336C273.656 137.215 273.523 137.154 273.351 137.154C273.125 137.154 272.958 137.229 272.853 137.377C272.748 137.525 272.695 137.711 272.695 137.934H271.822C271.822 137.652 271.88 137.396 271.998 137.166C272.119 136.936 272.291 136.752 272.513 136.615C272.74 136.475 273.011 136.404 273.328 136.404C273.632 136.404 273.892 136.461 274.107 136.574C274.322 136.688 274.486 136.848 274.599 137.055C274.712 137.258 274.769 137.502 274.769 137.787C274.769 137.994 274.73 138.188 274.652 138.367C274.578 138.547 274.47 138.727 274.33 138.906C274.189 139.086 274.017 139.279 273.814 139.486L273.023 140.342H274.91ZM278.812 138.391V139.205C278.812 139.65 278.75 140.02 278.625 140.312C278.503 140.602 278.332 140.818 278.109 140.963C277.89 141.104 277.634 141.174 277.341 141.174C277.048 141.174 276.791 141.104 276.568 140.963C276.345 140.818 276.171 140.602 276.046 140.312C275.921 140.02 275.859 139.65 275.859 139.205V138.391C275.859 137.945 275.921 137.578 276.046 137.289C276.171 136.996 276.345 136.779 276.568 136.639C276.791 136.494 277.046 136.422 277.335 136.422C277.628 136.422 277.886 136.494 278.109 136.639C278.332 136.779 278.503 136.996 278.625 137.289C278.75 137.578 278.812 137.945 278.812 138.391ZM277.939 139.281V138.309C277.939 138.047 277.916 137.834 277.869 137.67C277.822 137.502 277.753 137.379 277.664 137.301C277.574 137.219 277.464 137.178 277.335 137.178C277.21 137.178 277.101 137.219 277.007 137.301C276.917 137.379 276.849 137.502 276.802 137.67C276.755 137.834 276.732 138.047 276.732 138.309V139.281C276.732 139.543 276.755 139.758 276.802 139.926C276.853 140.094 276.923 140.219 277.013 140.301C277.107 140.383 277.216 140.424 277.341 140.424C277.47 140.424 277.578 140.383 277.664 140.301C277.753 140.219 277.822 140.094 277.869 139.926C277.916 139.758 277.939 139.543 277.939 139.281ZM281.935 136.469V141.092H281.068V137.57L280.037 137.904V137.148L281.835 136.469H281.935ZM284.619 139.023L283.921 138.836L284.173 136.486H286.558V137.254H284.888L284.789 138.256C284.847 138.225 284.935 138.188 285.052 138.145C285.169 138.102 285.298 138.08 285.439 138.08C285.72 138.08 285.96 138.141 286.16 138.262C286.359 138.383 286.511 138.557 286.617 138.783C286.722 139.01 286.775 139.281 286.775 139.598C286.775 139.875 286.72 140.135 286.611 140.377C286.505 140.615 286.343 140.809 286.125 140.957C285.91 141.102 285.634 141.174 285.298 141.174C285.048 141.174 284.812 141.123 284.589 141.021C284.367 140.916 284.185 140.764 284.044 140.564C283.908 140.365 283.833 140.125 283.822 139.844H284.677C284.697 140.043 284.759 140.189 284.865 140.283C284.974 140.377 285.119 140.424 285.298 140.424C285.513 140.424 285.667 140.344 285.761 140.184C285.855 140.023 285.902 139.824 285.902 139.586C285.902 139.344 285.843 139.146 285.726 138.994C285.609 138.842 285.439 138.766 285.216 138.766C285.048 138.766 284.923 138.793 284.841 138.848C284.759 138.902 284.685 138.961 284.619 139.023Z" fill="#C4C4C4"/>
<path d="M306.976 140.342V141.092H303.976V140.459L305.394 138.871C305.539 138.707 305.65 138.561 305.728 138.432C305.81 138.303 305.869 138.188 305.904 138.086C305.939 137.98 305.957 137.885 305.957 137.799C305.957 137.611 305.91 137.457 305.816 137.336C305.722 137.215 305.59 137.154 305.418 137.154C305.191 137.154 305.025 137.229 304.92 137.377C304.814 137.525 304.761 137.711 304.761 137.934H303.888C303.888 137.652 303.947 137.396 304.064 137.166C304.185 136.936 304.357 136.752 304.58 136.615C304.806 136.475 305.078 136.404 305.394 136.404C305.699 136.404 305.959 136.461 306.174 136.574C306.388 136.688 306.552 136.848 306.666 137.055C306.779 137.258 306.836 137.502 306.836 137.787C306.836 137.994 306.797 138.188 306.719 138.367C306.644 138.547 306.537 138.727 306.396 138.906C306.256 139.086 306.084 139.279 305.881 139.486L305.09 140.342H306.976ZM310.879 138.391V139.205C310.879 139.65 310.816 140.02 310.691 140.312C310.57 140.602 310.398 140.818 310.176 140.963C309.957 141.104 309.701 141.174 309.408 141.174C309.115 141.174 308.857 141.104 308.635 140.963C308.412 140.818 308.238 140.602 308.113 140.312C307.988 140.02 307.926 139.65 307.926 139.205V138.391C307.926 137.945 307.988 137.578 308.113 137.289C308.238 136.996 308.412 136.779 308.635 136.639C308.857 136.494 309.113 136.422 309.402 136.422C309.695 136.422 309.953 136.494 310.176 136.639C310.398 136.779 310.57 136.996 310.691 137.289C310.816 137.578 310.879 137.945 310.879 138.391ZM310.006 139.281V138.309C310.006 138.047 309.982 137.834 309.935 137.67C309.888 137.502 309.82 137.379 309.73 137.301C309.64 137.219 309.531 137.178 309.402 137.178C309.277 137.178 309.168 137.219 309.074 137.301C308.984 137.379 308.916 137.502 308.869 137.67C308.822 137.834 308.799 138.047 308.799 138.309V139.281C308.799 139.543 308.822 139.758 308.869 139.926C308.92 140.094 308.99 140.219 309.08 140.301C309.174 140.383 309.283 140.424 309.408 140.424C309.537 140.424 309.644 140.383 309.73 140.301C309.82 140.219 309.888 140.094 309.935 139.926C309.982 139.758 310.006 139.543 310.006 139.281ZM314.002 136.469V141.092H313.135V137.57L312.103 137.904V137.148L313.902 136.469H314.002ZM318.092 136.428H318.203V137.195H318.15C317.834 137.195 317.57 137.252 317.359 137.365C317.152 137.475 316.996 137.645 316.89 137.875C316.789 138.105 316.738 138.396 316.738 138.748V139.428C316.738 139.646 316.765 139.83 316.82 139.979C316.879 140.127 316.957 140.238 317.054 140.312C317.152 140.387 317.261 140.424 317.383 140.424C317.508 140.424 317.617 140.387 317.711 140.312C317.804 140.238 317.877 140.139 317.927 140.014C317.978 139.889 318.004 139.748 318.004 139.592C318.004 139.35 317.949 139.156 317.84 139.012C317.734 138.863 317.582 138.789 317.383 138.789C317.25 138.789 317.131 138.822 317.025 138.889C316.924 138.951 316.842 139.033 316.779 139.135C316.717 139.236 316.683 139.342 316.679 139.451L316.457 139.176C316.465 139.008 316.515 138.838 316.609 138.666C316.707 138.49 316.842 138.342 317.013 138.221C317.185 138.1 317.388 138.039 317.623 138.039C317.904 138.039 318.136 138.107 318.32 138.244C318.504 138.381 318.64 138.566 318.73 138.801C318.824 139.035 318.871 139.297 318.871 139.586C318.871 139.887 318.81 140.158 318.689 140.4C318.572 140.639 318.404 140.828 318.185 140.969C317.967 141.105 317.705 141.174 317.4 141.174C317.088 141.174 316.816 141.1 316.586 140.951C316.355 140.799 316.177 140.586 316.052 140.312C315.931 140.035 315.871 139.709 315.871 139.334V139.012C315.871 138.605 315.918 138.244 316.011 137.928C316.105 137.607 316.244 137.336 316.427 137.113C316.615 136.891 316.847 136.721 317.125 136.604C317.402 136.486 317.724 136.428 318.092 136.428Z" fill="#C4C4C4"/>
<path d="M339.043 140.342V141.092H336.043V140.459L337.461 138.871C337.605 138.707 337.717 138.561 337.795 138.432C337.877 138.303 337.936 138.188 337.971 138.086C338.006 137.98 338.023 137.885 338.023 137.799C338.023 137.611 337.977 137.457 337.883 137.336C337.789 137.215 337.656 137.154 337.484 137.154C337.258 137.154 337.092 137.229 336.986 137.377C336.881 137.525 336.828 137.711 336.828 137.934H335.955C335.955 137.652 336.014 137.396 336.131 137.166C336.252 136.936 336.424 136.752 336.646 136.615C336.873 136.475 337.145 136.404 337.461 136.404C337.766 136.404 338.025 136.461 338.24 136.574C338.455 136.688 338.619 136.848 338.732 137.055C338.846 137.258 338.902 137.502 338.902 137.787C338.902 137.994 338.863 138.188 338.785 138.367C338.711 138.547 338.604 138.727 338.463 138.906C338.322 139.086 338.15 139.279 337.947 139.486L337.156 140.342H339.043ZM342.945 138.391V139.205C342.945 139.65 342.883 140.02 342.758 140.312C342.637 140.602 342.465 140.818 342.242 140.963C342.023 141.104 341.768 141.174 341.475 141.174C341.182 141.174 340.924 141.104 340.701 140.963C340.479 140.818 340.305 140.602 340.18 140.312C340.055 140.02 339.992 139.65 339.992 139.205V138.391C339.992 137.945 340.055 137.578 340.18 137.289C340.305 136.996 340.479 136.779 340.701 136.639C340.924 136.494 341.18 136.422 341.469 136.422C341.762 136.422 342.02 136.494 342.242 136.639C342.465 136.779 342.637 136.996 342.758 137.289C342.883 137.578 342.945 137.945 342.945 138.391ZM342.072 139.281V138.309C342.072 138.047 342.049 137.834 342.002 137.67C341.955 137.502 341.887 137.379 341.797 137.301C341.707 137.219 341.598 137.178 341.469 137.178C341.344 137.178 341.234 137.219 341.141 137.301C341.051 137.379 340.982 137.502 340.936 137.67C340.889 137.834 340.865 138.047 340.865 138.309V139.281C340.865 139.543 340.889 139.758 340.936 139.926C340.986 140.094 341.057 140.219 341.146 140.301C341.24 140.383 341.35 140.424 341.475 140.424C341.604 140.424 341.711 140.383 341.797 140.301C341.887 140.219 341.955 140.094 342.002 139.926C342.049 139.758 342.072 139.543 342.072 139.281ZM346.068 136.469V141.092H345.201V137.57L344.17 137.904V137.148L345.969 136.469H346.068ZM350.902 136.486V137.014L349.215 141.109H348.295L349.988 137.242H347.814V136.486H350.902Z" fill="#C4C4C4"/>
<path d="M371.11 140.342V141.092H368.11V140.459L369.528 138.871C369.672 138.707 369.784 138.561 369.862 138.432C369.944 138.303 370.002 138.188 370.038 138.086C370.073 137.98 370.09 137.885 370.09 137.799C370.09 137.611 370.043 137.457 369.95 137.336C369.856 137.215 369.723 137.154 369.551 137.154C369.325 137.154 369.159 137.229 369.053 137.377C368.948 137.525 368.895 137.711 368.895 137.934H368.022C368.022 137.652 368.081 137.396 368.198 137.166C368.319 136.936 368.491 136.752 368.713 136.615C368.94 136.475 369.211 136.404 369.528 136.404C369.833 136.404 370.092 136.461 370.307 136.574C370.522 136.688 370.686 136.848 370.799 137.055C370.913 137.258 370.969 137.502 370.969 137.787C370.969 137.994 370.93 138.188 370.852 138.367C370.778 138.547 370.67 138.727 370.53 138.906C370.389 139.086 370.217 139.279 370.014 139.486L369.223 140.342H371.11ZM375.012 138.391V139.205C375.012 139.65 374.95 140.02 374.825 140.312C374.704 140.602 374.532 140.818 374.309 140.963C374.09 141.104 373.834 141.174 373.542 141.174C373.249 141.174 372.991 141.104 372.768 140.963C372.545 140.818 372.372 140.602 372.247 140.312C372.122 140.02 372.059 139.65 372.059 139.205V138.391C372.059 137.945 372.122 137.578 372.247 137.289C372.372 136.996 372.545 136.779 372.768 136.639C372.991 136.494 373.247 136.422 373.536 136.422C373.829 136.422 374.086 136.494 374.309 136.639C374.532 136.779 374.704 136.996 374.825 137.289C374.95 137.578 375.012 137.945 375.012 138.391ZM374.139 139.281V138.309C374.139 138.047 374.116 137.834 374.069 137.67C374.022 137.502 373.954 137.379 373.864 137.301C373.774 137.219 373.665 137.178 373.536 137.178C373.411 137.178 373.301 137.219 373.208 137.301C373.118 137.379 373.049 137.502 373.002 137.67C372.956 137.834 372.932 138.047 372.932 138.309V139.281C372.932 139.543 372.956 139.758 373.002 139.926C373.053 140.094 373.124 140.219 373.213 140.301C373.307 140.383 373.417 140.424 373.542 140.424C373.67 140.424 373.778 140.383 373.864 140.301C373.954 140.219 374.022 140.094 374.069 139.926C374.116 139.758 374.139 139.543 374.139 139.281ZM378.135 136.469V141.092H377.268V137.57L376.237 137.904V137.148L378.036 136.469H378.135ZM382.928 139.844C382.928 140.137 382.864 140.383 382.735 140.582C382.606 140.777 382.43 140.926 382.208 141.027C381.989 141.125 381.741 141.174 381.463 141.174C381.182 141.174 380.93 141.125 380.708 141.027C380.485 140.926 380.309 140.777 380.18 140.582C380.051 140.383 379.987 140.137 379.987 139.844C379.987 139.578 380.049 139.35 380.174 139.158C380.303 138.967 380.479 138.818 380.702 138.713C380.924 138.607 381.176 138.555 381.458 138.555C381.743 138.555 381.995 138.607 382.213 138.713C382.436 138.818 382.61 138.967 382.735 139.158C382.864 139.35 382.928 139.578 382.928 139.844ZM382.061 139.773C382.061 139.637 382.036 139.521 381.985 139.428C381.934 139.33 381.864 139.256 381.774 139.205C381.684 139.15 381.579 139.123 381.458 139.123C381.336 139.123 381.231 139.15 381.141 139.205C381.051 139.256 380.981 139.33 380.93 139.428C380.883 139.521 380.86 139.637 380.86 139.773C380.86 139.906 380.883 140.021 380.93 140.119C380.981 140.217 381.051 140.293 381.141 140.348C381.231 140.398 381.336 140.424 381.458 140.424C381.579 140.424 381.684 140.398 381.774 140.348C381.864 140.293 381.934 140.217 381.985 140.119C382.036 140.021 382.061 139.906 382.061 139.773ZM382.834 137.711C382.834 137.953 382.776 138.166 382.659 138.35C382.542 138.529 382.379 138.67 382.172 138.771C381.965 138.869 381.727 138.918 381.458 138.918C381.192 138.918 380.954 138.869 380.743 138.771C380.536 138.67 380.374 138.529 380.256 138.35C380.139 138.166 380.081 137.953 380.081 137.711C380.081 137.434 380.139 137.199 380.256 137.008C380.374 136.816 380.536 136.672 380.743 136.574C380.954 136.473 381.192 136.422 381.458 136.422C381.727 136.422 381.965 136.473 382.172 136.574C382.379 136.672 382.542 136.816 382.659 137.008C382.776 137.199 382.834 137.434 382.834 137.711ZM381.961 137.77C381.961 137.648 381.942 137.545 381.903 137.459C381.864 137.369 381.807 137.299 381.733 137.248C381.659 137.197 381.567 137.172 381.458 137.172C381.297 137.172 381.172 137.225 381.083 137.33C380.997 137.436 380.954 137.582 380.954 137.77C380.954 137.887 380.973 137.99 381.012 138.08C381.051 138.17 381.108 138.24 381.182 138.291C381.26 138.342 381.352 138.367 381.458 138.367C381.622 138.367 381.747 138.312 381.833 138.203C381.918 138.094 381.961 137.949 381.961 137.77Z" fill="#C4C4C4"/>
<path d="M403.176 140.342V141.092H400.176V140.459L401.594 138.871C401.739 138.707 401.85 138.561 401.928 138.432C402.01 138.303 402.069 138.188 402.104 138.086C402.139 137.98 402.157 137.885 402.157 137.799C402.157 137.611 402.11 137.457 402.016 137.336C401.922 137.215 401.79 137.154 401.618 137.154C401.391 137.154 401.225 137.229 401.12 137.377C401.014 137.525 400.961 137.711 400.961 137.934H400.088C400.088 137.652 400.147 137.396 400.264 137.166C400.385 136.936 400.557 136.752 400.78 136.615C401.006 136.475 401.278 136.404 401.594 136.404C401.899 136.404 402.159 136.461 402.374 136.574C402.588 136.688 402.752 136.848 402.866 137.055C402.979 137.258 403.036 137.502 403.036 137.787C403.036 137.994 402.997 138.188 402.918 138.367C402.844 138.547 402.737 138.727 402.596 138.906C402.456 139.086 402.284 139.279 402.081 139.486L401.29 140.342H403.176ZM407.079 138.391V139.205C407.079 139.65 407.016 140.02 406.891 140.312C406.77 140.602 406.598 140.818 406.375 140.963C406.157 141.104 405.901 141.174 405.608 141.174C405.315 141.174 405.057 141.104 404.834 140.963C404.612 140.818 404.438 140.602 404.313 140.312C404.188 140.02 404.125 139.65 404.125 139.205V138.391C404.125 137.945 404.188 137.578 404.313 137.289C404.438 136.996 404.612 136.779 404.834 136.639C405.057 136.494 405.313 136.422 405.602 136.422C405.895 136.422 406.153 136.494 406.375 136.639C406.598 136.779 406.77 136.996 406.891 137.289C407.016 137.578 407.079 137.945 407.079 138.391ZM406.206 139.281V138.309C406.206 138.047 406.182 137.834 406.135 137.67C406.088 137.502 406.02 137.379 405.93 137.301C405.84 137.219 405.731 137.178 405.602 137.178C405.477 137.178 405.368 137.219 405.274 137.301C405.184 137.379 405.116 137.502 405.069 137.67C405.022 137.834 404.999 138.047 404.999 138.309V139.281C404.999 139.543 405.022 139.758 405.069 139.926C405.12 140.094 405.19 140.219 405.28 140.301C405.374 140.383 405.483 140.424 405.608 140.424C405.737 140.424 405.844 140.383 405.93 140.301C406.02 140.219 406.088 140.094 406.135 139.926C406.182 139.758 406.206 139.543 406.206 139.281ZM410.202 136.469V141.092H409.334V137.57L408.303 137.904V137.148L410.102 136.469H410.202ZM412.704 140.406H412.762C413.075 140.406 413.329 140.355 413.524 140.254C413.719 140.152 413.862 139.996 413.952 139.785C414.045 139.574 414.092 139.309 414.092 138.988V138.133C414.092 137.918 414.065 137.74 414.01 137.6C413.956 137.459 413.883 137.354 413.793 137.283C413.704 137.213 413.6 137.178 413.483 137.178C413.358 137.178 413.25 137.219 413.161 137.301C413.075 137.383 413.008 137.492 412.961 137.629C412.915 137.762 412.891 137.908 412.891 138.068C412.891 138.225 412.913 138.365 412.956 138.49C413.002 138.615 413.071 138.715 413.161 138.789C413.25 138.863 413.364 138.9 413.5 138.9C413.629 138.9 413.743 138.867 413.84 138.801C413.938 138.734 414.014 138.65 414.069 138.549C414.124 138.447 414.153 138.346 414.157 138.244L414.409 138.508C414.405 138.688 414.354 138.863 414.256 139.035C414.163 139.203 414.034 139.342 413.87 139.451C413.706 139.561 413.516 139.615 413.301 139.615C413.02 139.615 412.784 139.551 412.592 139.422C412.405 139.289 412.262 139.107 412.165 138.877C412.071 138.643 412.024 138.373 412.024 138.068C412.024 137.768 412.083 137.494 412.2 137.248C412.317 136.998 412.485 136.799 412.704 136.65C412.922 136.498 413.182 136.422 413.483 136.422C413.792 136.422 414.055 136.498 414.274 136.65C414.497 136.799 414.667 137.014 414.784 137.295C414.901 137.576 414.959 137.914 414.959 138.309V138.607C414.959 139.018 414.915 139.381 414.825 139.697C414.739 140.01 414.606 140.275 414.426 140.494C414.247 140.709 414.018 140.873 413.741 140.986C413.467 141.096 413.143 141.15 412.768 141.15H412.704V140.406Z" fill="#C4C4C4"/>
<path d="M435.243 140.342V141.092H432.243V140.459L433.661 138.871C433.806 138.707 433.917 138.561 433.995 138.432C434.077 138.303 434.136 138.188 434.171 138.086C434.206 137.98 434.224 137.885 434.224 137.799C434.224 137.611 434.177 137.457 434.083 137.336C433.989 137.215 433.856 137.154 433.685 137.154C433.458 137.154 433.292 137.229 433.187 137.377C433.081 137.525 433.028 137.711 433.028 137.934H432.155C432.155 137.652 432.214 137.396 432.331 137.166C432.452 136.936 432.624 136.752 432.847 136.615C433.073 136.475 433.345 136.404 433.661 136.404C433.966 136.404 434.226 136.461 434.44 136.574C434.655 136.688 434.819 136.848 434.933 137.055C435.046 137.258 435.103 137.502 435.103 137.787C435.103 137.994 435.063 138.188 434.985 138.367C434.911 138.547 434.804 138.727 434.663 138.906C434.522 139.086 434.351 139.279 434.147 139.486L433.356 140.342H435.243ZM439.146 138.391V139.205C439.146 139.65 439.083 140.02 438.958 140.312C438.837 140.602 438.665 140.818 438.442 140.963C438.224 141.104 437.968 141.174 437.675 141.174C437.382 141.174 437.124 141.104 436.901 140.963C436.679 140.818 436.505 140.602 436.38 140.312C436.255 140.02 436.192 139.65 436.192 139.205V138.391C436.192 137.945 436.255 137.578 436.38 137.289C436.505 136.996 436.679 136.779 436.901 136.639C437.124 136.494 437.38 136.422 437.669 136.422C437.962 136.422 438.22 136.494 438.442 136.639C438.665 136.779 438.837 136.996 438.958 137.289C439.083 137.578 439.146 137.945 439.146 138.391ZM438.272 139.281V138.309C438.272 138.047 438.249 137.834 438.202 137.67C438.155 137.502 438.087 137.379 437.997 137.301C437.907 137.219 437.798 137.178 437.669 137.178C437.544 137.178 437.435 137.219 437.341 137.301C437.251 137.379 437.183 137.502 437.136 137.67C437.089 137.834 437.065 138.047 437.065 138.309V139.281C437.065 139.543 437.089 139.758 437.136 139.926C437.187 140.094 437.257 140.219 437.347 140.301C437.44 140.383 437.55 140.424 437.675 140.424C437.804 140.424 437.911 140.383 437.997 140.301C438.087 140.219 438.155 140.094 438.202 139.926C438.249 139.758 438.272 139.543 438.272 139.281ZM443.165 140.342V141.092H440.165V140.459L441.583 138.871C441.728 138.707 441.839 138.561 441.917 138.432C441.999 138.303 442.058 138.188 442.093 138.086C442.128 137.98 442.146 137.885 442.146 137.799C442.146 137.611 442.099 137.457 442.005 137.336C441.911 137.215 441.778 137.154 441.606 137.154C441.38 137.154 441.214 137.229 441.108 137.377C441.003 137.525 440.95 137.711 440.95 137.934H440.077C440.077 137.652 440.136 137.396 440.253 137.166C440.374 136.936 440.546 136.752 440.769 136.615C440.995 136.475 441.267 136.404 441.583 136.404C441.888 136.404 442.147 136.461 442.362 136.574C442.577 136.688 442.741 136.848 442.854 137.055C442.968 137.258 443.024 137.502 443.024 137.787C443.024 137.994 442.985 138.188 442.907 138.367C442.833 138.547 442.726 138.727 442.585 138.906C442.444 139.086 442.272 139.279 442.069 139.486L441.278 140.342H443.165ZM447.067 138.391V139.205C447.067 139.65 447.005 140.02 446.88 140.312C446.759 140.602 446.587 140.818 446.364 140.963C446.146 141.104 445.89 141.174 445.597 141.174C445.304 141.174 445.046 141.104 444.823 140.963C444.601 140.818 444.427 140.602 444.302 140.312C444.177 140.02 444.114 139.65 444.114 139.205V138.391C444.114 137.945 444.177 137.578 444.302 137.289C444.427 136.996 444.601 136.779 444.823 136.639C445.046 136.494 445.302 136.422 445.591 136.422C445.884 136.422 446.142 136.494 446.364 136.639C446.587 136.779 446.759 136.996 446.88 137.289C447.005 137.578 447.067 137.945 447.067 138.391ZM446.194 139.281V138.309C446.194 138.047 446.171 137.834 446.124 137.67C446.077 137.502 446.009 137.379 445.919 137.301C445.829 137.219 445.72 137.178 445.591 137.178C445.466 137.178 445.356 137.219 445.263 137.301C445.173 137.379 445.104 137.502 445.058 137.67C445.011 137.834 444.987 138.047 444.987 138.309V139.281C444.987 139.543 445.011 139.758 445.058 139.926C445.108 140.094 445.179 140.219 445.269 140.301C445.362 140.383 445.472 140.424 445.597 140.424C445.726 140.424 445.833 140.383 445.919 140.301C446.009 140.219 446.077 140.094 446.124 139.926C446.171 139.758 446.194 139.543 446.194 139.281Z" fill="#C4C4C4"/>
<path d="M467.31 140.342V141.092H464.31V140.459L465.728 138.871C465.872 138.707 465.983 138.561 466.062 138.432C466.144 138.303 466.202 138.188 466.237 138.086C466.272 137.98 466.29 137.885 466.29 137.799C466.29 137.611 466.243 137.457 466.149 137.336C466.056 137.215 465.923 137.154 465.751 137.154C465.524 137.154 465.358 137.229 465.253 137.377C465.147 137.525 465.095 137.711 465.095 137.934H464.222C464.222 137.652 464.28 137.396 464.397 137.166C464.519 136.936 464.69 136.752 464.913 136.615C465.14 136.475 465.411 136.404 465.728 136.404C466.032 136.404 466.292 136.461 466.507 136.574C466.722 136.688 466.886 136.848 466.999 137.055C467.112 137.258 467.169 137.502 467.169 137.787C467.169 137.994 467.13 138.188 467.052 138.367C466.978 138.547 466.87 138.727 466.729 138.906C466.589 139.086 466.417 139.279 466.214 139.486L465.423 140.342H467.31ZM471.212 138.391V139.205C471.212 139.65 471.149 140.02 471.024 140.312C470.903 140.602 470.731 140.818 470.509 140.963C470.29 141.104 470.034 141.174 469.741 141.174C469.448 141.174 469.19 141.104 468.968 140.963C468.745 140.818 468.571 140.602 468.446 140.312C468.321 140.02 468.259 139.65 468.259 139.205V138.391C468.259 137.945 468.321 137.578 468.446 137.289C468.571 136.996 468.745 136.779 468.968 136.639C469.19 136.494 469.446 136.422 469.735 136.422C470.028 136.422 470.286 136.494 470.509 136.639C470.731 136.779 470.903 136.996 471.024 137.289C471.149 137.578 471.212 137.945 471.212 138.391ZM470.339 139.281V138.309C470.339 138.047 470.315 137.834 470.269 137.67C470.222 137.502 470.153 137.379 470.063 137.301C469.974 137.219 469.864 137.178 469.735 137.178C469.61 137.178 469.501 137.219 469.407 137.301C469.317 137.379 469.249 137.502 469.202 137.67C469.155 137.834 469.132 138.047 469.132 138.309V139.281C469.132 139.543 469.155 139.758 469.202 139.926C469.253 140.094 469.323 140.219 469.413 140.301C469.507 140.383 469.616 140.424 469.741 140.424C469.87 140.424 469.978 140.383 470.063 140.301C470.153 140.219 470.222 140.094 470.269 139.926C470.315 139.758 470.339 139.543 470.339 139.281ZM475.231 140.342V141.092H472.231V140.459L473.649 138.871C473.794 138.707 473.905 138.561 473.983 138.432C474.065 138.303 474.124 138.188 474.159 138.086C474.194 137.98 474.212 137.885 474.212 137.799C474.212 137.611 474.165 137.457 474.071 137.336C473.978 137.215 473.845 137.154 473.673 137.154C473.446 137.154 473.28 137.229 473.175 137.377C473.069 137.525 473.017 137.711 473.017 137.934H472.144C472.144 137.652 472.202 137.396 472.319 137.166C472.44 136.936 472.612 136.752 472.835 136.615C473.062 136.475 473.333 136.404 473.649 136.404C473.954 136.404 474.214 136.461 474.429 136.574C474.644 136.688 474.808 136.848 474.921 137.055C475.034 137.258 475.091 137.502 475.091 137.787C475.091 137.994 475.052 138.188 474.974 138.367C474.899 138.547 474.792 138.727 474.651 138.906C474.511 139.086 474.339 139.279 474.136 139.486L473.345 140.342H475.231ZM478.296 136.469V141.092H477.429V137.57L476.397 137.904V137.148L478.196 136.469H478.296Z" fill="#C4C4C4"/>
<path d="M499.376 140.342V141.092H496.376V140.459L497.794 138.871C497.939 138.707 498.05 138.561 498.128 138.432C498.21 138.303 498.269 138.188 498.304 138.086C498.339 137.98 498.357 137.885 498.357 137.799C498.357 137.611 498.31 137.457 498.216 137.336C498.123 137.215 497.99 137.154 497.818 137.154C497.591 137.154 497.425 137.229 497.32 137.377C497.214 137.525 497.162 137.711 497.162 137.934H496.289C496.289 137.652 496.347 137.396 496.464 137.166C496.585 136.936 496.757 136.752 496.98 136.615C497.207 136.475 497.478 136.404 497.794 136.404C498.099 136.404 498.359 136.461 498.574 136.574C498.789 136.688 498.953 136.848 499.066 137.055C499.179 137.258 499.236 137.502 499.236 137.787C499.236 137.994 499.197 138.188 499.119 138.367C499.044 138.547 498.937 138.727 498.796 138.906C498.656 139.086 498.484 139.279 498.281 139.486L497.49 140.342H499.376ZM503.279 138.391V139.205C503.279 139.65 503.216 140.02 503.091 140.312C502.97 140.602 502.798 140.818 502.576 140.963C502.357 141.104 502.101 141.174 501.808 141.174C501.515 141.174 501.257 141.104 501.035 140.963C500.812 140.818 500.638 140.602 500.513 140.312C500.388 140.02 500.326 139.65 500.326 139.205V138.391C500.326 137.945 500.388 137.578 500.513 137.289C500.638 136.996 500.812 136.779 501.035 136.639C501.257 136.494 501.513 136.422 501.802 136.422C502.095 136.422 502.353 136.494 502.576 136.639C502.798 136.779 502.97 136.996 503.091 137.289C503.216 137.578 503.279 137.945 503.279 138.391ZM502.406 139.281V138.309C502.406 138.047 502.382 137.834 502.335 137.67C502.289 137.502 502.22 137.379 502.13 137.301C502.041 137.219 501.931 137.178 501.802 137.178C501.677 137.178 501.568 137.219 501.474 137.301C501.384 137.379 501.316 137.502 501.269 137.67C501.222 137.834 501.199 138.047 501.199 138.309V139.281C501.199 139.543 501.222 139.758 501.269 139.926C501.32 140.094 501.39 140.219 501.48 140.301C501.574 140.383 501.683 140.424 501.808 140.424C501.937 140.424 502.044 140.383 502.13 140.301C502.22 140.219 502.289 140.094 502.335 139.926C502.382 139.758 502.406 139.543 502.406 139.281ZM507.298 140.342V141.092H504.298V140.459L505.716 138.871C505.861 138.707 505.972 138.561 506.05 138.432C506.132 138.303 506.191 138.188 506.226 138.086C506.261 137.98 506.279 137.885 506.279 137.799C506.279 137.611 506.232 137.457 506.138 137.336C506.044 137.215 505.912 137.154 505.74 137.154C505.513 137.154 505.347 137.229 505.242 137.377C505.136 137.525 505.083 137.711 505.083 137.934H504.21C504.21 137.652 504.269 137.396 504.386 137.166C504.507 136.936 504.679 136.752 504.902 136.615C505.128 136.475 505.4 136.404 505.716 136.404C506.021 136.404 506.281 136.461 506.496 136.574C506.71 136.688 506.875 136.848 506.988 137.055C507.101 137.258 507.158 137.502 507.158 137.787C507.158 137.994 507.119 138.188 507.041 138.367C506.966 138.547 506.859 138.727 506.718 138.906C506.578 139.086 506.406 139.279 506.203 139.486L505.412 140.342H507.298ZM511.259 140.342V141.092H508.259V140.459L509.677 138.871C509.822 138.707 509.933 138.561 510.011 138.432C510.093 138.303 510.152 138.188 510.187 138.086C510.222 137.98 510.24 137.885 510.24 137.799C510.24 137.611 510.193 137.457 510.099 137.336C510.005 137.215 509.873 137.154 509.701 137.154C509.474 137.154 509.308 137.229 509.203 137.377C509.097 137.525 509.044 137.711 509.044 137.934H508.171C508.171 137.652 508.23 137.396 508.347 137.166C508.468 136.936 508.64 136.752 508.863 136.615C509.089 136.475 509.361 136.404 509.677 136.404C509.982 136.404 510.242 136.461 510.457 136.574C510.671 136.688 510.835 136.848 510.949 137.055C511.062 137.258 511.119 137.502 511.119 137.787C511.119 137.994 511.08 138.188 511.001 138.367C510.927 138.547 510.82 138.727 510.679 138.906C510.539 139.086 510.367 139.279 510.164 139.486L509.373 140.342H511.259Z" fill="#C4C4C4"/>
<path d="M531.443 140.342V141.092H528.443V140.459L529.861 138.871C530.005 138.707 530.117 138.561 530.195 138.432C530.277 138.303 530.335 138.188 530.371 138.086C530.406 137.98 530.423 137.885 530.423 137.799C530.423 137.611 530.376 137.457 530.283 137.336C530.189 137.215 530.056 137.154 529.884 137.154C529.658 137.154 529.492 137.229 529.386 137.377C529.281 137.525 529.228 137.711 529.228 137.934H528.355C528.355 137.652 528.414 137.396 528.531 137.166C528.652 136.936 528.824 136.752 529.046 136.615C529.273 136.475 529.544 136.404 529.861 136.404C530.166 136.404 530.425 136.461 530.64 136.574C530.855 136.688 531.019 136.848 531.132 137.055C531.246 137.258 531.302 137.502 531.302 137.787C531.302 137.994 531.263 138.188 531.185 138.367C531.111 138.547 531.003 138.727 530.863 138.906C530.722 139.086 530.55 139.279 530.347 139.486L529.556 140.342H531.443ZM535.345 138.391V139.205C535.345 139.65 535.283 140.02 535.158 140.312C535.037 140.602 534.865 140.818 534.642 140.963C534.423 141.104 534.167 141.174 533.875 141.174C533.582 141.174 533.324 141.104 533.101 140.963C532.878 140.818 532.705 140.602 532.58 140.312C532.455 140.02 532.392 139.65 532.392 139.205V138.391C532.392 137.945 532.455 137.578 532.58 137.289C532.705 136.996 532.878 136.779 533.101 136.639C533.324 136.494 533.58 136.422 533.869 136.422C534.162 136.422 534.419 136.494 534.642 136.639C534.865 136.779 535.037 136.996 535.158 137.289C535.283 137.578 535.345 137.945 535.345 138.391ZM534.472 139.281V138.309C534.472 138.047 534.449 137.834 534.402 137.67C534.355 137.502 534.287 137.379 534.197 137.301C534.107 137.219 533.998 137.178 533.869 137.178C533.744 137.178 533.634 137.219 533.541 137.301C533.451 137.379 533.382 137.502 533.335 137.67C533.289 137.834 533.265 138.047 533.265 138.309V139.281C533.265 139.543 533.289 139.758 533.335 139.926C533.386 140.094 533.457 140.219 533.546 140.301C533.64 140.383 533.75 140.424 533.875 140.424C534.003 140.424 534.111 140.383 534.197 140.301C534.287 140.219 534.355 140.094 534.402 139.926C534.449 139.758 534.472 139.543 534.472 139.281ZM539.365 140.342V141.092H536.365V140.459L537.783 138.871C537.927 138.707 538.039 138.561 538.117 138.432C538.199 138.303 538.257 138.188 538.292 138.086C538.328 137.98 538.345 137.885 538.345 137.799C538.345 137.611 538.298 137.457 538.205 137.336C538.111 137.215 537.978 137.154 537.806 137.154C537.58 137.154 537.414 137.229 537.308 137.377C537.203 137.525 537.15 137.711 537.15 137.934H536.277C536.277 137.652 536.335 137.396 536.453 137.166C536.574 136.936 536.746 136.752 536.968 136.615C537.195 136.475 537.466 136.404 537.783 136.404C538.087 136.404 538.347 136.461 538.562 136.574C538.777 136.688 538.941 136.848 539.054 137.055C539.167 137.258 539.224 137.502 539.224 137.787C539.224 137.994 539.185 138.188 539.107 138.367C539.033 138.547 538.925 138.727 538.785 138.906C538.644 139.086 538.472 139.279 538.269 139.486L537.478 140.342H539.365ZM541.234 138.402H541.662C541.806 138.402 541.925 138.375 542.019 138.32C542.117 138.266 542.189 138.191 542.236 138.098C542.283 138 542.306 137.889 542.306 137.764C542.306 137.592 542.259 137.447 542.166 137.33C542.076 137.213 541.927 137.154 541.72 137.154C541.552 137.154 541.414 137.203 541.304 137.301C541.199 137.398 541.146 137.531 541.146 137.699H540.273C540.273 137.434 540.335 137.205 540.46 137.014C540.589 136.818 540.761 136.668 540.976 136.562C541.191 136.457 541.433 136.404 541.703 136.404C541.996 136.404 542.251 136.455 542.47 136.557C542.693 136.654 542.867 136.801 542.992 136.996C543.117 137.191 543.179 137.432 543.179 137.717C543.179 137.924 543.126 138.115 543.021 138.291C542.916 138.463 542.761 138.602 542.558 138.707C542.355 138.809 542.107 138.859 541.814 138.859H541.234V138.402ZM541.234 139.076V138.619H541.814C542.146 138.619 542.417 138.666 542.628 138.76C542.839 138.854 542.994 138.988 543.091 139.164C543.193 139.34 543.244 139.553 543.244 139.803C543.244 140.088 543.175 140.332 543.039 140.535C542.906 140.738 542.722 140.893 542.488 140.998C542.257 141.104 541.996 141.156 541.703 141.156C541.453 141.156 541.214 141.109 540.988 141.016C540.761 140.918 540.578 140.768 540.437 140.564C540.296 140.361 540.226 140.102 540.226 139.785H541.099C541.099 139.961 541.156 140.109 541.269 140.23C541.386 140.348 541.541 140.406 541.732 140.406C541.939 140.406 542.097 140.346 542.207 140.225C542.316 140.104 542.371 139.947 542.371 139.756C542.371 139.592 542.341 139.461 542.283 139.363C542.228 139.262 542.148 139.189 542.042 139.146C541.937 139.1 541.81 139.076 541.662 139.076H541.234Z" fill="#C4C4C4"/>
<path d="M563.51 140.342V141.092H560.51V140.459L561.928 138.871C562.072 138.707 562.184 138.561 562.262 138.432C562.344 138.303 562.402 138.188 562.438 138.086C562.473 137.98 562.49 137.885 562.49 137.799C562.49 137.611 562.443 137.457 562.35 137.336C562.256 137.215 562.123 137.154 561.951 137.154C561.725 137.154 561.559 137.229 561.453 137.377C561.348 137.525 561.295 137.711 561.295 137.934H560.422C560.422 137.652 560.48 137.396 560.598 137.166C560.719 136.936 560.891 136.752 561.113 136.615C561.34 136.475 561.611 136.404 561.928 136.404C562.232 136.404 562.492 136.461 562.707 136.574C562.922 136.688 563.086 136.848 563.199 137.055C563.312 137.258 563.369 137.502 563.369 137.787C563.369 137.994 563.33 138.188 563.252 138.367C563.178 138.547 563.07 138.727 562.93 138.906C562.789 139.086 562.617 139.279 562.414 139.486L561.623 140.342H563.51ZM567.412 138.391V139.205C567.412 139.65 567.35 140.02 567.225 140.312C567.104 140.602 566.932 140.818 566.709 140.963C566.49 141.104 566.234 141.174 565.941 141.174C565.648 141.174 565.391 141.104 565.168 140.963C564.945 140.818 564.771 140.602 564.646 140.312C564.521 140.02 564.459 139.65 564.459 139.205V138.391C564.459 137.945 564.521 137.578 564.646 137.289C564.771 136.996 564.945 136.779 565.168 136.639C565.391 136.494 565.646 136.422 565.936 136.422C566.229 136.422 566.486 136.494 566.709 136.639C566.932 136.779 567.104 136.996 567.225 137.289C567.35 137.578 567.412 137.945 567.412 138.391ZM566.539 139.281V138.309C566.539 138.047 566.516 137.834 566.469 137.67C566.422 137.502 566.354 137.379 566.264 137.301C566.174 137.219 566.064 137.178 565.936 137.178C565.811 137.178 565.701 137.219 565.607 137.301C565.518 137.379 565.449 137.502 565.402 137.67C565.355 137.834 565.332 138.047 565.332 138.309V139.281C565.332 139.543 565.355 139.758 565.402 139.926C565.453 140.094 565.523 140.219 565.613 140.301C565.707 140.383 565.816 140.424 565.941 140.424C566.07 140.424 566.178 140.383 566.264 140.301C566.354 140.219 566.422 140.094 566.469 139.926C566.516 139.758 566.539 139.543 566.539 139.281ZM571.432 140.342V141.092H568.432V140.459L569.85 138.871C569.994 138.707 570.105 138.561 570.184 138.432C570.266 138.303 570.324 138.188 570.359 138.086C570.395 137.98 570.412 137.885 570.412 137.799C570.412 137.611 570.365 137.457 570.271 137.336C570.178 137.215 570.045 137.154 569.873 137.154C569.646 137.154 569.48 137.229 569.375 137.377C569.27 137.525 569.217 137.711 569.217 137.934H568.344C568.344 137.652 568.402 137.396 568.52 137.166C568.641 136.936 568.812 136.752 569.035 136.615C569.262 136.475 569.533 136.404 569.85 136.404C570.154 136.404 570.414 136.461 570.629 136.574C570.844 136.688 571.008 136.848 571.121 137.055C571.234 137.258 571.291 137.502 571.291 137.787C571.291 137.994 571.252 138.188 571.174 138.367C571.1 138.547 570.992 138.727 570.852 138.906C570.711 139.086 570.539 139.279 570.336 139.486L569.545 140.342H571.432ZM575.457 139.352V140.113H572.293L572.258 139.516L574.074 136.486H574.76L574.039 137.828L573.119 139.352H575.457ZM574.965 136.486V141.109H574.092V136.486H574.965Z" fill="#C4C4C4"/>
</svg>
