<svg width="599" height="285" viewBox="0 0 599 285" fill="none" xmlns="http://www.w3.org/2000/svg">
<g clip-path="url(#clip0_1374_1738)">
<path d="M34 19H605" stroke="#D2D2D2" stroke-dasharray="2 2"/>
<path d="M34 149H605" stroke="#D2D2D2" stroke-dasharray="2 2"/>
<path d="M34 106H605" stroke="#D2D2D2" stroke-dasharray="2 2"/>
<path d="M34 62H605" stroke="#D2D2D2" stroke-dasharray="2 2"/>
<path d="M34 193L599 193" stroke="#D2D2D2"/>
<path d="M61.5 144L180 141L301 159L423 171L546 90" stroke="#838383"/>
<circle cx="61.5" cy="144.5" r="2.5" fill="#838383"/>
<circle cx="61.5" cy="158.5" r="2.5" fill="#4155EE"/>
<circle cx="180.5" cy="128.5" r="2.5" fill="#4155EE"/>
<circle cx="300.5" cy="230.5" r="2.5" fill="#4155EE"/>
<circle cx="422.5" cy="238.5" r="2.5" fill="#4155EE"/>
<circle cx="545.5" cy="147.5" r="2.5" fill="#4155EE"/>
<circle cx="180.5" cy="141.5" r="2.5" fill="#838383"/>
<circle cx="300.5" cy="159.5" r="2.5" fill="#838383"/>
<circle cx="422.5" cy="171.5" r="2.5" fill="#838383"/>
<circle cx="545.5" cy="90.5" r="2.5" fill="#838383"/>
<path d="M546 147L422.5 239L300.5 230.5L180.5 128L60.5 158.5" stroke="#4155EE"/>
<path d="M27.5 235H598.5" stroke="#D2D2D2" stroke-dasharray="2 2"/>
<path d="M1 258L599 258" stroke="#D8D8D8"/>
<path d="M1.24259 238.81C1.62059 238 2.37659 237.28 3.51059 236.614L5.20259 235.642C5.95859 235.21 6.48059 234.832 6.78659 234.508C7.27259 234.04 7.50659 233.464 7.50659 232.852C7.50659 232.114 7.29059 231.52 6.85859 231.106C6.40859 230.674 5.83259 230.458 5.09459 230.458C4.01459 230.458 3.25859 230.872 2.84459 231.682C2.62859 232.132 2.50259 232.726 2.48459 233.518H0.864594C0.882594 232.42 1.09859 231.52 1.47659 230.836C2.16059 229.612 3.36659 229 5.11259 229C6.55259 229 7.59659 229.396 8.26259 230.17C8.92859 230.962 9.27059 231.826 9.27059 232.78C9.27059 233.788 8.91059 234.652 8.20859 235.354C7.79459 235.768 7.05659 236.29 5.99459 236.866L4.78859 237.532C4.21259 237.856 3.76259 238.162 3.43859 238.45C2.84459 238.954 2.48459 239.512 2.32259 240.142H9.19859V241.636H0.558594C0.630594 240.556 0.846594 239.602 1.24259 238.81Z" fill="#C4C4C4"/>
<path d="M8.40659 189.016C8.96459 190.042 9.25259 191.464 9.25259 193.264C9.25259 194.992 9.00059 196.396 8.47859 197.512C7.74059 199.132 6.53459 199.924 4.86059 199.924C3.34859 199.924 2.23259 199.258 1.49459 197.962C0.864594 196.864 0.558594 195.388 0.558594 193.552C0.558594 192.112 0.756594 190.888 1.11659 189.862C1.81859 187.954 3.06059 187 4.87859 187C6.49859 187 7.66859 187.666 8.40659 189.016ZM6.80459 197.386C7.29059 196.666 7.54259 195.316 7.54259 193.336C7.54259 191.896 7.36259 190.726 7.02059 189.808C6.66059 188.872 5.97659 188.422 4.96859 188.422C4.03259 188.422 3.36659 188.854 2.93459 189.736C2.50259 190.6 2.26859 191.896 2.26859 193.606C2.26859 194.884 2.41259 195.91 2.68259 196.702C3.11459 197.89 3.83459 198.484 4.86059 198.484C5.67059 198.484 6.33659 198.124 6.80459 197.386Z" fill="#C4C4C4"/>
<path d="M1.24259 152.81C1.62059 152 2.37659 151.28 3.51059 150.614L5.20259 149.642C5.95859 149.21 6.48059 148.832 6.78659 148.508C7.27259 148.04 7.50659 147.464 7.50659 146.852C7.50659 146.114 7.29059 145.52 6.85859 145.106C6.40859 144.674 5.83259 144.458 5.09459 144.458C4.01459 144.458 3.25859 144.872 2.84459 145.682C2.62859 146.132 2.50259 146.726 2.48459 147.518H0.864594C0.882594 146.42 1.09859 145.52 1.47659 144.836C2.16059 143.612 3.36659 143 5.11259 143C6.55259 143 7.59659 143.396 8.26259 144.17C8.92859 144.962 9.27059 145.826 9.27059 146.78C9.27059 147.788 8.91059 148.652 8.20859 149.354C7.79459 149.768 7.05659 150.29 5.99459 150.866L4.78859 151.532C4.21259 151.856 3.76259 152.162 3.43859 152.45C2.84459 152.954 2.48459 153.512 2.32259 154.142H9.19859V155.636H0.558594C0.630594 154.556 0.846594 153.602 1.24259 152.81Z" fill="#C4C4C4"/>
<path d="M0.449219 109.54V107.992L6.22722 100H7.55922V108.154H9.41322V109.54H7.55922V112.618H5.97522V109.54H0.449219ZM1.90722 108.154H5.95722V102.466L1.90722 108.154Z" fill="#C4C4C4"/>
<path d="M8.20759 57.08C8.76559 57.818 9.03559 58.574 9.03559 59.348H7.46959C7.37959 58.844 7.21759 58.466 7.01959 58.178C6.64159 57.656 6.06559 57.386 5.29159 57.386C4.40959 57.386 3.70759 57.782 3.18559 58.61C2.66359 59.42 2.37559 60.608 2.30359 62.12C2.66359 61.58 3.13159 61.184 3.68959 60.932C4.17559 60.698 4.75159 60.572 5.36359 60.572C6.42559 60.572 7.34359 60.914 8.13559 61.58C8.90959 62.264 9.30559 63.272 9.30559 64.604C9.30559 65.738 8.94559 66.764 8.18959 67.628C7.45159 68.528 6.38959 68.96 5.00359 68.96C3.83359 68.96 2.80759 68.51 1.96159 67.61C1.11559 66.728 0.683594 65.234 0.683594 63.11C0.683594 61.544 0.863594 60.212 1.24159 59.132C1.97959 57.044 3.32959 56 5.25559 56C6.67759 56 7.64959 56.36 8.20759 57.08ZM7.01959 66.71C7.43359 66.152 7.63159 65.504 7.63159 64.73C7.63159 64.1 7.45159 63.47 7.09159 62.894C6.71359 62.3 6.04759 62.012 5.07559 62.012C4.39159 62.012 3.79759 62.246 3.29359 62.696C2.77159 63.146 2.51959 63.83 2.51959 64.73C2.51959 65.54 2.75359 66.206 3.22159 66.746C3.68959 67.286 4.31959 67.556 5.14759 67.556C5.99359 67.556 6.60559 67.268 7.01959 66.71Z" fill="#C4C4C4"/>
<path d="M1.71017 18.256C1.24217 17.788 1.02617 17.176 1.02617 16.42C1.02617 15.484 1.36817 14.692 2.03417 14.008C2.71817 13.324 3.69017 13 4.93217 13C6.13817 13 7.09217 13.306 7.77617 13.954C8.46017 14.584 8.80217 15.322 8.80217 16.186C8.80217 16.96 8.60417 17.608 8.20817 18.094C7.97417 18.364 7.63217 18.634 7.16417 18.886C7.68617 19.138 8.10017 19.408 8.38817 19.714C8.94617 20.308 9.23417 21.064 9.23417 22C9.23417 23.116 8.85617 24.052 8.11817 24.826C7.36217 25.6 6.31817 25.978 4.95017 25.978C3.74417 25.978 2.70017 25.636 1.85417 24.97C1.00817 24.322 0.576172 23.35 0.576172 22.09C0.576172 21.334 0.756172 20.704 1.11617 20.146C1.49417 19.624 2.03417 19.21 2.73617 18.904C2.30417 18.724 1.96217 18.508 1.71017 18.256ZM6.53417 17.716C6.93017 17.338 7.12817 16.87 7.12817 16.33C7.12817 15.862 6.93017 15.43 6.55217 15.034C6.17417 14.638 5.61617 14.44 4.84217 14.44C4.08617 14.44 3.52817 14.638 3.18617 15.034C2.84417 15.43 2.68217 15.88 2.68217 16.42C2.68217 16.996 2.89817 17.464 3.34817 17.806C3.78017 18.13 4.30217 18.31 4.89617 18.31C5.59817 18.31 6.13817 18.112 6.53417 17.716ZM6.82217 23.944C7.30817 23.548 7.54217 22.954 7.54217 22.18C7.54217 21.352 7.29017 20.74 6.78617 20.326C6.30017 19.894 5.65217 19.678 4.87817 19.678C4.12217 19.678 3.51017 19.894 3.02417 20.326C2.55617 20.758 2.30417 21.352 2.30417 22.126C2.30417 22.774 2.53817 23.35 2.97017 23.818C3.40217 24.304 4.08617 24.538 4.98617 24.538C5.72417 24.538 6.33617 24.34 6.82217 23.944Z" fill="#C4C4C4"/>
<path d="M565.782 147.974C565.782 148.91 565.944 149.684 566.304 150.314C566.826 151.25 567.708 151.718 568.932 151.718C570.426 151.718 571.434 151.214 571.956 150.206C572.262 149.648 572.388 148.91 572.388 147.974V140H574.17V147.254C574.17 148.838 573.954 150.062 573.522 150.908C572.748 152.474 571.254 153.248 569.076 153.248C566.898 153.248 565.422 152.474 564.648 150.908C564.216 150.062 564 148.838 564 147.254V140H565.782V147.974Z" fill="#4155EE"/>
<path d="M587.286 152.906H585.36L584.064 149.036H578.952L577.548 152.906H575.766L580.626 140H582.606L587.286 152.906ZM579.456 147.614H583.488L581.526 141.908L579.456 147.614Z" fill="#4155EE"/>
<path d="M598.446 141.584H590.742V145.49H597.87V146.984H590.742V151.376H598.59V152.906H589.032V140H598.446V141.584Z" fill="#4155EE"/>
<path d="M565.782 91.298C565.782 92.234 565.944 93.008 566.304 93.638C566.826 94.574 567.708 95.042 568.932 95.042C570.426 95.042 571.434 94.538 571.956 93.53C572.262 92.972 572.388 92.234 572.388 91.298V83.324H574.17V90.578C574.17 92.162 573.954 93.386 573.522 94.232C572.748 95.798 571.254 96.572 569.076 96.572C566.898 96.572 565.422 95.798 564.648 94.232C564.216 93.386 564 92.162 564 90.578V83.324H565.782V91.298Z" fill="#838383"/>
<path d="M578.016 92.072C578.052 92.792 578.214 93.386 578.52 93.854C579.114 94.7 580.122 95.132 581.598 95.132C582.246 95.132 582.858 95.042 583.38 94.844C584.442 94.484 584.946 93.836 584.946 92.9C584.946 92.198 584.73 91.694 584.298 91.388C583.848 91.1 583.146 90.848 582.21 90.632L580.446 90.236C579.312 89.984 578.502 89.696 578.034 89.39C577.206 88.85 576.792 88.04 576.792 86.96C576.792 85.808 577.206 84.854 577.998 84.116C578.808 83.36 579.942 83 581.418 83C582.768 83 583.92 83.324 584.874 83.972C585.81 84.62 586.278 85.682 586.278 87.104H584.64C584.55 86.42 584.37 85.88 584.082 85.52C583.542 84.836 582.624 84.512 581.364 84.512C580.338 84.512 579.582 84.728 579.132 85.16C578.682 85.592 578.466 86.096 578.466 86.672C578.466 87.302 578.718 87.77 579.24 88.058C579.6 88.238 580.374 88.472 581.598 88.76L583.398 89.174C584.28 89.372 584.946 89.642 585.432 89.984C586.242 90.596 586.656 91.46 586.656 92.612C586.656 94.052 586.134 95.078 585.108 95.69C584.064 96.302 582.858 96.608 581.472 96.608C579.87 96.608 578.61 96.194 577.71 95.384C576.792 94.556 576.342 93.458 576.36 92.072H578.016Z" fill="#838383"/>
<path d="M599.292 96.23H597.366L596.07 92.36H590.958L589.554 96.23H587.772L592.632 83.324H594.612L599.292 96.23ZM591.462 90.938H595.494L593.532 85.232L591.462 90.938Z" fill="#838383"/>
<path d="M533.183 273.664V275H526.028V273.831L529.553 269.164C529.986 268.59 530.317 268.104 530.546 267.705C530.774 267.301 530.933 266.94 531.021 266.624C531.108 266.302 531.152 265.974 531.152 265.64C531.152 265.218 531.085 264.837 530.95 264.497C530.815 264.151 530.619 263.876 530.361 263.671C530.104 263.466 529.793 263.363 529.43 263.363C528.955 263.363 528.565 263.475 528.261 263.697C527.962 263.914 527.742 264.219 527.602 264.611C527.461 265.004 527.391 265.455 527.391 265.965H525.835C525.835 265.244 525.967 264.585 526.23 263.987C526.5 263.39 526.901 262.915 527.435 262.563C527.968 262.206 528.633 262.027 529.43 262.027C530.115 262.027 530.701 262.171 531.188 262.458C531.68 262.739 532.055 263.138 532.312 263.653C532.576 264.163 532.708 264.761 532.708 265.446C532.708 265.821 532.655 266.202 532.55 266.589C532.45 266.97 532.31 267.351 532.128 267.731C531.952 268.112 531.744 268.487 531.504 268.856C531.264 269.226 531.006 269.589 530.73 269.946L527.892 273.664H533.183ZM541.761 267.582V269.533C541.761 270.582 541.679 271.467 541.515 272.188C541.356 272.908 541.128 273.488 540.829 273.928C540.53 274.367 540.17 274.687 539.748 274.886C539.332 275.079 538.863 275.176 538.342 275.176C537.932 275.176 537.548 275.114 537.19 274.991C536.839 274.868 536.522 274.672 536.241 274.402C535.96 274.127 535.72 273.77 535.521 273.33C535.321 272.891 535.169 272.357 535.063 271.73C534.958 271.104 534.905 270.371 534.905 269.533V267.582C534.905 266.533 534.987 265.654 535.151 264.945C535.315 264.236 535.547 263.668 535.846 263.24C536.15 262.807 536.511 262.496 536.927 262.309C537.349 262.121 537.817 262.027 538.333 262.027C538.749 262.027 539.133 262.089 539.484 262.212C539.842 262.329 540.158 262.52 540.434 262.783C540.715 263.041 540.955 263.387 541.154 263.82C541.354 264.248 541.503 264.772 541.603 265.394C541.708 266.015 541.761 266.744 541.761 267.582ZM540.214 269.797V267.31C540.214 266.735 540.188 266.231 540.135 265.798C540.082 265.358 540.006 264.983 539.906 264.673C539.807 264.362 539.678 264.11 539.52 263.917C539.367 263.724 539.191 263.583 538.992 263.495C538.793 263.401 538.573 263.354 538.333 263.354C538.034 263.354 537.768 263.428 537.533 263.574C537.305 263.715 537.108 263.94 536.944 264.251C536.786 264.562 536.666 264.969 536.584 265.473C536.502 265.977 536.461 266.589 536.461 267.31V269.797C536.461 270.371 536.487 270.878 536.54 271.317C536.599 271.757 536.678 272.138 536.777 272.46C536.883 272.776 537.012 273.037 537.164 273.242C537.316 273.447 537.492 273.6 537.691 273.699C537.891 273.793 538.107 273.84 538.342 273.84C538.652 273.84 538.922 273.764 539.15 273.611C539.385 273.459 539.581 273.222 539.739 272.899C539.897 272.571 540.015 272.152 540.091 271.643C540.173 271.127 540.214 270.512 540.214 269.797ZM550.972 273.664V275H543.817V273.831L547.342 269.164C547.775 268.59 548.106 268.104 548.335 267.705C548.563 267.301 548.722 266.94 548.81 266.624C548.897 266.302 548.941 265.974 548.941 265.64C548.941 265.218 548.874 264.837 548.739 264.497C548.604 264.151 548.408 263.876 548.15 263.671C547.893 263.466 547.582 263.363 547.219 263.363C546.744 263.363 546.354 263.475 546.05 263.697C545.751 263.914 545.531 264.219 545.391 264.611C545.25 265.004 545.18 265.455 545.18 265.965H543.624C543.624 265.244 543.756 264.585 544.02 263.987C544.289 263.39 544.69 262.915 545.224 262.563C545.757 262.206 546.422 262.027 547.219 262.027C547.904 262.027 548.49 262.171 548.977 262.458C549.469 262.739 549.844 263.138 550.102 263.653C550.365 264.163 550.497 264.761 550.497 265.446C550.497 265.821 550.444 266.202 550.339 266.589C550.239 266.97 550.099 267.351 549.917 267.731C549.741 268.112 549.533 268.487 549.293 268.856C549.053 269.226 548.795 269.589 548.52 269.946L545.681 273.664H550.972ZM560.033 270.693V272.029H552.211V271.071L556.966 262.203H558.214L556.966 264.77L553.942 270.693H560.033ZM558.609 262.203V275H557.054V262.203H558.609Z" fill="#D8D8D8"/>
<path d="M410.183 273.664V275H403.028V273.831L406.553 269.164C406.986 268.59 407.317 268.104 407.546 267.705C407.774 267.301 407.933 266.94 408.021 266.624C408.108 266.302 408.152 265.974 408.152 265.64C408.152 265.218 408.085 264.837 407.95 264.497C407.815 264.151 407.619 263.876 407.361 263.671C407.104 263.466 406.793 263.363 406.43 263.363C405.955 263.363 405.565 263.475 405.261 263.697C404.962 263.914 404.742 264.219 404.602 264.611C404.461 265.004 404.391 265.455 404.391 265.965H402.835C402.835 265.244 402.967 264.585 403.23 263.987C403.5 263.39 403.901 262.915 404.435 262.563C404.968 262.206 405.633 262.027 406.43 262.027C407.115 262.027 407.701 262.171 408.188 262.458C408.68 262.739 409.055 263.138 409.312 263.653C409.576 264.163 409.708 264.761 409.708 265.446C409.708 265.821 409.655 266.202 409.55 266.589C409.45 266.97 409.31 267.351 409.128 267.731C408.952 268.112 408.744 268.487 408.504 268.856C408.264 269.226 408.006 269.589 407.73 269.946L404.892 273.664H410.183ZM418.761 267.582V269.533C418.761 270.582 418.679 271.467 418.515 272.188C418.356 272.908 418.128 273.488 417.829 273.928C417.53 274.367 417.17 274.687 416.748 274.886C416.332 275.079 415.863 275.176 415.342 275.176C414.932 275.176 414.548 275.114 414.19 274.991C413.839 274.868 413.522 274.672 413.241 274.402C412.96 274.127 412.72 273.77 412.521 273.33C412.321 272.891 412.169 272.357 412.063 271.73C411.958 271.104 411.905 270.371 411.905 269.533V267.582C411.905 266.533 411.987 265.654 412.151 264.945C412.315 264.236 412.547 263.668 412.846 263.24C413.15 262.807 413.511 262.496 413.927 262.309C414.349 262.121 414.817 262.027 415.333 262.027C415.749 262.027 416.133 262.089 416.484 262.212C416.842 262.329 417.158 262.52 417.434 262.783C417.715 263.041 417.955 263.387 418.154 263.82C418.354 264.248 418.503 264.772 418.603 265.394C418.708 266.015 418.761 266.744 418.761 267.582ZM417.214 269.797V267.31C417.214 266.735 417.188 266.231 417.135 265.798C417.082 265.358 417.006 264.983 416.906 264.673C416.807 264.362 416.678 264.11 416.52 263.917C416.367 263.724 416.191 263.583 415.992 263.495C415.793 263.401 415.573 263.354 415.333 263.354C415.034 263.354 414.768 263.428 414.533 263.574C414.305 263.715 414.108 263.94 413.944 264.251C413.786 264.562 413.666 264.969 413.584 265.473C413.502 265.977 413.461 266.589 413.461 267.31V269.797C413.461 270.371 413.487 270.878 413.54 271.317C413.599 271.757 413.678 272.138 413.777 272.46C413.883 272.776 414.012 273.037 414.164 273.242C414.316 273.447 414.492 273.6 414.691 273.699C414.891 273.793 415.107 273.84 415.342 273.84C415.652 273.84 415.922 273.764 416.15 273.611C416.385 273.459 416.581 273.222 416.739 272.899C416.897 272.571 417.015 272.152 417.091 271.643C417.173 271.127 417.214 270.512 417.214 269.797ZM427.972 273.664V275H420.817V273.831L424.342 269.164C424.775 268.59 425.106 268.104 425.335 267.705C425.563 267.301 425.722 266.94 425.81 266.624C425.897 266.302 425.941 265.974 425.941 265.64C425.941 265.218 425.874 264.837 425.739 264.497C425.604 264.151 425.408 263.876 425.15 263.671C424.893 263.466 424.582 263.363 424.219 263.363C423.744 263.363 423.354 263.475 423.05 263.697C422.751 263.914 422.531 264.219 422.391 264.611C422.25 265.004 422.18 265.455 422.18 265.965H420.624C420.624 265.244 420.756 264.585 421.02 263.987C421.289 263.39 421.69 262.915 422.224 262.563C422.757 262.206 423.422 262.027 424.219 262.027C424.904 262.027 425.49 262.171 425.977 262.458C426.469 262.739 426.844 263.138 427.102 263.653C427.365 264.163 427.497 264.761 427.497 265.446C427.497 265.821 427.444 266.202 427.339 266.589C427.239 266.97 427.099 267.351 426.917 267.731C426.741 268.112 426.533 268.487 426.293 268.856C426.053 269.226 425.795 269.589 425.52 269.946L422.681 273.664H427.972ZM431.707 267.802H432.709C433.154 267.802 433.523 267.708 433.816 267.521C434.109 267.327 434.326 267.066 434.467 266.738C434.613 266.404 434.687 266.029 434.687 265.613C434.687 265.121 434.622 264.708 434.493 264.374C434.364 264.04 434.171 263.788 433.913 263.618C433.661 263.448 433.342 263.363 432.955 263.363C432.592 263.363 432.275 263.454 432.006 263.636C431.736 263.812 431.528 264.063 431.382 264.392C431.235 264.72 431.162 265.106 431.162 265.552H429.615C429.615 264.901 429.75 264.31 430.02 263.776C430.295 263.243 430.682 262.818 431.18 262.502C431.684 262.186 432.275 262.027 432.955 262.027C433.605 262.027 434.177 262.165 434.669 262.44C435.161 262.71 435.545 263.114 435.82 263.653C436.102 264.187 436.242 264.852 436.242 265.648C436.242 265.971 436.181 266.316 436.058 266.686C435.94 267.049 435.75 267.389 435.486 267.705C435.229 268.021 434.889 268.282 434.467 268.487C434.051 268.687 433.541 268.786 432.938 268.786H431.707V267.802ZM431.707 269.138V268.162H432.938C433.652 268.162 434.235 268.259 434.687 268.452C435.138 268.646 435.486 268.903 435.732 269.226C435.979 269.548 436.148 269.902 436.242 270.289C436.342 270.67 436.392 271.051 436.392 271.432C436.392 272.029 436.304 272.56 436.128 273.022C435.958 273.485 435.715 273.878 435.398 274.2C435.088 274.522 434.725 274.766 434.309 274.93C433.893 275.094 433.438 275.176 432.946 275.176C432.466 275.176 432.021 275.097 431.61 274.938C431.2 274.78 430.84 274.552 430.529 274.253C430.219 273.948 429.976 273.576 429.8 273.137C429.63 272.691 429.545 272.185 429.545 271.616H431.101C431.101 272.062 431.174 272.451 431.32 272.785C431.467 273.119 431.678 273.38 431.953 273.567C432.229 273.749 432.56 273.84 432.946 273.84C433.333 273.84 433.667 273.755 433.948 273.585C434.229 273.409 434.446 273.146 434.599 272.794C434.757 272.442 434.836 272 434.836 271.467C434.836 270.934 434.748 270.497 434.572 270.157C434.402 269.812 434.159 269.557 433.843 269.393C433.526 269.223 433.148 269.138 432.709 269.138H431.707Z" fill="#D8D8D8"/>
<path d="M287.183 273.664V275H280.028V273.831L283.553 269.164C283.986 268.59 284.317 268.104 284.546 267.705C284.774 267.301 284.933 266.94 285.021 266.624C285.108 266.302 285.152 265.974 285.152 265.64C285.152 265.218 285.085 264.837 284.95 264.497C284.815 264.151 284.619 263.876 284.361 263.671C284.104 263.466 283.793 263.363 283.43 263.363C282.955 263.363 282.565 263.475 282.261 263.697C281.962 263.914 281.742 264.219 281.602 264.611C281.461 265.004 281.391 265.455 281.391 265.965H279.835C279.835 265.244 279.967 264.585 280.23 263.987C280.5 263.39 280.901 262.915 281.435 262.563C281.968 262.206 282.633 262.027 283.43 262.027C284.115 262.027 284.701 262.171 285.188 262.458C285.68 262.739 286.055 263.138 286.312 263.653C286.576 264.163 286.708 264.761 286.708 265.446C286.708 265.821 286.655 266.202 286.55 266.589C286.45 266.97 286.31 267.351 286.128 267.731C285.952 268.112 285.744 268.487 285.504 268.856C285.264 269.226 285.006 269.589 284.73 269.946L281.892 273.664H287.183ZM295.761 267.582V269.533C295.761 270.582 295.679 271.467 295.515 272.188C295.356 272.908 295.128 273.488 294.829 273.928C294.53 274.367 294.17 274.687 293.748 274.886C293.332 275.079 292.863 275.176 292.342 275.176C291.932 275.176 291.548 275.114 291.19 274.991C290.839 274.868 290.522 274.672 290.241 274.402C289.96 274.127 289.72 273.77 289.521 273.33C289.321 272.891 289.169 272.357 289.063 271.73C288.958 271.104 288.905 270.371 288.905 269.533V267.582C288.905 266.533 288.987 265.654 289.151 264.945C289.315 264.236 289.547 263.668 289.846 263.24C290.15 262.807 290.511 262.496 290.927 262.309C291.349 262.121 291.817 262.027 292.333 262.027C292.749 262.027 293.133 262.089 293.484 262.212C293.842 262.329 294.158 262.52 294.434 262.783C294.715 263.041 294.955 263.387 295.154 263.82C295.354 264.248 295.503 264.772 295.603 265.394C295.708 266.015 295.761 266.744 295.761 267.582ZM294.214 269.797V267.31C294.214 266.735 294.188 266.231 294.135 265.798C294.082 265.358 294.006 264.983 293.906 264.673C293.807 264.362 293.678 264.11 293.52 263.917C293.367 263.724 293.191 263.583 292.992 263.495C292.793 263.401 292.573 263.354 292.333 263.354C292.034 263.354 291.768 263.428 291.533 263.574C291.305 263.715 291.108 263.94 290.944 264.251C290.786 264.562 290.666 264.969 290.584 265.473C290.502 265.977 290.461 266.589 290.461 267.31V269.797C290.461 270.371 290.487 270.878 290.54 271.317C290.599 271.757 290.678 272.138 290.777 272.46C290.883 272.776 291.012 273.037 291.164 273.242C291.316 273.447 291.492 273.6 291.691 273.699C291.891 273.793 292.107 273.84 292.342 273.84C292.652 273.84 292.922 273.764 293.15 273.611C293.385 273.459 293.581 273.222 293.739 272.899C293.897 272.571 294.015 272.152 294.091 271.643C294.173 271.127 294.214 270.512 294.214 269.797ZM304.972 273.664V275H297.817V273.831L301.342 269.164C301.775 268.59 302.106 268.104 302.335 267.705C302.563 267.301 302.722 266.94 302.81 266.624C302.897 266.302 302.941 265.974 302.941 265.64C302.941 265.218 302.874 264.837 302.739 264.497C302.604 264.151 302.408 263.876 302.15 263.671C301.893 263.466 301.582 263.363 301.219 263.363C300.744 263.363 300.354 263.475 300.05 263.697C299.751 263.914 299.531 264.219 299.391 264.611C299.25 265.004 299.18 265.455 299.18 265.965H297.624C297.624 265.244 297.756 264.585 298.02 263.987C298.289 263.39 298.69 262.915 299.224 262.563C299.757 262.206 300.422 262.027 301.219 262.027C301.904 262.027 302.49 262.171 302.977 262.458C303.469 262.739 303.844 263.138 304.102 263.653C304.365 264.163 304.497 264.761 304.497 265.446C304.497 265.821 304.444 266.202 304.339 266.589C304.239 266.97 304.099 267.351 303.917 267.731C303.741 268.112 303.533 268.487 303.293 268.856C303.053 269.226 302.795 269.589 302.52 269.946L299.681 273.664H304.972ZM313.866 273.664V275H306.712V273.831L310.236 269.164C310.67 268.59 311.001 268.104 311.229 267.705C311.458 267.301 311.616 266.94 311.704 266.624C311.792 266.302 311.836 265.974 311.836 265.64C311.836 265.218 311.769 264.837 311.634 264.497C311.499 264.151 311.303 263.876 311.045 263.671C310.787 263.466 310.477 263.363 310.113 263.363C309.639 263.363 309.249 263.475 308.944 263.697C308.646 263.914 308.426 264.219 308.285 264.611C308.145 265.004 308.074 265.455 308.074 265.965H306.519C306.519 265.244 306.65 264.585 306.914 263.987C307.184 263.39 307.585 262.915 308.118 262.563C308.651 262.206 309.316 262.027 310.113 262.027C310.799 262.027 311.385 262.171 311.871 262.458C312.363 262.739 312.738 263.138 312.996 263.653C313.26 264.163 313.392 264.761 313.392 265.446C313.392 265.821 313.339 266.202 313.233 266.589C313.134 266.97 312.993 267.351 312.812 267.731C312.636 268.112 312.428 268.487 312.188 268.856C311.947 269.226 311.689 269.589 311.414 269.946L308.575 273.664H313.866Z" fill="#D8D8D8"/>
<path d="M168.183 273.664V275H161.028V273.831L164.553 269.164C164.986 268.59 165.317 268.104 165.546 267.705C165.774 267.301 165.933 266.94 166.021 266.624C166.108 266.302 166.152 265.974 166.152 265.64C166.152 265.218 166.085 264.837 165.95 264.497C165.815 264.151 165.619 263.876 165.361 263.671C165.104 263.466 164.793 263.363 164.43 263.363C163.955 263.363 163.565 263.475 163.261 263.697C162.962 263.914 162.742 264.219 162.602 264.611C162.461 265.004 162.391 265.455 162.391 265.965H160.835C160.835 265.244 160.967 264.585 161.23 263.987C161.5 263.39 161.901 262.915 162.435 262.563C162.968 262.206 163.633 262.027 164.43 262.027C165.115 262.027 165.701 262.171 166.188 262.458C166.68 262.739 167.055 263.138 167.312 263.653C167.576 264.163 167.708 264.761 167.708 265.446C167.708 265.821 167.655 266.202 167.55 266.589C167.45 266.97 167.31 267.351 167.128 267.731C166.952 268.112 166.744 268.487 166.504 268.856C166.264 269.226 166.006 269.589 165.73 269.946L162.892 273.664H168.183ZM176.761 267.582V269.533C176.761 270.582 176.679 271.467 176.515 272.188C176.356 272.908 176.128 273.488 175.829 273.928C175.53 274.367 175.17 274.687 174.748 274.886C174.332 275.079 173.863 275.176 173.342 275.176C172.932 275.176 172.548 275.114 172.19 274.991C171.839 274.868 171.522 274.672 171.241 274.402C170.96 274.127 170.72 273.77 170.521 273.33C170.321 272.891 170.169 272.357 170.063 271.73C169.958 271.104 169.905 270.371 169.905 269.533V267.582C169.905 266.533 169.987 265.654 170.151 264.945C170.315 264.236 170.547 263.668 170.846 263.24C171.15 262.807 171.511 262.496 171.927 262.309C172.349 262.121 172.817 262.027 173.333 262.027C173.749 262.027 174.133 262.089 174.484 262.212C174.842 262.329 175.158 262.52 175.434 262.783C175.715 263.041 175.955 263.387 176.154 263.82C176.354 264.248 176.503 264.772 176.603 265.394C176.708 266.015 176.761 266.744 176.761 267.582ZM175.214 269.797V267.31C175.214 266.735 175.188 266.231 175.135 265.798C175.082 265.358 175.006 264.983 174.906 264.673C174.807 264.362 174.678 264.11 174.52 263.917C174.367 263.724 174.191 263.583 173.992 263.495C173.793 263.401 173.573 263.354 173.333 263.354C173.034 263.354 172.768 263.428 172.533 263.574C172.305 263.715 172.108 263.94 171.944 264.251C171.786 264.562 171.666 264.969 171.584 265.473C171.502 265.977 171.461 266.589 171.461 267.31V269.797C171.461 270.371 171.487 270.878 171.54 271.317C171.599 271.757 171.678 272.138 171.777 272.46C171.883 272.776 172.012 273.037 172.164 273.242C172.316 273.447 172.492 273.6 172.691 273.699C172.891 273.793 173.107 273.84 173.342 273.84C173.652 273.84 173.922 273.764 174.15 273.611C174.385 273.459 174.581 273.222 174.739 272.899C174.897 272.571 175.015 272.152 175.091 271.643C175.173 271.127 175.214 270.512 175.214 269.797ZM185.972 273.664V275H178.817V273.831L182.342 269.164C182.775 268.59 183.106 268.104 183.335 267.705C183.563 267.301 183.722 266.94 183.81 266.624C183.897 266.302 183.941 265.974 183.941 265.64C183.941 265.218 183.874 264.837 183.739 264.497C183.604 264.151 183.408 263.876 183.15 263.671C182.893 263.466 182.582 263.363 182.219 263.363C181.744 263.363 181.354 263.475 181.05 263.697C180.751 263.914 180.531 264.219 180.391 264.611C180.25 265.004 180.18 265.455 180.18 265.965H178.624C178.624 265.244 178.756 264.585 179.02 263.987C179.289 263.39 179.69 262.915 180.224 262.563C180.757 262.206 181.422 262.027 182.219 262.027C182.904 262.027 183.49 262.171 183.977 262.458C184.469 262.739 184.844 263.138 185.102 263.653C185.365 264.163 185.497 264.761 185.497 265.446C185.497 265.821 185.444 266.202 185.339 266.589C185.239 266.97 185.099 267.351 184.917 267.731C184.741 268.112 184.533 268.487 184.293 268.856C184.053 269.226 183.795 269.589 183.52 269.946L180.681 273.664H185.972ZM192.344 262.133V275H190.788V264.163L188.099 265.358V263.891L192.106 262.133H192.344Z" fill="#D8D8D8"/>
<path d="M48.1826 273.664V275H41.0283V273.831L44.5527 269.164C44.9863 268.59 45.3174 268.104 45.5459 267.705C45.7744 267.301 45.9326 266.94 46.0205 266.624C46.1084 266.302 46.1523 265.974 46.1523 265.64C46.1523 265.218 46.085 264.837 45.9502 264.497C45.8154 264.151 45.6191 263.876 45.3613 263.671C45.1035 263.466 44.793 263.363 44.4297 263.363C43.9551 263.363 43.5654 263.475 43.2607 263.697C42.9619 263.914 42.7422 264.219 42.6016 264.611C42.4609 265.004 42.3906 265.455 42.3906 265.965H40.835C40.835 265.244 40.9668 264.585 41.2305 263.987C41.5 263.39 41.9014 262.915 42.4346 262.563C42.9678 262.206 43.6328 262.027 44.4297 262.027C45.1152 262.027 45.7012 262.171 46.1875 262.458C46.6797 262.739 47.0547 263.138 47.3125 263.653C47.5762 264.163 47.708 264.761 47.708 265.446C47.708 265.821 47.6553 266.202 47.5498 266.589C47.4502 266.97 47.3096 267.351 47.1279 267.731C46.9521 268.112 46.7441 268.487 46.5039 268.856C46.2637 269.226 46.0059 269.589 45.7305 269.946L42.8916 273.664H48.1826ZM56.7607 267.582V269.533C56.7607 270.582 56.6787 271.467 56.5146 272.188C56.3564 272.908 56.1279 273.488 55.8291 273.928C55.5303 274.367 55.1699 274.687 54.748 274.886C54.332 275.079 53.8633 275.176 53.3418 275.176C52.9316 275.176 52.5479 275.114 52.1904 274.991C51.8389 274.868 51.5225 274.672 51.2412 274.402C50.96 274.127 50.7197 273.77 50.5205 273.33C50.3213 272.891 50.1689 272.357 50.0635 271.73C49.958 271.104 49.9053 270.371 49.9053 269.533V267.582C49.9053 266.533 49.9873 265.654 50.1514 264.945C50.3154 264.236 50.5469 263.668 50.8457 263.24C51.1504 262.807 51.5107 262.496 51.9268 262.309C52.3486 262.121 52.8174 262.027 53.333 262.027C53.749 262.027 54.1328 262.089 54.4844 262.212C54.8418 262.329 55.1582 262.52 55.4336 262.783C55.7148 263.041 55.9551 263.387 56.1543 263.82C56.3535 264.248 56.5029 264.772 56.6025 265.394C56.708 266.015 56.7607 266.744 56.7607 267.582ZM55.2139 269.797V267.31C55.2139 266.735 55.1875 266.231 55.1348 265.798C55.082 265.358 55.0059 264.983 54.9062 264.673C54.8066 264.362 54.6777 264.11 54.5195 263.917C54.3672 263.724 54.1914 263.583 53.9922 263.495C53.793 263.401 53.5732 263.354 53.333 263.354C53.0342 263.354 52.7676 263.428 52.5332 263.574C52.3047 263.715 52.1084 263.94 51.9443 264.251C51.7861 264.562 51.666 264.969 51.584 265.473C51.502 265.977 51.4609 266.589 51.4609 267.31V269.797C51.4609 270.371 51.4873 270.878 51.54 271.317C51.5986 271.757 51.6777 272.138 51.7773 272.46C51.8828 272.776 52.0117 273.037 52.1641 273.242C52.3164 273.447 52.4922 273.6 52.6914 273.699C52.8906 273.793 53.1074 273.84 53.3418 273.84C53.6523 273.84 53.9219 273.764 54.1504 273.611C54.3848 273.459 54.5811 273.222 54.7393 272.899C54.8975 272.571 55.0146 272.152 55.0908 271.643C55.1729 271.127 55.2139 270.512 55.2139 269.797ZM65.9717 273.664V275H58.8174V273.831L62.3418 269.164C62.7754 268.59 63.1064 268.104 63.335 267.705C63.5635 267.301 63.7217 266.94 63.8096 266.624C63.8975 266.302 63.9414 265.974 63.9414 265.64C63.9414 265.218 63.874 264.837 63.7393 264.497C63.6045 264.151 63.4082 263.876 63.1504 263.671C62.8926 263.466 62.582 263.363 62.2188 263.363C61.7441 263.363 61.3545 263.475 61.0498 263.697C60.751 263.914 60.5312 264.219 60.3906 264.611C60.25 265.004 60.1797 265.455 60.1797 265.965H58.624C58.624 265.244 58.7559 264.585 59.0195 263.987C59.2891 263.39 59.6904 262.915 60.2236 262.563C60.7568 262.206 61.4219 262.027 62.2188 262.027C62.9043 262.027 63.4902 262.171 63.9766 262.458C64.4688 262.739 64.8438 263.138 65.1016 263.653C65.3652 264.163 65.4971 264.761 65.4971 265.446C65.4971 265.821 65.4443 266.202 65.3389 266.589C65.2393 266.97 65.0986 267.351 64.917 267.731C64.7412 268.112 64.5332 268.487 64.293 268.856C64.0527 269.226 63.7949 269.589 63.5195 269.946L60.6807 273.664H65.9717ZM74.5498 267.582V269.533C74.5498 270.582 74.4678 271.467 74.3037 272.188C74.1455 272.908 73.917 273.488 73.6182 273.928C73.3193 274.367 72.959 274.687 72.5371 274.886C72.1211 275.079 71.6523 275.176 71.1309 275.176C70.7207 275.176 70.3369 275.114 69.9795 274.991C69.6279 274.868 69.3115 274.672 69.0303 274.402C68.749 274.127 68.5088 273.77 68.3096 273.33C68.1104 272.891 67.958 272.357 67.8525 271.73C67.7471 271.104 67.6943 270.371 67.6943 269.533V267.582C67.6943 266.533 67.7764 265.654 67.9404 264.945C68.1045 264.236 68.3359 263.668 68.6348 263.24C68.9395 262.807 69.2998 262.496 69.7158 262.309C70.1377 262.121 70.6064 262.027 71.1221 262.027C71.5381 262.027 71.9219 262.089 72.2734 262.212C72.6309 262.329 72.9473 262.52 73.2227 262.783C73.5039 263.041 73.7441 263.387 73.9434 263.82C74.1426 264.248 74.292 264.772 74.3916 265.394C74.4971 266.015 74.5498 266.744 74.5498 267.582ZM73.0029 269.797V267.31C73.0029 266.735 72.9766 266.231 72.9238 265.798C72.8711 265.358 72.7949 264.983 72.6953 264.673C72.5957 264.362 72.4668 264.11 72.3086 263.917C72.1562 263.724 71.9805 263.583 71.7812 263.495C71.582 263.401 71.3623 263.354 71.1221 263.354C70.8232 263.354 70.5566 263.428 70.3223 263.574C70.0938 263.715 69.8975 263.94 69.7334 264.251C69.5752 264.562 69.4551 264.969 69.373 265.473C69.291 265.977 69.25 266.589 69.25 267.31V269.797C69.25 270.371 69.2764 270.878 69.3291 271.317C69.3877 271.757 69.4668 272.138 69.5664 272.46C69.6719 272.776 69.8008 273.037 69.9531 273.242C70.1055 273.447 70.2812 273.6 70.4805 273.699C70.6797 273.793 70.8965 273.84 71.1309 273.84C71.4414 273.84 71.7109 273.764 71.9395 273.611C72.1738 273.459 72.3701 273.222 72.5283 272.899C72.6865 272.571 72.8037 272.152 72.8799 271.643C72.9619 271.127 73.0029 270.512 73.0029 269.797Z" fill="#D8D8D8"/>
</g>
<defs>
<clipPath id="clip0_1374_1738">
<rect width="599" height="285" fill="white"/>
</clipPath>
</defs>
</svg>
