<svg width="24" height="24" viewBox="0 0 24 24" fill="none" xmlns="http://www.w3.org/2000/svg">
<g clip-path="url(#clip0_1414_2041)">
<path d="M1.5 19C1.77614 19 2 18.7761 2 18.5V8.5C2 8.22386 1.77614 8 1.5 8C1.22386 8 1 7.77614 1 7.5V6.5C1 6.22386 1.22386 6 1.5 6H3.5C3.77614 6 4 5.77614 4 5.5V4C4 3.73478 4.10536 3.48043 4.29289 3.29289C4.48043 3.10536 4.73478 3 5 3H19C19.2652 3 19.5196 3.10536 19.7071 3.29289C19.8946 3.48043 20 3.73478 20 4V5.5C20 5.77614 20.2239 6 20.5 6H22.5C22.7761 6 23 6.22386 23 6.5V7.5C23 7.77614 22.7761 8 22.5 8C22.2239 8 22 8.22386 22 8.5V18.5C22 18.7761 22.2239 19 22.5 19C22.7761 19 23 19.2239 23 19.5V20.5C23 20.7761 22.7761 21 22.5 21H1.5C1.22386 21 1 20.7761 1 20.5V19.5C1 19.2239 1.22386 19 1.5 19ZM12.5 19C12.7761 19 13 18.7761 13 18.5V12.5C13 12.2239 12.7761 12 12.5 12H11.5C11.2239 12 11 12.2239 11 12.5V18.5C11 18.7761 11.2239 19 11.5 19H12.5ZM7.5 19C7.77614 19 8 18.7761 8 18.5V12.5C8 12.2239 7.77614 12 7.5 12H6.5C6.22386 12 6 12.2239 6 12.5V18.5C6 18.7761 6.22386 19 6.5 19H7.5ZM17.5 19C17.7761 19 18 18.7761 18 18.5V12.5C18 12.2239 17.7761 12 17.5 12H16.5C16.2239 12 16 12.2239 16 12.5V18.5C16 18.7761 16.2239 19 16.5 19H17.5ZM6.5 5C6.22386 5 6 5.22386 6 5.5C6 5.77614 6.22386 6 6.5 6H17.5C17.7761 6 18 5.77614 18 5.5C18 5.22386 17.7761 5 17.5 5H6.5Z" fill="#DBA77B"/>
</g>
<defs>
<clipPath id="clip0_1414_2041">
<rect width="24" height="24" fill="white"/>
</clipPath>
</defs>
</svg>
