<svg width="150" height="150" viewBox="0 0 150 150" fill="none" xmlns="http://www.w3.org/2000/svg">
<g opacity="0.1">
<path fill-rule="evenodd" clip-rule="evenodd" d="M32.4891 20.6199C36.2529 12.5 49.1686 12.5 75 12.5C100.831 12.5 113.747 12.5 117.511 20.6199C117.834 21.3179 118.107 22.0428 118.327 22.7881C120.884 31.4581 111.751 41.5069 93.4856 61.6046L81.25 75L93.4856 88.3954C111.751 108.493 120.884 118.542 118.327 127.212C118.107 127.957 117.834 128.682 117.511 129.38C113.747 137.5 100.831 137.5 75 137.5C49.1686 137.5 36.2529 137.5 32.4891 129.38C32.1655 128.682 31.8926 127.957 31.6728 127.212C29.116 118.542 38.2488 108.493 56.5144 88.3954L68.75 75L56.5144 61.6046C38.2488 41.5069 29.116 31.4581 31.6728 22.7881C31.8926 22.0428 32.1655 21.3179 32.4891 20.6199ZM62.5 110.938C59.9112 110.938 57.8125 113.036 57.8125 115.625C57.8125 118.214 59.9112 120.312 62.5 120.312H87.5C90.0888 120.312 92.1875 118.214 92.1875 115.625C92.1875 113.036 90.0888 110.938 87.5 110.938H62.5ZM57.8125 34.375C57.8125 31.7862 59.9112 29.6875 62.5 29.6875H87.5C90.0888 29.6875 92.1875 31.7862 92.1875 34.375C92.1875 36.9638 90.0888 39.0625 87.5 39.0625H62.5C59.9112 39.0625 57.8125 36.9638 57.8125 34.375Z" fill="#191C38"/>
</g>
</svg>
