<svg width="150" height="150" viewBox="0 0 150 150" fill="none" xmlns="http://www.w3.org/2000/svg">
<g opacity="0.1">
<path fill-rule="evenodd" clip-rule="evenodd" d="M12.5 75V50C12.5 32.3223 12.5 23.4835 17.9917 17.9917C23.4835 12.5 32.3223 12.5 50 12.5H100C117.678 12.5 126.517 12.5 132.008 17.9917C137.5 23.4835 137.5 32.3223 137.5 50V75C137.5 92.6777 137.5 101.517 132.008 107.008C127.968 111.048 122.117 112.116 112.269 112.399C112.246 107.8 110.648 103.207 107.476 99.4847C107.296 99.2742 107.188 99.0124 107.166 98.7367C106.382 88.9149 98.5828 81.1156 88.7611 80.3318C88.4853 80.3098 88.2236 80.2014 88.013 80.022C80.5138 73.6312 69.4839 73.6312 61.9847 80.022C61.7742 80.2014 61.5124 80.3098 61.2367 80.3318C51.4149 81.1156 43.6156 88.9149 42.8318 98.7367C42.8098 99.0124 42.7014 99.2742 42.522 99.4847C39.3497 103.207 37.7521 107.8 37.7291 112.398C27.8819 112.116 22.0313 111.048 17.9917 107.008C12.5 101.516 12.5 92.6777 12.5 75ZM51.5625 37.5C51.5625 34.9112 53.6612 32.8125 56.25 32.8125H93.75C96.3388 32.8125 98.4375 34.9112 98.4375 37.5C98.4375 40.0888 96.3388 42.1875 93.75 42.1875H56.25C53.6612 42.1875 51.5625 40.0888 51.5625 37.5ZM43.75 54.6875C41.1612 54.6875 39.0625 56.7862 39.0625 59.375C39.0625 61.9638 41.1612 64.0625 43.75 64.0625H106.25C108.839 64.0625 110.938 61.9638 110.938 59.375C110.938 56.7862 108.839 54.6875 106.25 54.6875H43.75Z" fill="#191C38"/>
<path fill-rule="evenodd" clip-rule="evenodd" d="M81.9322 87.1574C77.937 83.7527 72.0607 83.7527 68.0655 87.1574C66.3534 88.6165 64.2247 89.4982 61.9824 89.6771C56.7498 90.0947 52.5947 94.2498 52.1771 99.4824C51.9982 101.725 51.1165 103.853 49.6574 105.565C46.2527 109.561 46.2527 115.437 49.6574 119.432C51.1165 121.144 51.9982 123.273 52.1771 125.515C52.5947 130.748 56.7498 134.903 61.9824 135.321C64.2247 135.5 66.3534 136.381 68.0655 137.84C72.0607 141.245 77.937 141.245 81.9322 137.84C83.6443 136.381 85.773 135.5 88.0153 135.321C93.2479 134.903 97.403 130.748 97.8206 125.515C97.9995 123.273 98.8813 121.144 100.34 119.432C103.745 115.437 103.745 109.561 100.34 105.565C98.8813 103.853 97.9995 101.725 97.8206 99.4824C97.403 94.2498 93.2479 90.0947 88.0153 89.6771C85.773 89.4982 83.6443 88.6165 81.9322 87.1574ZM87.5734 109.677C89.466 107.91 89.5682 104.944 87.8018 103.052C86.0354 101.159 83.0692 101.057 81.1767 102.823L70.9822 112.338L68.8234 110.323C66.9308 108.557 63.9646 108.659 62.1982 110.552C60.4318 112.444 60.5341 115.41 62.4267 117.177L67.7838 122.177C69.5848 123.858 72.3796 123.858 74.1805 122.177L87.5734 109.677Z" fill="#191C38"/>
</g>
</svg>
