<svg width="150" height="150" viewBox="0 0 150 150" fill="none" xmlns="http://www.w3.org/2000/svg">
<g opacity="0.1">
<path d="M75 62.5C88.8071 62.5 100 51.3071 100 37.5C100 23.6929 88.8071 12.5 75 12.5C61.1929 12.5 50 23.6929 50 37.5C50 51.3071 61.1929 62.5 75 62.5Z" fill="#191C38"/>
<path d="M50.0005 76.5625C36.9315 76.5625 25.9313 86.3444 24.4043 99.3239L20.3451 133.827C20.0426 136.398 21.8817 138.728 24.4528 139.03C27.0239 139.333 29.3534 137.494 29.6558 134.923L33.7151 100.419C34.4968 93.7745 39.1808 88.4469 45.313 86.6189L45.3129 112.825C45.3128 118.441 45.3126 123.123 45.8124 126.841C46.3399 130.764 47.5004 134.307 50.3471 137.153C53.1937 140 56.7362 141.161 60.66 141.688C64.3773 142.188 69.0599 142.188 74.6753 142.188H75.3254C80.9408 142.188 85.6236 142.188 89.3409 141.688C93.2647 141.161 96.8072 140 99.6538 137.153C102.501 134.307 103.661 130.764 104.189 126.841C104.688 123.123 104.688 118.441 104.688 112.825L104.688 86.6189C110.82 88.4469 115.504 93.7745 116.286 100.419L120.345 134.923C120.648 137.494 122.977 139.333 125.548 139.03C128.119 138.728 129.958 136.398 129.656 133.827L125.597 99.3239C124.07 86.3444 113.069 76.5625 100 76.5625H50.0005Z" fill="#191C38"/>
</g>
</svg>
