<svg width="150" height="150" viewBox="0 0 150 150" fill="none" xmlns="http://www.w3.org/2000/svg">
<g opacity="0.1">
<path fill-rule="evenodd" clip-rule="evenodd" d="M25 31.2498V118.75C25 129.105 33.3947 137.5 43.75 137.5H106.25C116.605 137.5 125 129.105 125 118.75V56.2498C125 45.8944 116.605 37.4998 106.25 37.4998H31.25C27.7982 37.4998 25 34.7015 25 31.2498ZM45.3125 74.9998C45.3125 72.4109 47.4112 70.3123 50 70.3123H100C102.589 70.3123 104.688 72.4109 104.688 74.9998C104.688 77.5886 102.589 79.6873 100 79.6873H50C47.4112 79.6873 45.3125 77.5886 45.3125 74.9998ZM45.3125 96.8748C45.3125 94.2859 47.4112 92.1873 50 92.1873H84.375C86.9638 92.1873 89.0625 94.2859 89.0625 96.8748C89.0625 99.4636 86.9638 101.562 84.375 101.562H50C47.4112 101.562 45.3125 99.4636 45.3125 96.8748Z" fill="#191C38"/>
<path d="M27.5549 25.5441C29.7329 26.5209 31.25 28.7082 31.25 31.2498H106.25C108.408 31.2498 110.502 31.5232 112.5 32.0374V26.9125C112.5 19.3056 105.763 13.4624 98.2322 14.5381L30.7475 24.1788C29.5445 24.3507 28.4544 24.8356 27.5549 25.5441Z" fill="#191C38"/>
</g>
</svg>
