<svg width="25" height="24" viewBox="0 0 25 24" fill="none" xmlns="http://www.w3.org/2000/svg">
<g id="Group">
<path id="Vector" d="M2.16699 19C2.44313 19 2.66699 18.7761 2.66699 18.5V8.5C2.66699 8.22386 2.44313 8 2.16699 8C1.89085 8 1.66699 7.77614 1.66699 7.5V6.5C1.66699 6.22386 1.89085 6 2.16699 6H4.16699C4.44313 6 4.66699 5.77614 4.66699 5.5V4C4.66699 3.73478 4.77235 3.48043 4.95989 3.29289C5.14742 3.10536 5.40178 3 5.66699 3H19.667C19.9322 3 20.1866 3.10536 20.3741 3.29289C20.5616 3.48043 20.667 3.73478 20.667 4V5.5C20.667 5.77614 20.8909 6 21.167 6H23.167C23.4431 6 23.667 6.22386 23.667 6.5V7.5C23.667 7.77614 23.4431 8 23.167 8C22.8909 8 22.667 8.22386 22.667 8.5V18.5C22.667 18.7761 22.8909 19 23.167 19C23.4431 19 23.667 19.2239 23.667 19.5V20.5C23.667 20.7761 23.4431 21 23.167 21H2.16699C1.89085 21 1.66699 20.7761 1.66699 20.5V19.5C1.66699 19.2239 1.89085 19 2.16699 19ZM13.167 19C13.4431 19 13.667 18.7761 13.667 18.5V12.5C13.667 12.2239 13.4431 12 13.167 12H12.167C11.8909 12 11.667 12.2239 11.667 12.5V18.5C11.667 18.7761 11.8909 19 12.167 19H13.167ZM8.16699 19C8.44313 19 8.66699 18.7761 8.66699 18.5V12.5C8.66699 12.2239 8.44313 12 8.16699 12H7.16699C6.89085 12 6.66699 12.2239 6.66699 12.5V18.5C6.66699 18.7761 6.89085 19 7.16699 19H8.16699ZM18.167 19C18.4431 19 18.667 18.7761 18.667 18.5V12.5C18.667 12.2239 18.4431 12 18.167 12H17.167C16.8909 12 16.667 12.2239 16.667 12.5V18.5C16.667 18.7761 16.8909 19 17.167 19H18.167ZM7.16699 5C6.89085 5 6.66699 5.22386 6.66699 5.5C6.66699 5.77614 6.89085 6 7.16699 6H18.167C18.4431 6 18.667 5.77614 18.667 5.5C18.667 5.22386 18.4431 5 18.167 5H7.16699Z" fill="#DBA77B"/>
</g>
</svg>
