<svg width="25" height="24" viewBox="0 0 25 24" fill="none" xmlns="http://www.w3.org/2000/svg">
<g id="Bold / School / Calculator">
<path id="Vector" fill-rule="evenodd" clip-rule="evenodd" d="M12.667 22C8.42435 22 6.30303 22 4.98501 20.5355C3.66699 19.0711 3.66699 16.714 3.66699 12C3.66699 7.28595 3.66699 4.92893 4.98501 3.46447C6.30303 2 8.42435 2 12.667 2C16.9096 2 19.031 2 20.349 3.46447C21.667 4.92893 21.667 7.28595 21.667 12C21.667 16.714 21.667 19.0711 20.349 20.5355C19.031 22 16.9096 22 12.667 22ZM15.667 6H9.66699C9.20201 6 8.96951 6 8.77876 6.05111C8.26113 6.18981 7.8568 6.59413 7.7181 7.11177C7.66699 7.30252 7.66699 7.53501 7.66699 8C7.66699 8.46499 7.66699 8.69748 7.7181 8.88823C7.8568 9.40587 8.26113 9.81019 8.77876 9.94889C8.96951 10 9.20201 10 9.66699 10H15.667C16.132 10 16.3645 10 16.5552 9.94889C17.0729 9.81019 17.4772 9.40587 17.6159 8.88823C17.667 8.69748 17.667 8.46499 17.667 8C17.667 7.53501 17.667 7.30252 17.6159 7.11177C17.4772 6.59413 17.0729 6.18981 16.5552 6.05111C16.3645 6 16.132 6 15.667 6ZM9.66699 13C9.66699 13.5523 9.21928 14 8.66699 14C8.11471 14 7.66699 13.5523 7.66699 13C7.66699 12.4477 8.11471 12 8.66699 12C9.21928 12 9.66699 12.4477 9.66699 13ZM12.667 14C13.2193 14 13.667 13.5523 13.667 13C13.667 12.4477 13.2193 12 12.667 12C12.1147 12 11.667 12.4477 11.667 13C11.667 13.5523 12.1147 14 12.667 14ZM17.667 13C17.667 13.5523 17.2193 14 16.667 14C16.1147 14 15.667 13.5523 15.667 13C15.667 12.4477 16.1147 12 16.667 12C17.2193 12 17.667 12.4477 17.667 13ZM16.667 18C17.2193 18 17.667 17.5523 17.667 17C17.667 16.4477 17.2193 16 16.667 16C16.1147 16 15.667 16.4477 15.667 17C15.667 17.5523 16.1147 18 16.667 18ZM13.667 17C13.667 17.5523 13.2193 18 12.667 18C12.1147 18 11.667 17.5523 11.667 17C11.667 16.4477 12.1147 16 12.667 16C13.2193 16 13.667 16.4477 13.667 17ZM8.66699 18C9.21928 18 9.66699 17.5523 9.66699 17C9.66699 16.4477 9.21928 16 8.66699 16C8.11471 16 7.66699 16.4477 7.66699 17C7.66699 17.5523 8.11471 18 8.66699 18Z" fill="#DBA77B"/>
</g>
</svg>
