<svg width="25" height="24" viewBox="0 0 25 24" fill="none" xmlns="http://www.w3.org/2000/svg">
<g id="Bold / School / Passport">
<g id="Vector">
<path d="M5.66699 5C5.66699 4.59334 5.42426 4.24338 5.07578 4.0871C5.2197 3.97374 5.39411 3.89615 5.58659 3.86865L16.3841 2.32614C17.589 2.15402 18.667 3.08894 18.667 4.30604V5.12602C18.3474 5.04375 18.0123 5 17.667 5H5.66699Z" fill="#DBA77B"/>
<path d="M10.417 13C10.417 11.7574 11.4244 10.75 12.667 10.75C13.9096 10.75 14.917 11.7574 14.917 13C14.917 14.2426 13.9096 15.25 12.667 15.25C11.4244 15.25 10.417 14.2426 10.417 13Z" fill="#DBA77B"/>
<path fill-rule="evenodd" clip-rule="evenodd" d="M18.667 6.17071C19.8322 6.58254 20.667 7.69378 20.667 9V19C20.667 20.6569 19.3238 22 17.667 22H7.66699C6.01014 22 4.66699 20.6569 4.66699 19V5C4.66699 5.18214 4.71569 5.35291 4.80077 5.5C4.97368 5.7989 5.29685 6 5.66699 6H17.667C18.0176 6 18.3542 6.06015 18.667 6.17071ZM12.667 9.25C10.5959 9.25 8.91699 10.9289 8.91699 13C8.91699 15.0711 10.5959 16.75 12.667 16.75C14.7381 16.75 16.417 15.0711 16.417 13C16.417 10.9289 14.7381 9.25 12.667 9.25ZM10.667 18.25C10.2528 18.25 9.91699 18.5858 9.91699 19C9.91699 19.4142 10.2528 19.75 10.667 19.75H14.667C15.0812 19.75 15.417 19.4142 15.417 19C15.417 18.5858 15.0812 18.25 14.667 18.25H10.667Z" fill="#DBA77B"/>
</g>
</g>
</svg>
