<svg width="25" height="24" viewBox="0 0 25 24" fill="none" xmlns="http://www.w3.org/2000/svg">
<g id="Bold / Security / Shield Minimalistic">
<path id="Vector" d="M3.33301 10.4167C3.33301 7.21907 3.33301 5.62028 3.71052 5.08241C4.08804 4.54454 5.59133 4.02996 8.59792 3.00079L9.17073 2.80472C10.738 2.26824 11.5216 2 12.333 2C13.1444 2 13.928 2.26824 15.4953 2.80472L16.0681 3.00079C19.0747 4.02996 20.578 4.54454 20.9555 5.08241C21.333 5.62028 21.333 7.21907 21.333 10.4167C21.333 10.8996 21.333 11.4234 21.333 11.9914C21.333 17.6294 17.094 20.3655 14.4344 21.5273C13.713 21.8424 13.3523 22 12.333 22C11.3137 22 10.953 21.8424 10.2316 21.5273C7.57197 20.3655 3.33301 17.6294 3.33301 11.9914C3.33301 11.4234 3.33301 10.8996 3.33301 10.4167Z" fill="#DBA77B"/>
</g>
</svg>
