<svg width="25" height="24" viewBox="0 0 25 24" fill="none" xmlns="http://www.w3.org/2000/svg">
<g id="Bold / Users / Users Group Two Rounded">
<path id="Vector" d="M15.833 7.5C15.833 9.433 14.266 11 12.333 11C10.4 11 8.83301 9.433 8.83301 7.5C8.83301 5.567 10.4 4 12.333 4C14.266 4 15.833 5.567 15.833 7.5Z" fill="#DBA77B"/>
<path id="Vector_2" d="M18.333 16.5C18.333 18.433 15.6467 20 12.333 20C9.0193 20 6.33301 18.433 6.33301 16.5C6.33301 14.567 9.0193 13 12.333 13C15.6467 13 18.333 14.567 18.333 16.5Z" fill="#DBA77B"/>
<g id="Vector_3">
<path d="M7.45506 5C7.63252 5 7.80577 5.01741 7.97306 5.05056C7.5655 5.77446 7.33301 6.61008 7.33301 7.5C7.33301 8.36825 7.55432 9.18482 7.9436 9.89636C7.78546 9.92583 7.62212 9.94126 7.45506 9.94126C6.04064 9.94126 4.89403 8.83512 4.89403 7.47063C4.89403 6.10614 6.04064 5 7.45506 5Z" fill="#DBA77B"/>
<path d="M5.78034 18.986C5.21243 18.3071 4.83301 17.474 4.83301 16.5C4.83301 15.5558 5.18958 14.744 5.72879 14.0767C3.82411 14.2245 2.33301 15.2662 2.33301 16.5294C2.33301 17.8044 3.85031 18.8538 5.78034 18.986Z" fill="#DBA77B"/>
</g>
<g id="Vector_4">
<path d="M17.3334 7.5C17.3334 8.36825 17.1121 9.18482 16.7228 9.89636C16.881 9.92583 17.0443 9.94126 17.2114 9.94126C18.6258 9.94126 19.7724 8.83512 19.7724 7.47063C19.7724 6.10614 18.6258 5 17.2114 5C17.0339 5 16.8607 5.01741 16.6934 5.05056C17.1009 5.77446 17.3334 6.61008 17.3334 7.5Z" fill="#DBA77B"/>
<path d="M18.8861 18.986C20.8161 18.8538 22.3334 17.8044 22.3334 16.5294C22.3334 15.2662 20.8423 14.2245 18.9376 14.0767C19.4768 14.744 19.8334 15.5558 19.8334 16.5C19.8334 17.474 19.454 18.3071 18.8861 18.986Z" fill="#DBA77B"/>
</g>
</g>
</svg>
