<svg width="25" height="24" viewBox="0 0 25 24" fill="none" xmlns="http://www.w3.org/2000/svg">
<g id="Bold / Transport, Parts, Service / Wheel Angle">
<g id="Vector">
<path d="M21.333 12C21.333 17.5228 19.2607 22 16.7044 22H8.99015C9.85661 21.4385 10.6456 20.4506 11.1892 19.2763C12.063 17.3884 12.5902 14.8154 12.5902 12C12.5902 9.18462 12.063 6.61163 11.1892 4.72375C10.6456 3.54939 9.85661 2.56147 8.99015 2H16.7044C19.2607 2 21.333 6.47715 21.333 12Z" fill="#DBA77B"/>
<path fill-rule="evenodd" clip-rule="evenodd" d="M4.64339 5.13411C3.84199 6.86553 3.33301 9.29254 3.33301 12C3.33301 14.7075 3.84199 17.1345 4.64339 18.8659C5.46651 20.6442 6.49758 21.5 7.44729 21.5C8.39701 21.5 9.42808 20.6442 10.2512 18.8659C11.0526 17.1345 11.5616 14.7075 11.5616 12C11.5616 9.29254 11.0526 6.86553 10.2512 5.13411C9.42808 3.35577 8.39701 2.5 7.44729 2.5C6.49758 2.5 5.46651 3.35577 4.64339 5.13411ZM5.90444 12C5.90444 15.3137 6.5952 18 7.44729 18C8.23408 18 8.88331 15.7097 8.97821 12.75H7.96158C7.53553 12.75 7.19015 12.4142 7.19015 12C7.19015 11.5858 7.53553 11.25 7.96158 11.25H8.97821C8.88331 8.29027 8.23408 6 7.44729 6C6.5952 6 5.90444 8.68629 5.90444 12Z" fill="#DBA77B"/>
</g>
</g>
</svg>
