<svg width="28" height="24" viewBox="0 0 28 24" fill="none" xmlns="http://www.w3.org/2000/svg">
<path fill-rule="evenodd" clip-rule="evenodd" d="M14.0742 0.118328C13.842 -0.0394427 13.5344 -0.0394427 13.3022 0.118328L1.29307 8.27816C0.746954 8.64923 1.0147 9.48933 1.67908 9.48933H25.6974C26.3618 9.48933 26.6295 8.64923 26.0834 8.27816L14.0742 0.118328ZM8.27652 10.3022H4.88747V19.7915H8.27652V10.3022ZM9.63214 10.3022H13.0212V19.7915H9.63214V10.3022ZM17.7658 10.3022H14.3768V19.7915H17.7658V10.3022ZM19.1215 10.3022H22.5105V19.7915H19.1215V10.3022ZM2.40907 20.611C1.85678 20.611 1.40907 21.0587 1.40907 21.611V23C1.40907 23.5523 1.85678 24 2.40907 24H24.9655C25.5178 24 25.9655 23.5523 25.9655 23V21.611C25.9655 21.0587 25.5178 20.611 24.9655 20.611H2.40907Z" fill="url(#paint0_linear_985_749)"/>
<defs>
<linearGradient id="paint0_linear_985_749" x1="26.7953" y1="0.00757902" x2="-15.5169" y2="69.1146" gradientUnits="userSpaceOnUse">
<stop stop-color="white"/>
<stop offset="1" stop-color="#333863"/>
</linearGradient>
</defs>
</svg>
