<svg width="28" height="24" viewBox="0 0 28 24" fill="none" xmlns="http://www.w3.org/2000/svg">
<path fill-rule="evenodd" clip-rule="evenodd" d="M9.20005 4.10902C9.20005 2.11581 10.8159 0.5 12.8091 0.5H15.191C17.1842 0.5 18.8 2.11581 18.8 4.10902H16.9995C16.9992 3.11264 16.1914 2.305 15.195 2.305H12.804C11.8076 2.305 10.9998 3.11264 10.9995 4.10902H9.20005ZM2 6.10907C2 5.0045 2.89543 4.10907 4 4.10907H24C25.1046 4.10907 26 5.0045 26 6.10907V8.05644C26 9.71329 24.6569 11.0564 23 11.0564H5C3.34315 11.0564 2 9.71329 2 8.05644V6.10907ZM2.00275 10.6056C2.05773 11.661 2.9309 12.4998 4 12.4998H24C25.0691 12.4998 25.9423 11.661 25.9973 10.6056H26V21.2372C26 22.3417 25.1046 23.2372 24 23.2372H4C2.89543 23.2372 2 22.3417 2 21.2372V10.6056H2.00275ZM10.8418 12.5H17.1576V13.3948C17.1576 13.947 16.7099 14.3947 16.1576 14.3947H11.8418C11.2895 14.3947 10.8418 13.947 10.8418 13.3948V12.5Z" fill="url(#paint0_linear_1006_953)"/>
<defs>
<linearGradient id="paint0_linear_1006_953" x1="26.3962" y1="0.50718" x2="-13.7209" y2="65.9166" gradientUnits="userSpaceOnUse">
<stop stop-color="white"/>
<stop offset="1" stop-color="#333863"/>
</linearGradient>
</defs>
</svg>
