<svg width="28" height="24" viewBox="0 0 28 24" fill="none" xmlns="http://www.w3.org/2000/svg">
<path fill-rule="evenodd" clip-rule="evenodd" d="M26 12C26 18.6274 20.6274 24 14 24C7.37258 24 2 18.6274 2 12C2 5.37258 7.37258 0 14 0C20.6274 0 26 5.37258 26 12ZM12.6666 5.99991C12.6666 5.26353 13.2635 4.66657 13.9999 4.66657C14.7363 4.66657 15.3332 5.26353 15.3332 5.99991V13.9999C15.3332 14.7363 14.7363 15.3332 13.9999 15.3332C13.2635 15.3332 12.6666 14.7363 12.6666 13.9999V5.99991ZM13.9999 16.6666C13.2635 16.6666 12.6666 17.2635 12.6666 17.9999C12.6666 18.7363 13.2635 19.3332 13.9999 19.3332C14.7363 19.3332 15.3332 18.7363 15.3332 17.9999C15.3332 17.2635 14.7363 16.6666 13.9999 16.6666Z" fill="url(#paint0_linear_1006_2690)"/>
<defs>
<linearGradient id="paint0_linear_1006_2690" x1="26.3962" y1="0.00757902" x2="-16.9483" y2="66.9605" gradientUnits="userSpaceOnUse">
<stop stop-color="white"/>
<stop offset="1" stop-color="#333863"/>
</linearGradient>
</defs>
</svg>
