<svg width="28" height="24" viewBox="0 0 28 24" fill="none" xmlns="http://www.w3.org/2000/svg">
<path d="M23.469 13.9L23.0167 13.644C23.2203 12.5564 23.2203 11.4416 23.0167 10.354L23.469 10.098C23.8169 9.90102 24.1218 9.63871 24.3664 9.32606C24.611 9.01341 24.7905 8.65654 24.8945 8.27582C24.9986 7.8951 25.0252 7.49799 24.9729 7.10716C24.9207 6.71633 24.7904 6.33944 24.5898 5.998C24.3891 5.65656 24.1218 5.35727 23.8033 5.1172C23.4847 4.87714 23.1211 4.70101 22.7333 4.59886C22.3454 4.49672 21.9408 4.47056 21.5426 4.52189C21.1444 4.57321 20.7604 4.70102 20.4125 4.898L19.9592 5.155C19.1029 4.43692 18.1188 3.88025 17.0565 3.513V3C17.0565 2.20435 16.7345 1.44129 16.1613 0.87868C15.5881 0.316071 14.8106 0 14 0C13.1894 0 12.4119 0.316071 11.8387 0.87868C11.2655 1.44129 10.9435 2.20435 10.9435 3V3.513C9.88126 3.88157 8.89754 4.4396 8.04187 5.159L7.58645 4.9C6.8839 4.50218 6.04912 4.39457 5.26574 4.60086C4.48236 4.80715 3.81456 5.31044 3.40924 6C3.00392 6.68956 2.89429 7.50892 3.10447 8.27782C3.31464 9.04672 3.82741 9.70218 4.52995 10.1L4.98232 10.356C4.77866 11.4436 4.77866 12.5584 4.98232 13.646L4.52995 13.902C3.82741 14.2998 3.31464 14.9553 3.10447 15.7242C2.89429 16.4931 3.00392 17.3124 3.40924 18.002C3.81456 18.6916 4.48236 19.1948 5.26574 19.4011C6.04912 19.6074 6.8839 19.4998 7.58645 19.102L8.03983 18.845C8.89643 19.5632 9.88084 20.1199 10.9435 20.487V21C10.9435 21.7957 11.2655 22.5587 11.8387 23.1213C12.4119 23.6839 13.1894 24 14 24C14.8106 24 15.5881 23.6839 16.1613 23.1213C16.7345 22.5587 17.0565 21.7957 17.0565 21V20.487C18.1187 20.1184 19.1025 19.5604 19.9581 18.841L20.4136 19.099C21.1161 19.4968 21.9509 19.6044 22.7343 19.3981C23.5177 19.1918 24.1855 18.6886 24.5908 17.999C24.9961 17.3094 25.1057 16.4901 24.8955 15.7212C24.6854 14.9523 24.1726 14.2968 23.4701 13.899L23.469 13.9ZM20.8731 10.124C21.2181 11.3511 21.2181 12.6469 20.8731 13.874C20.8128 14.0876 20.8265 14.3147 20.9121 14.5198C20.9977 14.7249 21.1502 14.8963 21.3458 15.007L22.4502 15.633C22.6843 15.7656 22.8552 15.9841 22.9252 16.2403C22.9953 16.4966 22.9587 16.7697 22.8236 16.9995C22.6885 17.2293 22.4659 17.397 22.2048 17.4658C21.9437 17.5345 21.6655 17.4986 21.4314 17.366L20.3249 16.738C20.1292 16.6267 19.9013 16.5826 19.6772 16.6124C19.4531 16.6423 19.2454 16.7445 19.087 16.903C18.1802 17.8117 17.0377 18.46 15.783 18.778C15.5639 18.8333 15.3699 18.9585 15.2314 19.1339C15.0928 19.3094 15.0177 19.525 15.0178 19.747V21C15.0178 21.2652 14.9105 21.5196 14.7194 21.7071C14.5283 21.8946 14.2692 22 13.999 22C13.7288 22 13.4696 21.8946 13.2786 21.7071C13.0875 21.5196 12.9802 21.2652 12.9802 21V19.748C12.9803 19.526 12.9051 19.3104 12.7666 19.1349C12.6281 18.9595 12.434 18.8343 12.215 18.779C10.9602 18.4597 9.81803 17.81 8.91195 16.9C8.75355 16.7415 8.54593 16.6393 8.3218 16.6094C8.09768 16.5796 7.8698 16.6237 7.67407 16.735L6.56966 17.362C6.45374 17.4287 6.32553 17.4722 6.19241 17.4901C6.05928 17.508 5.92387 17.4998 5.79397 17.4661C5.66407 17.4324 5.54225 17.3738 5.43551 17.2937C5.32878 17.2136 5.23924 17.1135 5.17206 16.9993C5.10488 16.8851 5.06137 16.759 5.04405 16.6282C5.02674 16.4974 5.03594 16.3646 5.07115 16.2373C5.10635 16.11 5.16686 15.9909 5.24918 15.8866C5.33151 15.7824 5.43402 15.6952 5.55082 15.63L6.65524 15.004C6.8508 14.8933 7.00335 14.7219 7.08892 14.5168C7.17448 14.3117 7.18822 14.0846 7.12798 13.871C6.78296 12.6439 6.78296 11.3481 7.12798 10.121C7.18714 9.90788 7.17274 9.68153 7.08704 9.47729C7.00133 9.27305 6.84914 9.10241 6.65422 8.992L5.54981 8.366C5.31567 8.23339 5.14479 8.01492 5.07476 7.75866C5.00474 7.50239 5.0413 7.22931 5.1764 6.9995C5.31151 6.76969 5.53409 6.60197 5.79519 6.53324C6.05628 6.46451 6.3345 6.50039 6.56864 6.633L7.67509 7.261C7.87028 7.37251 8.09768 7.41721 8.32157 7.38807C8.54545 7.35893 8.75313 7.2576 8.91195 7.1C9.8188 6.19134 10.9613 5.54302 12.216 5.225C12.4357 5.16956 12.6303 5.04375 12.7689 4.8675C12.9075 4.69125 12.9822 4.47464 12.9812 4.252V3C12.9812 2.73478 13.0885 2.48043 13.2796 2.29289C13.4706 2.10536 13.7298 2 14 2C14.2702 2 14.5294 2.10536 14.7204 2.29289C14.9115 2.48043 15.0188 2.73478 15.0188 3V4.252C15.0187 4.47396 15.0939 4.68964 15.2324 4.86508C15.3709 5.04052 15.565 5.16573 15.784 5.221C17.0392 5.54015 18.1817 6.18988 19.0881 7.1C19.2465 7.25847 19.4541 7.36069 19.6782 7.39057C19.9023 7.42044 20.1302 7.37626 20.3259 7.265L21.4304 6.638C21.5463 6.5713 21.6745 6.52777 21.8076 6.5099C21.9407 6.49204 22.0761 6.50019 22.206 6.5339C22.3359 6.56761 22.4578 6.62621 22.5645 6.70631C22.6712 6.78642 22.7608 6.88646 22.8279 7.00067C22.8951 7.11488 22.9386 7.24101 22.956 7.37179C22.9733 7.50257 22.9641 7.63542 22.9289 7.76269C22.8937 7.88997 22.8332 8.00915 22.7508 8.11337C22.6685 8.2176 22.566 8.30482 22.4492 8.37L21.3448 8.996C21.1502 9.10671 20.9985 9.27748 20.9131 9.4817C20.8278 9.68591 20.8137 9.9121 20.8731 10.125V10.124Z" fill="url(#paint0_linear_1006_2098)"/>
<path fill-rule="evenodd" clip-rule="evenodd" d="M20.8731 10.124C21.2181 11.3511 21.2181 12.6469 20.8731 13.874C20.8128 14.0876 20.8265 14.3147 20.9121 14.5198C20.9977 14.7249 21.1502 14.8963 21.3458 15.007L22.4502 15.633C22.6843 15.7656 22.8552 15.9841 22.9252 16.2403C22.9953 16.4966 22.9587 16.7697 22.8236 16.9995C22.6885 17.2293 22.4659 17.397 22.2048 17.4658C21.9437 17.5345 21.6655 17.4986 21.4314 17.366L20.3249 16.738C20.1292 16.6267 19.9013 16.5826 19.6772 16.6124C19.4531 16.6423 19.2454 16.7445 19.087 16.903C18.1802 17.8117 17.0377 18.46 15.783 18.778C15.5639 18.8333 15.3699 18.9585 15.2314 19.1339C15.0928 19.3094 15.0177 19.525 15.0178 19.747V21C15.0178 21.2652 14.9105 21.5196 14.7194 21.7071C14.5283 21.8946 14.2692 22 13.999 22C13.7288 22 13.4696 21.8946 13.2786 21.7071C13.0875 21.5196 12.9802 21.2652 12.9802 21V19.748C12.9803 19.526 12.9051 19.3104 12.7666 19.1349C12.6281 18.9595 12.434 18.8343 12.215 18.779C10.9602 18.4597 9.81803 17.81 8.91195 16.9C8.75355 16.7415 8.54593 16.6393 8.3218 16.6094C8.09768 16.5796 7.8698 16.6237 7.67407 16.735L6.56966 17.362C6.45374 17.4287 6.32553 17.4722 6.19241 17.4901C6.05928 17.508 5.92387 17.4998 5.79397 17.4661C5.66407 17.4324 5.54225 17.3738 5.43551 17.2937C5.32878 17.2136 5.23924 17.1135 5.17206 16.9993C5.10488 16.8851 5.06137 16.759 5.04405 16.6282C5.02674 16.4974 5.03594 16.3646 5.07115 16.2373C5.10635 16.11 5.16686 15.9909 5.24918 15.8866C5.33151 15.7824 5.43402 15.6952 5.55082 15.63L6.65524 15.004C6.8508 14.8933 7.00335 14.7219 7.08892 14.5168C7.17448 14.3117 7.18822 14.0846 7.12798 13.871C6.78296 12.6439 6.78296 11.3481 7.12798 10.121C7.18714 9.90788 7.17274 9.68153 7.08704 9.47729C7.00133 9.27305 6.84914 9.10241 6.65422 8.992L5.54981 8.366C5.31567 8.23339 5.14479 8.01492 5.07476 7.75866C5.00474 7.50239 5.0413 7.22931 5.1764 6.9995C5.31151 6.76969 5.53409 6.60197 5.79519 6.53324C6.05628 6.46451 6.3345 6.50039 6.56864 6.633L7.67509 7.261C7.87028 7.37251 8.09768 7.41721 8.32157 7.38807C8.54545 7.35893 8.75313 7.2576 8.91195 7.1C9.8188 6.19134 10.9613 5.54302 12.216 5.225C12.4357 5.16956 12.6303 5.04375 12.7689 4.8675C12.9075 4.69125 12.9822 4.47464 12.9812 4.252V3C12.9812 2.73478 13.0885 2.48043 13.2796 2.29289C13.4706 2.10536 13.7298 2 14 2C14.2702 2 14.5294 2.10536 14.7204 2.29289C14.9115 2.48043 15.0188 2.73478 15.0188 3V4.252C15.0187 4.47396 15.0939 4.68964 15.2324 4.86508C15.3709 5.04052 15.565 5.16573 15.784 5.221C17.0392 5.54015 18.1817 6.18988 19.0881 7.1C19.2465 7.25847 19.4541 7.36069 19.6782 7.39057C19.9023 7.42044 20.1302 7.37626 20.3259 7.265L21.4304 6.638C21.5463 6.5713 21.6745 6.52777 21.8076 6.5099C21.9407 6.49204 22.0761 6.50019 22.206 6.5339C22.3359 6.56761 22.4578 6.62621 22.5645 6.70631C22.6712 6.78642 22.7608 6.88646 22.8279 7.00067C22.8951 7.11488 22.9386 7.24101 22.956 7.37179C22.9733 7.50257 22.9641 7.63542 22.9289 7.76269C22.8937 7.88997 22.8332 8.00915 22.7508 8.11337C22.6685 8.2176 22.566 8.30482 22.4492 8.37L21.3448 8.996C21.1502 9.10671 20.9985 9.27748 20.9131 9.4817C20.8278 9.68591 20.8137 9.9121 20.8731 10.125V10.124ZM11.7358 8.67413C12.406 8.2346 13.1939 8 14 8C15.0808 8 16.1174 8.42143 16.8817 9.17158C17.646 9.92172 18.0753 10.9391 18.0753 12C18.0753 12.7911 17.8363 13.5645 17.3885 14.2223C16.9407 14.8801 16.3042 15.3928 15.5595 15.6955C14.8149 15.9983 13.9955 16.0775 13.2049 15.9231C12.4144 15.7688 11.6882 15.3878 11.1183 14.8284C10.5483 14.269 10.1602 13.5563 10.0029 12.7804C9.84569 12.0044 9.9264 11.2002 10.2349 10.4693C10.5433 9.73837 11.0657 9.11365 11.7358 8.67413Z" fill="url(#paint1_linear_1006_2098)"/>
<defs>
<linearGradient id="paint0_linear_1006_2098" x1="25.3631" y1="0.00757902" x2="-19.4084" y2="63.4018" gradientUnits="userSpaceOnUse">
<stop stop-color="white"/>
<stop offset="1" stop-color="#333863"/>
</linearGradient>
<linearGradient id="paint1_linear_1006_2098" x1="25.3631" y1="0.00757902" x2="-19.4084" y2="63.4018" gradientUnits="userSpaceOnUse">
<stop stop-color="white"/>
<stop offset="1" stop-color="#333863"/>
</linearGradient>
</defs>
</svg>
