<svg width="28" height="24" viewBox="0 0 28 24" fill="none" xmlns="http://www.w3.org/2000/svg">
<path fill-rule="evenodd" clip-rule="evenodd" d="M17.8988 0C17.6779 0 17.4988 0.179085 17.4988 0.399999V23.9999H27.4986V0.4C27.4986 0.179086 27.3195 0 27.0986 0H17.8988ZM20.3979 2.8232C20.177 2.8232 19.9979 3.00229 19.9979 3.2232V5.52907C19.9979 5.74998 20.177 5.92907 20.3979 5.92907H25.0977C25.3187 5.92907 25.4977 5.74998 25.4977 5.52907V3.2232C25.4977 3.00229 25.3187 2.8232 25.0977 2.8232H20.3979ZM19.9979 17.9403C19.9979 17.388 20.4456 16.9403 20.9979 16.9403H23.9978C24.55 16.9403 24.9978 17.388 24.9978 17.9403V23.9991H19.9979V17.9403ZM1.22627 4.61062C1.2396 4.39993 1.41436 4.23587 1.62547 4.23587H4.62438C4.8355 4.23587 5.01026 4.39993 5.02359 4.61062L6.24986 24.0005H0L1.22627 4.61062ZM6.30178 10.3296C6.2737 10.0918 6.45952 9.88271 6.69902 9.88271H15.8488C16.0697 9.88271 16.2488 10.0618 16.2488 10.2827V24.0003H7.91565L6.30178 10.3296ZM11.248 13.1059C11.248 12.885 11.4271 12.7059 11.648 12.7059H13.348C13.5689 12.7059 13.748 12.885 13.748 13.1059V15.1294C13.748 15.3503 13.5689 15.5294 13.348 15.5294H11.648C11.4271 15.5294 11.248 15.3503 11.248 15.1294V13.1059ZM10.4 18.3534C10.1791 18.3534 10 18.5325 10 18.7534V20.7769C10 20.9978 10.1791 21.1769 10.4 21.1769H12.0999C12.3209 21.1769 12.4999 20.9978 12.4999 20.7769V18.7534C12.4999 18.5325 12.3209 18.3534 12.0999 18.3534H10.4Z" fill="url(#paint0_linear_1006_780)"/>
<defs>
<linearGradient id="paint0_linear_1006_780" x1="27.9525" y1="0.00757917" x2="-12.7421" y2="72.0293" gradientUnits="userSpaceOnUse">
<stop stop-color="white"/>
<stop offset="1" stop-color="#333863"/>
</linearGradient>
</defs>
</svg>
