<svg width="28" height="23" viewBox="0 0 28 23" fill="none" xmlns="http://www.w3.org/2000/svg">
<path fill-rule="evenodd" clip-rule="evenodd" d="M22.345 10.0706H24.5633C25.731 10.0706 26.4509 8.79519 25.8475 7.79548L21.7254 0.966463C21.3633 0.366632 20.7138 0 20.0132 0H18.9175L22.345 10.0706ZM17.2274 0L20.6548 10.0706H14.8034V0H17.2274ZM7.34995 10.0706H13.2034V0H10.7774L7.34995 10.0706ZM8.2443 0H9.08724L5.65982 10.0706H3.50242C2.32105 10.0706 1.60333 8.76836 2.23424 7.76956L6.55339 0.931903C6.91984 0.351771 7.55812 0 8.2443 0ZM4.66574 22.5003V11.2787H23.8604V22.5003H16.8096V18.3547C16.8096 17.8024 16.3619 17.3547 15.8096 17.3547H13.0486C12.4963 17.3547 12.0486 17.8024 12.0486 18.3547V22.5003H4.66574Z" fill="url(#paint0_linear_1006_2055)"/>
<defs>
<linearGradient id="paint0_linear_1006_2055" x1="26.4629" y1="0.00710543" x2="-12.9967" y2="65.1996" gradientUnits="userSpaceOnUse">
<stop stop-color="white"/>
<stop offset="1" stop-color="#333863"/>
</linearGradient>
</defs>
</svg>
