<svg width="28" height="28" viewBox="0 0 28 28" fill="none" xmlns="http://www.w3.org/2000/svg">
<path fill-rule="evenodd" clip-rule="evenodd" d="M14.6723 1.26465C14.2853 0.870653 13.6528 0.865609 13.2595 1.25338L12.8253 1.68157C12.432 2.06935 12.427 2.7031 12.814 3.09709L19.1196 9.51635C19.5067 9.91035 20.1392 9.91539 20.5325 9.52762L20.9667 9.09943C21.36 8.71165 21.365 8.07791 20.978 7.68391L14.6723 1.26465ZM12.7787 4.30148L7.82362 9.18752L12.9617 14.4182L17.9168 9.53218L12.7787 4.30148ZM5.20671 9.19483C5.59996 8.80706 6.2325 8.8121 6.61953 9.2061L12.9252 15.6254C13.3122 16.0194 13.3071 16.6531 12.9139 17.0409L12.4796 17.4691C12.0864 17.8568 11.4538 17.8518 11.0668 17.4578L4.76118 11.0385C4.37415 10.6445 4.37921 10.0108 4.77246 9.62302L5.20671 9.19483ZM15.2538 13.4432C15.2538 13.4432 21.6005 20.7319 24.1536 23.331C25.117 24.3118 26.3559 23.0902 26.3559 23.0902L16.0797 12.6288L15.2538 13.4432ZM16.9067 11.8143C16.9067 11.8143 24.0793 18.2886 26.6325 20.8878C27.5959 21.8685 26.357 23.0902 26.357 23.0902L16.0808 12.6288L16.9067 11.8143ZM2.51837 22.1942C2.59737 21.7105 3.01523 21.3554 3.50529 21.3554H13.8743C14.3643 21.3554 14.7822 21.7105 14.8612 22.1942L14.8698 22.2465C14.9692 22.8551 14.4995 23.4077 13.8828 23.4077H3.49674C2.8801 23.4077 2.41041 22.8551 2.50981 22.2465L2.51837 22.1942ZM1.81851 24.0905C1.57543 24.341 1.39815 24.617 1.30003 24.9185C1.17791 25.2937 1.07313 25.7854 0.999269 26.1806C0.932111 26.5399 1.21153 26.8639 1.57711 26.8639H15.6122C15.9777 26.8639 16.2572 26.5399 16.19 26.1806C16.1162 25.7854 16.0114 25.2937 15.8892 24.9185C15.7911 24.617 15.6138 24.341 15.3708 24.0905H1.81851Z" fill="url(#paint0_linear_1006_2079)"/>
<defs>
<linearGradient id="paint0_linear_1006_2079" x1="27.4285" y1="0.973999" x2="-19.261" y2="73.4056" gradientUnits="userSpaceOnUse">
<stop stop-color="white"/>
<stop offset="1" stop-color="#333863"/>
</linearGradient>
</defs>
</svg>
