<svg width="20" height="26" viewBox="0 0 20 26" fill="none" xmlns="http://www.w3.org/2000/svg">
<path fill-rule="evenodd" clip-rule="evenodd" d="M0 4C0 1.79086 1.79086 0 4 0H16C18.2091 0 20 1.79086 20 4V22C20 24.2091 18.2091 26 16 26H4C1.79086 26 0 24.2091 0 22V4ZM2.85861 3.73731C2.85861 3.18502 3.30633 2.7373 3.85861 2.7373H16.1443C16.6966 2.7373 17.1443 3.18502 17.1443 3.7373V7.21099C17.1443 7.76327 16.6966 8.21099 16.1443 8.21099H3.85861C3.30633 8.21099 2.85861 7.76327 2.85861 7.21099V3.73731ZM3.85861 10.9463C3.30633 10.9463 2.85861 11.394 2.85861 11.9463V12.6831C2.85861 13.2354 3.30633 13.6831 3.85861 13.6831H4.71575C5.26804 13.6831 5.71575 13.2354 5.71575 12.6831V11.9463C5.71575 11.394 5.26804 10.9463 4.71575 10.9463H3.85861ZM2.85861 16.7373C2.85861 16.185 3.30633 15.7373 3.85861 15.7373H4.71575C5.26804 15.7373 5.71575 16.185 5.71575 16.7373V17.4741C5.71575 18.0264 5.26804 18.4741 4.71575 18.4741H3.85861C3.30633 18.4741 2.85861 18.0264 2.85861 17.4741V16.7373ZM3.85861 20.5264C3.30633 20.5264 2.85861 20.9741 2.85861 21.5264V22.2632C2.85861 22.8155 3.30633 23.2632 3.85861 23.2632H4.71575C5.26804 23.2632 5.71575 22.8155 5.71575 22.2632V21.5264C5.71575 20.9741 5.26804 20.5264 4.71575 20.5264H3.85861ZM8.57092 11.9463C8.57092 11.394 9.01864 10.9463 9.57092 10.9463H10.4281C10.9804 10.9463 11.4281 11.394 11.4281 11.9463V12.6831C11.4281 13.2354 10.9804 13.6831 10.4281 13.6831H9.57093C9.01864 13.6831 8.57092 13.2354 8.57092 12.6831V11.9463ZM9.57092 15.7373C9.01864 15.7373 8.57092 16.185 8.57092 16.7373V17.4741C8.57092 18.0264 9.01864 18.4741 9.57093 18.4741H10.4281C10.9804 18.4741 11.4281 18.0264 11.4281 17.4741V16.7373C11.4281 16.185 10.9804 15.7373 10.4281 15.7373H9.57092ZM8.57092 21.5264C8.57092 20.9741 9.01864 20.5264 9.57092 20.5264H10.4281C10.9804 20.5264 11.4281 20.9741 11.4281 21.5264V22.2632C11.4281 22.8155 10.9804 23.2632 10.4281 23.2632H9.57093C9.01864 23.2632 8.57092 22.8155 8.57092 22.2632V21.5264ZM15.2862 10.9463C14.7339 10.9463 14.2862 11.394 14.2862 11.9463V12.6831C14.2862 13.2354 14.7339 13.6831 15.2862 13.6831H16.1433C16.6956 13.6831 17.1433 13.2354 17.1433 12.6831V11.9463C17.1433 11.394 16.6956 10.9463 16.1433 10.9463H15.2862ZM14.2862 16.7373C14.2862 16.185 14.7339 15.7373 15.2862 15.7373H16.1433C16.6956 15.7373 17.1433 16.185 17.1433 16.7373V17.4741C17.1433 18.0264 16.6956 18.4741 16.1433 18.4741H15.2862C14.7339 18.4741 14.2862 18.0264 14.2862 17.4741V16.7373ZM15.2862 20.5264C14.7339 20.5264 14.2862 20.9741 14.2862 21.5264V22.2632C14.2862 22.8155 14.7339 23.2632 15.2862 23.2632H16.1433C16.6956 23.2632 17.1433 22.8155 17.1433 22.2632V21.5264C17.1433 20.9741 16.6956 20.5264 16.1433 20.5264H15.2862Z" fill="url(#paint0_linear_1006_2067)"/>
<defs>
<linearGradient id="paint0_linear_1006_2067" x1="20.3301" y1="0.0082106" x2="-30.3797" y2="60.2621" gradientUnits="userSpaceOnUse">
<stop stop-color="white"/>
<stop offset="1" stop-color="#333863"/>
</linearGradient>
</defs>
</svg>
