<svg width="28" height="28" viewBox="0 0 28 28" fill="none" xmlns="http://www.w3.org/2000/svg">
<path fill-rule="evenodd" clip-rule="evenodd" d="M4 3C4 1.89543 4.89543 1 6 1H22.4286C23.5331 1 24.4286 1.89543 24.4286 3V25C24.4286 26.1046 23.5331 27 22.4286 27H6C4.89543 27 4 26.1046 4 25V3ZM9.10624 22.4495C9.10624 22.0905 9.39725 21.7995 9.75624 21.7995H18.6705C19.0295 21.7995 19.3205 22.0905 19.3205 22.4495C19.3205 22.8084 19.0295 23.0995 18.6705 23.0995H9.75623C9.39725 23.0995 9.10624 22.8084 9.10624 22.4495ZM16.8358 18.4709C18.1495 17.8508 19.2268 16.7788 19.887 15.4442H17.3485C17.2768 16.5534 17.0975 17.5816 16.8358 18.4709ZM17.376 13.8442H20.4437C20.545 13.3714 20.5985 12.8796 20.5985 12.3748C20.5985 11.9972 20.5686 11.6269 20.5111 11.2664H17.0897C17.2491 12.0594 17.3489 12.9288 17.376 13.8442ZM16.6515 9.66643H20.0527C19.06 7.32446 16.8195 5.69099 14.2146 5.69099C11.6096 5.69099 9.36911 7.32446 8.37648 9.66643H11.7316C12.317 8.03737 13.2017 6.99951 14.1915 6.99951C15.1814 6.99951 16.0661 8.03737 16.6515 9.66643ZM7.83064 12.3748C7.83064 12.8796 7.8841 13.3714 7.98541 13.8442H11.0071C11.0342 12.9288 11.134 12.0594 11.2934 11.2664H7.918C7.86054 11.6269 7.83064 11.9972 7.83064 12.3748ZM11.5398 18.4453C10.2503 17.8215 9.19333 16.7607 8.54214 15.4442H11.0346C11.1056 16.5427 11.2822 17.5619 11.5398 18.4453ZM13.4021 18.9132C13.0256 18.0461 12.7386 16.8433 12.6383 15.4442H15.7448C15.6445 16.8433 15.3574 18.0461 14.981 18.9132C14.9656 18.9485 14.9503 18.9829 14.935 19.0165C14.6985 19.0443 14.4581 19.0585 14.2146 19.0585C13.9542 19.0585 13.6976 19.0422 13.4454 19.0105C13.431 18.9789 13.4165 18.9464 13.4021 18.9132ZM15.4531 11.2664C15.6279 12.024 15.7443 12.8962 15.7753 13.8442H12.6078C12.6388 12.8962 12.7552 12.024 12.93 11.2664H15.4531ZM14.3175 8.72333C14.489 8.89041 14.707 9.19272 14.9256 9.66643H13.4575C13.6761 9.19272 13.8941 8.89041 14.0656 8.72333C14.1207 8.66966 14.1626 8.63732 14.1915 8.61826C14.2205 8.63732 14.2624 8.66966 14.3175 8.72333ZM14.24 8.59286C14.24 8.59312 14.2372 8.59429 14.2318 8.59557C14.2373 8.59324 14.24 8.5926 14.24 8.59286ZM14.1431 8.59286C14.1431 8.5926 14.1458 8.59324 14.1513 8.59557C14.1458 8.59429 14.1431 8.59312 14.1431 8.59286Z" fill="url(#paint0_linear_1006_979)"/>
<defs>
<linearGradient id="paint0_linear_1006_979" x1="24.7658" y1="1.00821" x2="-25.7498" y2="62.3175" gradientUnits="userSpaceOnUse">
<stop stop-color="white"/>
<stop offset="1" stop-color="#333863"/>
</linearGradient>
</defs>
</svg>
