<svg xmlns="http://www.w3.org/2000/svg" width="16" height="17" fill="none"><g clip-path="url(#a)"><path fill="#fff" d="M1.367 9.167h3.651a11.934 11.934 0 0 0 1.95 5.92 6.67 6.67 0 0 1-5.601-5.92Zm0-1.334a6.67 6.67 0 0 1 5.601-5.92 11.933 11.933 0 0 0-1.95 5.92H1.367Zm13.266 0h-3.651a11.932 11.932 0 0 0-1.95-5.92 6.67 6.67 0 0 1 5.601 5.92Zm0 1.334a6.67 6.67 0 0 1-5.601 5.92 11.933 11.933 0 0 0 1.95-5.92h3.652Zm-8.28 0h3.294c-.11 1.8-.677 3.541-1.647 5.061a10.605 10.605 0 0 1-1.647-5.061Zm0-1.334c.11-1.8.677-3.541 1.647-5.061a10.605 10.605 0 0 1 1.647 5.061H6.353Z"/></g><defs><clipPath id="a"><path fill="#fff" d="M0 .5h16v16H0z"/></clipPath></defs></svg>