<svg width="12" height="13" viewBox="0 0 12 13" fill="none" xmlns="http://www.w3.org/2000/svg">
<g id="camera-add_svgrepo.com">
<path id="Vector" fill-rule="evenodd" clip-rule="evenodd" d="M6 5.55273C6.2071 5.55273 6.375 5.73463 6.375 5.95898V6.63607H7C7.2071 6.63607 7.375 6.81796 7.375 7.04232C7.375 7.26668 7.2071 7.44857 7 7.44857H6.375V8.12565C6.375 8.35001 6.2071 8.5319 6 8.5319C5.7929 8.5319 5.625 8.35001 5.625 8.12565V7.44857H5C4.7929 7.44857 4.625 7.26668 4.625 7.04232C4.625 6.81796 4.7929 6.63607 5 6.63607H5.625V5.95898C5.625 5.73463 5.7929 5.55273 6 5.55273Z" fill="white"/>
<path id="Vector_2" fill-rule="evenodd" clip-rule="evenodd" d="M4.88889 11.375H7.1111C8.67165 11.375 9.4519 11.375 10.0124 10.9767C10.255 10.8042 10.4633 10.5826 10.6255 10.3245C11 9.72839 11 8.89845 11 7.23862C11 5.57884 11 4.74891 10.6255 4.15274C10.4633 3.89466 10.255 3.67306 10.0124 3.50062C9.6522 3.24465 9.20135 3.15317 8.511 3.12047C8.18155 3.12047 7.89795 2.85495 7.83335 2.51136C7.7364 1.99598 7.31095 1.625 6.81685 1.625H5.18315C4.68902 1.625 4.26358 1.99598 4.16667 2.51136C4.10206 2.85495 3.81843 3.12047 3.489 3.12047C2.79867 3.15317 2.34777 3.24465 1.98762 3.50062C1.74497 3.67306 1.53664 3.89466 1.37451 4.15274C1 4.74891 1 5.57884 1 7.23862C1 8.89845 1 9.72839 1.37451 10.3245C1.53664 10.5826 1.74497 10.8042 1.98762 10.9767C2.54812 11.375 3.32837 11.375 4.88889 11.375ZM8 7.04167C8 8.23826 7.10455 9.20833 6 9.20833C4.89543 9.20833 4 8.23826 4 7.04167C4 5.84507 4.89543 4.875 6 4.875C7.10455 4.875 8 5.84507 8 7.04167ZM9 5.01042C8.7929 5.01042 8.625 5.1923 8.625 5.41667C8.625 5.64103 8.7929 5.82292 9 5.82292H9.5C9.7071 5.82292 9.875 5.64103 9.875 5.41667C9.875 5.1923 9.7071 5.01042 9.5 5.01042H9Z" fill="white"/>
</g>
</svg>
