<svg width="28" height="28" viewBox="0 0 28 28" fill="none" xmlns="http://www.w3.org/2000/svg">
<g id="clear">
<g clip-path="url(#clip0_3544_4107)">
<path id="clear_2" d="M17.8225 10.1835C17.5859 9.94691 17.2036 9.94691 16.967 10.1835L14 13.1445L11.033 10.1775C10.7964 9.94084 10.4141 9.94084 10.1775 10.1775C9.94084 10.4141 9.94084 10.7964 10.1775 11.033L13.1445 14L10.1775 16.967C9.94084 17.2036 9.94084 17.5859 10.1775 17.8225C10.4141 18.0592 10.7964 18.0592 11.033 17.8225L14 14.8555L16.967 17.8225C17.2036 18.0592 17.5859 18.0592 17.8225 17.8225C18.0592 17.5859 18.0592 17.2036 17.8225 16.967L14.8555 14L17.8225 11.033C18.0531 10.8024 18.0531 10.4141 17.8225 10.1835Z" fill="#717171"/>
</g>
<rect x="0.25" y="0.25" width="27.5" height="27.5" rx="13.75" stroke="#717171" stroke-width="0.5"/>
</g>
<defs>
<clipPath id="clip0_3544_4107">
<rect width="28" height="28" rx="14" fill="white"/>
</clipPath>
</defs>
</svg>
