<svg width="25" height="25" viewBox="0 0 25 25" fill="none" xmlns="http://www.w3.org/2000/svg">
<g id="time-success_svgrepo.com" clip-path="url(#clip0_3463_2588)">
<path id="Vector" d="M23.5 12.5C23.5 12.8545 23.4832 13.2051 23.4504 13.551C22.8838 12.9841 22.2204 12.514 21.4871 12.1675C21.3122 7.35477 17.3555 3.50683 12.5 3.50683C7.53321 3.50683 3.50683 7.53321 3.50683 12.5C3.50683 17.3555 7.35477 21.3122 12.1675 21.4871C12.514 22.2204 12.9841 22.8838 13.551 23.4504C13.2051 23.4832 12.8545 23.5 12.5 23.5C6.42487 23.5 1.5 18.5751 1.5 12.5C1.5 6.42487 6.42487 1.5 12.5 1.5C18.5751 1.5 23.5 6.42487 23.5 12.5Z" fill="#DBA77B"/>
<path id="Vector_2" d="M13.5 12.3812L14.3426 12.8677C13.7847 13.2802 13.2902 13.7737 12.8766 14.3307L12.0174 13.8346C11.8437 13.7343 11.7115 13.5898 11.6267 13.4235C11.5 13.2274 11.5 12.9667 11.5 12.9667V6.5C11.5 5.94771 11.9477 5.5 12.5 5.5C13.0523 5.5 13.5 5.94772 13.5 6.5V12.3812Z" fill="#DBA77B"/>
<path id="Vector_3" d="M15.7929 18.2071C16.1834 17.8166 16.8166 17.8166 17.2071 18.2071L17.8482 18.8482L19.7473 16.9491C20.1379 16.5586 20.771 16.5586 21.1615 16.9491C21.5521 17.3397 21.5521 17.9728 21.1615 18.3634L18.6213 20.9036C18.5349 20.99 18.4367 21.0573 18.3318 21.1054C17.9488 21.3294 17.4487 21.2772 17.1203 20.9487L15.7929 19.6213C15.4024 19.2308 15.4024 18.5976 15.7929 18.2071Z" fill="#DBA77B"/>
<path id="Vector_4" fill-rule="evenodd" clip-rule="evenodd" d="M18.5 24.5C21.8137 24.5 24.5 21.8137 24.5 18.5C24.5 15.1863 21.8137 12.5 18.5 12.5C15.1863 12.5 12.5 15.1863 12.5 18.5C12.5 21.8137 15.1863 24.5 18.5 24.5ZM18.5 22.5181C16.2809 22.5181 14.4819 20.7191 14.4819 18.5C14.4819 16.2809 16.2809 14.4819 18.5 14.4819C20.7191 14.4819 22.5181 16.2809 22.5181 18.5C22.5181 20.7191 20.7191 22.5181 18.5 22.5181Z" fill="#DBA77B"/>
</g>
<defs>
<clipPath id="clip0_3463_2588">
<rect width="24" height="24" fill="white" transform="translate(0.5 0.5)"/>
</clipPath>
</defs>
</svg>
