<svg xmlns="http://www.w3.org/2000/svg" width="24" height="25" fill="none"><path stroke="#DBA77B" stroke-linejoin="bevel" stroke-width="2" d="M12 4.5h8.875c.069 0 .125.056.125.125v7.75a.125.125 0 0 1-.125.125h-3.75a.125.125 0 0 0-.125.125v4.75a.125.125 0 0 1-.125.125H12m0-13H3.125A.126.126 0 0 0 3 4.626V12.5m9-8v2.548c0 .033.013.065.037.089L14.25 9.35M8.4 12.5h3.475c.069 0 .125.056.125.125V17.5m-9-5v7.874c0 .069.056.126.125.126H6.6m-3.6-8h1.748a.125.125 0 0 0 .089-.037L6.6 10.7m1.8 9.8h3.475a.125.125 0 0 0 .125-.125V17.5"/></svg>