<svg width="24" height="25" viewBox="0 0 24 25" fill="none" xmlns="http://www.w3.org/2000/svg">
<g id="new_svgrepo.com">
<path id="Vector" d="M7 5.5C5.34315 5.5 4 6.84315 4 8.5V16.5C4 18.1569 5.34315 19.5 7 19.5H17C18.6569 19.5 20 18.1569 20 16.5V13C20 12.4477 20.4477 12 21 12C21.5523 12 22 12.4477 22 13V16.5C22 19.2614 19.7614 21.5 17 21.5H7C4.23858 21.5 2 19.2614 2 16.5V8.5C2 5.73858 4.23858 3.5 7 3.5H10.5C11.0523 3.5 11.5 3.94772 11.5 4.5C11.5 5.05228 11.0523 5.5 10.5 5.5H7Z" fill="#DBA77B"/>
<path id="Vector_2" fill-rule="evenodd" clip-rule="evenodd" d="M18.8432 4.08579C18.0622 3.30474 16.7958 3.30474 16.0148 4.08579L11.6807 8.41992L11.0149 12.4455C10.8918 13.1897 11.5371 13.8342 12.2811 13.71L16.3012 13.0394L20.6348 8.70582C21.4159 7.92477 21.4159 6.65844 20.6348 5.87739L18.8432 4.08579ZM13.1934 11.5302L13.549 9.37995L17.429 5.5L19.2206 7.2916L15.3401 11.1721L13.1934 11.5302Z" fill="#DBA77B"/>
</g>
</svg>
