<svg width="14" height="8" viewBox="0 0 14 8" fill="none" xmlns="http://www.w3.org/2000/svg">
<path d="M6.66667 8C6.92973 7.99217 7.17024 7.89041 7.36565 7.67123L13.0778 1.58121C13.2431 1.409 13.3333 1.18982 13.3333 0.931507C13.3333 0.414873 12.9425 0 12.4464 0C12.2059 0 11.9729 0.101761 11.8001 0.2818L6.67418 5.76908L1.53326 0.2818C1.36039 0.109589 1.13491 0 0.886885 0C0.390831 0 0 0.414873 0 0.931507C0 1.18982 0.0901917 1.409 0.255543 1.58121L5.9752 7.67123C6.17813 7.89041 6.40361 8 6.66667 8Z" fill="#6F707A"/>
</svg>
