<svg width="25" height="24" viewBox="0 0 25 24" fill="none" xmlns="http://www.w3.org/2000/svg">
<path d="M12.1667 16C12.4297 15.9922 12.6702 15.8904 12.8656 15.6712L18.5778 9.58122C18.7431 9.40901 18.8333 9.18983 18.8333 8.93151C18.8333 8.41488 18.4425 8.00001 17.9464 8.00001C17.7059 8.00001 17.4729 8.10177 17.3001 8.28181L12.1742 13.7691L7.03325 8.28181C6.86038 8.1096 6.6349 8.00001 6.38688 8.00001C5.89082 8.00001 5.49999 8.41488 5.49999 8.93151C5.49999 9.18983 5.59018 9.40901 5.75554 9.58122L11.4752 15.6712C11.6781 15.8904 11.9036 16 12.1667 16Z" fill="#6F707A"/>
</svg>
