<svg width="14" height="8" viewBox="0 0 14 8" fill="none" xmlns="http://www.w3.org/2000/svg">
<path d="M0.255543 6.41724L5.9752 0.321254C6.17061 0.101861 6.40361 0 6.66667 0C6.92973 0 7.17024 0.109696 7.36565 0.321254L13.0778 6.41724C13.2431 6.58962 13.3333 6.80901 13.3333 7.06758C13.3333 7.59256 12.9425 8 12.4464 8C12.2059 8 11.9729 7.90597 11.8001 7.71792L6.67418 2.22527L1.53326 7.71792C1.36791 7.89814 1.13491 8 0.886885 8C0.390831 8 0 7.59256 0 7.06758C0 6.81685 0.0901917 6.58962 0.255543 6.41724Z" fill="#6F707A"/>
</svg>
