<svg width="24" height="24" viewBox="0 0 24 24" fill="none" xmlns="http://www.w3.org/2000/svg">
<path d="M5.25554 14.4172L10.9752 8.32125C11.1706 8.10186 11.4036 8 11.6667 8C11.9297 8 12.1702 8.1097 12.3656 8.32125L18.0778 14.4172C18.2431 14.5896 18.3333 14.809 18.3333 15.0676C18.3333 15.5926 17.9425 16 17.4464 16C17.2059 16 16.9729 15.906 16.8001 15.7179L11.6742 10.2253L6.53325 15.7179C6.3679 15.8981 6.1349 16 5.88688 16C5.39082 16 4.99999 15.5926 4.99999 15.0676C4.99999 14.8168 5.09018 14.5896 5.25554 14.4172Z" fill="#6F707A"/>
</svg>
