<svg width="20" height="20" viewBox="0 0 20 20" fill="none" xmlns="http://www.w3.org/2000/svg">
<path d="M3.5507 8.61565H5.19551V7.7493C5.19551 7.14034 5.52824 6.81389 6.14348 6.81389H8.4663C9.08153 6.81389 9.41426 7.14034 9.41426 7.7493V8.61565H10.8268V7.7493C10.8268 7.14034 11.1595 6.81389 11.7999 6.81389H14.0034C14.65 6.81389 14.9828 7.14034 14.9828 7.7493V8.61565H16.6276V6.81389C16.6276 5.62109 15.9872 4.99958 14.8195 4.99958H5.35874C4.19105 4.99958 3.5507 5.62109 3.5507 6.81389V8.61565ZM2.00006 15.3267C2.00006 15.6657 2.21979 15.8792 2.55252 15.8792H2.94175C3.27448 15.8792 3.4942 15.6657 3.4942 15.3267V14.4227C3.56954 14.4415 3.78926 14.4541 3.94621 14.4541H16.2321C16.389 14.4541 16.6087 14.4415 16.6841 14.4227V15.3267C16.6841 15.6657 16.9038 15.8792 17.2365 15.8792H17.6258C17.9585 15.8792 18.1782 15.6657 18.1782 15.3267V11.5098C18.1782 10.2605 17.4876 9.57617 16.2321 9.57617H3.94621C2.69063 9.57617 2.00006 10.2605 2.00006 11.5098V15.3267Z" fill="#0F1121"/>
</svg>
