<svg width="20" height="14" viewBox="0 0 20 14" fill="none" xmlns="http://www.w3.org/2000/svg">
<path d="M19.1667 6.125H0.833333C0.373096 6.125 0 6.51675 0 6.99999C0 7.48324 0.373096 7.87499 0.833333 7.87499H19.1667C19.6269 7.87499 20 7.48324 20 6.99999C20 6.51675 19.6269 6.125 19.1667 6.125Z" fill="#6F707A"/>
<path d="M19.1667 0H0.833333C0.373096 0 0 0.39175 0 0.874998C0 1.35825 0.373096 1.75 0.833333 1.75H19.1667C19.6269 1.75 20 1.35825 20 0.874998C20 0.39175 19.6269 0 19.1667 0Z" fill="#6F707A"/>
<path d="M19.1667 12.25H0.833333C0.373096 12.25 0 12.6417 0 13.125C0 13.6082 0.373096 14 0.833333 14H19.1667C19.6269 14 20 13.6082 20 13.125C20 12.6417 19.6269 12.25 19.1667 12.25Z" fill="#6F707A"/>
</svg>
