<svg width="50" height="50" viewBox="0 0 50 50" fill="none" xmlns="http://www.w3.org/2000/svg">
<rect x="13.5" y="9.5" width="23" height="23" rx="11.5" stroke="#CFCFD3"/>
<g filter="url(#filter0_d_1006_1872)">
<path d="M20.6802 21.6802H24.3198V25.3198C24.3198 25.6897 24.6241 26 25 26C25.3759 26 25.6802 25.6897 25.6802 25.3198V21.6802H29.3198C29.6897 21.6802 30 21.3759 30 21C30 20.6241 29.6897 20.3198 29.3198 20.3198H25.6802V16.6802C25.6802 16.3103 25.3759 16 25 16C24.6241 16 24.3198 16.3103 24.3198 16.6802V20.3198H20.6802C20.3103 20.3198 20 20.6241 20 21C20 21.3759 20.3103 21.6802 20.6802 21.6802Z" fill="#CFCFD3"/>
</g>
<defs>
<filter id="filter0_d_1006_1872" x="-3" y="-3" width="56" height="56" filterUnits="userSpaceOnUse" color-interpolation-filters="sRGB">
<feFlood flood-opacity="0" result="BackgroundImageFix"/>
<feColorMatrix in="SourceAlpha" type="matrix" values="0 0 0 0 0 0 0 0 0 0 0 0 0 0 0 0 0 0 127 0" result="hardAlpha"/>
<feOffset dy="4"/>
<feGaussianBlur stdDeviation="10"/>
<feComposite in2="hardAlpha" operator="out"/>
<feColorMatrix type="matrix" values="0 0 0 0 0.0588235 0 0 0 0 0.0666667 0 0 0 0 0.129412 0 0 0 0.1 0"/>
<feBlend mode="normal" in2="BackgroundImageFix" result="effect1_dropShadow_1006_1872"/>
<feBlend mode="normal" in="SourceGraphic" in2="effect1_dropShadow_1006_1872" result="shape"/>
</filter>
</defs>
</svg>
