<svg width="48" height="48" viewBox="0 0 48 48" fill="none" xmlns="http://www.w3.org/2000/svg">
<rect x="7.7364" y="20" width="23" height="23" rx="11.5" transform="rotate(-45 7.7364 20)" stroke="#CFCFD3"/>
<g filter="url(#filter0_d_1006_1880)">
<path d="M21.4262 23.5355L23.9998 20.9619L26.5734 23.5355C26.835 23.7971 27.2695 23.8013 27.5353 23.5355C27.8011 23.2697 27.7969 22.8352 27.5353 22.5736L24.9617 20L27.5353 17.4264C27.7969 17.1648 27.8011 16.7303 27.5353 16.4645C27.2695 16.1987 26.835 16.2029 26.5734 16.4645L23.9998 19.0381L21.4262 16.4645C21.1646 16.2029 20.73 16.1987 20.4642 16.4645C20.1984 16.7303 20.2027 17.1648 20.4642 17.4264L23.0378 20L20.4642 22.5736C20.2027 22.8352 20.1984 23.2697 20.4642 23.5355C20.73 23.8013 21.1646 23.7971 21.4262 23.5355Z" fill="#CFCFD3"/>
</g>
<defs>
<filter id="filter0_d_1006_1880" x="-7.31348" y="-7.31348" width="62.627" height="62.627" filterUnits="userSpaceOnUse" color-interpolation-filters="sRGB">
<feFlood flood-opacity="0" result="BackgroundImageFix"/>
<feColorMatrix in="SourceAlpha" type="matrix" values="0 0 0 0 0 0 0 0 0 0 0 0 0 0 0 0 0 0 127 0" result="hardAlpha"/>
<feOffset dy="4"/>
<feGaussianBlur stdDeviation="10"/>
<feComposite in2="hardAlpha" operator="out"/>
<feColorMatrix type="matrix" values="0 0 0 0 0.0588235 0 0 0 0 0.0666667 0 0 0 0 0.129412 0 0 0 0.1 0"/>
<feBlend mode="normal" in2="BackgroundImageFix" result="effect1_dropShadow_1006_1880"/>
<feBlend mode="normal" in="SourceGraphic" in2="effect1_dropShadow_1006_1880" result="shape"/>
</filter>
</defs>
</svg>
