<svg width="19" height="14" viewBox="0 0 19 14" fill="none" xmlns="http://www.w3.org/2000/svg">
<path d="M2.33333 3.66699H12.3333M12.3333 3.66699C12.3333 5.0477 13.4526 6.16699 14.8333 6.16699C16.214 6.16699 17.3333 5.0477 17.3333 3.66699C17.3333 2.28628 16.214 1.16699 14.8333 1.16699C13.4526 1.16699 12.3333 2.28628 12.3333 3.66699ZM6.5 10.3337H15.6667M6.5 10.3337C6.5 11.7144 5.38071 12.8337 4 12.8337C2.61929 12.8337 1.5 11.7144 1.5 10.3337C1.5 8.95295 2.61929 7.83366 4 7.83366C5.38071 7.83366 6.5 8.95295 6.5 10.3337Z" stroke="#6F707A" stroke-width="1.6" stroke-linecap="round"/>
</svg>
