<svg width="73" height="28" viewBox="0 0 73 28" fill="none" xmlns="http://www.w3.org/2000/svg">
<g clip-path="url(#clip0_56_5358)">
<mask id="mask0_56_5358" style="mask-type:luminance" maskUnits="userSpaceOnUse" x="0" y="0" width="73" height="28">
<path d="M72.5145 0H0V28H72.5145V0Z" fill="white"/>
</mask>
<g mask="url(#mask0_56_5358)">
<path d="M64.4722 0H65.878C67.214 0.112304 68.3953 0.513715 69.4229 1.20423C70.4811 1.91599 71.255 2.82731 71.7446 3.93821C72.6068 5.8982 72.5603 8.6026 71.6328 10.5512C70.38 13.1873 67.7888 14.4166 64.7973 14.3118C60.5909 14.1662 57.967 11.159 57.9879 7.18895C57.9971 5.22665 58.5617 3.39187 59.9564 1.9987C61.129 0.824065 62.6344 0.157832 64.4722 0ZM68.5372 9.2969C68.9925 8.10405 69.0502 6.85125 68.7092 5.53855C68.2023 3.58764 66.4595 2.54732 64.4303 2.88878C61.6854 3.34862 61.0437 6.58115 61.6415 8.72325C62.1076 10.4018 63.1735 11.3229 64.8392 11.4868C66.4595 11.6462 67.97 10.7811 68.5372 9.2969Z" fill="#333863"/>
<path d="M14.1589 27.9992H0V0.5114C0.0418352 0.330804 0.19678 0.240506 0.464836 0.240506C9.68409 0.229883 18.9041 0.22533 28.1249 0.226847C28.1859 0.226847 28.2445 0.250831 28.2876 0.293522C28.3307 0.336213 28.355 0.394115 28.355 0.45449V13.8876C28.355 14.0409 28.2767 14.1176 28.1203 14.1176L14.31 14.0971C14.2232 14.0971 14.1798 14.1396 14.1798 14.2246L14.1589 27.9992ZM10.9237 11.0444C10.9237 11.0289 10.9268 11.0134 10.9328 10.9991C10.9389 10.9847 10.9478 10.9717 10.959 10.9607C10.9703 10.9497 10.9836 10.941 10.9982 10.9351C11.0129 10.9291 11.0286 10.9261 11.0445 10.9261H24.9803C25.0124 10.9261 25.0431 10.9135 25.0658 10.8913C25.0884 10.8692 25.1011 10.839 25.1011 10.8076V3.53222C25.1011 3.50082 25.0884 3.47071 25.0658 3.44851C25.0431 3.42631 25.0124 3.41384 24.9803 3.41384H3.37471C3.34265 3.41384 3.31191 3.42631 3.28925 3.44851C3.26659 3.47071 3.25385 3.50082 3.25385 3.53222V24.6938C3.25385 24.7253 3.26659 24.7554 3.28925 24.7775C3.31191 24.7997 3.34265 24.8122 3.37471 24.8122H10.8028C10.8348 24.8122 10.8656 24.7997 10.8882 24.7775C10.9109 24.7554 10.9237 24.7253 10.9237 24.6938V11.0444Z" fill="#333863"/>
<path d="M36.3163 9.6833V13.8925C36.3163 13.9729 36.2753 14.0131 36.1932 14.0131L33.0881 14.0245C33.0659 14.0245 33.0446 14.0159 33.0289 14.0005C33.0132 13.9851 33.0044 13.9643 33.0044 13.9425V0.459258C33.0044 0.369719 33.0501 0.32419 33.1415 0.322673C35.6826 0.313567 37.9464 0.318879 39.9328 0.338608C43.4028 0.375031 45.2319 3.36853 44.3162 6.47585C43.7166 8.50415 41.8177 9.4807 39.7398 9.53765C38.6677 9.568 37.5722 9.57255 36.4535 9.5513C36.362 9.54975 36.3163 9.5938 36.3163 9.6833ZM36.321 3.10446L36.3071 6.72395C36.3071 6.7439 36.3151 6.763 36.3295 6.7771C36.3439 6.7912 36.3634 6.7991 36.3837 6.7991L39.3471 6.8105C39.5937 6.8114 39.8381 6.767 40.0664 6.67975C40.2945 6.5925 40.5021 6.46415 40.6771 6.302C40.8521 6.13985 40.9913 5.94715 41.0865 5.7348C41.1817 5.52245 41.2311 5.29465 41.232 5.06445V4.8004C41.2337 4.33556 41.0377 3.88904 40.6868 3.55904C40.3359 3.22904 39.859 3.0426 39.361 3.04072L36.3977 3.02934C36.3774 3.02934 36.3579 3.03726 36.3435 3.05134C36.3291 3.06543 36.321 3.08454 36.321 3.10446Z" fill="#333863"/>
<path d="M55.2873 7.59805C56.3471 7.9926 56.925 8.76355 57.021 9.9109C57.1001 10.8473 57.1578 11.7996 57.193 12.7678C57.2073 13.1578 57.314 13.5357 57.5141 13.9015C57.5544 13.9758 57.5309 14.013 57.4442 14.013L54.3067 14.0221C54.2638 14.0221 54.2214 14.0098 54.1857 13.9868C54.15 13.9637 54.1214 13.9309 54.1045 13.8924C53.9371 13.5221 53.8488 13.1374 53.8396 12.7382C53.8222 11.9749 53.7865 11.2434 53.7324 10.5438C53.6614 9.60585 53.1438 9.0876 52.18 8.98895C51.6113 8.93125 50.591 8.9199 49.119 8.9548C49.0276 8.9563 48.9819 9.00185 48.9819 9.09135V13.8787C48.9819 13.9683 48.9354 14.013 48.8424 14.013L45.828 14.0221C45.7226 14.0221 45.6699 13.9713 45.6699 13.8696V0.397711C45.6699 0.377184 45.6782 0.357497 45.693 0.342982C45.7078 0.328467 45.728 0.320312 45.7489 0.320312C47.9863 0.326383 50.2842 0.327142 52.6425 0.322589C55.1199 0.318036 57.2139 1.51771 57.3558 4.09918C57.4426 5.65775 56.7509 6.7793 55.2802 7.46375C55.175 7.5123 55.1776 7.55705 55.2873 7.59805ZM48.9795 2.96324L48.9842 6.46895C48.9842 6.48525 48.9908 6.50085 49.0025 6.5124C49.0143 6.5239 49.0303 6.5304 49.047 6.5304L52.1402 6.52355C52.6246 6.5229 53.0892 6.34575 53.4312 6.03115C53.7737 5.7165 53.9657 5.29015 53.9647 4.84584V4.56812C53.9636 4.12412 53.7702 3.69875 53.4276 3.38545C53.0846 3.07216 52.62 2.89656 52.1356 2.89723L49.0423 2.90178C49.0257 2.90178 49.0097 2.90825 48.9979 2.91978C48.9862 2.93131 48.9795 2.94694 48.9795 2.96324Z" fill="#333863"/>
<path d="M28.3384 28.0002H16.0528L16.0249 16.2926C16.0249 16.0574 16.145 15.9398 16.3852 15.9398L28.2803 15.9375C28.2994 15.9375 28.3177 15.9449 28.3313 15.9581C28.3448 15.9714 28.3524 15.9894 28.3524 16.0081L28.3384 28.0002ZM25.1008 19.2565C25.1008 19.2209 25.0864 19.1868 25.0607 19.1616C25.0349 19.1364 25.0001 19.1222 24.9637 19.1222H19.4275C19.3911 19.1222 19.3563 19.1364 19.3305 19.1616C19.3048 19.1868 19.2904 19.2209 19.2904 19.2565V24.6789C19.2904 24.7146 19.3048 24.7488 19.3305 24.774C19.3563 24.7991 19.3911 24.8132 19.4275 24.8132H24.9637C25.0001 24.8132 25.0349 24.7991 25.0607 24.774C25.0864 24.7488 25.1008 24.7146 25.1008 24.6789V19.2565Z" fill="#333863"/>
<path d="M35.6191 24.4073V27.7149C35.6191 27.7908 35.5804 27.8287 35.5029 27.8287H33.1206C33.0431 27.8287 33.0044 27.7908 33.0044 27.7149V17.0043C33.0044 16.927 33.0439 16.889 33.1229 16.8905C34.5097 16.9178 35.9398 16.9178 37.4133 16.8905C39.8142 16.845 41.9037 17.6395 42.0571 20.3234C42.1872 22.5975 40.723 24.1273 38.4221 24.2343C37.5667 24.2752 36.6882 24.2806 35.7864 24.2502C35.6749 24.2472 35.6191 24.2995 35.6191 24.4073ZM35.6214 19.126L35.6121 22.0261C35.6121 22.0388 35.6173 22.051 35.6264 22.0599C35.6356 22.0689 35.648 22.0739 35.6609 22.0739L37.9804 22.083C38.1743 22.0837 38.3663 22.0484 38.5457 21.9792C38.7249 21.9099 38.888 21.8082 39.0255 21.6796C39.163 21.5511 39.2722 21.3983 39.3469 21.2301C39.4216 21.0618 39.4604 20.8814 39.461 20.699V20.4804C39.4621 20.1122 39.3078 19.7585 39.0319 19.4973C38.756 19.236 38.3811 19.0885 37.9897 19.0873L35.6702 19.0782C35.6573 19.0782 35.6449 19.0832 35.6357 19.0922C35.6266 19.1011 35.6214 19.1133 35.6214 19.126Z" fill="#333863"/>
<path d="M44.2122 25.9625L43.6009 27.7768C43.5961 27.7912 43.5867 27.8038 43.5742 27.8128C43.5618 27.8218 43.5467 27.8267 43.5312 27.8269L41.0118 27.8291C40.9998 27.8291 40.988 27.8263 40.9774 27.8209C40.9668 27.8154 40.9577 27.8076 40.9509 27.798C40.9441 27.7884 40.9397 27.7773 40.9381 27.7657C40.9366 27.7541 40.9379 27.7423 40.942 27.7313L44.9722 16.9501C44.9774 16.9361 44.9869 16.924 44.9993 16.9155C45.0118 16.9069 45.0267 16.9023 45.0419 16.9023H48.0656C48.0809 16.9023 48.0957 16.9069 48.1082 16.9155C48.1206 16.924 48.1301 16.9361 48.1354 16.9501L52.2562 27.7313C52.2602 27.7423 52.2618 27.7541 52.2602 27.7657C52.2587 27.7773 52.2541 27.7884 52.2475 27.798C52.2403 27.8076 52.2311 27.8154 52.2209 27.8209C52.2102 27.8263 52.1985 27.8291 52.1862 27.8291H49.5624C49.5469 27.829 49.5319 27.824 49.5194 27.8151C49.5069 27.8061 49.4975 27.7935 49.4927 27.7791L48.8721 25.9625C48.8673 25.9481 48.858 25.9355 48.8455 25.9265C48.833 25.9175 48.8179 25.9126 48.8024 25.9124H44.2819C44.2664 25.9126 44.2513 25.9175 44.2388 25.9265C44.2263 25.9355 44.217 25.9481 44.2122 25.9625ZM45.2232 23.768L47.9146 23.7703C48.0509 23.7703 48.0974 23.7073 48.054 23.5813L46.6038 19.3631C46.5511 19.2129 46.4992 19.2129 46.448 19.3631L45.0396 23.5222C44.9838 23.6861 45.045 23.768 45.2232 23.768Z" fill="#333863"/>
<path d="M60.7723 22.7283C61.539 23.0075 61.9694 23.5865 62.0623 24.4652C62.1378 25.1724 62.1884 25.9411 62.2134 26.7712C62.2226 27.0717 62.2971 27.3813 62.4339 27.6499C62.4819 27.747 62.4513 27.7948 62.341 27.7933L60.1888 27.7865C59.8559 27.785 59.6778 27.6218 59.6543 27.2971C59.5956 26.5003 59.5507 25.7643 59.5195 25.0889C59.4823 24.2679 59.0468 23.8407 58.2132 23.8073C57.4944 23.78 56.7399 23.7754 55.9497 23.7936C55.8471 23.7967 55.796 23.8475 55.796 23.9462L55.7986 27.6795C55.7986 27.7797 55.7475 27.8297 55.6449 27.8297H53.3395C53.2619 27.8297 53.2231 27.7918 53.2231 27.7159V16.9689C53.2231 16.9548 53.2288 16.9413 53.239 16.9311C53.2487 16.9209 53.2625 16.9149 53.2767 16.9143C55.1901 16.8885 57.0692 16.8908 58.9131 16.9211C60.9928 16.9553 62.4992 18.2528 62.3272 20.4245C62.2455 21.458 61.6416 22.0954 60.7585 22.5849C60.6589 22.641 60.6635 22.6888 60.7723 22.7283ZM55.8032 19.0336L55.794 21.7608C55.794 21.7831 55.8026 21.8046 55.819 21.8204C55.8353 21.8361 55.8568 21.845 55.8797 21.845L58.2852 21.8541C58.4674 21.8548 58.6476 21.822 58.8161 21.7579C58.984 21.6937 59.1372 21.5993 59.2663 21.4801C59.3955 21.3608 59.4981 21.2191 59.568 21.063C59.638 20.9069 59.6747 20.7394 59.6752 20.5702V20.2515C59.6762 19.9098 59.5318 19.5817 59.2724 19.3392C59.0136 19.0967 58.6619 18.9598 58.2949 18.9585L55.8889 18.9494C55.8665 18.9494 55.8445 18.9583 55.8282 18.9741C55.8123 18.9899 55.8032 19.0113 55.8032 19.0336Z" fill="#333863"/>
<path d="M68.8543 19.2789V27.7495C68.8543 27.7706 68.8456 27.7909 68.8303 27.8058C68.815 27.8208 68.7945 27.8291 68.7731 27.8291H66.263C66.2411 27.8291 66.2207 27.8208 66.2053 27.8058C66.19 27.7909 66.1814 27.7706 66.1814 27.7495V19.2766C66.1814 19.2555 66.1727 19.2352 66.1579 19.2203C66.1426 19.2053 66.1216 19.197 66.1002 19.197L62.8346 19.1947C62.8131 19.1947 62.7922 19.1863 62.7769 19.1713C62.7621 19.1564 62.7534 19.1361 62.7534 19.115L62.7555 16.982C62.7555 16.9715 62.7575 16.9612 62.7616 16.9515C62.7657 16.9418 62.7718 16.9331 62.7795 16.9257C62.7871 16.9183 62.7958 16.9124 62.806 16.9084C62.8157 16.9044 62.8264 16.9023 62.8371 16.9023H72.201C72.2225 16.9023 72.2434 16.9107 72.2587 16.9257C72.274 16.9406 72.2822 16.9609 72.2822 16.982V19.1127C72.2822 19.1232 72.2802 19.1335 72.2761 19.1432C72.272 19.1529 72.2664 19.1617 72.2587 19.1691C72.2511 19.1765 72.2419 19.1823 72.2322 19.1863C72.2225 19.1903 72.2118 19.1924 72.201 19.1924L68.9354 19.1992C68.914 19.1992 68.8936 19.2076 68.8783 19.2226C68.863 19.2375 68.8543 19.2578 68.8543 19.2789Z" fill="#333863"/>
</g>
</g>
<defs>
<clipPath id="clip0_56_5358">
<rect width="73" height="28" fill="white"/>
</clipPath>
</defs>
</svg>
