<svg width="12" height="13" viewBox="0 0 12 13" fill="none" xmlns="http://www.w3.org/2000/svg">
<path d="M0.313486 10.9341C-0.0556546 11.3032 -0.0732327 11.9624 0.322275 12.3403C0.700205 12.7358 1.36817 12.7183 1.73731 12.3491L6.00001 8.08643L10.2627 12.3491C10.6406 12.7271 11.291 12.7358 11.669 12.3403C12.0645 11.9624 12.0557 11.3032 11.6777 10.9253L7.41505 6.6626L11.6777 2.40869C12.0557 2.02197 12.0645 1.37158 11.669 0.993652C11.291 0.598145 10.6406 0.606934 10.2627 0.984863L6.00001 5.24756L1.73731 0.984863C1.36817 0.615723 0.700205 0.598145 0.322275 0.993652C-0.0732327 1.37158 -0.0556546 2.03076 0.313486 2.3999L4.57618 6.6626L0.313486 10.9341Z" fill="white"/>
</svg>
