<svg width="10" height="10" viewBox="0 0 10 10" fill="none" xmlns="http://www.w3.org/2000/svg">
<path d="M0.680069 5.68019H4.31969V9.31981C4.31969 9.68974 4.62398 10 4.99988 10C5.37577 10 5.68007 9.68974 5.68007 9.31981V5.68019H9.31969C9.68962 5.68019 9.99988 5.37589 9.99988 5C9.99988 4.6241 9.68962 4.31981 9.31969 4.31981H5.68007V0.680191C5.68007 0.310263 5.37577 0 4.99988 0C4.62398 0 4.31969 0.310263 4.31969 0.680191V4.31981H0.680069C0.31014 4.31981 -0.00012207 4.6241 -0.00012207 5C-0.00012207 5.37589 0.31014 5.68019 0.680069 5.68019Z" fill="#6F707A"/>
</svg>
