<svg width="24" height="24" viewBox="0 0 24 24" fill="none" xmlns="http://www.w3.org/2000/svg">
<path d="M16.8909 13.7777C16.3874 13.7781 15.8916 13.9011 15.4463 14.1362C15.0009 14.3713 14.6194 14.7113 14.3346 15.1269L10.0005 13.1677C10.3083 12.4235 10.3095 11.5876 10.0038 10.8425L14.332 8.87324C14.754 9.48438 15.3809 9.92383 16.0989 10.1119C16.8169 10.2999 17.5784 10.2241 18.2453 9.89819C18.9123 9.57227 19.4404 9.01784 19.734 8.33545C20.0276 7.65306 20.0672 6.88793 19.8456 6.17883C19.624 5.46974 19.1558 4.86365 18.5261 4.47051C17.8963 4.07737 17.1467 3.92322 16.4132 4.03601C15.6796 4.14881 15.0107 4.52109 14.5279 5.08531C14.045 5.64954 13.7801 6.36834 13.7813 7.11134C13.7841 7.28719 13.8019 7.46249 13.8346 7.63531L9.23341 9.72853C8.7915 9.31403 8.23828 9.03779 7.64171 8.93375C7.04513 8.82971 6.43119 8.90239 5.87532 9.14287C5.31944 9.38335 4.84583 9.78116 4.51268 10.2874C4.17953 10.7937 4.00134 11.3863 4.00001 11.9926C3.99868 12.5988 4.17426 13.1923 4.50519 13.7C4.83612 14.2077 5.30797 14.6076 5.86279 14.8505C6.41761 15.0934 7.03122 15.1688 7.62824 15.0674C8.22527 14.966 8.7797 14.6922 9.22342 14.2796L13.8365 16.3649C13.8045 16.5375 13.7869 16.7126 13.7839 16.8882C13.7838 17.5036 13.966 18.1052 14.3074 18.6169C14.6488 19.1286 15.1341 19.5275 15.702 19.763C16.2699 19.9986 16.8948 20.0603 17.4976 19.9403C18.1005 19.8202 18.6543 19.5239 19.089 19.0888C19.5236 18.6536 19.8196 18.0992 19.9395 17.4956C20.0594 16.8921 19.9978 16.2664 19.7625 15.6979C19.5272 15.1294 19.1288 14.6435 18.6176 14.3017C18.1065 13.9599 17.5056 13.7775 16.8909 13.7777ZM16.8909 5.33343C17.2421 5.3333 17.5856 5.43746 17.8777 5.63274C18.1698 5.82802 18.3975 6.10564 18.532 6.4305C18.6666 6.75536 18.7018 7.11286 18.6334 7.45778C18.5649 7.8027 18.3958 8.11956 18.1475 8.36827C17.8992 8.61698 17.5827 8.78638 17.2382 8.85503C16.8937 8.92369 16.5366 8.88852 16.2121 8.75397C15.8876 8.61943 15.6102 8.39155 15.415 8.09916C15.2198 7.80677 15.1157 7.463 15.1157 7.11134C15.116 6.64003 15.3032 6.18812 15.636 5.85479C15.9688 5.52146 16.4201 5.33396 16.8909 5.33343ZM7.12528 13.7777C6.77401 13.7778 6.4306 13.6736 6.13848 13.4783C5.84635 13.2831 5.61863 13.0054 5.48411 12.6806C5.3496 12.3557 5.31434 11.9982 5.38278 11.6533C5.45123 11.3084 5.62031 10.9915 5.86865 10.7428C6.11698 10.4941 6.43341 10.3247 6.77791 10.2561C7.12241 10.1874 7.47952 10.2226 7.80405 10.3571C8.12859 10.4917 8.40598 10.7195 8.60114 11.0119C8.79631 11.3043 8.90048 11.6481 8.90048 11.9997C8.89995 12.471 8.71277 12.9228 8.37999 13.2561C8.04721 13.5894 7.59599 13.777 7.12528 13.7777ZM16.8909 18.6661C16.5396 18.6661 16.1963 18.5618 15.9043 18.3664C15.6122 18.1711 15.3846 17.8934 15.2502 17.5685C15.1158 17.2437 15.0806 16.8862 15.1491 16.5413C15.2177 16.1964 15.3868 15.8796 15.6352 15.631C15.8835 15.3823 16.1999 15.213 16.5444 15.1444C16.8889 15.0758 17.246 15.111 17.5705 15.2456C17.895 15.3802 18.1723 15.608 18.3675 15.9004C18.5626 16.1928 18.6667 16.5365 18.6667 16.8882C18.6664 17.3596 18.4792 17.8116 18.1462 18.1449C17.8133 18.4783 17.3618 18.6657 16.8909 18.6661Z" fill="white"/>
</svg>
