<svg width="24" height="24" viewBox="0 0 24 24" fill="none" xmlns="http://www.w3.org/2000/svg">
<path d="M17.6667 6.66667H15.6C15.4453 5.91428 15.0359 5.23823 14.4408 4.75248C13.8458 4.26673 13.1015 4.00097 12.3333 4H11C10.2319 4.00097 9.48755 4.26673 8.8925 4.75248C8.29746 5.23823 7.88807 5.91428 7.73333 6.66667H5.66667C5.48986 6.66667 5.32029 6.7369 5.19526 6.86193C5.07024 6.98695 5 7.15652 5 7.33333C5 7.51014 5.07024 7.67971 5.19526 7.80474C5.32029 7.92976 5.48986 8 5.66667 8H6.33333V16.6667C6.33439 17.5504 6.68592 18.3976 7.31081 19.0225C7.93571 19.6474 8.78294 19.9989 9.66667 20H13.6667C14.5504 19.9989 15.3976 19.6474 16.0225 19.0225C16.6474 18.3976 16.9989 17.5504 17 16.6667V8H17.6667C17.8435 8 18.0131 7.92976 18.1381 7.80474C18.2631 7.67971 18.3333 7.51014 18.3333 7.33333C18.3333 7.15652 18.2631 6.98695 18.1381 6.86193C18.0131 6.7369 17.8435 6.66667 17.6667 6.66667ZM11 5.33333H12.3333C12.7469 5.33384 13.1501 5.46225 13.4877 5.70096C13.8254 5.93967 14.0809 6.27699 14.2193 6.66667H9.114C9.25239 6.27699 9.50794 5.93967 9.84559 5.70096C10.1833 5.46225 10.5865 5.33384 11 5.33333ZM15.6667 16.6667C15.6667 17.1971 15.456 17.7058 15.0809 18.0809C14.7058 18.456 14.1971 18.6667 13.6667 18.6667H9.66667C9.13624 18.6667 8.62753 18.456 8.25245 18.0809C7.87738 17.7058 7.66667 17.1971 7.66667 16.6667V8H15.6667V16.6667Z" fill="white"/>
<path d="M10.3333 16C10.5101 16 10.6797 15.9298 10.8047 15.8047C10.9298 15.6797 11 15.5101 11 15.3333V11.3333C11 11.1565 10.9298 10.987 10.8047 10.8619C10.6797 10.7369 10.5101 10.6667 10.3333 10.6667C10.1565 10.6667 9.98695 10.7369 9.86193 10.8619C9.73691 10.987 9.66667 11.1565 9.66667 11.3333V15.3333C9.66667 15.5101 9.73691 15.6797 9.86193 15.8047C9.98695 15.9298 10.1565 16 10.3333 16Z" fill="white"/>
<path d="M13 16C13.1768 16 13.3464 15.9298 13.4714 15.8047C13.5964 15.6797 13.6667 15.5101 13.6667 15.3333V11.3333C13.6667 11.1565 13.5964 10.987 13.4714 10.8619C13.3464 10.7369 13.1768 10.6667 13 10.6667C12.8232 10.6667 12.6536 10.7369 12.5286 10.8619C12.4036 10.987 12.3333 11.1565 12.3333 11.3333V15.3333C12.3333 15.5101 12.4036 15.6797 12.5286 15.8047C12.6536 15.9298 12.8232 16 13 16Z" fill="white"/>
</svg>
