<svg width="23" height="30" viewBox="0 0 23 30" fill="none" xmlns="http://www.w3.org/2000/svg">
<path fill-rule="evenodd" clip-rule="evenodd" d="M0 4C0 1.79086 1.79086 0 4 0H18.9412C21.1503 0 22.9412 1.79086 22.9412 4V26C22.9412 28.2091 21.1503 30 18.9412 30H4C1.79086 30 0 28.2091 0 26V4ZM3.27833 4.15765C3.27833 3.60537 3.72605 3.15765 4.27833 3.15765H18.6649C19.2172 3.15765 19.6649 3.60537 19.6649 4.15765V8.47344C19.6649 9.02573 19.2172 9.47344 18.6649 9.47344H4.27833C3.72605 9.47344 3.27833 9.02573 3.27833 8.47344V4.15765ZM4.27833 12.6315C3.72605 12.6315 3.27833 13.0792 3.27833 13.6315V14.7894C3.27833 15.3417 3.72605 15.7894 4.27833 15.7894H5.55564C6.10793 15.7894 6.55564 15.3417 6.55564 14.7894V13.6315C6.55564 13.0792 6.10793 12.6315 5.55564 12.6315H4.27833ZM3.27833 19.1577C3.27833 18.6054 3.72605 18.1577 4.27833 18.1577H5.55564C6.10793 18.1577 6.55564 18.6054 6.55564 19.1577V20.3155C6.55564 20.8678 6.10793 21.3155 5.55564 21.3155H4.27833C3.72605 21.3155 3.27833 20.8678 3.27833 20.3155V19.1577ZM4.27833 23.6838C3.72605 23.6838 3.27833 24.1315 3.27833 24.6838V25.8417C3.27833 26.394 3.72605 26.8417 4.27833 26.8417H5.55564C6.10793 26.8417 6.55564 26.394 6.55564 25.8417V24.6838C6.55564 24.1315 6.10793 23.6838 5.55564 23.6838H4.27833ZM9.83145 13.6315C9.83145 13.0792 10.2792 12.6315 10.8314 12.6315H12.1088C12.661 12.6315 13.1088 13.0792 13.1088 13.6315V14.7894C13.1088 15.3417 12.661 15.7894 12.1088 15.7894H10.8314C10.2792 15.7894 9.83145 15.3417 9.83145 14.7894V13.6315ZM10.8314 18.1577C10.2792 18.1577 9.83145 18.6054 9.83145 19.1577V20.3155C9.83145 20.8678 10.2792 21.3155 10.8314 21.3155H12.1088C12.661 21.3155 13.1088 20.8678 13.1088 20.3155V19.1577C13.1088 18.6054 12.661 18.1577 12.1088 18.1577H10.8314ZM9.83145 24.6838C9.83145 24.1315 10.2792 23.6838 10.8314 23.6838H12.1088C12.661 23.6838 13.1088 24.1315 13.1088 24.6838V25.8417C13.1088 26.394 12.661 26.8417 12.1088 26.8417H10.8314C10.2792 26.8417 9.83145 26.394 9.83145 25.8417V24.6838ZM17.3864 12.6315C16.8341 12.6315 16.3864 13.0792 16.3864 13.6315V14.7894C16.3864 15.3417 16.8341 15.7894 17.3864 15.7894H18.6637C19.216 15.7894 19.6637 15.3417 19.6637 14.7894V13.6315C19.6637 13.0792 19.216 12.6315 18.6637 12.6315H17.3864ZM16.3864 19.1577C16.3864 18.6054 16.8341 18.1577 17.3864 18.1577H18.6637C19.216 18.1577 19.6637 18.6054 19.6637 19.1577V20.3155C19.6637 20.8678 19.216 21.3155 18.6637 21.3155H17.3864C16.8341 21.3155 16.3864 20.8678 16.3864 20.3155V19.1577ZM17.3864 23.6838C16.8341 23.6838 16.3864 24.1315 16.3864 24.6838V25.8417C16.3864 26.394 16.8341 26.8417 17.3864 26.8417H18.6637C19.216 26.8417 19.6637 26.394 19.6637 25.8417V24.6838C19.6637 24.1315 19.216 23.6838 18.6637 23.6838H17.3864Z" fill="url(#paint0_linear_1330_877)"/>
<defs>
<linearGradient id="paint0_linear_1330_877" x1="13.9798" y1="7.62933e-07" x2="-16.6382" y2="66.3211" gradientUnits="userSpaceOnUse">
<stop stop-color="white"/>
<stop offset="1" stop-color="#333863"/>
</linearGradient>
</defs>
</svg>
