<svg width="20" height="20" viewBox="0 0 20 20" fill="none" xmlns="http://www.w3.org/2000/svg">
<path fill-rule="evenodd" clip-rule="evenodd" d="M18.8 10C18.8 14.8601 14.8601 18.8 10 18.8C5.13989 18.8 1.2 14.8601 1.2 10C1.2 5.13989 5.13989 1.2 10 1.2C14.8601 1.2 18.8 5.13989 18.8 10ZM20 10C20 15.5228 15.5228 20 10 20C4.47715 20 0 15.5228 0 10C0 4.47715 4.47715 0 10 0C15.5228 0 20 4.47715 20 10ZM8.92791 7.90909V15H10.3082V7.90909H8.92791ZM9.00639 6.57493C9.17874 6.73497 9.38494 6.81499 9.625 6.81499C9.86506 6.81499 10.0697 6.73497 10.239 6.57493C10.4113 6.41181 10.4975 6.21792 10.4975 5.99325C10.4975 5.76551 10.4113 5.57161 10.239 5.41158C10.0697 5.24846 9.86506 5.1669 9.625 5.1669C9.38494 5.1669 9.17874 5.24846 9.00639 5.41158C8.83712 5.57161 8.75249 5.76551 8.75249 5.99325C8.75249 6.21792 8.83712 6.41181 9.00639 6.57493Z" fill="#CFCFD3"/>
</svg>
