<svg width="34" height="34" viewBox="0 0 34 34" fill="none" xmlns="http://www.w3.org/2000/svg">
<path fill-rule="evenodd" clip-rule="evenodd" d="M16.7399 0C16.1876 0 15.7399 0.447716 15.7399 1V2.36139C15.3077 2.58492 14.9621 2.95241 14.7665 3.40039H5.83936C5.39949 3.40039 5.02594 3.6844 4.89211 4.07906C4.82571 4.15926 4.76974 4.25306 4.72772 4.36047L0.0685908 16.2703C-0.0891639 16.6736 0.0264039 17.1395 0.402859 17.3535C3.01803 18.8399 8.37744 18.8406 10.9953 17.3556C11.3738 17.1409 11.4887 16.6721 11.3278 16.2677L7.00404 5.40039H14.9279C15.1288 5.71189 15.409 5.96747 15.7399 6.13864V26.2002C15.7399 26.2512 15.7437 26.3012 15.751 26.3502H15.5796C13.8726 26.3502 12.4887 27.734 12.4887 29.4411C12.4887 29.6118 12.6271 29.7502 12.7978 29.7502H20.6797C20.8504 29.7502 20.9888 29.6118 20.9888 29.4411C20.9888 27.734 19.6049 26.3502 17.8978 26.3502H17.7287C17.736 26.3012 17.7399 26.2512 17.7399 26.2002V6.11194C18.049 5.94139 18.3111 5.69608 18.5019 5.40039H26.3263L22.1146 16.3102C21.9571 16.718 22.0789 17.1876 22.4626 17.3971C25.0763 18.8245 30.4065 18.8261 33.0262 17.4018C33.4144 17.1907 33.5347 16.7146 33.3704 16.3045L28.6358 4.48764C28.6382 4.45889 28.6395 4.42979 28.6395 4.40039C28.6395 3.84811 28.1918 3.40039 27.6395 3.40039H18.6632C18.4752 2.96982 18.1486 2.6136 17.7399 2.38809V1C17.7399 0.447715 17.2921 0 16.7399 0ZM6.23012 30.6002C4.52305 30.6002 3.13919 31.9841 3.13919 33.6911C3.13919 33.8618 3.27758 34.0002 3.44829 34.0002H30.0303C30.201 34.0002 30.3394 33.8618 30.3394 33.6911C30.3394 31.9841 28.9555 30.6002 27.2484 30.6002H6.23012ZM16.7224 5.31251C17.3092 5.31251 17.7849 4.83681 17.7849 4.25001C17.7849 3.6632 17.3092 3.1875 16.7224 3.1875C16.1356 3.1875 15.6599 3.6632 15.6599 4.25001C15.6599 4.83681 16.1356 5.31251 16.7224 5.31251Z" fill="url(#paint0_linear_1330_956)"/>
<defs>
<linearGradient id="paint0_linear_1330_956" x1="33.994" y1="0.010737" x2="-27.8216" y2="93.9277" gradientUnits="userSpaceOnUse">
<stop stop-color="white"/>
<stop offset="1" stop-color="#333863"/>
</linearGradient>
</defs>
</svg>
