<svg width="29" height="35" viewBox="0 0 29 35" fill="none" xmlns="http://www.w3.org/2000/svg">
<path fill-rule="evenodd" clip-rule="evenodd" d="M21.0399 0.275951C21.4261 -0.091984 22.0332 -0.0919835 22.4194 0.275952L27.7605 5.36404C28.4141 5.98664 27.9734 7.08808 27.0707 7.08808H25.3511V33.022C25.3511 33.5743 24.9034 34.022 24.3511 34.022H19.1082C18.5559 34.022 18.1082 33.5743 18.1082 33.022V7.08808H16.3885C15.4859 7.08808 15.0452 5.98663 15.6988 5.36403L21.0399 0.275951ZM9.05375 13.2937C9.05375 12.7414 9.50147 12.2937 10.0538 12.2937H15.2966C15.8489 12.2937 16.2966 12.7414 16.2966 13.2937V33.0223C16.2966 33.5746 15.8489 34.0223 15.2966 34.0223H10.0538C9.50147 34.0223 9.05375 33.5746 9.05375 33.0223V13.2937ZM0 20.5349C0 19.9826 0.447715 19.5349 1 19.5349H6.24286C6.79515 19.5349 7.24287 19.9826 7.24287 20.5349V33.0206C7.24287 33.5729 6.79515 34.0206 6.24287 34.0206H1C0.447716 34.0206 0 33.5729 0 33.0206V20.5349Z" fill="url(#paint0_linear_1330_970)"/>
<defs>
<linearGradient id="paint0_linear_1330_970" x1="28.5361" y1="0.010744" x2="-36.8751" y2="83.3807" gradientUnits="userSpaceOnUse">
<stop stop-color="white"/>
<stop offset="1" stop-color="#333863"/>
</linearGradient>
</defs>
</svg>
