<svg width="25" height="32" viewBox="0 0 25 32" fill="none" xmlns="http://www.w3.org/2000/svg">
<path fill-rule="evenodd" clip-rule="evenodd" d="M1 3C1 1.89543 1.89543 1 3 1H22.3333C23.4379 1 24.3333 1.89543 24.3333 3V29C24.3333 30.1046 23.4379 31 22.3333 31H3C1.89543 31 1 30.1046 1 29V3ZM6.83271 25.7496C6.83271 25.3354 7.1685 24.9996 7.58271 24.9996H17.7494C18.1636 24.9996 18.4994 25.3354 18.4994 25.7496C18.4994 26.1638 18.1636 26.4996 17.7494 26.4996H7.58271C7.1685 26.4996 6.83271 26.1638 6.83271 25.7496ZM12.6654 19.1328C12.6647 19.1327 12.6637 19.1325 12.6625 19.1322C12.6572 19.131 12.6433 19.1271 12.6203 19.1162C12.5728 19.0935 12.4868 19.0406 12.3705 18.9261C12.1289 18.6884 11.8381 18.2654 11.5593 17.6167C11.4429 17.3459 11.3341 17.0485 11.2348 16.7275H14.0997C14.0005 17.0485 13.8917 17.3459 13.7753 17.6167C13.4965 18.2654 13.2056 18.6884 12.9641 18.9261C12.8478 19.0406 12.7618 19.0935 12.7142 19.1162C12.6912 19.1271 12.6774 19.131 12.6721 19.1322C12.6693 19.1329 12.6678 19.1331 12.6675 19.1331L12.6673 19.1331L12.6671 19.1331C12.6669 19.1331 12.6663 19.133 12.6654 19.1328ZM14.4768 15.1275H10.8577C10.7077 14.2549 10.6214 13.2842 10.6214 12.2499C10.6214 12.0511 10.6246 11.8547 10.6308 11.6609H14.7037C14.7099 11.8547 14.7131 12.0511 14.7131 12.2499C14.7131 13.2842 14.6269 14.2549 14.4768 15.1275ZM9.02144 12.2499C9.02144 12.0519 9.02436 11.8555 9.03009 11.6609H5.62235C5.59695 11.9227 5.58393 12.1884 5.58393 12.4574C5.58393 13.396 5.74249 14.2955 6.03282 15.1275H9.23656C9.09733 14.229 9.02144 13.2601 9.02144 12.2499ZM11.5593 6.88306C11.2002 7.71857 10.9133 8.80689 10.7554 10.0609H14.5791C14.4212 8.80689 14.1344 7.71857 13.7753 6.88306C13.4965 6.23433 13.2056 5.81133 12.9641 5.57363C12.8478 5.45915 12.7618 5.40623 12.7142 5.38357C12.6912 5.37263 12.6774 5.36878 12.6721 5.36753C12.6693 5.36686 12.6678 5.36668 12.6675 5.36664L12.6673 5.36662L12.6671 5.36664C12.6667 5.36668 12.6653 5.36686 12.6625 5.36753C12.6572 5.36878 12.6433 5.37263 12.6203 5.38357C12.5728 5.40623 12.4868 5.45915 12.3705 5.57363C12.1289 5.81133 11.8381 6.23433 11.5593 6.88306ZM16.3131 12.2499C16.3131 12.0519 16.3102 11.8555 16.3045 11.6609H20.1288C20.1542 11.9227 20.1673 12.1884 20.1673 12.4574C20.1673 13.396 20.0087 14.2955 19.7184 15.1275H16.098C16.2372 14.229 16.3131 13.2601 16.3131 12.2499ZM16.1906 10.0609H19.8083C19.0219 7.51418 17.0159 5.55074 14.5201 4.94226C15.3322 6.05951 15.942 7.88882 16.1906 10.0609ZM15.7645 16.7275H18.9484C17.855 18.4636 16.1138 19.7041 14.09 20.063C14.7849 19.377 15.3694 18.2038 15.7645 16.7275ZM5.94285 10.0609H9.14398C9.38185 7.98267 9.9503 6.21822 10.7103 5.09104C8.45826 5.83074 6.67382 7.69389 5.94285 10.0609ZM11.1332 19.9479C9.33568 19.4817 7.7999 18.3107 6.80277 16.7275H9.57009C9.94384 18.1243 10.4872 19.2497 11.1332 19.9479Z" fill="url(#paint0_linear_1330_896)"/>
<defs>
<linearGradient id="paint0_linear_1330_896" x1="15.2188" y1="1" x2="-15.062" y2="67.7117" gradientUnits="userSpaceOnUse">
<stop stop-color="white"/>
<stop offset="1" stop-color="#333863"/>
</linearGradient>
</defs>
</svg>
