<svg width="48" height="56" viewBox="0 0 48 56" fill="none" xmlns="http://www.w3.org/2000/svg">
<path d="M12 24.3372C12 29.3501 16.2145 34.3042 22.7652 38.5304C23.1291 38.7652 23.5752 39 23.8805 39C24.1857 39 24.6318 38.7652 24.9957 38.5304C31.5582 34.3042 35.7609 29.3501 35.7609 24.3372C35.7609 20.0053 32.7673 17 28.9285 17C26.6862 17 24.937 18.0213 23.8805 19.571C22.8474 18.0331 21.0864 17 18.8442 17C14.9936 17 12 20.0053 12 24.3372ZM14.4184 24.3255C14.4184 21.3671 16.3671 19.3597 18.9851 19.3597C21.0982 19.3597 22.2839 20.6393 23.0235 21.7545C23.3522 22.2359 23.5752 22.3885 23.8805 22.3885C24.1974 22.3885 24.397 22.2241 24.7375 21.7545C25.5358 20.6628 26.6745 19.3597 28.7759 19.3597C31.4055 19.3597 33.3543 21.3671 33.3543 24.3255C33.3543 28.4578 29.0576 33.0363 24.1035 36.3234C23.9979 36.3938 23.9274 36.4408 23.8805 36.4408C23.8335 36.4408 23.7631 36.3938 23.6692 36.3234C18.715 33.0363 14.4184 28.4578 14.4184 24.3255Z" fill="#6F707A"/>
</svg>
